<svg width="32" height="17" viewBox="0 0 32 17" fill="none" xmlns="http://www.w3.org/2000/svg">
<g id="Layer_1" clip-path="url(#clip0_639_5987)">
<path id="Vector" d="M20.3791 2.95211L20.9932 0H2.958L0 14.1934H15.0795L14.2491 18H28.6938L31.8795 2.95211H20.3791Z" fill="white"/>
<path id="Vector_2" d="M6.14721 12.3816C5.73839 12.3816 5.35207 12.3144 4.9888 12.1794C4.62554 12.045 4.30841 11.8463 4.03798 11.5839C3.76755 11.3215 3.5542 10.9988 3.39737 10.6153C3.24053 10.2318 3.16211 9.79154 3.16211 9.29393C3.16211 8.61383 3.2561 7.99398 3.44465 7.43495C3.6332 6.87593 3.89555 6.39685 4.23172 5.99713C4.56788 5.598 4.97093 5.28865 5.44144 5.06967C5.91138 4.8507 6.42629 4.74121 6.98502 4.74121C7.36212 4.74121 7.71962 4.80725 8.05867 4.93991C8.39713 5.07257 8.69351 5.2649 8.9478 5.51863C9.20208 5.77179 9.40447 6.08345 9.55439 6.45304C9.70431 6.82263 9.77926 7.24726 9.77926 7.72634C9.77926 7.79933 9.77696 7.88507 9.77235 7.98297C9.76773 8.08145 9.76081 8.18167 9.75159 8.28421C9.74236 8.38674 9.73314 8.48754 9.72449 8.58544C9.71526 8.68334 9.70431 8.76676 9.69047 8.83512H4.39547C4.39086 8.89942 4.3874 8.96083 4.3851 9.01992C4.38279 9.07959 4.38164 9.14099 4.38164 9.20471C4.38164 9.58358 4.43641 9.90625 4.54539 10.1733C4.65437 10.4404 4.79622 10.6582 4.97151 10.8273C5.14622 10.9965 5.34284 11.1181 5.5608 11.1935C5.77876 11.2688 5.99902 11.3064 6.22159 11.3064C6.70767 11.3064 7.09861 11.2218 7.39384 11.0533C7.68906 10.8847 7.91394 10.6564 8.06847 10.3685H9.31567C9.23841 10.6518 9.11098 10.9165 8.93396 11.1627C8.75694 11.4089 8.53321 11.6227 8.26278 11.8029C7.99236 11.983 7.67868 12.125 7.32234 12.2275C6.96599 12.33 6.5739 12.3816 6.14721 12.3816ZM8.53898 7.88333C8.54359 7.86074 8.54705 7.81845 8.54936 7.75647C8.55167 7.69506 8.55282 7.63423 8.55282 7.57514C8.55282 7.333 8.51765 7.10359 8.4473 6.88694C8.37695 6.67028 8.27143 6.47969 8.13017 6.31517C7.98947 6.15065 7.81418 6.02088 7.60545 5.92472C7.39614 5.82914 7.15339 5.78105 6.87604 5.78105C6.59408 5.78105 6.33057 5.83145 6.08551 5.93167C5.83988 6.03189 5.61731 6.17498 5.4178 6.35977C5.21772 6.54457 5.04531 6.76586 4.90001 7.02365C4.7547 7.28144 4.6388 7.56819 4.55231 7.88275H8.53898V7.88333Z" fill="#02262B"/>
<path id="Vector_3" d="M13.1226 12.3812C12.7547 12.3812 12.4093 12.3117 12.0864 12.1721C11.7635 12.0331 11.481 11.8332 11.2382 11.5731C10.9949 11.313 10.8029 10.9979 10.6622 10.6283C10.5215 10.2587 10.4512 9.84564 10.4512 9.38916C10.4512 8.94657 10.4956 8.5231 10.5838 8.11933C10.672 7.71556 10.7983 7.34133 10.962 6.99665C11.1258 6.65196 11.3219 6.3403 11.5513 6.06224C11.7808 5.78359 12.0351 5.54666 12.3148 5.35028C12.5944 5.1539 12.896 5.00328 13.2212 4.89842C13.5458 4.79357 13.8855 4.74085 14.2401 4.74085C14.5036 4.74085 14.7544 4.77735 14.9931 4.85034C15.2318 4.92333 15.4475 5.02471 15.6406 5.15505C15.8338 5.2854 15.9993 5.44239 16.1383 5.62718C16.2766 5.81198 16.3781 6.01416 16.4416 6.23313H16.5505L17.457 1.93994H18.6494L16.4687 12.2515H15.3373L15.5484 11.2452H15.4394C15.1713 11.5969 14.8351 11.8738 14.4309 12.0771C14.0267 12.2793 13.5902 12.3812 13.1226 12.3812ZM13.4974 11.32C13.8791 11.32 14.232 11.2302 14.5572 11.0494C14.8818 10.8693 15.1649 10.6225 15.4054 10.3102C15.6464 9.99742 15.835 9.63014 15.971 9.20783C16.1071 8.78552 16.1757 8.3302 16.1757 7.84185C16.1757 7.52671 16.1325 7.24401 16.046 6.99259C15.9595 6.74176 15.8367 6.52799 15.6781 6.35247C15.519 6.17694 15.3258 6.0408 15.0986 5.94522C14.8715 5.84906 14.6149 5.80155 14.3283 5.80155C13.9512 5.80155 13.6012 5.88613 13.2789 6.05471C12.956 6.22386 12.6769 6.45848 12.4405 6.75971C12.2041 7.06095 12.0178 7.4207 11.8817 7.83779C11.7457 8.25489 11.677 8.71311 11.677 9.21073C11.677 9.52124 11.7214 9.80625 11.8102 10.0664C11.899 10.3265 12.0224 10.5489 12.1816 10.7337C12.3407 10.9185 12.5316 11.0622 12.7541 11.1653C12.9767 11.2684 13.2247 11.32 13.4974 11.32Z" fill="#02262B"/>
<g id="Group">
<path id="Vector_4" d="M29.3459 4.89209H26.686L23.7845 8.50113H23.6415L22.1072 4.89209H19.4167L21.7232 10.1342L16.7441 16.0598H19.3683L22.5638 12.2533H22.7795L24.5059 16.0598H27.1462L24.5929 10.3966L29.3459 4.89209Z" fill="#02262B"/>
</g>
</g>
<defs>
<clipPath id="clip0_639_5987">
<rect width="31.8795" height="16.1067" fill="white"/>
</clipPath>
</defs>
</svg>
