<svg width="14" height="14" viewBox="0 0 14 14" fill="none" xmlns="http://www.w3.org/2000/svg">
<g id="Frame" clip-path="url(#clip0_639_8554)">
<g id="feather-pen--change-edit-feather-modify-quill-write-writing">
<path id="Subtract" d="M3.71848 11.6485C5.32185 11.6509 6.89666 11.2242 8.27941 10.4125C8.46125 10.3059 8.44621 10.0439 8.25727 9.95013L7.27344 9.46095C8.1766 9.46095 10.0078 9.09537 10.0078 9.09537C11.9621 7.19552 12.9555 4.45513 12.7006 1.75576C12.6897 1.63835 12.638 1.52847 12.5547 1.44509C12.4713 1.36171 12.3614 1.31008 12.244 1.29912C10.8347 1.16423 9.41349 1.36078 8.09375 1.87306C8.09375 1.87306 7.64203 2.93728 7.54687 3.44533L6.99344 2.67505C6.95419 2.61974 6.89546 2.58135 6.82905 2.5676C6.76264 2.55385 6.69349 2.56577 6.63551 2.60095C4.06438 4.18005 2.35156 6.82501 2.35156 10.418" stroke="#212121" stroke-width="0.8125" stroke-linecap="round" stroke-linejoin="round"/>
<path id="Vector 213" d="M1.25781 12.7422C2.625 8.77734 7 5.35937 10.5547 3.44531" stroke="#212121" stroke-width="0.8125" stroke-linecap="round" stroke-linejoin="round"/>
</g>
</g>
<defs>
<clipPath id="clip0_639_8554">
<rect width="14" height="14" fill="white"/>
</clipPath>
</defs>
</svg>
