<svg width="69" height="10" viewBox="0 0 69 10" fill="none" xmlns="http://www.w3.org/2000/svg">
<path d="M3.72097 2.8553V3.70757H0.19256V2.8553H3.72097ZM1.24938 9.40076V1.95189C1.24938 1.57689 1.33745 1.26439 1.51358 1.01439C1.68972 0.764393 1.91841 0.576893 2.19966 0.451893C2.48091 0.326893 2.77779 0.264393 3.09029 0.264393C3.33745 0.264393 3.53915 0.284279 3.6954 0.324052C3.85165 0.363825 3.96813 0.400756 4.04483 0.434847L3.75506 1.30417C3.70392 1.28712 3.6329 1.26581 3.54199 1.24025C3.45392 1.21468 3.33745 1.20189 3.19256 1.20189C2.86017 1.20189 2.62012 1.2857 2.47239 1.45331C2.3275 1.62093 2.25506 1.86667 2.25506 2.19053V9.40076H1.24938ZM7.51998 9.53712C6.92907 9.53712 6.4106 9.3965 5.96458 9.11525C5.5214 8.834 5.1748 8.44053 4.9248 7.93485C4.67765 7.42917 4.55407 6.83826 4.55407 6.16212C4.55407 5.4803 4.67765 4.88513 4.9248 4.37661C5.1748 3.86809 5.5214 3.4732 5.96458 3.19195C6.4106 2.9107 6.92907 2.77008 7.51998 2.77008C8.11088 2.77008 8.62793 2.9107 9.07111 3.19195C9.51713 3.4732 9.86373 3.86809 10.1109 4.37661C10.3609 4.88513 10.4859 5.4803 10.4859 6.16212C10.4859 6.83826 10.3609 7.42917 10.1109 7.93485C9.86373 8.44053 9.51713 8.834 9.07111 9.11525C8.62793 9.3965 8.11088 9.53712 7.51998 9.53712ZM7.51998 8.63371C7.96884 8.63371 8.33816 8.51865 8.62793 8.28854C8.9177 8.05843 9.13219 7.75587 9.2714 7.38087C9.4106 7.00587 9.4802 6.59962 9.4802 6.16212C9.4802 5.72462 9.4106 5.31695 9.2714 4.93911C9.13219 4.56127 8.9177 4.25587 8.62793 4.02292C8.33816 3.78996 7.96884 3.67348 7.51998 3.67348C7.07111 3.67348 6.70179 3.78996 6.41202 4.02292C6.12225 4.25587 5.90776 4.56127 5.76855 4.93911C5.62935 5.31695 5.55975 5.72462 5.55975 6.16212C5.55975 6.59962 5.62935 7.00587 5.76855 7.38087C5.90776 7.75587 6.12225 8.05843 6.41202 8.28854C6.70179 8.51865 7.07111 8.63371 7.51998 8.63371ZM16.146 6.72462V2.8553H17.1517V9.40076H16.146V8.2928H16.0779C15.9244 8.62519 15.6858 8.90786 15.3619 9.14081C15.0381 9.37093 14.629 9.48598 14.1347 9.48598C13.7256 9.48598 13.3619 9.3965 13.0438 9.21752C12.7256 9.0357 12.4756 8.76297 12.2938 8.39934C12.1119 8.03286 12.021 7.57121 12.021 7.01439V2.8553H13.0267V6.94621C13.0267 7.42348 13.1602 7.80417 13.4273 8.08826C13.6972 8.37235 14.0409 8.51439 14.4585 8.51439C14.7085 8.51439 14.9628 8.45047 15.2213 8.32263C15.4827 8.19479 15.7014 7.99877 15.8776 7.73456C16.0566 7.47036 16.146 7.13371 16.146 6.72462ZM19.9994 5.46326V9.40076H18.9937V2.8553H19.9653V3.87803H20.0505C20.2039 3.54564 20.4369 3.2786 20.7494 3.07689C21.0619 2.87235 21.4653 2.77008 21.9596 2.77008C22.4028 2.77008 22.7906 2.86098 23.123 3.0428C23.4553 3.22178 23.7139 3.49451 23.8985 3.86098C24.0832 4.22462 24.1755 4.68485 24.1755 5.24167V9.40076H23.1698V5.30985C23.1698 4.79564 23.0363 4.39507 22.7693 4.10814C22.5022 3.81837 22.1357 3.67348 21.6698 3.67348C21.3488 3.67348 21.0619 3.74309 20.809 3.88229C20.559 4.0215 20.3616 4.22462 20.2167 4.49167C20.0718 4.75871 19.9994 5.08257 19.9994 5.46326ZM28.4848 9.53712C27.9394 9.53712 27.4578 9.39934 27.0402 9.12377C26.6226 8.84536 26.2959 8.45331 26.0601 7.94763C25.8243 7.43911 25.7064 6.83826 25.7064 6.14508C25.7064 5.45757 25.8243 4.86098 26.0601 4.3553C26.2959 3.84962 26.624 3.459 27.0445 3.18343C27.4649 2.90786 27.9507 2.77008 28.5019 2.77008C28.928 2.77008 29.2646 2.8411 29.5118 2.98314C29.7618 3.12235 29.9521 3.28144 30.0828 3.46042C30.2164 3.63655 30.32 3.78144 30.3939 3.89507H30.4791V0.673484H31.4848V9.40076H30.5132V8.39507H30.3939C30.32 8.51439 30.2149 8.66496 30.0786 8.84678C29.9422 9.02576 29.7476 9.18627 29.4948 9.32831C29.2419 9.46752 28.9053 9.53712 28.4848 9.53712ZM28.6212 8.63371C29.0246 8.63371 29.3655 8.5286 29.6439 8.31837C29.9223 8.1053 30.134 7.81127 30.2789 7.43627C30.4237 7.05843 30.4962 6.62235 30.4962 6.12803C30.4962 5.63939 30.4252 5.21184 30.2831 4.84536C30.1411 4.47604 29.9308 4.18911 29.6524 3.98456C29.374 3.77718 29.0303 3.67348 28.6212 3.67348C28.195 3.67348 27.8399 3.78286 27.5558 4.00161C27.2746 4.21752 27.0629 4.51155 26.9209 4.88371C26.7817 5.25303 26.7121 5.6678 26.7121 6.12803C26.7121 6.59394 26.7831 7.01723 26.9252 7.39792C27.07 7.77576 27.2831 8.07689 27.5644 8.30132C27.8485 8.52292 28.2007 8.63371 28.6212 8.63371ZM36.2107 9.53712C35.58 9.53712 35.036 9.39792 34.5786 9.11951C34.124 8.83826 33.7732 8.44621 33.526 7.94337C33.2817 7.43769 33.1595 6.84962 33.1595 6.17917C33.1595 5.50871 33.2817 4.9178 33.526 4.40644C33.7732 3.89223 34.1169 3.49167 34.5573 3.20473C35.0004 2.91496 35.5175 2.77008 36.1084 2.77008C36.4493 2.77008 36.786 2.82689 37.1183 2.94053C37.4507 3.05417 37.7533 3.23882 38.026 3.49451C38.2987 3.74735 38.5161 4.08257 38.678 4.50019C38.8399 4.9178 38.9209 5.43201 38.9209 6.0428V6.46894H33.8754V5.59962H37.8982C37.8982 5.2303 37.8243 4.90076 37.6766 4.61098C37.5317 4.32121 37.3243 4.09252 37.0544 3.9249C36.7874 3.75729 36.472 3.67348 36.1084 3.67348C35.7078 3.67348 35.3612 3.77292 35.0686 3.97178C34.7789 4.1678 34.5558 4.42348 34.3996 4.73882C34.2433 5.05417 34.1652 5.39223 34.1652 5.75303V6.33258C34.1652 6.82689 34.2504 7.24593 34.4209 7.58968C34.5942 7.93059 34.8343 8.19053 35.1411 8.36951C35.4479 8.54564 35.8044 8.63371 36.2107 8.63371C36.4749 8.63371 36.7135 8.59678 36.9266 8.52292C37.1425 8.44621 37.3286 8.33258 37.4848 8.18201C37.6411 8.0286 37.7618 7.83826 37.847 7.61098L38.8186 7.88371C38.7164 8.21326 38.5445 8.50303 38.303 8.75303C38.0615 9.00019 37.7632 9.19337 37.4081 9.33258C37.053 9.46894 36.6539 9.53712 36.2107 9.53712ZM40.4507 9.40076V2.8553H41.4223V3.84394H41.4905C41.6098 3.52008 41.8257 3.25729 42.1382 3.05559C42.4507 2.85388 42.803 2.75303 43.195 2.75303C43.2689 2.75303 43.3612 2.75445 43.472 2.75729C43.5828 2.76013 43.6666 2.76439 43.7235 2.77008V3.7928C43.6894 3.78428 43.6112 3.7715 43.4891 3.75445C43.3698 3.73456 43.2433 3.72462 43.1098 3.72462C42.7916 3.72462 42.5075 3.79138 42.2575 3.9249C42.0104 4.05559 41.8144 4.2374 41.6695 4.47036C41.5274 4.70047 41.4564 4.96326 41.4564 5.25871V9.40076H40.4507ZM44.8985 9.46894C44.6883 9.46894 44.5079 9.39365 44.3573 9.24309C44.2068 9.09252 44.1315 8.91212 44.1315 8.70189C44.1315 8.49167 44.2068 8.31127 44.3573 8.1607C44.5079 8.01013 44.6883 7.93485 44.8985 7.93485C45.1088 7.93485 45.2892 8.01013 45.4397 8.1607C45.5903 8.31127 45.6656 8.49167 45.6656 8.70189C45.6656 8.8411 45.6301 8.96894 45.559 9.08542C45.4909 9.20189 45.3985 9.29564 45.282 9.36667C45.1684 9.43485 45.0406 9.46894 44.8985 9.46894ZM47.4703 9.40076V2.8553H48.4419V3.87803H48.5271C48.6634 3.5286 48.8836 3.25729 49.1876 3.06411C49.4916 2.86809 49.8566 2.77008 50.2828 2.77008C50.7146 2.77008 51.074 2.86809 51.3609 3.06411C51.6507 3.25729 51.8765 3.5286 52.0384 3.87803H52.1066C52.2742 3.53996 52.5257 3.2715 52.8609 3.07263C53.1961 2.87093 53.5981 2.77008 54.0669 2.77008C54.6521 2.77008 55.1308 2.95331 55.5029 3.31979C55.8751 3.68343 56.0612 4.25019 56.0612 5.02007V9.40076H55.0555V5.02007C55.0555 4.53712 54.9234 4.19195 54.6592 3.98456C54.395 3.77718 54.0839 3.67348 53.7259 3.67348C53.2657 3.67348 52.9092 3.81269 52.6563 4.0911C52.4035 4.36667 52.2771 4.7161 52.2771 5.13939V9.40076H51.2544V4.9178C51.2544 4.54564 51.1336 4.24593 50.8921 4.01865C50.6507 3.78854 50.3396 3.67348 49.9589 3.67348C49.6975 3.67348 49.4532 3.74309 49.2259 3.88229C49.0015 4.0215 48.8197 4.21468 48.6805 4.46184C48.5441 4.70615 48.4759 4.98882 48.4759 5.30985V9.40076H47.4703ZM59.8261 9.55417C59.4113 9.55417 59.0349 9.47604 58.6968 9.31979C58.3588 9.1607 58.0903 8.93201 57.8914 8.63371C57.6926 8.33258 57.5931 7.96894 57.5931 7.5428C57.5931 7.1678 57.667 6.86382 57.8147 6.63087C57.9624 6.39507 58.1599 6.21042 58.407 6.07689C58.6542 5.94337 58.9269 5.84394 59.2252 5.7786C59.5264 5.71042 59.8289 5.65644 60.1329 5.61667C60.5306 5.56553 60.8531 5.52718 61.1002 5.50161C61.3502 5.4732 61.532 5.42632 61.6457 5.36098C61.7622 5.29564 61.8204 5.18201 61.8204 5.02007V4.98598C61.8204 4.56553 61.7053 4.23882 61.4752 4.00587C61.248 3.77292 60.9028 3.65644 60.4397 3.65644C59.9596 3.65644 59.5832 3.76155 59.3105 3.97178C59.0377 4.18201 58.846 4.40644 58.7352 4.64507L57.7806 4.30417C57.9511 3.90644 58.1784 3.59678 58.4624 3.37519C58.7494 3.15076 59.0619 2.99451 59.3999 2.90644C59.7409 2.81553 60.0761 2.77008 60.4056 2.77008C60.6159 2.77008 60.8573 2.79564 61.1301 2.84678C61.4056 2.89507 61.6713 2.99593 61.9269 3.14934C62.1855 3.30275 62.3999 3.53428 62.5704 3.84394C62.7409 4.1536 62.8261 4.56837 62.8261 5.08826V9.40076H61.8204V8.51439H61.7693C61.7011 8.65644 61.5874 8.80843 61.4284 8.97036C61.2693 9.13229 61.0576 9.27008 60.7934 9.38371C60.5292 9.49735 60.2068 9.55417 59.8261 9.55417ZM59.9795 8.65076C60.3772 8.65076 60.7124 8.57263 60.9852 8.41638C61.2607 8.26013 61.4681 8.05843 61.6073 7.81127C61.7494 7.56411 61.8204 7.30417 61.8204 7.03144V6.11098C61.7778 6.16212 61.684 6.209 61.5392 6.25161C61.3971 6.29138 61.2323 6.32689 61.0448 6.35814C60.8602 6.38655 60.6798 6.41212 60.5036 6.43485C60.3303 6.45473 60.1897 6.47178 60.0818 6.48598C59.8204 6.52007 59.5761 6.57547 59.3488 6.65218C59.1244 6.72604 58.9426 6.83826 58.8034 6.98882C58.667 7.13655 58.5988 7.33826 58.5988 7.59394C58.5988 7.94337 58.7281 8.20757 58.9866 8.38655C59.248 8.56269 59.5789 8.65076 59.9795 8.65076ZM64.6617 9.40076V2.8553H65.6673V9.40076H64.6617ZM65.173 1.76439C64.977 1.76439 64.808 1.69763 64.6659 1.56411C64.5267 1.43059 64.4571 1.27008 64.4571 1.08258C64.4571 0.895075 64.5267 0.734564 64.6659 0.601041C64.808 0.467518 64.977 0.400757 65.173 0.400757C65.3691 0.400757 65.5367 0.467518 65.6759 0.601041C65.8179 0.734564 65.8889 0.895075 65.8889 1.08258C65.8889 1.27008 65.8179 1.43059 65.6759 1.56411C65.5367 1.69763 65.3691 1.76439 65.173 1.76439ZM68.515 0.673484V9.40076H67.5093V0.673484H68.515Z" fill="black"/>
</svg>
