<svg width="160" height="160" viewBox="0 0 160 160" fill="none" xmlns="http://www.w3.org/2000/svg">
<path d="M17.0059 81.4651C17.0059 89.8487 18.6571 98.1502 21.8654 105.896C25.0736 113.641 29.7761 120.679 35.7042 126.607C41.6323 132.535 48.6699 137.237 56.4153 140.446C64.1608 143.654 72.4623 145.305 80.8459 145.305C89.2295 145.305 97.5309 143.654 105.276 140.446C113.022 137.237 120.059 132.535 125.988 126.607C131.916 120.679 136.618 113.641 139.826 105.896C143.035 98.1502 144.686 89.8487 144.686 81.4651C144.686 73.0815 143.035 64.78 139.826 57.0346C136.618 49.2892 131.916 42.2515 125.988 36.3234C120.059 30.3953 113.022 25.6929 105.276 22.4847C97.5309 19.2764 89.2295 17.6251 80.8459 17.6251C72.4623 17.6251 64.1608 19.2764 56.4153 22.4847C48.6699 25.6929 41.6323 30.3953 35.7042 36.3234C29.7761 42.2515 25.0736 49.2892 21.8654 57.0346C18.6571 64.78 17.0059 73.0815 17.0059 81.4651Z" fill="#E6E6E6"/>
<path d="M91.3626 86.7336C90.8774 89.1618 89.5674 91.3474 87.6548 92.92C85.7422 94.4927 83.3446 95.3555 80.8684 95.3623C78.3923 95.369 75.99 94.5193 74.0688 92.9572C72.1476 91.395 70.8258 89.2165 70.3273 86.7911C65.2013 89.0267 60.8411 92.7127 57.7835 97.3951C54.726 102.078 53.1047 107.552 53.1192 113.144V115.04C53.1197 115.277 53.2142 115.505 53.382 115.672C53.5499 115.84 53.7774 115.934 54.0146 115.934H63.8619V137.209H97.8424V115.934H107.669C107.906 115.934 108.133 115.84 108.301 115.672C108.469 115.505 108.563 115.277 108.563 115.04V112.361C108.56 106.865 106.924 101.494 103.861 96.9305C100.798 92.3673 96.4478 88.8179 91.3626 86.7336Z" fill="#EAEAEA"/>
<path d="M87.1022 85.4041V79.2659H74.5816V85.3817C73.1281 85.7339 71.7057 86.2036 70.3282 86.7862C70.8258 89.2126 72.1472 91.3921 74.0685 92.9552C75.9899 94.5183 78.3927 95.3687 80.8695 95.3621C83.3464 95.3555 85.7447 94.4924 87.6576 92.9192C89.5706 91.3459 90.8805 89.1593 91.3651 86.7304C89.9816 86.1757 88.5562 85.7322 87.1022 85.4041Z" fill="white"/>
<path d="M87.1022 85.4041V79.2659H74.5816V85.3817C73.1281 85.7339 71.7057 86.2036 70.3282 86.7862C70.8258 89.2126 72.1472 91.3921 74.0685 92.9552C75.9899 94.5183 78.3927 95.3687 80.8695 95.3621C83.3464 95.3555 85.7447 94.4924 87.6576 92.9192C89.5706 91.3459 90.8805 89.1593 91.3651 86.7304C89.9816 86.1757 88.5562 85.7322 87.1022 85.4041Z" stroke="#212121" stroke-linecap="round" stroke-linejoin="round"/>
<path d="M98.8209 60.3693V55.8733C98.8433 53.4979 98.3948 51.1417 97.5012 48.9406C96.6077 46.7396 95.2869 44.7374 93.6151 43.0498C91.9433 41.3622 89.9537 40.0226 87.7612 39.1083C85.5686 38.1941 83.2167 37.7234 80.8412 37.7234C78.4657 37.7234 76.1138 38.1941 73.9212 39.1083C71.7287 40.0226 69.7391 41.3622 68.0673 43.0498C66.3955 44.7374 65.0747 46.7396 64.1811 48.9406C63.2876 51.1417 62.8391 53.4979 62.8615 55.8733V60.3693C61.9207 60.3891 61.0252 60.7767 60.3668 61.449C59.7085 62.1214 59.3398 63.0249 59.3398 63.9658C59.3398 64.9068 59.7085 65.8103 60.3668 66.4827C61.0252 67.155 61.9207 67.5426 62.8615 67.5624C62.9365 67.5624 63.0067 67.5449 63.0817 67.5401C63.7175 71.7955 65.8601 75.6811 69.1195 78.4898C72.379 81.2985 76.5386 82.8434 80.8412 82.8434C85.1438 82.8434 89.3034 81.2985 92.5629 78.4898C95.8223 75.6811 97.9649 71.7955 98.6007 67.5401C98.6757 67.5401 98.7459 67.5624 98.8209 67.5624C99.7617 67.5426 100.657 67.155 101.316 66.4827C101.974 65.8103 102.343 64.9068 102.343 63.9658C102.343 63.0249 101.974 62.1214 101.316 61.449C100.657 60.7767 99.7617 60.3891 98.8209 60.3693Z" fill="white" stroke="#212121" stroke-linecap="round" stroke-linejoin="round"/>
<path d="M68.2559 68.0094C68.2559 68.3045 68.314 68.5967 68.4269 68.8693C68.5398 69.142 68.7054 69.3897 68.914 69.5984C69.1227 69.807 69.3704 69.9726 69.6431 70.0855C69.9157 70.1984 70.2079 70.2565 70.503 70.2565C70.7981 70.2565 71.0903 70.1984 71.363 70.0855C71.6356 69.9726 71.8833 69.807 72.092 69.5984C72.3007 69.3897 72.4662 69.142 72.5791 68.8693C72.6921 68.5967 72.7502 68.3045 72.7502 68.0094C72.7502 67.7143 72.6921 67.4221 72.5791 67.1494C72.4662 66.8768 72.3007 66.6291 72.092 66.4204C71.8833 66.2117 71.6356 66.0462 71.363 65.9333C71.0903 65.8203 70.7981 65.7622 70.503 65.7622C70.2079 65.7622 69.9157 65.8203 69.6431 65.9333C69.3704 66.0462 69.1227 66.2117 68.914 66.4204C68.7054 66.6291 68.5398 66.8768 68.4269 67.1494C68.314 67.4221 68.2559 67.7143 68.2559 68.0094Z" fill="#EAEAEA"/>
<path d="M88.9316 68.0094C88.9316 68.6054 89.1684 69.1769 89.5898 69.5984C90.0113 70.0198 90.5828 70.2565 91.1788 70.2565C91.7748 70.2565 92.3464 70.0198 92.7678 69.5984C93.1892 69.1769 93.426 68.6054 93.426 68.0094C93.426 67.4134 93.1892 66.8418 92.7678 66.4204C92.3464 65.999 91.7748 65.7622 91.1788 65.7622C90.5828 65.7622 90.0113 65.999 89.5898 66.4204C89.1684 66.8418 88.9316 67.4134 88.9316 68.0094Z" fill="#EAEAEA"/>
<path d="M86.3996 72.3999C84.9496 71.1168 83.0138 70.3999 80.9996 70.3999C78.9854 70.3999 77.0496 71.1168 75.5996 72.3999" stroke="#212121" stroke-linecap="round" stroke-linejoin="round"/>
<path d="M76.3437 62.1664C76.1217 61.634 75.7472 61.1792 75.2672 60.8593C74.7872 60.5394 74.2233 60.3687 73.6465 60.3687C73.0696 60.3687 72.5057 60.5394 72.0257 60.8593C71.5458 61.1792 71.1712 61.634 70.9492 62.1664" stroke="#212121" stroke-linecap="round" stroke-linejoin="round"/>
<path d="M90.7304 62.1664C90.5084 61.634 90.1339 61.1792 89.6539 60.8593C89.1739 60.5394 88.61 60.3687 88.0332 60.3687C87.4564 60.3687 86.8924 60.5394 86.4125 60.8593C85.9325 61.1792 85.5579 61.634 85.3359 62.1664" stroke="#212121" stroke-linecap="round" stroke-linejoin="round"/>
<path d="M70.9515 49.6761C68.8974 48.6403 67.3557 47.164 67.3557 45.086C67.3593 44.6486 67.4167 44.2134 67.5265 43.79C64.5194 47.0954 62.8556 51.4048 62.8613 55.8734V60.3693C63.2573 60.3682 63.6492 60.449 64.0125 60.6065C64.3757 60.7641 64.7025 60.995 64.9722 61.2849C65.242 61.5747 65.4489 61.9172 65.58 62.2908C65.7112 62.6644 65.7636 63.0611 65.7341 63.456C66.6328 61.0353 66.8809 58.4214 66.4539 55.875C68.0928 55.7157 69.6521 55.0916 70.9483 54.0763L70.9515 49.6761Z" fill="white" stroke="#212121" stroke-linecap="round" stroke-linejoin="round"/>
<path d="M90.7305 49.6761C92.7845 48.6403 94.3263 47.164 94.3263 45.086C94.3226 44.6486 94.2653 44.2134 94.1555 43.79C97.1626 47.0954 98.8264 51.4048 98.8206 55.8734V60.3693C98.4246 60.3682 98.0327 60.449 97.6695 60.6065C97.3062 60.7641 96.9795 60.995 96.7097 61.2849C96.4399 61.5747 96.233 61.9172 96.1019 62.2908C95.9708 62.6644 95.9183 63.0611 95.9478 63.456C95.0492 61.0353 94.801 58.4214 95.228 55.875C93.5891 55.7157 92.0299 55.0916 90.7337 54.0763L90.7305 49.6761Z" fill="white" stroke="#212121" stroke-linecap="round" stroke-linejoin="round"/>
<path d="M80.8382 34.297C82.7014 34.3163 84.5396 34.7286 86.2327 35.5067V33.3968C86.2327 32.9246 86.1397 32.457 85.959 32.0208C85.7783 31.5845 85.5134 31.1881 85.1795 30.8542C84.8456 30.5203 84.4492 30.2554 84.0129 30.0747C83.5767 29.894 83.1091 29.801 82.6369 29.801H79.0411C78.5689 29.801 78.1013 29.894 77.6651 30.0747C77.2288 30.2554 76.8324 30.5203 76.4985 30.8542C76.1646 31.1881 75.8997 31.5845 75.719 32.0208C75.5383 32.457 75.4453 32.9246 75.4453 33.3968V35.5051C77.138 34.7277 78.9756 34.316 80.8382 34.297Z" fill="white" stroke="#212121" stroke-linecap="round" stroke-linejoin="round"/>
<path d="M80.8401 34.2969C73.8081 34.2969 67.3555 40.7096 67.3555 45.0858C67.3555 50.6798 78.5275 51.9183 80.8401 51.9183C83.1527 51.9183 94.3263 50.6798 94.3263 45.0858C94.3263 40.7096 87.8736 34.2969 80.8401 34.2969Z" fill="white"/>
<path d="M80.8401 34.2969C73.8081 34.2969 67.3555 40.7096 67.3555 45.0858C67.3555 50.6798 78.5275 51.9183 80.8401 51.9183C83.1527 51.9183 94.3263 50.6798 94.3263 45.0858C94.3263 40.7096 87.8736 34.2969 80.8401 34.2969Z" stroke="#212121" stroke-linecap="round" stroke-linejoin="round"/>
<path d="M63.8633 115.931V109.674" stroke="#212121" stroke-linecap="round" stroke-linejoin="round"/>
<path d="M97.8438 109.674V115.927" stroke="#212121" stroke-linecap="round" stroke-linejoin="round"/>
<path d="M91.3626 86.7336C90.8774 89.1618 89.5674 91.3474 87.6548 92.92C85.7422 94.4927 83.3446 95.3555 80.8684 95.3623C78.3923 95.369 75.99 94.5193 74.0688 92.9572C72.1476 91.395 70.8258 89.2165 70.3273 86.7911C65.2013 89.0267 60.8411 92.7127 57.7835 97.3951C54.726 102.078 53.1047 107.552 53.1192 113.144V115.04C53.1197 115.277 53.2142 115.505 53.382 115.672C53.5499 115.84 53.7774 115.934 54.0146 115.934H63.8619V137.209H97.8424V115.934H107.669C107.906 115.934 108.133 115.84 108.301 115.672C108.469 115.505 108.563 115.277 108.563 115.04V112.361C108.56 106.865 106.924 101.494 103.861 96.9305C100.798 92.3673 96.4478 88.8179 91.3626 86.7336Z" stroke="#212121" stroke-linecap="round" stroke-linejoin="round"/>
<path d="M63.8613 137.205H97.8417V152.774H63.8613V137.205Z" fill="white"/>
<path d="M63.8613 152.773V137.205H97.8433V152.773" stroke="#212121" stroke-linecap="round" stroke-linejoin="round"/>
<path d="M80.8516 146.758V152.773" stroke="#212121" stroke-linecap="round" stroke-linejoin="round"/>
<path d="M108.114 115.932C107.44 119.747 105.446 123.204 102.48 125.697C99.5146 128.189 95.7666 129.559 91.8925 129.567H91.4457C88.6424 129.565 85.8856 128.851 83.4337 127.492L80.8386 126.097C80.8386 126.097 69.507 119.731 69.7863 119.731H70.2348C71.3679 119.732 72.4824 119.443 73.4715 118.89L80.8386 114.919L88.2074 118.89C89.1969 119.443 90.312 119.733 91.4457 119.731H91.8925C92.1674 119.732 92.4421 119.714 92.7145 119.677C93.0982 119.632 93.4763 119.548 93.8428 119.426C94.7219 119.156 95.5353 118.706 96.2315 118.104C96.9276 117.503 97.4914 116.764 97.8871 115.934L108.114 115.932Z" fill="white" stroke="#212121" stroke-linecap="round" stroke-linejoin="round"/>
<path d="M67.2735 98.8519C66.5197 99.1779 65.7376 99.4338 64.9369 99.6164C64.1415 99.7997 63.3312 99.9113 62.5158 99.95L64.9976 110.305C65.1428 110.936 65.5328 111.484 66.0819 111.828C66.631 112.171 67.2941 112.283 67.9255 112.138C68.5568 111.993 69.1046 111.603 69.4483 111.054C69.7921 110.504 69.9036 109.841 69.7585 109.21L67.2735 98.8519Z" fill="#EAEAEA" stroke="#212121" stroke-linecap="round" stroke-linejoin="round"/>
<path d="M75.0764 83.4186C75.6753 86.023 75.4885 88.7464 74.5396 91.2446C73.5908 93.7427 71.9224 95.9035 69.7456 97.4535C67.5688 99.0035 64.9812 99.8732 62.3101 99.9527C59.6389 100.032 57.0043 99.3177 54.7391 97.8998C52.474 96.4819 50.6802 94.4242 49.5845 91.9868C48.4889 89.5495 48.1406 86.842 48.5836 84.2067C49.0267 81.5713 50.2413 79.1266 52.0737 77.1815C53.9062 75.2365 56.2743 73.8785 58.8786 73.2793C60.6079 72.8813 62.3987 72.828 64.1486 73.1222C65.8986 73.4164 67.5734 74.0525 69.0776 74.994C70.5817 75.9355 71.8856 77.1642 72.9149 78.6097C73.9442 80.0552 74.6787 81.6893 75.0764 83.4186Z" fill="white" stroke="#212121" stroke-linecap="round" stroke-linejoin="round"/>
<path d="M71.4189 84.2598C71.8518 86.1409 71.7172 88.1082 71.032 89.9128C70.3468 91.7174 69.1419 93.2783 67.5696 94.3981C65.9973 95.5179 64.1282 96.1462 62.1988 96.2037C60.2693 96.2613 58.3662 95.7453 56.73 94.7212C55.0938 93.697 53.798 92.2107 53.0065 90.4501C52.2151 88.6895 51.9635 86.7338 52.2836 84.8302C52.6036 82.9266 53.481 81.1607 54.8047 79.7558C56.1285 78.3509 57.8391 77.3701 59.7203 76.9374C62.2426 76.3572 64.8921 76.8027 67.086 78.1759C69.2799 79.5491 70.8385 81.7375 71.4189 84.2598Z" fill="#EAEAEA"/>
<path d="M55.0805 93.4207C53.2614 91.6033 52.233 89.1414 52.2189 86.57C52.2048 83.9987 53.206 81.5256 55.005 79.6883C56.804 77.8511 59.2554 76.798 61.8265 76.758C64.3976 76.718 66.8806 77.6944 68.7359 79.4748L55.0805 93.4207Z" fill="white"/>
<path d="M71.4189 84.2598C71.8518 86.1409 71.7172 88.1082 71.032 89.9128C70.3468 91.7174 69.1419 93.2783 67.5696 94.3981C65.9973 95.5179 64.1282 96.1462 62.1988 96.2037C60.2693 96.2613 58.3662 95.7453 56.73 94.7212C55.0938 93.697 53.798 92.2107 53.0065 90.4501C52.2151 88.6895 51.9635 86.7338 52.2836 84.8302C52.6036 82.9266 53.481 81.1607 54.8047 79.7558C56.1285 78.3509 57.8391 77.3701 59.7203 76.9374C62.2426 76.3572 64.8921 76.8027 67.086 78.1759C69.2799 79.5491 70.8385 81.7375 71.4189 84.2598Z" stroke="#212121" stroke-linecap="round" stroke-linejoin="round"/>
<path d="M94.4111 98.8521C95.1649 99.178 95.947 99.4339 96.7477 99.6165C97.5431 99.7998 98.3534 99.9114 99.1688 99.9501L96.6902 110.305C96.545 110.936 96.155 111.484 95.6059 111.828C95.0568 112.172 94.3937 112.283 93.7623 112.138C93.131 111.993 92.5832 111.603 92.2395 111.054C91.8957 110.505 91.7841 109.841 91.9293 109.21L94.4111 98.8521Z" fill="#EAEAEA" stroke="#212121" stroke-linecap="round" stroke-linejoin="round"/>
<path d="M86.6075 83.4186C86.0085 86.023 86.1953 88.7464 87.1442 91.2446C88.093 93.7427 89.7614 95.9035 91.9382 97.4535C94.1151 99.0035 96.7026 99.8732 99.3737 99.9527C102.045 100.032 104.68 99.3177 106.945 97.8998C109.21 96.4819 111.004 94.4242 112.099 91.9868C113.195 89.5495 113.543 86.842 113.1 84.2067C112.657 81.5713 111.443 79.1266 109.61 77.1815C107.778 75.2365 105.41 73.8785 102.805 73.2793C101.076 72.8813 99.2852 72.828 97.5352 73.1222C95.7853 73.4164 94.1104 74.0525 92.6063 74.994C91.1021 75.9355 89.7982 77.1642 88.7689 78.6097C87.7396 80.0552 87.0052 81.6893 86.6075 83.4186Z" fill="white" stroke="#212121" stroke-linecap="round" stroke-linejoin="round"/>
<path d="M109.286 84.2598C109.719 86.1409 109.584 88.1082 108.899 89.9128C108.214 91.7174 107.009 93.2783 105.437 94.3981C103.864 95.5179 101.995 96.1462 100.066 96.2037C98.1365 96.2613 96.2334 95.7453 94.5972 94.7212C92.9609 93.697 91.6652 92.2107 90.8737 90.4501C90.0823 88.6895 89.8307 86.7338 90.1507 84.8302C90.4708 82.9266 91.3482 81.1607 92.6719 79.7558C93.9956 78.3509 95.7063 77.3701 97.5874 76.9374C100.11 76.3572 102.759 76.8027 104.953 78.1759C107.147 79.5491 108.706 81.7375 109.286 84.2598Z" fill="#EAEAEA"/>
<path d="M92.9477 93.4207C91.1286 91.6033 90.1002 89.1414 90.0861 86.57C90.072 83.9987 91.0732 81.5256 92.8722 79.6883C94.6712 77.8511 97.1226 76.798 99.6937 76.758C102.265 76.718 104.748 77.6944 106.603 79.4748L92.9477 93.4207Z" fill="white"/>
<path d="M109.286 84.2598C109.719 86.1409 109.584 88.1082 108.899 89.9128C108.214 91.7174 107.009 93.2783 105.437 94.3981C103.864 95.5179 101.995 96.1462 100.066 96.2037C98.1365 96.2613 96.2334 95.7453 94.5972 94.7212C92.9609 93.697 91.6652 92.2107 90.8737 90.4501C90.0823 88.6895 89.8307 86.7338 90.1507 84.8302C90.4708 82.9266 91.3482 81.1607 92.6719 79.7558C93.9956 78.3509 95.7063 77.3701 97.5874 76.9374C100.11 76.3572 102.759 76.8027 104.953 78.1759C107.147 79.5491 108.706 81.7375 109.286 84.2598Z" stroke="#212121" stroke-linecap="round" stroke-linejoin="round"/>
<path d="M101.98 115.939C101.698 116.48 101.279 116.937 100.764 117.263L100.285 117.583C98.3647 118.814 96.1245 119.454 93.8434 119.421H93.7524L93.2162 119.404L92.715 119.672L80.8392 126.092L78.2473 127.487C75.7962 128.848 73.0389 129.562 70.2354 129.562H69.7853C65.9093 129.558 62.1583 128.19 59.1899 125.698C56.2215 123.205 54.2251 119.748 53.5508 115.931H59.705C59.9788 116.476 60.3973 116.936 60.9147 117.26L61.4159 117.579C63.3275 118.815 65.5624 119.456 67.8382 119.421C67.8382 119.421 69.5012 119.726 69.7869 119.726H70.2354C71.3685 119.727 72.483 119.438 73.4721 118.885L80.8392 114.914L88.4409 110.803C88.7188 109.74 89.2447 108.758 89.9754 107.937C90.7061 107.116 91.6209 106.481 92.6448 106.082C93.9736 106.746 95.4538 107.048 96.9364 106.958C97.6787 106.905 98.4192 107.082 99.0564 107.467C99.6937 107.851 100.196 108.423 100.496 109.105L102.106 112.823C102.321 113.318 102.422 113.856 102.4 114.395C102.378 114.935 102.235 115.463 101.98 115.939Z" fill="white" stroke="#212121" stroke-linecap="round" stroke-linejoin="round"/>
<path d="M59.7065 115.934C59.9803 116.48 60.3988 116.939 60.9163 117.263L61.4174 117.583C63.329 118.816 65.5633 119.456 67.8382 119.421C67.8382 119.421 69.5012 119.726 69.7869 119.726H70.2353C71.3685 119.727 72.483 119.438 73.472 118.885L80.8392 114.914L73.239 110.803C73.0337 109.708 72.534 108.69 71.7936 107.859C71.0532 107.027 70.1001 106.413 69.0367 106.082C67.7075 106.746 66.2267 107.048 64.7435 106.958C64.0013 106.905 63.2607 107.082 62.6235 107.467C61.9863 107.851 61.4836 108.423 61.1844 109.105L59.5709 112.826C59.3571 113.321 59.2578 113.857 59.2805 114.395C59.3032 114.933 59.4472 115.459 59.7017 115.934" fill="white"/>
<path d="M59.7065 115.934C59.9803 116.48 60.3988 116.939 60.9163 117.263L61.4174 117.583C63.329 118.816 65.5633 119.456 67.8382 119.421C67.8382 119.421 69.5012 119.726 69.7869 119.726H70.2353C71.3685 119.727 72.483 119.438 73.472 118.885L80.8392 114.914L73.239 110.803C73.0337 109.708 72.534 108.69 71.7936 107.859C71.0532 107.027 70.1001 106.413 69.0367 106.082C67.7075 106.746 66.2267 107.048 64.7435 106.958C64.0013 106.905 63.2607 107.082 62.6235 107.467C61.9863 107.851 61.4836 108.423 61.1844 109.105L59.5709 112.826C59.3571 113.321 59.2578 113.857 59.2805 114.395C59.3032 114.933 59.4472 115.459 59.7017 115.934" stroke="#212121" stroke-linecap="round" stroke-linejoin="round"/>
<path d="M25.8951 21.979H54.6231C55.4697 21.979 56.2816 22.3153 56.8802 22.9139C57.4788 23.5125 57.8151 24.3244 57.8151 25.171V44.323C57.8151 45.1696 57.4788 45.9815 56.8802 46.5801C56.2816 47.1787 55.4697 47.515 54.6231 47.515H25.8951C25.0486 47.515 24.2367 47.1787 23.638 46.5801C23.0394 45.9815 22.7031 45.1696 22.7031 44.323V25.171C22.7031 24.3244 23.0394 23.5125 23.638 22.9139C24.2367 22.3153 25.0486 21.979 25.8951 21.979Z" fill="#EAEAEA" stroke="#212121" stroke-linecap="round" stroke-linejoin="round"/>
<path d="M30.6875 21.979V47.3953" stroke="#212121" stroke-linecap="round" stroke-linejoin="round"/>
<path d="M49.8379 22.0986V47.5133" stroke="#212121" stroke-linecap="round" stroke-linejoin="round"/>
<path d="M33.875 21.8194V17.9156C33.875 17.4021 33.9761 16.8936 34.1726 16.4192C34.3691 15.9448 34.6572 15.5137 35.0203 15.1506C35.3834 14.7875 35.8144 14.4995 36.2888 14.303C36.7632 14.1065 37.2717 14.0054 37.7852 14.0054H42.7328C43.7698 14.0054 44.7644 14.4173 45.4977 15.1506C46.231 15.8839 46.643 16.8785 46.643 17.9156V21.8258" stroke="#212121" stroke-linecap="round" stroke-linejoin="round"/>
<path d="M25.8951 21.979H54.6231C55.4697 21.979 56.2816 22.3153 56.8802 22.9139C57.4788 23.5125 57.8151 24.3244 57.8151 25.171V44.323C57.8151 45.1696 57.4788 45.9815 56.8802 46.5801C56.2816 47.1787 55.4697 47.515 54.6231 47.515H25.8951C25.0486 47.515 24.2367 47.1787 23.638 46.5801C23.0394 45.9815 22.7031 45.1696 22.7031 44.323V25.171C22.7031 24.3244 23.0394 23.5125 23.638 22.9139C24.2367 22.3153 25.0486 21.979 25.8951 21.979Z" stroke="#212121" stroke-linecap="round" stroke-linejoin="round"/>
<path d="M7.05078 78.294C7.05078 82.5268 8.73228 86.5863 11.7254 89.5794C14.7184 92.5725 18.7779 94.254 23.0108 94.254C27.2436 94.254 31.3031 92.5725 34.2962 89.5794C37.2893 86.5863 38.9708 82.5268 38.9708 78.294C38.9708 74.0611 37.2893 70.0016 34.2962 67.0086C31.3031 64.0155 27.2436 62.334 23.0108 62.334C18.7779 62.334 14.7184 64.0155 11.7254 67.0086C8.73228 70.0016 7.05078 74.0611 7.05078 78.294Z" fill="white"/>
<path d="M7.05078 78.294C7.05078 82.5268 8.73228 86.5863 11.7254 89.5794C14.7184 92.5725 18.7779 94.254 23.0108 94.254C27.2436 94.254 31.3031 92.5725 34.2962 89.5794C37.2893 86.5863 38.9708 82.5268 38.9708 78.294C38.9708 74.0611 37.2893 70.0016 34.2962 67.0086C31.3031 64.0155 27.2436 62.334 23.0108 62.334C18.7779 62.334 14.7184 64.0155 11.7254 67.0086C8.73228 70.0016 7.05078 74.0611 7.05078 78.294Z" stroke="#212121" stroke-linecap="round" stroke-linejoin="round"/>
<path d="M7.05078 78.294C7.05078 82.5268 8.73228 86.5863 11.7254 89.5794C14.7184 92.5725 18.7779 94.254 23.0108 94.254C27.2436 94.254 31.3031 92.5725 34.2962 89.5794C37.2893 86.5863 38.9708 82.5268 38.9708 78.294C38.9708 74.0611 37.2893 70.0016 34.2962 67.0086C31.3031 64.0155 27.2436 62.334 23.0108 62.334C18.7779 62.334 14.7184 64.0155 11.7254 67.0086C8.73228 70.0016 7.05078 74.0611 7.05078 78.294Z" stroke="#212121" stroke-linecap="round" stroke-linejoin="round"/>
<path d="M12.0371 78.2938C12.0371 79.7347 12.3209 81.1615 12.8723 82.4928C13.4238 83.824 14.232 85.0336 15.2509 86.0525C16.2698 87.0714 17.4794 87.8796 18.8106 88.4311C20.1419 88.9825 21.5687 89.2663 23.0096 89.2663C24.4505 89.2663 25.8774 88.9825 27.2086 88.4311C28.5398 87.8796 29.7494 87.0714 30.7683 86.0525C31.7872 85.0336 32.5955 83.824 33.1469 82.4928C33.6983 81.1615 33.9821 79.7347 33.9821 78.2938C33.9821 75.3837 32.8261 72.5928 30.7683 70.5351C28.7106 68.4773 25.9197 67.3213 23.0096 67.3213C20.0995 67.3213 17.3086 68.4773 15.2509 70.5351C13.1931 72.5928 12.0371 75.3837 12.0371 78.2938Z" stroke="#212121" stroke-linejoin="round"/>
<path d="M26.9992 74.304C26.9992 73.2458 26.5789 72.2309 25.8306 71.4826C25.0823 70.7343 24.0674 70.314 23.0092 70.314H22.7188C21.8853 70.3132 21.076 70.5941 20.4221 71.111C19.7683 71.628 19.3082 72.3506 19.1166 73.1618C18.925 73.9729 19.0131 74.8251 19.3665 75.5799C19.7199 76.3348 20.318 76.9481 21.0637 77.3204L24.9548 79.2643C25.7 79.6372 26.2975 80.2507 26.6505 81.0055C27.0035 81.7603 27.0914 82.6122 26.8999 83.4232C26.7083 84.2341 26.2486 84.9567 25.5952 85.4738C24.9418 85.9909 24.133 86.2723 23.2997 86.2724H23.0092C21.951 86.2724 20.9361 85.852 20.1879 85.1037C19.4396 84.3555 19.0192 83.3406 19.0192 82.2824" stroke="#212121" stroke-linecap="round" stroke-linejoin="round"/>
<path d="M23.0098 70.3154V68.3188" stroke="#212121" stroke-linecap="round" stroke-linejoin="round"/>
<path d="M23.0098 88.2689V86.2739" stroke="#212121" stroke-linecap="round" stroke-linejoin="round"/>
<path d="M139.384 59.8042C135.786 59.8042 132.336 61.2335 129.792 63.7776C127.248 66.3217 125.818 69.7723 125.818 73.3702C125.818 79.6106 135.246 90.5176 138.38 93.9905C138.508 94.1314 138.664 94.2439 138.838 94.321C139.012 94.398 139.2 94.4378 139.391 94.4378C139.581 94.4378 139.769 94.398 139.943 94.321C140.117 94.2439 140.273 94.1314 140.401 93.9905C143.536 90.5176 152.95 79.6106 152.95 73.3702C152.95 69.7723 151.521 66.3217 148.977 63.7776C146.433 61.2335 142.982 59.8042 139.384 59.8042ZM139.086 77.4464C138.281 77.4464 137.494 77.2077 136.825 76.7605C136.156 76.3133 135.634 75.6777 135.326 74.934C135.018 74.1904 134.937 73.3721 135.094 72.5826C135.251 71.7931 135.639 71.068 136.208 70.4988C136.777 69.9296 137.502 69.542 138.292 69.385C139.081 69.2279 139.9 69.3085 140.643 69.6166C141.387 69.9246 142.023 70.4462 142.47 71.1155C142.917 71.7848 143.156 72.5716 143.156 73.3766C143.156 73.9112 143.051 74.4407 142.847 74.9348C142.643 75.4288 142.343 75.8777 141.965 76.2558C141.587 76.6338 141.138 76.9336 140.644 77.1379C140.15 77.3422 139.621 77.447 139.086 77.4464Z" fill="#EAEAEA"/>
<path d="M119.756 45.1753H115.128V45.9462C115.111 46.2603 115.159 46.5745 115.268 46.8696C115.377 47.1648 115.545 47.4346 115.761 47.6628C115.978 47.891 116.238 48.0727 116.527 48.1969C116.816 48.3211 117.128 48.3851 117.442 48.3851C117.757 48.3851 118.068 48.3211 118.357 48.1969C118.646 48.0727 118.907 47.891 119.123 47.6628C119.34 47.4346 119.508 47.1648 119.616 46.8696C119.725 46.5745 119.773 46.2603 119.756 45.9462V45.1753Z" fill="#EAEAEA" stroke="#212121" stroke-linecap="round" stroke-linejoin="round"/>
<path d="M139.384 59.8042C135.786 59.8042 132.336 61.2335 129.792 63.7776C127.248 66.3217 125.818 69.7723 125.818 73.3702C125.818 79.6106 135.246 90.5176 138.38 93.9905C138.508 94.1314 138.664 94.2439 138.838 94.321C139.012 94.398 139.2 94.4378 139.391 94.4378C139.581 94.4378 139.769 94.398 139.943 94.321C140.117 94.2439 140.273 94.1314 140.401 93.9905C143.536 90.5176 152.95 79.6106 152.95 73.3702C152.95 69.7723 151.521 66.3217 148.977 63.7776C146.433 61.2335 142.982 59.8042 139.384 59.8042ZM139.086 77.4464C138.281 77.4464 137.494 77.2077 136.825 76.7605C136.156 76.3133 135.634 75.6777 135.326 74.934C135.018 74.1904 134.937 73.3721 135.094 72.5826C135.251 71.7931 135.639 71.068 136.208 70.4988C136.777 69.9296 137.502 69.542 138.292 69.385C139.081 69.2279 139.9 69.3085 140.643 69.6166C141.387 69.9246 142.023 70.4462 142.47 71.1155C142.917 71.7848 143.156 72.5716 143.156 73.3766C143.156 73.9112 143.051 74.4407 142.847 74.9348C142.643 75.4288 142.343 75.8777 141.965 76.2558C141.587 76.6338 141.138 76.9336 140.644 77.1379C140.15 77.3422 139.621 77.447 139.086 77.4464Z" stroke="#212121" stroke-linecap="round" stroke-linejoin="round"/>
<path d="M130.214 27.9705C130.214 25.7296 129.625 23.528 128.505 21.587C127.385 19.646 125.774 18.0339 123.834 16.9127C121.894 15.7915 119.693 15.2007 117.452 15.1997C115.211 15.1987 113.009 15.7874 111.068 16.9068C109.126 18.0262 107.514 19.6368 106.392 21.5768C105.271 23.5168 104.679 25.7178 104.678 27.9587C104.676 30.1996 105.264 32.4015 106.383 34.343C107.502 36.2846 109.112 37.8975 111.052 39.0196C111.607 39.341 112.068 39.8028 112.389 40.3585C112.709 40.9143 112.878 41.5445 112.878 42.186V43.4868C112.878 43.9706 113.07 44.4346 113.412 44.7767C113.754 45.1188 114.218 45.311 114.702 45.311H120.176C120.66 45.311 121.125 45.1189 121.467 44.7768C121.809 44.4347 122.002 43.9707 122.002 43.4868V42.186C122.002 41.5454 122.171 40.916 122.491 40.361C122.811 39.8061 123.272 39.3451 123.827 39.0244C125.769 37.9059 127.382 36.2952 128.503 34.3545C129.625 32.4138 130.215 30.2118 130.214 27.9705Z" fill="white"/>
<path d="M117.439 9.96443V7.22729" stroke="#212121" stroke-linecap="round" stroke-linejoin="round"/>
<path d="M130.639 14.7746L132.575 12.8386" stroke="#212121" stroke-linecap="round" stroke-linejoin="round"/>
<path d="M135.449 27.9751H138.186" stroke="#212121" stroke-linecap="round" stroke-linejoin="round"/>
<path d="M104.239 14.7746L102.305 12.8386" stroke="#212121" stroke-linecap="round" stroke-linejoin="round"/>
<path d="M99.4285 27.9751H96.6914" stroke="#212121" stroke-linecap="round" stroke-linejoin="round"/>
<path d="M122.002 43.487V42.1862C122.002 42.0105 122.015 41.835 122.041 41.6611H112.84C112.865 41.8351 112.877 42.0105 112.878 42.1862V43.487C112.878 43.9708 113.07 44.4348 113.412 44.7769C113.755 45.119 114.219 45.3112 114.702 45.3112H120.177C120.661 45.3112 121.125 45.119 121.467 44.777C121.81 44.4349 122.002 43.9709 122.002 43.487Z" fill="#EAEAEA" stroke="#212121" stroke-linecap="round" stroke-linejoin="round"/>
<path d="M130.214 27.9705C130.214 25.7296 129.625 23.528 128.505 21.587C127.385 19.646 125.774 18.0339 123.834 16.9127C121.894 15.7915 119.693 15.2007 117.452 15.1997C115.211 15.1987 113.009 15.7874 111.068 16.9068C109.126 18.0262 107.514 19.6368 106.392 21.5768C105.271 23.5168 104.679 25.7178 104.678 27.9587C104.676 30.1996 105.264 32.4015 106.383 34.343C107.502 36.2846 109.112 37.8975 111.052 39.0196C111.607 39.341 112.068 39.8028 112.389 40.3585C112.709 40.9143 112.878 41.5445 112.878 42.186V43.4868C112.878 43.9706 113.07 44.4346 113.412 44.7767C113.754 45.1188 114.218 45.311 114.702 45.311H120.176C120.66 45.311 121.125 45.1189 121.467 44.7768C121.809 44.4347 122.002 43.9707 122.002 43.4868V42.186C122.002 41.5454 122.171 40.916 122.491 40.361C122.811 39.8061 123.272 39.3451 123.827 39.0244C125.769 37.9059 127.382 36.2952 128.503 34.3545C129.625 32.4138 130.215 30.2118 130.214 27.9705Z" stroke="#212121" stroke-linecap="round" stroke-linejoin="round"/>
</svg>
