<svg width="22" height="120" viewBox="0 0 22 120" fill="none" xmlns="http://www.w3.org/2000/svg">
<path d="M13 2C13 0.895431 12.1046 0 11 0C9.89543 0 9 0.895431 9 2H13ZM0.333333 109C0.333333 114.891 5.10896 119.667 11 119.667C16.891 119.667 21.6667 114.891 21.6667 109C21.6667 103.109 16.891 98.3333 11 98.3333C5.10896 98.3333 0.333333 103.109 0.333333 109ZM9 8.6875C9 9.79207 9.89543 10.6875 11 10.6875C12.1046 10.6875 13 9.79207 13 8.6875H9ZM13 22.0625C13 20.9579 12.1046 20.0625 11 20.0625C9.89543 20.0625 9 20.9579 9 22.0625H13ZM9 35.4375C9 36.5421 9.89543 37.4375 11 37.4375C12.1046 37.4375 13 36.5421 13 35.4375H9ZM13 48.8125C13 47.7079 12.1046 46.8125 11 46.8125C9.89543 46.8125 9 47.7079 9 48.8125H13ZM9 62.1875C9 63.2921 9.89543 64.1875 11 64.1875C12.1046 64.1875 13 63.2921 13 62.1875H9ZM13 75.5625C13 74.4579 12.1046 73.5625 11 73.5625C9.89543 73.5625 9 74.4579 9 75.5625H13ZM9 88.9375C9 90.0421 9.89543 90.9375 11 90.9375C12.1046 90.9375 13 90.0421 13 88.9375H9ZM13 102.312C13 101.208 12.1046 100.312 11 100.312C9.89543 100.312 9 101.208 9 102.312H13ZM9 2V8.6875H13V2H9ZM9 22.0625V35.4375H13V22.0625H9ZM9 48.8125V62.1875H13V48.8125H9ZM9 75.5625V88.9375H13V75.5625H9ZM9 102.312V109H13V102.312H9Z" fill="#FF980E"/>
</svg>
