<svg width="110" height="22" viewBox="0 0 110 22" fill="none" xmlns="http://www.w3.org/2000/svg">
<path d="M108 13C109.105 13 110 12.1046 110 11C110 9.89543 109.105 9 108 9V13ZM0.333333 11C0.333333 16.891 5.10896 21.6667 11 21.6667C16.891 21.6667 21.6667 16.891 21.6667 11C21.6667 5.10896 16.891 0.333333 11 0.333333C5.10896 0.333333 0.333333 5.10896 0.333333 11ZM17.0625 13C18.1671 13 19.0625 12.1046 19.0625 11C19.0625 9.89543 18.1671 9 17.0625 9V13ZM29.1875 9C28.0829 9 27.1875 9.89543 27.1875 11C27.1875 12.1046 28.0829 13 29.1875 13V9ZM41.3125 13C42.4171 13 43.3125 12.1046 43.3125 11C43.3125 9.89543 42.4171 9 41.3125 9V13ZM53.4375 9C52.3329 9 51.4375 9.89543 51.4375 11C51.4375 12.1046 52.3329 13 53.4375 13V9ZM65.5625 13C66.6671 13 67.5625 12.1046 67.5625 11C67.5625 9.89543 66.6671 9 65.5625 9V13ZM77.6875 9C76.5829 9 75.6875 9.89543 75.6875 11C75.6875 12.1046 76.5829 13 77.6875 13V9ZM89.8125 13C90.9171 13 91.8125 12.1046 91.8125 11C91.8125 9.89543 90.9171 9 89.8125 9V13ZM101.938 9C100.833 9 99.9375 9.89543 99.9375 11C99.9375 12.1046 100.833 13 101.938 13V9ZM11 13H17.0625V9H11V13ZM29.1875 13H41.3125V9H29.1875V13ZM53.4375 13H65.5625V9H53.4375V13ZM77.6875 13H89.8125V9H77.6875V13ZM101.938 13H108V9H101.938V13Z" fill="#FF980E"/>
</svg>
