<svg width="62" height="73" viewBox="0 0 62 73" fill="none" xmlns="http://www.w3.org/2000/svg">
<g clip-path="url(#clip0_7_1443)">
<path d="M16.0566 27.2171C27.8096 20.5604 39.5625 13.9037 51.3155 7.24693C54.6479 5.35674 57.9952 3.4815 61.3051 1.54649C61.7609 1.285 62.1345 0.73961 61.5666 0.388468C60.9988 0.0373273 59.9976 0.373526 59.4671 0.664899C47.6245 7.17222 35.9238 13.956 24.1709 20.6127L14.1439 26.2907C13.6657 26.5597 13.2846 27.1424 13.8749 27.501C14.4652 27.8597 15.5187 27.5235 16.0716 27.2097L16.0566 27.2171Z" fill="#CACACA"/>
<path d="M59.1085 1.21781C58.9067 16.8399 58.5556 32.4619 58.0475 48.0765C57.9055 52.5367 57.7411 56.997 57.5768 61.4572C57.5319 62.6376 60.4235 62.0549 60.4608 61.0986C61.0586 45.484 61.4994 29.8694 61.7908 14.2474C61.873 9.78715 61.9402 5.31943 62 0.859194C62.0149 -0.328709 59.1234 0.268978 59.1159 1.21781H59.1085Z" fill="#CACACA"/>
<path d="M13.7329 27.1723C26.0014 35.4727 37.1492 45.2598 48.4464 54.8004C51.6144 57.4751 54.8048 60.1348 58.0325 62.7422C58.5481 63.1606 59.3774 63.0186 59.9453 62.7721C60.2292 62.6525 61.2304 62.0324 60.7149 61.614C49.1039 52.2304 38.0458 42.1593 26.1808 33.0894C22.8633 30.5567 19.4861 28.1062 16.0268 25.7678C15.2497 25.2448 12.5823 26.3879 13.7329 27.1649V27.1723Z" fill="#CACACA"/>
<path d="M58.9134 0.791829C50.4629 10.1606 42.1619 19.6638 34.0103 29.2866C31.6866 32.0284 29.3779 34.7853 27.0766 37.5496C26.6283 38.0875 27.4576 38.3789 27.8611 38.4013C28.5485 38.4386 29.3256 38.1473 29.7664 37.6168C37.8358 27.9193 46.0472 18.3414 54.4155 8.89796C56.7989 6.20837 59.1973 3.52625 61.6032 0.851597C62.0814 0.32115 61.1997 0.0223067 60.8187 -0.000106608C60.1089 -0.037462 59.3841 0.268853 58.9134 0.784358V0.791829Z" fill="#CACACA"/>
<path d="M55.5736 2.6971C50.6273 13.8514 45.9052 25.1178 41.4372 36.4739C40.167 39.6939 38.9192 42.9214 37.6864 46.1564C37.4473 46.7765 38.6129 46.8064 38.9341 46.7765C39.5393 46.7093 40.3388 46.4179 40.5779 45.7978C44.919 34.3895 49.4916 23.0708 54.3109 11.8567C55.6782 8.67397 57.0604 5.50623 58.4651 2.33849C58.7341 1.72586 57.5087 1.68851 57.2173 1.71839C56.5823 1.7931 55.85 2.08448 55.5736 2.6971V2.6971Z" fill="#CACACA"/>
<path d="M37.3584 45.4765C35.3186 48.5023 33.1294 51.4086 30.9925 54.3671C30.6115 54.8901 31.3138 55.1591 31.7322 55.174C32.3823 55.1964 33.1219 54.9424 33.5404 54.4269C35.8342 51.5879 37.9188 48.5621 39.9585 45.5363C40.3246 44.9909 39.6447 44.7294 39.2039 44.7145C38.5912 44.6995 37.7245 44.9311 37.3584 45.4765V45.4765Z" fill="#CACACA"/>
<path d="M28.0113 38.648C28.6913 44.722 29.1993 50.8483 30.1109 56.8998C30.2528 57.8412 32.9277 57.1688 32.853 56.1677C32.3897 50.0638 31.523 43.9748 30.8356 37.8934C30.731 36.9595 27.8918 37.5871 28.0113 38.648V38.648Z" fill="#CACACA"/>
<path d="M34.7587 55.7045C36.0214 54.5465 37.329 53.4408 38.6813 52.3874C40.0337 51.334 41.4234 50.4449 42.8356 49.4064C43.254 49.0926 43.1718 48.6145 42.7011 48.4576C42.1034 48.2559 41.3637 48.4576 40.8407 48.7639C39.294 49.6604 37.837 50.7811 36.4249 51.8719C35.0127 52.9626 33.7276 54.0609 32.45 55.2339C32.293 55.3758 32.0988 55.6224 32.166 55.854C32.2333 56.0856 32.5172 56.2051 32.7264 56.2499C33.3764 56.3919 34.2656 56.1603 34.7662 55.7045H34.7587Z" fill="#CACACA"/>
<path d="M37.3503 51.3786C38.2394 50.5269 39.136 49.6826 40.0251 48.8234C40.1671 48.6815 40.3464 48.4723 40.2866 48.2482C40.2268 48.024 39.9653 47.9194 39.7711 47.8821C39.4423 47.8223 39.0912 47.8447 38.7773 47.9419C38.4635 48.039 38.1273 48.1585 37.8882 48.3901C36.9841 49.2344 36.0875 50.0861 35.1909 50.9378C35.0415 51.0797 34.8622 51.2964 34.922 51.5205C34.9817 51.7446 35.2507 51.8567 35.445 51.8941C35.7737 51.9538 36.1324 51.9314 36.4536 51.8343C36.7749 51.7372 37.1112 51.6102 37.3503 51.3786V51.3786Z" fill="#CACACA"/>
<path d="M33.9666 52.7758L33.6976 52.9102C33.3987 53.0597 33.8919 52.8131 33.6528 52.9327L35.2517 53.7022C36.746 52.0735 38.3001 50.5045 39.8841 48.958C40.0261 48.8161 40.2054 48.6069 40.1457 48.3828C40.0859 48.1586 39.8244 48.054 39.6301 48.0167C39.0249 47.9046 38.203 48.0839 37.7398 48.5247C36.1334 50.0413 34.5942 51.6327 33.1073 53.2689C32.9878 53.4033 32.7636 53.6275 32.8458 53.8441C32.9131 54.0234 33.0625 54.1131 33.2418 54.1729C33.8246 54.3596 34.4971 54.1729 35.0126 53.8815C35.2143 53.7694 35.4161 53.6723 35.6103 53.5677C35.9765 53.3734 36.3949 52.7832 35.842 52.5292C35.2368 52.2603 34.512 52.4993 33.9591 52.7758H33.9666Z" fill="#CACACA"/>
<path d="M38.8826 50.3775C39.4654 49.4437 40.0482 48.5098 40.6086 47.5609C40.7132 47.3742 40.758 47.1799 40.6086 47.0006C40.4591 46.8213 40.1005 46.7615 39.8764 46.7615C39.5177 46.7615 39.1441 46.8213 38.8154 46.9707C38.5464 47.0903 38.255 47.2472 38.0906 47.5012C37.4854 48.4276 36.9101 49.3764 36.3273 50.3178C36.2152 50.5045 36.1779 50.7063 36.3273 50.8856C36.4767 51.0649 36.8429 51.1247 37.067 51.1247C37.4331 51.1247 37.8142 51.0649 38.1429 50.908C38.4119 50.7885 38.7182 50.6316 38.8826 50.3701V50.3775Z" fill="#CACACA"/>
<path d="M38.4871 48.6069C38.8906 49.0999 39.2941 49.593 39.7125 50.0787C39.7947 50.1608 39.8993 50.2206 40.0188 50.243C40.1533 50.2953 40.2953 50.3177 40.4447 50.3177C40.624 50.3177 40.7959 50.3028 40.9677 50.2654C41.1545 50.2356 41.3338 50.1833 41.5057 50.1085L41.812 49.9517C41.9764 49.8545 42.1184 49.735 42.2304 49.5781L42.3201 49.3838C42.35 49.2494 42.3201 49.1298 42.223 49.0252C41.8344 48.5247 41.431 48.0316 41.035 47.546C40.9453 47.4563 40.8482 47.404 40.7286 47.3816C40.5941 47.3293 40.4447 47.3069 40.2953 47.3069C40.116 47.3069 39.9366 47.3218 39.7648 47.3592C39.578 47.3891 39.3987 47.4414 39.2194 47.5161L38.913 47.673C38.7486 47.7701 38.6067 47.8971 38.4871 48.0465L38.39 48.2482C38.3601 48.3902 38.39 48.5097 38.4871 48.6143V48.6069Z" fill="#CACACA"/>
<path d="M3.73628 37.5423L0.269419 41.0089C0.127457 41.1509 -0.0518635 41.3526 0.00790996 41.5767C0.0676834 41.7859 0.329192 41.9054 0.515984 41.9353C0.837266 41.9951 1.18096 41.9727 1.49477 41.8756C1.80858 41.7784 2.14481 41.6664 2.36896 41.4348L5.84329 37.9682C5.98525 37.8262 6.16457 37.6245 6.1048 37.4004C6.04503 37.1912 5.78352 37.0716 5.59673 37.0418C5.27544 36.982 4.93175 37.0044 4.61794 37.1015C4.30413 37.1987 3.9679 37.3107 3.74375 37.5423H3.73628Z" fill="#CACACA"/>
<path d="M14.7487 43.661L8.42762 49.989C8.28566 50.131 8.10634 50.3327 8.16611 50.5643C8.22589 50.7735 8.4874 50.893 8.68166 50.9304C9.27192 51.0424 10.1162 50.8706 10.5571 50.4298L16.8856 44.1018C17.0275 43.9598 17.2068 43.7506 17.1471 43.5265C17.0873 43.3099 16.8258 43.1978 16.6315 43.1604C16.0413 43.0484 15.1895 43.2202 14.7487 43.6685V43.661Z" fill="#CACACA"/>
<path d="M36.9848 59.582C35.0123 61.756 33.0398 63.9376 31.0747 66.1117C30.9328 66.2611 30.746 66.4554 30.8132 66.687C30.873 66.9036 31.142 67.0157 31.3288 67.053C31.8966 67.1576 32.8007 67.0007 33.2191 66.545C35.1991 64.3709 37.1716 62.1894 39.1441 60.0153C39.2861 59.8584 39.4729 59.6716 39.4131 59.4325C39.3533 59.2159 39.0844 59.0963 38.8901 59.059C38.3148 58.9544 37.4032 59.1113 36.9848 59.567V59.582Z" fill="#CACACA"/>
<path d="M55.9483 66.306C53.9758 68.2111 52.0108 70.1162 50.0382 72.0213C49.8963 72.1633 49.7095 72.3725 49.7693 72.5966C49.829 72.8207 50.098 72.9328 50.2923 72.9627C50.8975 73.0748 51.7268 72.8955 52.1901 72.4547C54.1701 70.5495 56.1426 68.6444 58.1151 66.7393C58.2646 66.5973 58.4439 66.3807 58.3841 66.1565C58.3243 65.9324 58.0554 65.8203 57.8611 65.783C57.2484 65.6709 56.4116 65.8502 55.9483 66.2985V66.306Z" fill="#CACACA"/>
</g>
<defs>
<clipPath id="clip0_7_1443">
<rect width="62" height="73" fill="white"/>
</clipPath>
</defs>
</svg>
