<svg width="160" height="160" viewBox="0 0 160 160" fill="none" xmlns="http://www.w3.org/2000/svg">
<path d="M80 143.84C115.257 143.84 143.84 115.257 143.84 80C143.84 44.7427 115.257 16.16 80 16.16C44.7428 16.16 16.16 44.7427 16.16 80C16.16 115.257 44.7428 143.84 80 143.84Z" fill="#EBEBEB"/>
<path d="M79.4005 122.955C102.756 122.955 121.69 121.592 121.69 119.91C121.69 118.227 102.756 116.865 79.4005 116.865C56.0447 116.865 37.1113 118.227 37.1113 119.91C37.1113 121.592 56.0447 122.955 79.4005 122.955Z" fill="#C6C6C6"/>
<path d="M132.104 42.6537C132.104 42.0878 131.993 41.5274 131.776 41.0046C131.56 40.4818 131.242 40.0068 130.842 39.6066C130.442 39.2065 129.967 38.8891 129.444 38.6725C128.921 38.4559 128.361 38.3445 127.795 38.3445H31.0104C29.8675 38.3445 28.7714 38.7985 27.9633 39.6066C27.1552 40.4148 26.7012 41.5108 26.7012 42.6537V105.258H132.104V42.6537Z" fill="white" stroke="#212121" stroke-linecap="round" stroke-linejoin="round"/>
<path d="M124.663 45.7803H34.2405L34.1367 105.258H124.663V45.7803Z" fill="#C6C6C6"/>
<path d="M124.663 45.7803H34.2405L34.1367 105.258H124.663V45.7803Z" stroke="#212121" stroke-linecap="round" stroke-linejoin="round"/>
<path d="M141.406 112.699H17.3965V107.416C17.3963 107.133 17.4519 106.852 17.5602 106.59C17.6684 106.329 17.8272 106.091 18.0275 105.89C18.2277 105.69 18.4655 105.531 18.7272 105.423C18.9889 105.314 19.2694 105.258 19.5527 105.258H139.253C139.536 105.258 139.817 105.313 140.079 105.422C140.34 105.53 140.578 105.689 140.779 105.889C140.979 106.089 141.138 106.327 141.247 106.589C141.355 106.851 141.411 107.131 141.41 107.414L141.406 112.699Z" fill="white" stroke="#212121" stroke-linecap="round" stroke-linejoin="round"/>
<path d="M141.404 112.699C129.887 115.992 117.967 117.664 105.989 117.665H52.8117C40.8335 117.666 28.9137 115.996 17.3965 112.705H141.406L141.404 112.699Z" fill="#C6C6C6" stroke="#212121" stroke-linecap="round" stroke-linejoin="round"/>
<path d="M118.163 80H94.7468C93.7221 80 92.8906 80.8299 92.8906 81.8561V99.3387C92.8906 100.363 93.7205 101.195 94.7468 101.195H118.165C119.19 101.195 120.021 100.365 120.021 99.3387V81.8561C120.021 80.8315 119.191 80 118.165 80H118.163Z" fill="white" stroke="#212121" stroke-linecap="round" stroke-linejoin="round"/>
<path d="M114.816 101.195C114.175 99.4954 113.031 98.0317 111.538 96.9986C110.044 95.9655 108.27 95.4121 106.454 95.4121C104.638 95.4121 102.864 95.9655 101.371 96.9986C99.8767 98.0317 98.733 99.4954 98.0918 101.195H114.818H114.816Z" fill="#C6C6C6" stroke="#212121" stroke-linecap="round" stroke-linejoin="round"/>
<path d="M110.508 89.2792C110.486 90.3402 110.05 91.3506 109.292 92.0935C108.535 92.8364 107.516 93.2526 106.454 93.2526C105.393 93.2526 104.374 92.8364 103.617 92.0935C102.859 91.3506 102.423 90.3402 102.401 89.2792V87.2523C102.381 86.3017 102.695 85.3742 103.29 84.6321C103.884 83.89 104.721 83.3805 105.653 83.1927C106.585 83.005 107.553 83.1509 108.388 83.6051C109.224 84.0592 109.873 84.7927 110.222 85.677C110.421 86.1781 110.519 86.7144 110.508 87.2523V89.2792Z" fill="#C6C6C6" stroke="#212121" stroke-linecap="round" stroke-linejoin="round"/>
<path d="M106.569 65.783C107.225 65.783 107.875 65.6537 108.482 65.4025C109.088 65.1513 109.639 64.7831 110.104 64.3189C110.568 63.8547 110.936 63.3037 111.187 62.6972C111.438 62.0908 111.568 61.4408 111.568 60.7843C111.568 60.1279 111.438 59.4779 111.187 58.8714C110.936 58.2649 110.568 57.7139 110.104 57.2497C109.639 56.7856 109.088 56.4174 108.482 56.1661C107.875 55.9149 107.225 55.7856 106.569 55.7856C105.243 55.7856 103.972 56.3123 103.034 57.2497C102.097 58.1872 101.57 59.4586 101.57 60.7843C101.57 62.1101 102.097 63.3815 103.034 64.3189C103.972 65.2563 105.243 65.783 106.569 65.783Z" fill="white" stroke="#212121" stroke-linecap="round" stroke-linejoin="round"/>
<path d="M89.7931 105.257C88.7003 100.361 85.9717 95.9834 82.0573 92.8464C78.1428 89.7093 73.2762 87.9999 68.2598 87.9999C63.2435 87.9999 58.3768 89.7093 54.4624 92.8464C50.5479 95.9834 47.8194 100.361 46.7266 105.257H89.7931Z" fill="#C6C6C6" stroke="#212121" stroke-linecap="round" stroke-linejoin="round"/>
<path d="M63.3779 105.257L59.5156 89.7994C62.2779 88.6116 65.2533 87.999 68.2601 87.999C71.267 87.999 74.2423 88.6116 77.0046 89.7994L73.1375 105.257H63.3779Z" fill="white" stroke="#212121" stroke-linecap="round" stroke-linejoin="round"/>
<path d="M73.1414 105.257L75.5498 95.6185L68.2593 93.6235L60.9688 95.6185L63.3771 105.257H73.1414Z" fill="white" stroke="#212121" stroke-linecap="round" stroke-linejoin="round"/>
<path d="M71.0654 105.257L68.2612 87.9993L65.457 105.257H71.0654Z" fill="#C6C6C6" stroke="#212121" stroke-linecap="round" stroke-linejoin="round"/>
<path d="M80.6778 91.8246L81.4646 94.707C81.5364 94.9077 81.5568 95.1232 81.524 95.3338C81.4912 95.5444 81.4061 95.7434 81.2767 95.9127C81.1472 96.082 80.9774 96.2162 80.7827 96.3031C80.5881 96.3899 80.3748 96.4267 80.1623 96.4099H79.4872C79.2848 96.385 79.0795 96.4167 78.894 96.5015C78.7086 96.5863 78.5503 96.7208 78.4367 96.8901C78.3231 97.0594 78.2586 97.2569 78.2505 97.4607C78.2424 97.6644 78.291 97.8664 78.3907 98.0443L79.1568 99.9116C79.329 100.363 79.3356 100.861 79.1755 101.317C79.0154 101.772 78.6989 102.157 78.2822 102.401L73.1367 105.257L76.999 89.7993C78.287 90.3563 79.5191 91.0346 80.6778 91.8246Z" fill="#C6C6C6" stroke="#212121" stroke-linecap="round" stroke-linejoin="round"/>
<path d="M59.5153 89.7994L63.3777 105.257L58.2369 102.401C57.8201 102.157 57.5034 101.773 57.3432 101.317C57.1831 100.861 57.1898 100.363 57.3623 99.9117L58.1268 98.0444C58.2272 97.8666 58.2763 97.6645 58.2684 97.4605C58.2606 97.2565 58.1962 97.0587 58.0825 96.8891C57.9688 96.7196 57.8102 96.585 57.6244 96.5004C57.4386 96.4158 57.2329 96.3846 57.0304 96.4101H56.9011C56.6291 96.4103 56.3608 96.3476 56.1171 96.227C55.8733 96.1064 55.6607 95.9312 55.4959 95.7149C55.3311 95.4986 55.2184 95.2471 55.1668 94.9801C55.1151 94.7132 55.1259 94.4378 55.1982 94.1757L55.8366 91.82C56.9961 91.0315 58.2279 90.355 59.5153 89.7994Z" fill="#C6C6C6" stroke="#212121" stroke-linecap="round" stroke-linejoin="round"/>
<path d="M73.2665 88.5578L68.2598 93.6235L63.242 88.5578L63.2532 77.8454H73.2777L73.2665 88.5578Z" fill="white" stroke="#212121" stroke-linecap="round" stroke-linejoin="round"/>
<path d="M82.98 73.5681C82.9749 72.9696 82.7627 72.3914 82.3795 71.9317C81.9963 71.472 81.4658 71.1592 80.8781 71.0464V69.3626C80.8781 66.0161 79.5487 62.8067 77.1823 60.4404C74.816 58.074 71.6066 56.7446 68.2601 56.7446C64.9136 56.7446 61.7042 58.074 59.3378 60.4404C56.9715 62.8067 55.6421 66.0161 55.6421 69.3626V71.0464C55.0223 71.1547 54.4635 71.4862 54.0714 71.9783C53.6792 72.4703 53.4806 73.0889 53.5132 73.7173C53.5458 74.3457 53.8073 74.9404 54.2483 75.3892C54.6893 75.8381 55.2793 76.1099 55.907 76.1536C56.4997 78.9913 58.0513 81.5384 60.3009 83.3668C62.5506 85.1952 65.3611 86.1932 68.2601 86.1932C71.159 86.1932 73.9696 85.1952 76.2192 83.3668C78.4689 81.5384 80.0205 78.9913 80.6131 76.1536C81.2589 76.0951 81.8596 75.7976 82.2974 75.3193C82.7352 74.841 82.9787 74.2165 82.98 73.5681Z" fill="white" stroke="#212121" stroke-linecap="round" stroke-linejoin="round"/>
<path d="M63.528 72.5162C63.9462 72.5162 64.3473 72.3501 64.643 72.0544C64.9387 71.7587 65.1049 71.3576 65.1049 70.9394C65.1049 70.5212 64.9387 70.1201 64.643 69.8244C64.3473 69.5287 63.9462 69.3625 63.528 69.3625C63.1098 69.3625 62.7087 69.5287 62.413 69.8244C62.1173 70.1201 61.9512 70.5212 61.9512 70.9394C61.9512 71.3576 62.1173 71.7587 62.413 72.0544C62.7087 72.3501 63.1098 72.5162 63.528 72.5162Z" fill="#212121"/>
<path d="M72.9909 72.5162C73.4091 72.5162 73.8102 72.3501 74.1059 72.0544C74.4016 71.7587 74.5678 71.3576 74.5678 70.9394C74.5678 70.5212 74.4016 70.1201 74.1059 69.8244C73.8102 69.5287 73.4091 69.3625 72.9909 69.3625C72.5727 69.3625 72.1716 69.5287 71.8759 69.8244C71.5802 70.1201 71.4141 70.5212 71.4141 70.9394C71.4141 71.3576 71.5802 71.7587 71.8759 72.0544C72.1716 72.3501 72.5727 72.5162 72.9909 72.5162Z" fill="#212121"/>
<path d="M61.4229 76.7235C61.63 76.7236 61.8351 76.6829 62.0264 76.6038C62.2178 76.5246 62.3916 76.4086 62.5381 76.2622C62.6846 76.1159 62.8009 75.9421 62.8802 75.7508C62.9596 75.5596 63.0005 75.3545 63.0006 75.1475C63.0007 74.9404 62.96 74.7353 62.8808 74.544C62.8017 74.3526 62.6856 74.1787 62.5393 74.0322C62.3929 73.8857 62.2191 73.7695 62.0279 73.6902C61.8366 73.6108 61.6316 73.5699 61.4245 73.5698C61.0063 73.5698 60.6052 73.736 60.3095 74.0317C60.0138 74.3274 59.8477 74.7285 59.8477 75.1467C59.8477 75.5649 60.0138 75.966 60.3095 76.2617C60.6052 76.5574 61.0063 76.7235 61.4245 76.7235H61.4229Z" fill="#C6C6C6"/>
<path d="M75.0925 76.7235C75.5107 76.7235 75.9118 76.5574 76.2075 76.2617C76.5032 75.966 76.6693 75.5649 76.6693 75.1467C76.6693 74.7285 76.5032 74.3274 76.2075 74.0317C75.9118 73.736 75.5107 73.5698 75.0925 73.5698C74.6743 73.5698 74.2732 73.736 73.9775 74.0317C73.6818 74.3274 73.5156 74.7285 73.5156 75.1467C73.5156 75.5649 73.6818 75.966 73.9775 76.2617C74.2732 76.5574 74.6743 76.7235 75.0925 76.7235Z" fill="#C6C6C6"/>
<path d="M65.1055 78.9226C66.0396 79.5454 67.1372 79.8778 68.26 79.8778C69.3827 79.8778 70.4803 79.5454 71.4145 78.9226" stroke="#212121" stroke-linecap="round" stroke-linejoin="round"/>
<path d="M81.9296 66.209C81.9296 62.5836 80.4894 59.1066 77.9258 56.543C75.3622 53.9795 71.8853 52.5392 68.2598 52.5392C64.6344 52.5392 61.1574 53.9795 58.5939 56.543C56.0303 59.1066 54.5901 62.5836 54.5901 66.209V70.4144C56.2221 70.0054 57.7366 69.2224 59.0141 68.1275C60.2915 67.0326 61.2969 65.6557 61.9508 64.1055C67.8417 68.0715 75.6206 67.2608 81.9296 66.209Z" fill="white"/>
<path d="M81.9296 66.209C81.9296 62.5836 80.4894 59.1066 77.9258 56.543C75.3622 53.9795 71.8853 52.5392 68.2598 52.5392C64.6344 52.5392 61.1574 53.9795 58.5939 56.543C56.0303 59.1066 54.5901 62.5836 54.5901 66.209V70.4144C56.2221 70.0054 57.7366 69.2224 59.0141 68.1275C60.2915 67.0326 61.2969 65.6557 61.9508 64.1055C67.8417 68.0715 75.6206 67.2608 81.9296 66.209Z" stroke="#212121" stroke-linecap="round" stroke-linejoin="round"/>
<path d="M59.8477 62.002C60.3833 62.8512 61.102 63.5699 61.9512 64.1055" stroke="#212121" stroke-linecap="round" stroke-linejoin="round"/>
</svg>
