<svg width="92" height="22" viewBox="0 0 92 22" fill="none" xmlns="http://www.w3.org/2000/svg">
<path d="M90 13C91.1046 13 92 12.1046 92 11C92 9.89543 91.1046 9 90 9V13ZM0.333333 11C0.333333 16.891 5.10896 21.6667 11 21.6667C16.891 21.6667 21.6667 16.891 21.6667 11C21.6667 5.10896 16.891 0.333333 11 0.333333C5.10896 0.333333 0.333333 5.10896 0.333333 11ZM17.5833 13C18.6879 13 19.5833 12.1046 19.5833 11C19.5833 9.89543 18.6879 9 17.5833 9V13ZM30.75 9C29.6454 9 28.75 9.89543 28.75 11C28.75 12.1046 29.6454 13 30.75 13V9ZM43.9167 13C45.0212 13 45.9167 12.1046 45.9167 11C45.9167 9.89543 45.0212 9 43.9167 9V13ZM57.0833 9C55.9788 9 55.0833 9.89543 55.0833 11C55.0833 12.1046 55.9788 13 57.0833 13V9ZM70.25 13C71.3546 13 72.25 12.1046 72.25 11C72.25 9.89543 71.3546 9 70.25 9V13ZM83.4167 9C82.3121 9 81.4167 9.89543 81.4167 11C81.4167 12.1046 82.3121 13 83.4167 13V9ZM11 13H17.5833V9H11V13ZM30.75 13H43.9167V9H30.75V13ZM57.0833 13H70.25V9H57.0833V13ZM83.4167 13H90V9H83.4167V13Z" fill="#FF980E"/>
</svg>
