<svg width="101" height="22" viewBox="0 0 101 22" fill="none" xmlns="http://www.w3.org/2000/svg">
<path d="M99 13C100.105 13 101 12.1046 101 11C101 9.89543 100.105 9 99 9V13ZM0.333333 11C0.333333 16.891 5.10896 21.6667 11 21.6667C16.891 21.6667 21.6667 16.891 21.6667 11C21.6667 5.10896 16.891 0.333333 11 0.333333C5.10896 0.333333 0.333333 5.10896 0.333333 11ZM16.5 13C17.6046 13 18.5 12.1046 18.5 11C18.5 9.89543 17.6046 9 16.5 9V13ZM27.5 9C26.3954 9 25.5 9.89543 25.5 11C25.5 12.1046 26.3954 13 27.5 13V9ZM38.5 13C39.6046 13 40.5 12.1046 40.5 11C40.5 9.89543 39.6046 9 38.5 9V13ZM49.5 9C48.3954 9 47.5 9.89543 47.5 11C47.5 12.1046 48.3954 13 49.5 13V9ZM60.5 13C61.6046 13 62.5 12.1046 62.5 11C62.5 9.89543 61.6046 9 60.5 9V13ZM71.5 9C70.3954 9 69.5 9.89543 69.5 11C69.5 12.1046 70.3954 13 71.5 13V9ZM82.5 13C83.6046 13 84.5 12.1046 84.5 11C84.5 9.89543 83.6046 9 82.5 9V13ZM93.5 9C92.3954 9 91.5 9.89543 91.5 11C91.5 12.1046 92.3954 13 93.5 13V9ZM11 13H16.5V9H11V13ZM27.5 13H38.5V9H27.5V13ZM49.5 13H60.5V9H49.5V13ZM71.5 13H82.5V9H71.5V13ZM93.5 13H99V9H93.5V13Z" fill="#FF980E"/>
</svg>
