<svg width="22" height="120" viewBox="0 0 22 120" fill="none" xmlns="http://www.w3.org/2000/svg">
<path d="M0.333333 11C0.333333 5.10896 5.10896 0.333333 11 0.333333C16.891 0.333333 21.6667 5.10896 21.6667 11C21.6667 16.891 16.891 21.6667 11 21.6667C5.10896 21.6667 0.333333 16.891 0.333333 11ZM13 118C13 119.105 12.1046 120 11 120C9.89543 120 9 119.105 9 118H13ZM9 111.312C9 110.208 9.89543 109.312 11 109.312C12.1046 109.312 13 110.208 13 111.312H9ZM13 97.9375C13 99.0421 12.1046 99.9375 11 99.9375C9.89543 99.9375 9 99.0421 9 97.9375H13ZM9 84.5625C9 83.4579 9.89543 82.5625 11 82.5625C12.1046 82.5625 13 83.4579 13 84.5625H9ZM13 71.1875C13 72.2921 12.1046 73.1875 11 73.1875C9.89543 73.1875 9 72.2921 9 71.1875H13ZM9 57.8125C9 56.7079 9.89543 55.8125 11 55.8125C12.1046 55.8125 13 56.7079 13 57.8125H9ZM13 44.4375C13 45.5421 12.1046 46.4375 11 46.4375C9.89543 46.4375 9 45.5421 9 44.4375H13ZM9 31.0625C9 29.9579 9.89543 29.0625 11 29.0625C12.1046 29.0625 13 29.9579 13 31.0625H9ZM13 17.6875C13 18.7921 12.1046 19.6875 11 19.6875C9.89543 19.6875 9 18.7921 9 17.6875H13ZM9 118V111.312H13V118H9ZM9 97.9375V84.5625H13V97.9375H9ZM9 71.1875V57.8125H13V71.1875H9ZM9 44.4375V31.0625H13V44.4375H9ZM9 17.6875V11H13V17.6875H9Z" fill="#FF980E"/>
</svg>
