<svg width="160" height="160" viewBox="0 0 160 160" fill="none" xmlns="http://www.w3.org/2000/svg">
<path d="M49.9438 138.637C57.6468 141.97 65.9315 143.752 74.3237 143.879C82.7159 144.007 91.051 142.479 98.8519 139.382C106.653 136.285 113.767 131.68 119.786 125.831C125.805 119.982 130.612 113.003 133.931 105.294C137.251 97.585 139.017 89.2971 139.13 80.9047C139.243 72.5123 137.7 64.18 134.589 56.3846C131.478 48.5892 126.86 41.4838 121 35.4749C115.14 29.466 108.153 24.6717 100.438 21.3662C92.7351 18.0331 84.4504 16.2517 76.0582 16.1239C67.666 15.9961 59.3309 17.5244 51.53 20.6213C43.7291 23.7183 36.6154 28.3232 30.5961 34.1724C24.5767 40.0216 19.7699 47.0003 16.4506 54.7093C13.1313 62.4182 11.3647 70.7061 11.2519 79.0985C11.1391 87.4909 12.6823 95.8232 15.7932 103.619C18.9041 111.414 23.5217 118.519 29.3817 124.528C35.2416 130.537 42.229 135.332 49.9438 138.637Z" fill="#E6E6E6"/>
<path d="M21.6074 53.9979L75.6384 34.4597L101.692 106.502L47.6589 126.04L21.6074 53.9979Z" fill="#EAEAEA"/>
<path d="M42.4589 60.034L69.4744 50.2649" stroke="#212121" stroke-linecap="round" stroke-linejoin="round"/>
<path d="M37.668 70.2532L72.1879 57.7693" stroke="#212121" stroke-linecap="round" stroke-linejoin="round"/>
<path d="M40.3828 77.7576L74.9027 65.2737" stroke="#212121" stroke-linecap="round" stroke-linejoin="round"/>
<path d="M43.0957 85.262L77.6156 72.7781" stroke="#212121" stroke-linecap="round" stroke-linejoin="round"/>
<path d="M45.8086 92.7664L80.3301 80.2825" stroke="#212121" stroke-linecap="round" stroke-linejoin="round"/>
<path d="M48.5234 100.271L83.0433 87.7869" stroke="#212121" stroke-linecap="round" stroke-linejoin="round"/>
<path d="M51.2383 107.775L85.7582 95.2913" stroke="#212121" stroke-linecap="round" stroke-linejoin="round"/>
<path d="M21.6074 53.9979L75.6384 34.4597L101.692 106.502L47.6589 126.04L21.6074 53.9979Z" stroke="#212121" stroke-linecap="round" stroke-linejoin="round"/>
<path d="M47.6484 42.0614L105.101 41.4421L105.928 118.045L48.4752 118.665L47.6484 42.0614Z" fill="white"/>
<path d="M65.3398 54.638L94.0662 54.3284" stroke="#212121" stroke-linecap="round" stroke-linejoin="round"/>
<path d="M57.4473 62.704L94.1537 62.3066" stroke="#212121" stroke-linecap="round" stroke-linejoin="round"/>
<path d="M57.5331 70.6826L94.2395 70.2867" stroke="#212121" stroke-linecap="round" stroke-linejoin="round"/>
<path d="M57.6193 78.6626L94.3257 78.2667" stroke="#212121" stroke-linecap="round" stroke-linejoin="round"/>
<path d="M57.7051 86.6426L94.4115 86.2468" stroke="#212121" stroke-linecap="round" stroke-linejoin="round"/>
<path d="M57.793 94.6209L94.4994 94.2251" stroke="#212121" stroke-linecap="round" stroke-linejoin="round"/>
<path d="M57.877 102.601L94.5834 102.205" stroke="#212121" stroke-linecap="round" stroke-linejoin="round"/>
<path d="M47.6484 42.0614L105.101 41.4421L105.928 118.045L48.4752 118.665L47.6484 42.0614Z" stroke="#212121" stroke-linecap="round" stroke-linejoin="round"/>
<path d="M101.825 88.1236C102.672 88.2849 103.419 88.7759 103.904 89.4885C104.389 90.2012 104.57 91.0771 104.409 91.9237L102.43 102.298C102.268 103.144 101.777 103.892 101.064 104.376C100.352 104.861 99.4755 105.042 98.629 104.881C97.7824 104.719 97.0347 104.228 96.5502 103.515C96.0658 102.803 95.8844 101.927 96.0458 101.08L98.0249 90.706C98.1047 90.2868 98.2664 89.8876 98.5006 89.5309C98.7348 89.1743 99.037 88.8673 99.3899 88.6275C99.7428 88.3877 100.139 88.2197 100.557 88.1333C100.975 88.0468 101.406 88.0436 101.825 88.1236Z" fill="white" stroke="#212121"/>
<path d="M98.6312 86.6696C98.9777 86.9188 99.2717 87.2337 99.4964 87.5966C99.7212 87.9594 99.8722 88.3629 99.941 88.7841C100.01 89.2053 99.9949 89.6359 99.8972 90.0514C99.7995 90.4668 99.621 90.859 99.3717 91.2054L94.5231 98.1656C94.2735 98.5123 93.958 98.8065 93.5947 99.0314C93.2313 99.2562 92.8273 99.4073 92.4056 99.476C91.9839 99.5447 91.5528 99.5297 91.1369 99.4317C90.721 99.3338 90.3284 99.1549 89.9817 98.9053C89.6349 98.6557 89.3407 98.3402 89.1158 97.9769C88.891 97.6136 88.7399 97.2095 88.6712 96.7878C88.6025 96.3661 88.6176 95.935 88.7155 95.5191C88.8134 95.1032 88.9923 94.7107 89.2419 94.3639L94.0954 87.4037C94.5996 86.705 95.3606 86.2351 96.2112 86.0974C97.0618 85.9597 97.9323 86.1656 98.6312 86.6696Z" fill="white" stroke="#212121"/>
<path d="M107.882 102.221C112.459 104.752 114.437 105.929 117.583 109.689L120.443 112.983L136.498 100.748L133.626 97.6645C129.235 93.4287 129.586 84.7673 121.423 78.9913C111.111 71.6976 97.2001 71.2252 83.1186 84.6491C82.8084 84.9426 82.559 85.2942 82.3847 85.684C82.2105 86.0738 82.1146 86.4941 82.1028 86.9209C82.0909 87.3478 82.1633 87.7727 82.3156 88.1716C82.468 88.5705 82.6975 88.9354 82.9909 89.2456C83.5835 89.8721 84.4007 90.2375 85.2627 90.2614C85.6895 90.2733 86.1145 90.201 86.5134 90.0486C86.9122 89.8962 87.2772 89.6667 87.5874 89.3733C88.4839 88.5268 89.4102 87.7123 90.3644 86.9314C92.1383 85.5033 94.0227 84.2182 95.9999 83.0883C100.085 80.5909 104.992 79.8101 109.65 80.9161C113.305 81.9024 113.722 85.3099 112.204 87.024C110.966 88.1642 109.369 88.836 107.688 88.9235C106.008 89.0109 104.349 88.5084 103 87.5028L96.0031 83.0851C94.0256 84.2146 92.1412 85.4997 90.3676 86.9282C90.6113 87.2682 90.9186 87.5576 91.2725 87.7805C102.574 99.0451 104.952 100.601 107.882 102.221Z" fill="white"/>
<path d="M112.187 87.0222C110.949 88.1622 109.351 88.8339 107.67 88.9213C105.99 89.0088 104.331 88.5064 102.981 87.501L95.9844 83.0832C100.07 80.5865 104.976 79.8058 109.635 80.9111C113.29 81.9054 113.706 85.3128 112.187 87.0222Z" fill="#EAEAEA" stroke="#212121" stroke-linejoin="round"/>
<path d="M107.882 102.221C112.459 104.752 114.437 105.929 117.583 109.689L120.443 112.983L136.498 100.748L133.626 97.6645C129.235 93.4287 129.586 84.7673 121.423 78.9913C111.111 71.6976 97.2001 71.2252 83.1186 84.6491C82.8084 84.9426 82.559 85.2942 82.3847 85.684C82.2105 86.0738 82.1146 86.4941 82.1028 86.9209C82.0909 87.3478 82.1633 87.7727 82.3156 88.1716C82.468 88.5705 82.6975 88.9354 82.9909 89.2456C83.5835 89.8721 84.4007 90.2375 85.2627 90.2614C85.6895 90.2733 86.1145 90.201 86.5134 90.0486C86.9122 89.8962 87.2772 89.6667 87.5874 89.3733C88.4839 88.5268 89.4102 87.7123 90.3644 86.9314C92.1383 85.5033 94.0227 84.2182 95.9999 83.0883C100.085 80.5909 104.992 79.8101 109.65 80.9161C113.305 81.9024 113.722 85.3099 112.204 87.024C110.966 88.1642 109.369 88.836 107.688 88.9235C106.008 89.0109 104.349 88.5084 103 87.5028L96.0031 83.0851C94.0256 84.2146 92.1412 85.4997 90.3676 86.9282C90.6113 87.2682 90.9186 87.5576 91.2725 87.7805C102.574 99.0451 104.952 100.601 107.882 102.221Z" stroke="#212121" stroke-linecap="round" stroke-linejoin="round"/>
<path d="M148.649 112.983L139.392 100.955C139.24 100.755 139.049 100.586 138.831 100.459C138.613 100.332 138.373 100.249 138.123 100.215C137.873 100.181 137.619 100.197 137.375 100.262C137.132 100.326 136.903 100.438 136.703 100.592L119.724 113.529C119.524 113.681 119.355 113.872 119.228 114.089C119.101 114.307 119.018 114.548 118.984 114.798C118.95 115.048 118.966 115.302 119.031 115.545C119.095 115.789 119.207 116.018 119.361 116.218L128.617 128.245" fill="#EAEAEA"/>
<path d="M119.491 113.708L117.699 111.357C117.545 111.156 117.433 110.928 117.369 110.684C117.304 110.44 117.288 110.186 117.322 109.937C117.356 109.687 117.439 109.446 117.566 109.228C117.693 109.01 117.862 108.82 118.062 108.667L132.457 97.6998C132.657 97.5466 132.886 97.4345 133.129 97.3699C133.373 97.3053 133.627 97.2894 133.877 97.3232C134.127 97.357 134.368 97.4398 134.585 97.5669C134.803 97.694 134.994 97.8628 135.146 98.0636L136.938 100.415L119.491 113.708Z" fill="white" stroke="#212121" stroke-linecap="round" stroke-linejoin="round"/>
<path d="M90.4658 95.1906L87.4062 88.0182L124.255 72.5354L127.316 79.7094L90.4658 95.1906Z" fill="#EAEAEA"/>
<path d="M87.4061 88.0183C87.2242 88.0072 79.9688 95.4301 79.9688 95.4301L90.4656 95.1907L87.4061 88.0183Z" fill="white"/>
<path d="M90.4658 95.1906L87.4062 88.0182L124.255 72.5354L127.316 79.7094L90.4658 95.1906Z" stroke="#212121" stroke-linecap="round" stroke-linejoin="round"/>
<path d="M124.254 72.5355L127.84 71.0049L130.901 78.179L127.315 79.7111L124.254 72.5355Z" fill="white"/>
<path d="M124.254 72.5355L127.84 71.0049L130.901 78.179L127.315 79.7111L124.254 72.5355Z" stroke="#212121" stroke-linecap="round" stroke-linejoin="round"/>
<path d="M133.592 77.0315C134.524 76.6126 135.254 75.845 135.626 74.8935C135.997 73.942 135.981 72.8826 135.58 71.943C135.179 71.0034 134.426 70.2586 133.481 69.8686C132.537 69.4787 131.478 69.4747 130.531 69.8575L127.84 71.005L130.901 78.187L133.592 77.0315Z" fill="#EAEAEA"/>
<path d="M133.592 77.0315C134.524 76.6126 135.254 75.845 135.626 74.8935C135.997 73.942 135.981 72.8826 135.58 71.943C135.179 71.0034 134.426 70.2586 133.481 69.8686C132.537 69.4787 131.478 69.4747 130.531 69.8575L127.84 71.005L130.901 78.187L133.592 77.0315Z" stroke="#212121" stroke-linecap="round" stroke-linejoin="round"/>
<path d="M79.9674 95.4302L78.1719 96.1915" stroke="#212121" stroke-linecap="round" stroke-linejoin="round"/>
<path d="M87.4061 88.0183C87.2242 88.0072 79.9688 95.4301 79.9688 95.4301L90.4656 95.1907L87.4061 88.0183Z" stroke="#212121" stroke-linecap="round" stroke-linejoin="round"/>
<path d="M112.188 87.0224C110.95 88.1624 109.352 88.8342 107.672 88.9216C105.991 89.009 104.332 88.5066 102.982 87.5012L94.7231 82.2855C94.3622 82.0481 93.9576 81.885 93.5329 81.8057C93.1082 81.7264 92.672 81.7326 92.2497 81.8239C91.8275 81.9151 91.4276 82.0896 91.0736 82.3372C90.7195 82.5847 90.4183 82.9004 90.1877 83.2656C89.957 83.6309 89.8014 84.0385 89.7301 84.4646C89.6587 84.8906 89.673 85.3267 89.772 85.7472C89.8711 86.1676 90.053 86.5642 90.3071 86.9136C90.5611 87.263 90.8823 87.5582 91.2518 87.7821C102.574 99.0371 104.952 100.593 107.882 102.213" fill="white"/>
<path d="M112.188 87.0224C110.95 88.1624 109.352 88.8342 107.672 88.9216C105.991 89.009 104.332 88.5066 102.982 87.5012L94.7231 82.2855C94.3622 82.0481 93.9576 81.885 93.5329 81.8057C93.1082 81.7264 92.672 81.7326 92.2497 81.8239C91.8275 81.9151 91.4276 82.0896 91.0736 82.3372C90.7195 82.5847 90.4183 82.9004 90.1877 83.2656C89.957 83.6309 89.8014 84.0385 89.7301 84.4646C89.6587 84.8906 89.673 85.3267 89.772 85.7472C89.8711 86.1676 90.053 86.5642 90.3071 86.9136C90.5611 87.263 90.8823 87.5582 91.2518 87.7821C102.574 99.0371 104.952 100.593 107.882 102.213" stroke="#212121" stroke-linecap="round" stroke-linejoin="round"/>
<path d="M148.649 112.983L139.392 100.955C139.24 100.755 139.049 100.586 138.831 100.459C138.613 100.332 138.373 100.249 138.123 100.215C137.873 100.181 137.619 100.197 137.375 100.262C137.132 100.326 136.903 100.438 136.703 100.592L119.724 113.529C119.524 113.681 119.355 113.872 119.228 114.089C119.101 114.307 119.018 114.548 118.984 114.798C118.95 115.048 118.966 115.302 119.031 115.545C119.095 115.789 119.207 116.018 119.361 116.218L128.617 128.245" stroke="#212121" stroke-linecap="round" stroke-linejoin="round"/>
<path d="M112.188 87.0224C110.95 88.1624 109.352 88.8342 107.672 88.9216C105.991 89.009 104.332 88.5066 102.982 87.5012L94.7231 82.2855C94.3622 82.0481 93.9576 81.885 93.5329 81.8057C93.1082 81.7264 92.672 81.7326 92.2497 81.8239C91.8275 81.9151 91.4276 82.0896 91.0736 82.3372C90.7195 82.5847 90.4183 82.9004 90.1877 83.2656C89.957 83.6309 89.8014 84.0385 89.7301 84.4646C89.6587 84.8906 89.673 85.3267 89.772 85.7472C89.8711 86.1676 90.053 86.5642 90.3071 86.9136C90.5611 87.263 90.8823 87.5582 91.2518 87.7821C102.574 99.0371 104.952 100.593 107.882 102.213" stroke="#212121" stroke-linecap="round" stroke-linejoin="round"/>
</svg>
