<svg width="60" height="60" viewBox="0 0 60 60" fill="none" xmlns="http://www.w3.org/2000/svg">
<path d="M54.6094 30C54.6094 43.5914 43.5914 54.6094 30 54.6094C16.4086 54.6094 5.39062 43.5914 5.39062 30C5.39062 16.4086 16.4086 5.39062 30 5.39062C43.5914 5.39062 54.6094 16.4086 54.6094 30Z" stroke="white" stroke-width="3" stroke-linejoin="round"/>
<path d="M19.4531 21.7969V24.1406" stroke="white" stroke-width="3" stroke-linecap="round" stroke-linejoin="round"/>
<path d="M40.5469 21.7969V24.1406" stroke="white" stroke-width="3" stroke-linecap="round" stroke-linejoin="round"/>
<path d="M39.375 42.8906C39.375 40.4042 38.3873 38.0197 36.6291 36.2615C34.871 34.5033 32.4864 33.5156 30 33.5156C27.5136 33.5156 25.129 34.5033 23.3709 36.2615C21.6127 38.0197 20.625 40.4042 20.625 42.8906" stroke="white" stroke-width="3" stroke-linecap="round" stroke-linejoin="round"/>
</svg>
