<svg width="30" height="30" viewBox="0 0 30 30" fill="none" xmlns="http://www.w3.org/2000/svg">
<g clip-path="url(#clip0_719_868)">
<path d="M4.5514 17.9551C4.5338 17.8953 4.52964 17.8325 4.55131 17.7739C4.60277 17.6349 4.75335 17.3439 5.18156 16.9585C5.60977 16.5731 5.91476 16.4541 6.05841 16.4175C6.11896 16.4021 6.18097 16.4129 6.2388 16.4365C6.40691 16.5059 6.7901 16.67 7.13964 16.8618C7.4709 16.7443 7.81628 16.6712 8.16674 16.6443C8.40832 16.327 8.69246 16.0208 8.81807 15.8888C8.8611 15.8438 8.9134 15.8087 8.97486 15.7982C9.12121 15.7734 9.44829 15.758 9.99602 15.9364C10.5441 16.1145 10.7995 16.3191 10.9033 16.4253C10.9467 16.4701 10.9685 16.529 10.9767 16.591C11.0007 16.7715 11.0505 17.1858 11.0592 17.5844C11.3263 17.8127 11.5623 18.0749 11.7613 18.3645C12.1569 18.4152 12.5636 18.508 12.7406 18.5508C12.8012 18.5656 12.8578 18.5935 12.8976 18.6412C12.9923 18.7556 13.1689 19.0312 13.2886 19.5948C13.4082 20.1584 13.3587 20.4821 13.3188 20.6249C13.3019 20.6849 13.2617 20.7331 13.212 20.7714C13.0676 20.8825 12.7335 21.1328 12.3926 21.3395C12.3293 21.6853 12.2203 22.0211 12.0687 22.3383C12.2225 22.706 12.3452 23.1041 12.3969 23.279C12.4144 23.339 12.4184 23.4016 12.3967 23.4602C12.3452 23.5992 12.1948 23.89 11.7666 24.2754C11.3384 24.6608 11.0334 24.7798 10.8896 24.8165C10.829 24.8319 10.7672 24.8214 10.7094 24.7974C10.5413 24.728 10.1579 24.5641 9.80836 24.3723C9.47709 24.4898 9.13172 24.5629 8.78126 24.5897C8.53968 24.9071 8.25571 25.2131 8.13028 25.3449C8.08708 25.3901 8.03478 25.4252 7.97332 25.4357C7.82696 25.4605 7.49988 25.4759 6.95198 25.2977C6.40407 25.1195 6.14865 24.9148 6.04505 24.8085C6.00125 24.764 5.97963 24.705 5.97145 24.643C5.94742 24.4625 5.89771 24.0481 5.88898 23.6495C5.62188 23.4212 5.38584 23.159 5.18689 22.8694C4.79126 22.8187 4.38457 22.7259 4.20742 22.6832C4.14679 22.6684 4.09017 22.6406 4.05037 22.5928C3.95582 22.4783 3.77914 22.2028 3.65945 21.6392C3.53993 21.0755 3.58932 20.752 3.6292 20.6092C3.6463 20.549 3.68651 20.5009 3.73599 20.4626C3.88041 20.3516 4.21472 20.1012 4.55553 19.8944C4.61891 19.5486 4.72783 19.2128 4.87944 18.8956C4.72553 18.528 4.60294 18.1298 4.5514 17.9551Z" stroke="white" stroke-opacity="0.8" stroke-linecap="round" stroke-linejoin="round"/>
<path d="M6.73193 22.185C7.14776 22.647 7.7301 22.9249 8.35084 22.9576C8.97158 22.9903 9.57988 22.775 10.0419 22.3592C10.504 21.9434 10.7819 21.3611 10.8146 20.7403C10.8472 20.1196 10.632 19.5113 10.2162 19.0492C9.80033 18.5872 9.21799 18.3093 8.59725 18.2766C7.97651 18.2439 7.36821 18.4592 6.90617 18.875C6.44414 19.2908 6.16621 19.8732 6.13353 20.4939C6.10086 21.1146 6.31611 21.7229 6.73193 22.185Z" stroke="white" stroke-opacity="0.8" stroke-linecap="round" stroke-linejoin="round"/>
</g>
<g clip-path="url(#clip1_719_868)">
<path d="M21.5995 6.00529C21.6788 5.98018 21.7624 5.97288 21.8411 6.00014C22.0279 6.06488 22.4199 6.25751 22.9456 6.81762C23.4712 7.37773 23.6384 7.78098 23.6911 7.97146C23.7133 8.05176 23.7007 8.13471 23.6709 8.21246C23.583 8.43849 23.375 8.95386 23.129 9.42514C23.2948 9.86346 23.4019 10.3218 23.4474 10.7883C23.8772 11.1015 24.2932 11.4717 24.4726 11.6355C24.5338 11.6916 24.5821 11.7604 24.5978 11.842C24.635 12.0364 24.6645 12.472 24.4419 13.2071C24.2198 13.9427 23.9542 14.2888 23.8155 14.4301C23.757 14.4893 23.6791 14.52 23.5967 14.5326C23.3567 14.5697 22.8057 14.6475 22.2746 14.6702C21.9778 15.0326 21.6347 15.3545 21.2542 15.6278C21.1976 16.1566 21.0853 16.7013 21.0331 16.9384C21.015 17.0196 20.9795 17.0959 20.9169 17.1503C20.7671 17.2797 20.4046 17.5227 19.6566 17.6979C18.9087 17.8731 18.4758 17.816 18.2844 17.7668C18.2039 17.7459 18.1386 17.6937 18.086 17.6286C17.934 17.4391 17.5911 17.0007 17.306 16.5521C16.8433 16.4772 16.3926 16.3414 15.9656 16.1481C15.4796 16.3632 14.9523 16.538 14.7207 16.6117C14.6412 16.6366 14.5579 16.6437 14.4792 16.6165C14.2924 16.5517 13.9006 16.3593 13.3749 15.7992C12.8493 15.2391 12.6822 14.8358 12.6292 14.6451C12.607 14.5648 12.6193 14.4821 12.6496 14.4044C12.7375 14.1783 12.9453 13.6627 13.1913 13.1915C13.0255 12.7531 12.9184 12.2948 12.8729 11.8283C12.4431 11.5151 12.0273 11.1451 11.8481 10.9815C11.7867 10.9252 11.7385 10.8565 11.7227 10.7748C11.6855 10.5804 11.656 10.1448 11.8784 9.4095C12.1007 8.67416 12.3664 8.32798 12.5053 8.18692C12.5633 8.1273 12.6414 8.09684 12.7239 8.08421C12.9638 8.04717 13.5148 7.96937 14.0459 7.94666C14.3427 7.58426 14.6858 7.26231 15.0663 6.98905C15.1229 6.46025 15.2352 5.91554 15.2872 5.6782C15.3053 5.59697 15.3408 5.52072 15.4034 5.46633C15.5534 5.33712 15.9157 5.09393 16.6637 4.91871C17.4118 4.74371 17.8445 4.80056 18.0359 4.84975C18.1166 4.87088 18.1819 4.92314 18.2342 4.98803C18.3863 5.17746 18.7294 5.61615 19.0145 6.06471C19.4772 6.13959 19.9279 6.27545 20.3549 6.46874C20.8407 6.25335 21.3682 6.07886 21.5995 6.00529Z" stroke="white" stroke-opacity="0.8" stroke-linecap="round" stroke-linejoin="round"/>
<path d="M16.0211 9.02959C15.4167 9.59674 15.0624 10.3808 15.0361 11.2091C15.0098 12.0375 15.3137 12.8424 15.8808 13.4468C16.448 14.0511 17.232 14.4054 18.0604 14.4317C18.8888 14.458 19.6937 14.1542 20.298 13.587C20.9024 13.0199 21.2567 12.2359 21.283 11.4075C21.3093 10.5791 21.0054 9.77419 20.4383 9.16983C19.8711 8.56548 19.0871 8.21118 18.2587 8.18488C17.4303 8.15858 16.6254 8.46243 16.0211 9.02959Z" stroke="white" stroke-opacity="0.8" stroke-linecap="round" stroke-linejoin="round"/>
</g>
<defs>
<clipPath id="clip0_719_868">
<rect width="12" height="12" fill="white" transform="translate(0 20.1709) rotate(-41.9867)"/>
</clipPath>
<clipPath id="clip1_719_868">
<rect width="16" height="16" fill="white" transform="translate(18.5195) rotate(46.8185)"/>
</clipPath>
</defs>
</svg>
