<svg width="73" height="70" viewBox="0 0 73 70" fill="none" xmlns="http://www.w3.org/2000/svg">
<g clip-path="url(#clip0_7_1460)">
<path d="M10.8738 43.3937C10.8318 43.2507 10.8219 43.1007 10.8736 42.9607C10.9966 42.6285 11.3564 41.9333 12.3795 41.0125C13.4026 40.0917 14.1313 39.8073 14.4746 39.7199C14.6193 39.6831 14.7674 39.7087 14.9056 39.7652C15.3073 39.9311 16.2228 40.323 17.058 40.7814C17.8495 40.5006 18.6747 40.3259 19.512 40.2618C20.0892 39.5035 20.7681 38.772 21.0683 38.4567C21.1711 38.3491 21.296 38.2653 21.4429 38.2401C21.7926 38.1808 22.574 38.1442 23.8827 38.5703C25.1923 38.9958 25.8026 39.4847 26.0505 39.7384C26.1543 39.8454 26.2064 39.9861 26.226 40.1343C26.2834 40.5655 26.4021 41.5556 26.423 42.5079C27.0612 43.0533 27.6252 43.6799 28.1005 44.3719C29.0458 44.493 30.0175 44.7147 30.4404 44.817C30.5852 44.8524 30.7205 44.919 30.8156 45.033C31.0419 45.3063 31.4636 45.9649 31.7496 47.3115C32.0356 48.6581 31.9172 49.4314 31.8219 49.7725C31.7815 49.9159 31.6854 50.031 31.5668 50.1227C31.2217 50.3881 30.4233 50.986 29.609 51.4801C29.4576 52.3062 29.1974 53.1087 28.8351 53.8665C29.2024 54.7451 29.4957 55.6963 29.6193 56.114C29.6609 56.2574 29.6705 56.407 29.6187 56.547C29.4957 56.8791 29.1364 57.574 28.1133 58.4948C27.0901 59.4156 26.3614 59.7 26.0178 59.7878C25.8731 59.8246 25.7253 59.7993 25.5872 59.7421C25.1855 59.5762 24.2695 59.1846 23.4344 58.7263C22.6429 59.007 21.8177 59.1817 20.9803 59.2458C20.4031 60.0041 19.7246 60.7353 19.4249 61.0502C19.3217 61.1582 19.1967 61.242 19.0499 61.2672C18.7002 61.3265 17.9187 61.3631 16.6096 60.9373C15.3005 60.5115 14.6902 60.0226 14.4426 59.7685C14.338 59.6623 14.2863 59.5211 14.2668 59.373C14.2094 58.9417 14.0906 57.9517 14.0698 56.9993C13.4316 56.454 12.8676 55.8273 12.3922 55.1354C11.447 55.0143 10.4752 54.7926 10.052 54.6906C9.90711 54.6553 9.77183 54.5887 9.67672 54.4746C9.45083 54.201 9.02868 53.5428 8.7427 52.1962C8.45712 50.8492 8.57513 50.0763 8.67042 49.7351C8.71129 49.5913 8.80736 49.4762 8.92557 49.3849C9.27064 49.1196 10.0694 48.5212 10.8837 48.0272C11.0352 47.201 11.2954 46.3986 11.6576 45.6408C11.2899 44.7626 10.997 43.811 10.8738 43.3937Z" stroke="white" stroke-opacity="0.8" stroke-width="2.5" stroke-linecap="round" stroke-linejoin="round"/>
<path d="M16.0835 53.5002C17.077 54.6041 18.4684 55.2682 19.9516 55.3462C21.4347 55.4243 22.8881 54.91 23.9921 53.9165C25.096 52.9229 25.7601 51.5315 25.8382 50.0484C25.9162 48.5652 25.4019 47.1118 24.4084 46.0079C23.4149 44.9039 22.0235 44.2399 20.5403 44.1618C19.0572 44.0837 17.6038 44.598 16.4998 45.5916C15.3959 46.5851 14.7318 47.9765 14.6537 49.4596C14.5757 50.9428 15.09 52.3962 16.0835 53.5002Z" stroke="white" stroke-opacity="0.8" stroke-width="2.5" stroke-linecap="round" stroke-linejoin="round"/>
</g>
<g clip-path="url(#clip1_7_1460)">
<path d="M52.4956 15.1921C52.6962 15.1286 52.9076 15.1101 53.1068 15.1791C53.5792 15.3428 54.5711 15.8302 55.9009 17.2472C57.2307 18.6642 57.6535 19.6843 57.787 20.1662C57.8432 20.3694 57.8114 20.5792 57.7358 20.7759C57.5135 21.3477 56.9872 22.6516 56.3648 23.8438C56.7844 24.9527 57.0553 26.1123 57.1704 27.2924C58.2577 28.0847 59.3102 29.0214 59.7641 29.4358C59.9189 29.5777 60.0409 29.7516 60.0808 29.9581C60.1748 30.45 60.2495 31.5519 59.6865 33.4116C59.1246 35.2725 58.4524 36.1483 58.1016 36.5058C57.9537 36.6554 57.7566 36.7331 57.548 36.765C56.941 36.8587 55.5471 37.0555 54.2035 37.113C53.4526 38.0299 52.5847 38.8443 51.622 39.5356C51.4789 40.8734 51.1946 42.2515 51.0626 42.8513C51.0169 43.0568 50.9269 43.2497 50.7687 43.3873C50.3897 43.7148 49.4725 44.3294 47.5803 44.7727C45.6881 45.216 44.5931 45.0716 44.1087 44.9472C43.9052 44.8943 43.7399 44.7621 43.607 44.5974C43.2223 44.1181 42.3548 43.0089 41.6335 41.8741C40.463 41.6846 39.3227 41.3409 38.2424 40.8519C37.0131 41.3963 35.6791 41.8383 35.0932 42.0249C34.8921 42.0879 34.6812 42.1058 34.4821 42.0368C34.0096 41.8731 33.0183 41.3863 31.6885 39.9693C30.3587 38.5523 29.9359 37.5321 29.8018 37.0497C29.7456 36.8465 29.7769 36.6372 29.8536 36.4406C30.0759 35.8687 30.6017 34.5643 31.224 33.3721C30.8044 32.2632 30.5336 31.1036 30.4185 29.9236C29.3312 29.1312 28.2792 28.195 27.8259 27.7813C27.6704 27.6388 27.5484 27.4649 27.5086 27.2583C27.4146 26.7665 27.3399 25.6646 27.9024 23.8043C28.4648 21.944 29.1369 21.0682 29.4883 20.7113C29.6352 20.5605 29.8328 20.4834 30.0414 20.4515C30.6484 20.3577 32.0423 20.1609 33.3859 20.1035C34.1369 19.1866 35.0047 18.3722 35.9674 17.6809C36.1105 16.3431 36.3948 14.965 36.5263 14.3646C36.5719 14.1591 36.662 13.9662 36.8201 13.8286C37.1997 13.5017 38.1163 12.8865 40.0085 12.4432C41.9013 12.0005 42.9958 12.1443 43.4801 12.2687C43.6842 12.3222 43.8495 12.4544 43.9819 12.6186C44.3666 13.0978 45.2346 14.2076 45.9559 15.3424C47.1264 15.5319 48.2667 15.8756 49.347 16.3646C50.5757 15.8196 51.9103 15.3782 52.4956 15.1921Z" stroke="white" stroke-opacity="0.8" stroke-width="3" stroke-linecap="round" stroke-linejoin="round"/>
<path d="M38.3841 22.8428C36.8552 24.2777 35.9589 26.2611 35.8923 28.3568C35.8258 30.4525 36.5945 32.4888 38.0293 34.0177C39.4641 35.5467 41.4476 36.443 43.5433 36.5095C45.639 36.5761 47.6753 35.8074 49.2042 34.3725C50.7331 32.9377 51.6294 30.9543 51.696 28.8586C51.7625 26.7629 50.9938 24.7266 49.559 23.1976C48.1242 21.6687 46.1407 20.7724 44.045 20.7058C41.9493 20.6393 39.913 21.408 38.3841 22.8428Z" stroke="white" stroke-opacity="0.8" stroke-width="3" stroke-linecap="round" stroke-linejoin="round"/>
</g>
<defs>
<clipPath id="clip0_7_1460">
<rect width="28.6718" height="28.6718" fill="white" transform="translate(0 48.6883) rotate(-41.9867)"/>
</clipPath>
<clipPath id="clip1_7_1460">
<rect width="40.4778" height="40.4778" fill="white" transform="translate(44.7025) rotate(46.8185)"/>
</clipPath>
</defs>
</svg>
