<svg width="28" height="32" viewBox="0 0 28 32" fill="none" xmlns="http://www.w3.org/2000/svg">
<path d="M5.75309 17.6461L6 16L6.24691 17.6461C6.70296 20.6863 8.48525 23.0627 10.7654 23.6708L12 24L10.7654 24.3292C8.48525 24.9372 6.70296 27.3137 6.24691 30.3539L6 32L5.75309 30.3539C5.29704 27.3137 3.5147 24.9372 1.23456 24.3292L0 24L1.23456 23.6708C3.5147 23.0627 5.29704 20.6863 5.75309 17.6461Z" fill="#212121"/>
<path d="M23.8354 1.02882L24 0L24.1646 1.02882C24.4686 2.92895 25.6568 4.41419 27.1769 4.79423L28 5.00003L27.1769 5.20577C25.6568 5.58581 24.4686 7.07105 24.1646 8.97118L24 10L23.8354 8.97118C23.5314 7.07105 22.3432 5.58581 20.8231 5.20577L20 5.00003L20.8231 4.79423C22.3432 4.41419 23.5314 2.92895 23.8354 1.02882Z" fill="#226DB4"/>
</svg>
