<svg width="31" height="38" viewBox="0 0 31 38" fill="none" xmlns="http://www.w3.org/2000/svg">
<path d="M25.7942 1.23456L26 0L26.2058 1.23456C26.5858 3.5147 28.071 5.29704 29.9712 5.75309L31 6L29.9712 6.24691C28.071 6.70291 26.5858 8.48525 26.2058 10.7654L26 12L25.7942 10.7654C25.4142 8.48525 23.9289 6.70291 22.0288 6.24691L21 6L22.0288 5.75309C23.9289 5.29704 25.4142 3.5147 25.7942 1.23456Z" fill="#212121"/>
<path d="M4.79424 27.2346L5 26L5.20576 27.2346C5.5858 29.5147 7.07104 31.297 8.9712 31.7531L10 32L8.9712 32.2469C7.07104 32.7029 5.5858 34.4852 5.20576 36.7654L5 38L4.79424 36.7654C4.4142 34.4852 2.92892 32.7029 1.0288 32.2469L0 32L1.0288 31.7531C2.92892 31.297 4.4142 29.5147 4.79424 27.2346Z" fill="#212121"/>
<path d="M26.8354 25.0288L27 24L27.1646 25.0288C27.4686 26.9289 28.6568 28.4142 30.177 28.7942L31 29L30.177 29.2058C28.6568 29.5858 27.4686 31.071 27.1646 32.9712L27 34L26.8354 32.9712C26.5314 31.071 25.3431 29.5858 23.823 29.2058L23 29L23.823 28.7942C25.3431 28.4142 26.5314 26.9289 26.8354 25.0288Z" fill="#226DB4"/>
</svg>
