<svg width="397" height="184" viewBox="0 0 397 184" fill="none" xmlns="http://www.w3.org/2000/svg">
<g filter="url(#filter0_ddd_520_3167)">
<rect x="14" y="18" width="352" height="139.062" rx="13.037" fill="white" shape-rendering="crispEdges"/>
<path d="M136.269 87.5309C136.269 114.257 114.603 135.923 87.8767 135.923C61.1504 135.923 39.4845 114.257 39.4845 87.5309C39.4845 60.8047 61.1504 39.1388 87.8767 39.1388C114.603 39.1388 136.269 60.8047 136.269 87.5309Z" stroke="#C5C5C5" stroke-opacity="0.41" stroke-width="7.51193"/>
<path d="M137.188 104.497C134.281 112.946 129.251 120.507 122.582 126.454C115.913 132.4 107.827 136.533 99.1011 138.457C90.3752 140.38 81.3014 140.029 72.7501 137.437C64.1989 134.845 56.457 130.099 50.2673 123.655C44.0775 117.211 39.6474 109.284 37.402 100.636C35.1565 91.9869 35.171 82.9063 37.4441 74.2649C39.7172 65.6235 44.1726 57.711 50.3829 51.2866C56.5933 44.8622 64.3502 40.1413 72.9097 37.5768L87.8767 87.5309L137.188 104.497Z" fill="#3FB86B"/>
<ellipse cx="87.8757" cy="87.5309" rx="45.6296" ry="45.6296" fill="white"/>
<path d="M66.3304 96.1484L73.579 79.7739H63.5666V77.8966H75.8214V79.5393L68.651 96.1484H66.3304ZM77.7466 96.1484V94.6101C78.9808 93.6366 80.1454 92.6545 81.2405 91.6637C82.353 90.6555 83.3351 89.6647 84.1869 88.6913C85.056 87.7178 85.734 86.7618 86.2207 85.8231C86.7248 84.8844 86.9768 83.9805 86.9768 83.1114C86.9768 82.4683 86.8638 81.8685 86.6379 81.3123C86.4293 80.7561 86.0816 80.3128 85.5949 79.9825C85.1082 79.6349 84.4476 79.461 83.6133 79.461C82.8137 79.461 82.1444 79.6436 81.6056 80.0086C81.0667 80.3563 80.6582 80.8256 80.3801 81.4166C80.1193 82.0076 79.989 82.6421 79.989 83.32H77.877C77.877 82.1206 78.129 81.095 78.6331 80.2433C79.1372 79.3741 79.8238 78.7136 80.693 78.2616C81.5621 77.8097 82.5442 77.5837 83.6393 77.5837C85.2559 77.5837 86.577 78.0444 87.6026 78.9656C88.6456 79.8695 89.167 81.2254 89.167 83.0332C89.167 84.1109 88.8976 85.18 88.3587 86.2403C87.8199 87.2833 87.1333 88.3001 86.2989 89.291C85.4645 90.2644 84.5693 91.177 83.6133 92.0287C82.6746 92.8805 81.7968 93.6453 80.9798 94.3233H89.7928V96.1484H77.7466ZM94.0672 90.4447C93.6109 90.4447 93.1952 90.3433 92.82 90.1405C92.455 89.9276 92.166 89.6335 91.953 89.2584C91.7401 88.8731 91.6336 88.4168 91.6336 87.8895C91.6336 87.3622 91.7401 86.911 91.953 86.5358C92.1761 86.1505 92.4702 85.8564 92.8352 85.6536C93.2104 85.4407 93.6261 85.3342 94.0824 85.3342C94.5387 85.3342 94.9494 85.4407 95.3144 85.6536C95.6794 85.8564 95.9684 86.1505 96.1814 86.5358C96.3943 86.911 96.5008 87.3622 96.5008 87.8895C96.5008 88.4168 96.3892 88.8731 96.1662 89.2584C95.9532 89.6335 95.6642 89.9276 95.2992 90.1405C94.9342 90.3433 94.5235 90.4447 94.0672 90.4447ZM93.1242 96.1484L99.3146 85.5015H100.592L94.4018 96.1484H93.1242ZM94.0672 89.4561C94.4221 89.4561 94.7314 89.3243 94.995 89.0606C95.2688 88.797 95.4057 88.4066 95.4057 87.8895C95.4057 87.3622 95.2738 86.9667 95.0102 86.7031C94.7466 86.4293 94.4373 86.2924 94.0824 86.2924C93.7275 86.2924 93.4081 86.4293 93.1242 86.7031C92.8504 86.9667 92.7135 87.3622 92.7135 87.8895C92.7135 88.4066 92.8504 88.797 93.1242 89.0606C93.398 89.3243 93.7123 89.4561 94.0672 89.4561ZM99.7557 96.331C99.2994 96.331 98.8837 96.2296 98.5085 96.0268C98.1434 95.8138 97.8545 95.5198 97.6415 95.1446C97.4286 94.7593 97.3221 94.303 97.3221 93.7757C97.3221 93.2484 97.4286 92.7972 97.6415 92.422C97.8646 92.0367 98.1587 91.7426 98.5237 91.5398C98.8887 91.3269 99.2994 91.2204 99.7557 91.2204C100.212 91.2204 100.623 91.3269 100.988 91.5398C101.353 91.7426 101.642 92.0367 101.855 92.422C102.068 92.7972 102.174 93.2484 102.174 93.7757C102.174 94.303 102.068 94.7593 101.855 95.1446C101.642 95.5198 101.353 95.8138 100.988 96.0268C100.623 96.2296 100.212 96.331 99.7557 96.331ZM99.7405 95.3423C100.106 95.3423 100.42 95.2105 100.683 94.9469C100.957 94.6832 101.094 94.2928 101.094 93.7757C101.094 93.2484 100.962 92.853 100.699 92.5893C100.435 92.3257 100.121 92.1939 99.7557 92.1939C99.4008 92.1939 99.0865 92.3257 98.8127 92.5893C98.5389 92.853 98.402 93.2484 98.402 93.7757C98.402 94.2928 98.5338 94.6832 98.7975 94.9469C99.0712 95.2105 99.3856 95.3423 99.7405 95.3423Z" fill="#404040"/>
<path d="M164.066 72.1476C162.861 72.1476 161.818 71.8868 160.937 71.3653C160.068 70.8323 159.396 70.0964 158.92 69.1577C158.445 68.2075 158.208 67.1124 158.208 65.8724C158.208 64.6208 158.445 63.5257 158.92 62.5871C159.396 61.6368 160.068 60.8952 160.937 60.3621C161.818 59.829 162.861 59.5625 164.066 59.5625C165.491 59.5625 166.656 59.9101 167.56 60.6054C168.464 61.3007 169.037 62.2742 169.281 63.5257H167.229C167.067 62.8188 166.72 62.2568 166.186 61.8396C165.653 61.4224 164.941 61.2138 164.048 61.2138C162.832 61.2138 161.87 61.631 161.163 62.4654C160.456 63.2882 160.103 64.4238 160.103 65.8724C160.103 67.3094 160.456 68.4392 161.163 69.262C161.87 70.0848 162.832 70.4962 164.048 70.4962C164.941 70.4962 165.653 70.2992 166.186 69.9052C166.72 69.5112 167.067 68.9723 167.229 68.2886H169.281C169.037 69.4938 168.464 70.4383 167.56 71.122C166.656 71.8057 165.491 72.1476 164.066 72.1476ZM175.269 72.1476C174.446 72.1476 173.705 71.9621 173.044 71.5913C172.395 71.2089 171.88 70.6816 171.497 70.0095C171.115 69.3258 170.924 68.532 170.924 67.6281C170.924 66.7242 171.115 65.9361 171.497 65.264C171.891 64.5803 172.418 64.053 173.079 63.6822C173.74 63.2998 174.475 63.1086 175.287 63.1086C176.109 63.1086 176.845 63.2998 177.494 63.6822C178.155 64.053 178.676 64.5803 179.059 65.264C179.453 65.9361 179.65 66.7242 179.65 67.6281C179.65 68.532 179.453 69.3258 179.059 70.0095C178.676 70.6816 178.155 71.2089 177.494 71.5913C176.834 71.9621 176.092 72.1476 175.269 72.1476ZM175.269 70.5657C175.71 70.5657 176.115 70.4556 176.486 70.2355C176.868 70.0153 177.176 69.6908 177.407 69.262C177.639 68.8217 177.755 68.277 177.755 67.6281C177.755 66.9791 177.639 66.4402 177.407 66.0115C177.187 65.5711 176.886 65.2408 176.503 65.0206C176.133 64.8005 175.727 64.6904 175.287 64.6904C174.846 64.6904 174.435 64.8005 174.052 65.0206C173.682 65.2408 173.38 65.5711 173.149 66.0115C172.917 66.4402 172.801 66.9791 172.801 67.6281C172.801 68.277 172.917 68.8217 173.149 69.262C173.38 69.6908 173.682 70.0153 174.052 70.2355C174.423 70.4556 174.829 70.5657 175.269 70.5657ZM181.642 71.939V63.3171H183.276L183.433 64.5339C183.711 64.0936 184.076 63.7459 184.528 63.491C184.991 63.236 185.524 63.1086 186.127 63.1086C187.494 63.1086 188.445 63.6474 188.978 64.7251C189.291 64.2268 189.708 63.8328 190.229 63.5431C190.762 63.2534 191.336 63.1086 191.95 63.1086C193.028 63.1086 193.874 63.433 194.488 64.082C195.102 64.7309 195.409 65.6986 195.409 66.9849V71.939H193.567V67.1761C193.567 65.5074 192.929 64.673 191.655 64.673C191.006 64.673 190.473 64.9164 190.056 65.4031C189.65 65.8898 189.447 66.5851 189.447 67.489V71.939H187.605V67.1761C187.605 65.5074 186.961 64.673 185.675 64.673C185.038 64.673 184.51 64.9164 184.093 65.4031C183.688 65.8898 183.485 66.5851 183.485 67.489V71.939H181.642ZM197.565 75.7632V63.3171H199.216L199.408 64.6556C199.686 64.25 200.068 63.8908 200.555 63.5779C201.042 63.265 201.667 63.1086 202.432 63.1086C203.267 63.1086 204.002 63.3056 204.64 63.6996C205.277 64.0936 205.776 64.6324 206.135 65.3162C206.506 65.9999 206.691 66.7763 206.691 67.6454C206.691 68.5146 206.506 69.291 206.135 69.9747C205.776 70.6469 205.277 71.1799 204.64 71.5739C204.002 71.9563 203.261 72.1476 202.415 72.1476C201.743 72.1476 201.146 72.0143 200.624 71.7478C200.115 71.4812 199.709 71.1046 199.408 70.6179V75.7632H197.565ZM202.102 70.5483C202.89 70.5483 203.539 70.2818 204.049 69.7487C204.559 69.2041 204.814 68.4972 204.814 67.6281C204.814 67.0602 204.698 66.5561 204.466 66.1158C204.234 65.6754 203.916 65.3335 203.51 65.0902C203.104 64.8352 202.635 64.7078 202.102 64.7078C201.314 64.7078 200.665 64.9801 200.155 65.5247C199.657 66.0694 199.408 66.7705 199.408 67.6281C199.408 68.4972 199.657 69.2041 200.155 69.7487C200.665 70.2818 201.314 70.5483 202.102 70.5483ZM208.684 71.939V59.4234H210.526V71.939H208.684ZM213.903 61.6832C213.555 61.6832 213.265 61.5789 213.034 61.3703C212.813 61.1501 212.703 60.8778 212.703 60.5533C212.703 60.2288 212.813 59.9623 213.034 59.7537C213.265 59.5335 213.555 59.4234 213.903 59.4234C214.25 59.4234 214.534 59.5335 214.755 59.7537C214.986 59.9623 215.102 60.2288 215.102 60.5533C215.102 60.8778 214.986 61.1501 214.755 61.3703C214.534 61.5789 214.25 61.6832 213.903 61.6832ZM212.982 71.939V63.3171H214.824V71.939H212.982ZM220.177 72.1476C219.447 72.1476 218.844 72.0259 218.369 71.7825C217.894 71.5392 217.54 71.2205 217.309 70.8265C217.077 70.4209 216.961 69.9805 216.961 69.5054C216.961 68.671 217.285 68.0105 217.934 67.5238C218.583 67.037 219.51 66.7937 220.716 66.7937H222.975V66.6372C222.975 65.9651 222.79 65.461 222.419 65.1249C222.06 64.7889 221.591 64.6208 221.011 64.6208C220.501 64.6208 220.055 64.7483 219.673 65.0033C219.302 65.2466 219.076 65.6117 218.995 66.0984H217.152C217.21 65.4726 217.419 64.9395 217.778 64.4992C218.149 64.0472 218.612 63.7054 219.169 63.4736C219.736 63.2302 220.356 63.1086 221.028 63.1086C222.234 63.1086 223.167 63.4272 223.827 64.0646C224.488 64.6904 224.818 65.5479 224.818 66.6372V71.939H223.219L223.062 70.4614C222.819 70.9366 222.465 71.3364 222.002 71.6608C221.538 71.9853 220.93 72.1476 220.177 72.1476ZM220.542 70.6526C221.04 70.6526 221.457 70.5368 221.793 70.305C222.141 70.0616 222.408 69.7429 222.593 69.3489C222.79 68.9549 222.912 68.5204 222.958 68.0452H220.907C220.177 68.0452 219.655 68.1727 219.342 68.4277C219.041 68.6826 218.89 69.0013 218.89 69.3837C218.89 69.7777 219.035 70.0906 219.325 70.3224C219.626 70.5426 220.032 70.6526 220.542 70.6526ZM226.966 71.939V63.3171H228.6L228.739 64.8294C229.006 64.2964 229.394 63.8792 229.904 63.5779C230.425 63.265 231.022 63.1086 231.694 63.1086C232.737 63.1086 233.554 63.433 234.145 64.082C234.748 64.7309 235.049 65.6986 235.049 66.9849V71.939H233.224V67.1761C233.224 65.5074 232.54 64.673 231.173 64.673C230.489 64.673 229.921 64.9164 229.469 65.4031C229.029 65.8898 228.809 66.5851 228.809 67.489V71.939H226.966ZM241.304 72.1476C240.458 72.1476 239.699 71.9563 239.027 71.5739C238.367 71.1915 237.845 70.6642 237.463 69.9921C237.092 69.3084 236.907 68.5204 236.907 67.6281C236.907 66.7357 237.092 65.9535 237.463 65.2814C237.845 64.5977 238.367 64.0646 239.027 63.6822C239.699 63.2998 240.458 63.1086 241.304 63.1086C242.37 63.1086 243.263 63.3867 243.981 63.9429C244.711 64.4992 245.181 65.2524 245.389 66.2027H243.46C243.344 65.7275 243.089 65.3567 242.695 65.0902C242.301 64.8236 241.837 64.6904 241.304 64.6904C240.852 64.6904 240.435 64.8063 240.053 65.038C239.67 65.2582 239.363 65.5885 239.131 66.0288C238.9 66.4576 238.784 66.9907 238.784 67.6281C238.784 68.2654 238.9 68.8043 239.131 69.2446C239.363 69.6734 239.67 70.0037 240.053 70.2355C240.435 70.4672 240.852 70.5831 241.304 70.5831C241.837 70.5831 242.301 70.4498 242.695 70.1833C243.089 69.9168 243.344 69.5402 243.46 69.0534H245.389C245.192 69.9805 244.729 70.728 243.999 71.2958C243.269 71.8636 242.37 72.1476 241.304 72.1476ZM251.42 72.1476C250.574 72.1476 249.821 71.9621 249.161 71.5913C248.512 71.2089 248.002 70.6816 247.631 70.0095C247.26 69.3374 247.075 68.5551 247.075 67.6628C247.075 66.7589 247.254 65.9651 247.614 65.2814C247.984 64.5977 248.494 64.0646 249.143 63.6822C249.804 63.2998 250.569 63.1086 251.438 63.1086C252.284 63.1086 253.02 63.2998 253.645 63.6822C254.271 64.053 254.758 64.5513 255.106 65.1771C255.453 65.8029 255.627 66.4924 255.627 67.2456C255.627 67.3615 255.621 67.489 255.61 67.6281C255.61 67.7555 255.604 67.9004 255.592 68.0626H248.883C248.94 68.897 249.213 69.5344 249.699 69.9747C250.198 70.4035 250.771 70.6179 251.42 70.6179C251.942 70.6179 252.376 70.502 252.724 70.2702C253.083 70.0269 253.35 69.7024 253.524 69.2968H255.366C255.134 70.108 254.671 70.7859 253.976 71.3306C253.292 71.8752 252.44 72.1476 251.42 72.1476ZM251.42 64.6208C250.806 64.6208 250.262 64.8063 249.786 65.1771C249.311 65.5363 249.022 66.081 248.917 66.8111H253.784C253.75 66.1389 253.512 65.6059 253.072 65.2119C252.631 64.8178 252.081 64.6208 251.42 64.6208Z" fill="black"/>
<path d="M158.534 98.6304V87.9835H159.811V92.6833H165.333V87.9835H166.61V98.6304H165.333V93.7328H159.811V98.6304H158.534ZM172.218 98.8129C171.508 98.8129 170.87 98.6507 170.302 98.3262C169.734 98.0017 169.283 97.5454 168.948 96.9573C168.624 96.359 168.461 95.6594 168.461 94.8583C168.461 94.0573 168.629 93.3627 168.963 92.7746C169.298 92.1763 169.749 91.715 170.317 91.3905C170.895 91.066 171.539 90.9038 172.249 90.9038C172.958 90.9038 173.597 91.066 174.165 91.3905C174.733 91.715 175.179 92.1763 175.504 92.7746C175.838 93.3627 176.005 94.0573 176.005 94.8583C176.005 95.6594 175.838 96.359 175.504 96.9573C175.169 97.5454 174.713 98.0017 174.135 98.3262C173.567 98.6507 172.928 98.8129 172.218 98.8129ZM172.218 97.7178C172.654 97.7178 173.06 97.6113 173.435 97.3984C173.81 97.1854 174.114 96.866 174.348 96.4402C174.581 96.0143 174.697 95.487 174.697 94.8583C174.697 94.2297 174.581 93.7024 174.348 93.2765C174.125 92.8506 173.825 92.5312 173.45 92.3183C173.075 92.1053 172.675 91.9989 172.249 91.9989C171.813 91.9989 171.407 92.1053 171.032 92.3183C170.657 92.5312 170.352 92.8506 170.119 93.2765C169.886 93.7024 169.769 94.2297 169.769 94.8583C169.769 95.487 169.886 96.0143 170.119 96.4402C170.352 96.866 170.652 97.1854 171.017 97.3984C171.392 97.6113 171.792 97.7178 172.218 97.7178ZM179.021 98.6304L176.815 91.0863H178.093L179.69 97.0029L181.454 91.0863H182.899L184.679 97.0029L186.261 91.0863H187.553L185.348 98.6304H184.04L182.184 92.4095L180.329 98.6304H179.021ZM193.402 98.6304V92.1662H192.262V91.0863H193.402V89.7782C193.402 89.0482 193.585 88.5158 193.95 88.1812C194.315 87.8466 194.847 87.6793 195.547 87.6793H196.308V88.7744H195.745C195.359 88.7744 195.086 88.8555 194.923 89.0177C194.761 89.1698 194.68 89.4335 194.68 89.8086V91.0863H196.536V92.1662H194.68V98.6304H193.402ZM200.269 98.8129C199.641 98.8129 199.118 98.7064 198.703 98.4935C198.287 98.2805 197.978 97.9966 197.775 97.6417C197.572 97.2868 197.471 96.9015 197.471 96.4858C197.471 95.7151 197.765 95.122 198.353 94.7062C198.941 94.2905 199.742 94.0826 200.756 94.0826H202.794V93.9914C202.794 93.3323 202.622 92.8354 202.277 92.5008C201.932 92.156 201.471 91.9837 200.893 91.9837C200.396 91.9837 199.965 92.1104 199.6 92.3639C199.245 92.6073 199.022 92.9672 198.931 93.4438H197.623C197.674 92.8963 197.856 92.4349 198.17 92.0597C198.495 91.6845 198.895 91.4006 199.372 91.208C199.849 91.0052 200.356 90.9038 200.893 90.9038C201.948 90.9038 202.738 91.1877 203.266 91.7555C203.803 92.3132 204.072 93.0585 204.072 93.9914V98.6304H202.931L202.855 97.2767C202.642 97.7026 202.328 98.0676 201.912 98.3718C201.506 98.6659 200.959 98.8129 200.269 98.8129ZM200.467 97.733C200.954 97.733 201.37 97.6062 201.714 97.3527C202.069 97.0992 202.338 96.7697 202.52 96.3641C202.703 95.9585 202.794 95.5326 202.794 95.0865V95.0713H200.863C200.112 95.0713 199.58 95.2031 199.266 95.4667C198.961 95.7202 198.809 96.0396 198.809 96.4249C198.809 96.8204 198.951 97.1398 199.235 97.3832C199.529 97.6164 199.94 97.733 200.467 97.733ZM205.989 98.6304V91.0863H207.144L207.251 92.5312C207.484 92.0344 207.839 91.6389 208.316 91.3448C208.792 91.0508 209.38 90.9038 210.08 90.9038V92.2422H209.73C209.284 92.2422 208.873 92.3233 208.498 92.4856C208.123 92.6377 207.824 92.9013 207.601 93.2765C207.378 93.6517 207.266 94.1688 207.266 94.8279V98.6304H205.989ZM216.361 101.977L218.231 97.9003H217.79L214.794 91.0863H216.178L218.672 96.9573L221.319 91.0863H222.642L217.699 101.977H216.361ZM226.715 98.8129C226.005 98.8129 225.367 98.6507 224.799 98.3262C224.231 98.0017 223.78 97.5454 223.445 96.9573C223.121 96.359 222.958 95.6594 222.958 94.8583C222.958 94.0573 223.126 93.3627 223.46 92.7746C223.795 92.1763 224.246 91.715 224.814 91.3905C225.392 91.066 226.036 90.9038 226.746 90.9038C227.455 90.9038 228.094 91.066 228.662 91.3905C229.23 91.715 229.676 92.1763 230.001 92.7746C230.335 93.3627 230.503 94.0573 230.503 94.8583C230.503 95.6594 230.335 96.359 230.001 96.9573C229.666 97.5454 229.21 98.0017 228.632 98.3262C228.064 98.6507 227.425 98.8129 226.715 98.8129ZM226.715 97.7178C227.151 97.7178 227.557 97.6113 227.932 97.3984C228.307 97.1854 228.611 96.866 228.845 96.4402C229.078 96.0143 229.194 95.487 229.194 94.8583C229.194 94.2297 229.078 93.7024 228.845 93.2765C228.622 92.8506 228.322 92.5312 227.947 92.3183C227.572 92.1053 227.172 91.9989 226.746 91.9989C226.31 91.9989 225.904 92.1053 225.529 92.3183C225.154 92.5312 224.85 92.8506 224.616 93.2765C224.383 93.7024 224.266 94.2297 224.266 94.8583C224.266 95.487 224.383 96.0143 224.616 96.4402C224.85 96.866 225.149 97.1854 225.514 97.3984C225.889 97.6113 226.289 97.7178 226.715 97.7178ZM235.032 98.8129C234.14 98.8129 233.43 98.5442 232.903 98.0068C232.375 97.4592 232.112 96.6227 232.112 95.4971V91.0863H233.389V95.3603C233.389 96.9319 234.033 97.7178 235.321 97.7178C235.98 97.7178 236.523 97.4846 236.948 97.0181C237.384 96.5415 237.602 95.8672 237.602 94.9952V91.0863H238.88V98.6304H237.724L237.633 97.2767C237.4 97.7533 237.05 98.1284 236.583 98.4022C236.127 98.676 235.61 98.8129 235.032 98.8129ZM245.419 98.6304V92.1662H244.278V91.0863H245.419V89.7782C245.419 89.0482 245.602 88.5158 245.967 88.1812C246.332 87.8466 246.864 87.6793 247.564 87.6793H248.324V88.7744H247.761C247.376 88.7744 247.102 88.8555 246.94 89.0177C246.778 89.1698 246.697 89.4335 246.697 89.8086V91.0863H248.552V92.1662H246.697V98.6304H245.419ZM250.073 98.6304V91.0863H251.229L251.336 92.5312C251.569 92.0344 251.924 91.6389 252.4 91.3448C252.877 91.0508 253.465 90.9038 254.165 90.9038V92.2422H253.815C253.369 92.2422 252.958 92.3233 252.583 92.4856C252.208 92.6377 251.909 92.9013 251.686 93.2765C251.463 93.6517 251.351 94.1688 251.351 94.8279V98.6304H250.073ZM258.754 98.8129C258.044 98.8129 257.405 98.6507 256.838 98.3262C256.27 98.0017 255.819 97.5454 255.484 96.9573C255.159 96.359 254.997 95.6594 254.997 94.8583C254.997 94.0573 255.164 93.3627 255.499 92.7746C255.834 92.1763 256.285 91.715 256.853 91.3905C257.431 91.066 258.075 90.9038 258.784 90.9038C259.494 90.9038 260.133 91.066 260.701 91.3905C261.269 91.715 261.715 92.1763 262.039 92.7746C262.374 93.3627 262.541 94.0573 262.541 94.8583C262.541 95.6594 262.374 96.359 262.039 96.9573C261.705 97.5454 261.248 98.0017 260.67 98.3262C260.103 98.6507 259.464 98.8129 258.754 98.8129ZM258.754 97.7178C259.19 97.7178 259.596 97.6113 259.971 97.3984C260.346 97.1854 260.65 96.866 260.883 96.4402C261.117 96.0143 261.233 95.487 261.233 94.8583C261.233 94.2297 261.117 93.7024 260.883 93.2765C260.66 92.8506 260.361 92.5312 259.986 92.3183C259.611 92.1053 259.21 91.9989 258.784 91.9989C258.348 91.9989 257.943 92.1053 257.568 92.3183C257.192 92.5312 256.888 92.8506 256.655 93.2765C256.422 93.7024 256.305 94.2297 256.305 94.8583C256.305 95.487 256.422 96.0143 256.655 96.4402C256.888 96.866 257.187 97.1854 257.552 97.3984C257.928 97.6113 258.328 97.7178 258.754 97.7178ZM264.318 98.6304V91.0863H265.474L265.565 92.1814C265.808 91.7758 266.133 91.4615 266.538 91.2384C266.944 91.0153 267.4 90.9038 267.907 90.9038C268.506 90.9038 269.018 91.0254 269.443 91.2688C269.879 91.5122 270.214 91.8823 270.447 92.3791C270.711 91.9228 271.071 91.5629 271.527 91.2992C271.994 91.0356 272.496 90.9038 273.033 90.9038C273.935 90.9038 274.655 91.1775 275.193 91.7251C275.73 92.2625 275.999 93.094 275.999 94.2195V98.6304H274.737V94.3564C274.737 93.5756 274.579 92.9875 274.265 92.5921C273.951 92.1966 273.499 91.9989 272.911 91.9989C272.303 91.9989 271.796 92.2372 271.39 92.7137C270.995 93.1802 270.797 93.8494 270.797 94.7214V98.6304H269.52V94.3564C269.52 93.5756 269.362 92.9875 269.048 92.5921C268.734 92.1966 268.282 91.9989 267.694 91.9989C267.096 91.9989 266.594 92.2372 266.189 92.7137C265.793 93.1802 265.595 93.8494 265.595 94.7214V98.6304H264.318ZM282.359 98.6304V92.1662H281.219V91.0863H282.359V89.7782C282.359 89.0482 282.542 88.5158 282.907 88.1812C283.272 87.8466 283.804 87.6793 284.504 87.6793H285.264V88.7744H284.702C284.316 88.7744 284.043 88.8555 283.88 89.0177C283.718 89.1698 283.637 89.4335 283.637 89.8086V91.0863H288.322V98.6304H287.044V92.1662H283.637V98.6304H282.359ZM287.698 89.6413C287.455 89.6413 287.247 89.5602 287.074 89.398C286.902 89.2256 286.816 89.0127 286.816 88.7592C286.816 88.5158 286.902 88.313 287.074 88.1508C287.247 87.9885 287.455 87.9074 287.698 87.9074C287.952 87.9074 288.159 87.9885 288.322 88.1508C288.494 88.313 288.58 88.5158 288.58 88.7592C288.58 89.0127 288.494 89.2256 288.322 89.398C288.159 89.5602 287.952 89.6413 287.698 89.6413ZM290.579 98.6304V91.0863H291.734L291.811 92.44C292.054 91.9634 292.404 91.5882 292.86 91.3144C293.316 91.0406 293.833 90.9038 294.411 90.9038C295.304 90.9038 296.014 91.1775 296.541 91.7251C297.078 92.2625 297.347 93.094 297.347 94.2195V98.6304H296.069V94.3564C296.069 92.7847 295.42 91.9989 294.122 91.9989C293.473 91.9989 292.931 92.2372 292.495 92.7137C292.069 93.1802 291.856 93.8494 291.856 94.7214V98.6304H290.579ZM300.058 89.4132C299.805 89.4132 299.592 89.3321 299.419 89.1698C299.257 88.9975 299.176 88.7845 299.176 88.531C299.176 88.2877 299.257 88.0849 299.419 87.9226C299.592 87.7604 299.805 87.6793 300.058 87.6793C300.302 87.6793 300.51 87.7604 300.682 87.9226C300.854 88.0849 300.94 88.2877 300.94 88.531C300.94 88.7845 300.854 88.9975 300.682 89.1698C300.51 89.3321 300.302 89.4132 300.058 89.4132ZM299.419 98.6304V91.0863H300.697V98.6304H299.419ZM305.812 98.8129C304.909 98.8129 304.159 98.5847 303.561 98.1284C302.962 97.6721 302.612 97.0536 302.511 96.2728H303.819C303.9 96.6683 304.108 97.0131 304.443 97.3071C304.787 97.591 305.249 97.733 305.827 97.733C306.364 97.733 306.76 97.6215 307.013 97.3984C307.267 97.1652 307.393 96.8914 307.393 96.577C307.393 96.1207 307.226 95.8165 306.891 95.6644C306.567 95.5123 306.106 95.3755 305.507 95.2538C305.102 95.1727 304.696 95.0561 304.291 94.904C303.885 94.7519 303.545 94.5389 303.272 94.2651C302.998 93.9812 302.861 93.6111 302.861 93.1548C302.861 92.4957 303.104 91.9583 303.591 91.5426C304.088 91.1167 304.757 90.9038 305.599 90.9038C306.4 90.9038 307.054 91.1066 307.561 91.5122C308.078 91.9076 308.377 92.4754 308.458 93.2157H307.196C307.145 92.8303 306.978 92.5312 306.694 92.3183C306.42 92.0952 306.05 91.9837 305.583 91.9837C305.127 91.9837 304.772 92.08 304.519 92.2726C304.275 92.4653 304.154 92.7188 304.154 93.0331C304.154 93.3373 304.311 93.5756 304.625 93.748C304.95 93.9204 305.386 94.0674 305.933 94.1891C306.4 94.2905 306.841 94.4172 307.256 94.5693C307.682 94.7113 308.027 94.9293 308.291 95.2234C308.565 95.5073 308.701 95.923 308.701 96.4706C308.712 97.1499 308.453 97.7127 307.926 98.1589C307.409 98.5949 306.704 98.8129 305.812 98.8129ZM310.527 98.6304V87.6793H311.804V92.3791C312.058 91.9127 312.418 91.5527 312.884 91.2992C313.351 91.0356 313.858 90.9038 314.405 90.9038C315.277 90.9038 315.977 91.1775 316.504 91.7251C317.031 92.2625 317.295 93.094 317.295 94.2195V98.6304H316.033V94.3564C316.033 92.7847 315.399 91.9989 314.131 91.9989C313.472 91.9989 312.92 92.2372 312.473 92.7137C312.027 93.1802 311.804 93.8494 311.804 94.7214V98.6304H310.527ZM320.006 89.4132C319.753 89.4132 319.54 89.3321 319.368 89.1698C319.205 88.9975 319.124 88.7845 319.124 88.531C319.124 88.2877 319.205 88.0849 319.368 87.9226C319.54 87.7604 319.753 87.6793 320.006 87.6793C320.25 87.6793 320.458 87.7604 320.63 87.9226C320.802 88.0849 320.889 88.2877 320.889 88.531C320.889 88.7845 320.802 88.9975 320.63 89.1698C320.458 89.3321 320.25 89.4132 320.006 89.4132ZM319.368 98.6304V91.0863H320.645V98.6304H319.368ZM322.87 98.6304V91.0863H324.026L324.102 92.44C324.345 91.9634 324.695 91.5882 325.151 91.3144C325.608 91.0406 326.125 90.9038 326.703 90.9038C327.595 90.9038 328.305 91.1775 328.832 91.7251C329.369 92.2625 329.638 93.094 329.638 94.2195V98.6304H328.361V94.3564C328.361 92.7847 327.712 91.9989 326.414 91.9989C325.765 91.9989 325.222 92.2372 324.786 92.7137C324.36 93.1802 324.147 93.8494 324.147 94.7214V98.6304H322.87ZM334.555 96.2576C334.129 96.2576 333.739 96.2019 333.384 96.0903L332.623 96.8052C332.735 96.8863 332.872 96.9573 333.034 97.0181C333.206 97.0688 333.45 97.1195 333.764 97.1702C334.078 97.2108 334.52 97.2564 335.087 97.3071C336.101 97.3781 336.826 97.6113 337.262 98.0068C337.698 98.4022 337.916 98.9194 337.916 99.5582C337.916 99.9942 337.795 100.41 337.551 100.805C337.318 101.201 336.953 101.525 336.456 101.779C335.97 102.032 335.341 102.159 334.57 102.159C333.891 102.159 333.288 102.068 332.76 101.885C332.233 101.713 331.822 101.444 331.528 101.079C331.234 100.724 331.087 100.273 331.087 99.7255C331.087 99.4416 331.163 99.1323 331.315 98.7977C331.467 98.4732 331.751 98.1639 332.167 97.8699C331.944 97.7786 331.751 97.6823 331.589 97.5809C331.437 97.4694 331.295 97.3477 331.163 97.2159V96.866L332.456 95.5884C331.858 95.0814 331.559 94.4122 331.559 93.5807C331.559 93.0838 331.675 92.6326 331.908 92.227C332.142 91.8214 332.481 91.502 332.928 91.2688C333.374 91.0254 333.916 90.9038 334.555 90.9038C334.991 90.9038 335.386 90.9646 335.741 91.0863H338.525V92.0445L337.11 92.1053C337.404 92.5312 337.551 93.023 337.551 93.5807C337.551 94.0776 337.43 94.5288 337.186 94.9344C336.953 95.34 336.613 95.6644 336.167 95.9078C335.731 96.141 335.194 96.2576 334.555 96.2576ZM334.555 95.2082C335.092 95.2082 335.518 95.0713 335.833 94.7975C336.157 94.5136 336.319 94.108 336.319 93.5807C336.319 93.0636 336.157 92.6681 335.833 92.3943C335.518 92.1104 335.092 91.9685 334.555 91.9685C334.007 91.9685 333.571 92.1104 333.247 92.3943C332.933 92.6681 332.775 93.0636 332.775 93.5807C332.775 94.108 332.933 94.5136 333.247 94.7975C333.571 95.0713 334.007 95.2082 334.555 95.2082ZM332.334 99.6038C332.334 100.111 332.547 100.486 332.973 100.729C333.399 100.983 333.931 101.11 334.57 101.11C335.199 101.11 335.701 100.973 336.076 100.699C336.461 100.425 336.654 100.06 336.654 99.6038C336.654 99.2793 336.522 98.9954 336.259 98.7521C335.995 98.5188 335.508 98.3819 334.798 98.3414C334.241 98.3008 333.759 98.2501 333.353 98.1893C332.938 98.4124 332.664 98.6507 332.532 98.9041C332.4 99.1678 332.334 99.401 332.334 99.6038ZM160.967 118.813C160.339 118.813 159.816 118.706 159.401 118.493C158.985 118.281 158.676 117.997 158.473 117.642C158.27 117.287 158.169 116.902 158.169 116.486C158.169 115.715 158.463 115.122 159.051 114.706C159.639 114.29 160.44 114.083 161.454 114.083H163.492V113.991C163.492 113.332 163.32 112.835 162.975 112.501C162.63 112.156 162.169 111.984 161.591 111.984C161.094 111.984 160.663 112.11 160.298 112.364C159.943 112.607 159.72 112.967 159.629 113.444H158.321C158.371 112.896 158.554 112.435 158.868 112.06C159.193 111.685 159.593 111.401 160.07 111.208C160.547 111.005 161.054 110.904 161.591 110.904C162.645 110.904 163.436 111.188 163.964 111.756C164.501 112.313 164.77 113.058 164.77 113.991V118.63H163.629L163.553 117.277C163.34 117.703 163.026 118.068 162.61 118.372C162.204 118.666 161.657 118.813 160.967 118.813ZM161.165 117.733C161.652 117.733 162.067 117.606 162.412 117.353C162.767 117.099 163.036 116.77 163.218 116.364C163.401 115.959 163.492 115.533 163.492 115.086V115.071H161.56C160.81 115.071 160.278 115.203 159.963 115.467C159.659 115.72 159.507 116.04 159.507 116.425C159.507 116.82 159.649 117.14 159.933 117.383C160.227 117.616 160.638 117.733 161.165 117.733ZM169.576 118.813C168.674 118.813 167.924 118.585 167.325 118.128C166.727 117.672 166.377 117.054 166.276 116.273H167.584C167.665 116.668 167.873 117.013 168.207 117.307C168.552 117.591 169.014 117.733 169.592 117.733C170.129 117.733 170.524 117.621 170.778 117.398C171.031 117.165 171.158 116.891 171.158 116.577C171.158 116.121 170.991 115.817 170.656 115.664C170.332 115.512 169.87 115.375 169.272 115.254C168.867 115.173 168.461 115.056 168.055 114.904C167.65 114.752 167.31 114.539 167.036 114.265C166.763 113.981 166.626 113.611 166.626 113.155C166.626 112.496 166.869 111.958 167.356 111.543C167.853 111.117 168.522 110.904 169.363 110.904C170.164 110.904 170.818 111.107 171.325 111.512C171.843 111.908 172.142 112.475 172.223 113.216H170.96C170.91 112.83 170.742 112.531 170.459 112.318C170.185 112.095 169.815 111.984 169.348 111.984C168.892 111.984 168.537 112.08 168.283 112.273C168.04 112.465 167.918 112.719 167.918 113.033C167.918 113.337 168.076 113.576 168.39 113.748C168.714 113.92 169.15 114.067 169.698 114.189C170.164 114.29 170.606 114.417 171.021 114.569C171.447 114.711 171.792 114.929 172.056 115.223C172.329 115.507 172.466 115.923 172.466 116.471C172.476 117.15 172.218 117.713 171.691 118.159C171.173 118.595 170.469 118.813 169.576 118.813ZM177.181 118.813C176.279 118.813 175.528 118.585 174.93 118.128C174.332 117.672 173.982 117.054 173.881 116.273H175.189C175.27 116.668 175.478 117.013 175.812 117.307C176.157 117.591 176.618 117.733 177.196 117.733C177.734 117.733 178.129 117.621 178.383 117.398C178.636 117.165 178.763 116.891 178.763 116.577C178.763 116.121 178.596 115.817 178.261 115.664C177.937 115.512 177.475 115.375 176.877 115.254C176.471 115.173 176.066 115.056 175.66 114.904C175.255 114.752 174.915 114.539 174.641 114.265C174.367 113.981 174.231 113.611 174.231 113.155C174.231 112.496 174.474 111.958 174.961 111.543C175.457 111.117 176.127 110.904 176.968 110.904C177.769 110.904 178.423 111.107 178.93 111.512C179.448 111.908 179.747 112.475 179.828 113.216H178.565C178.515 112.83 178.347 112.531 178.063 112.318C177.79 112.095 177.42 111.984 176.953 111.984C176.497 111.984 176.142 112.08 175.888 112.273C175.645 112.465 175.523 112.719 175.523 113.033C175.523 113.337 175.681 113.576 175.995 113.748C176.319 113.92 176.755 114.067 177.303 114.189C177.769 114.29 178.21 114.417 178.626 114.569C179.052 114.711 179.397 114.929 179.66 115.223C179.934 115.507 180.071 115.923 180.071 116.471C180.081 117.15 179.823 117.713 179.295 118.159C178.778 118.595 178.074 118.813 177.181 118.813ZM182.672 109.413C182.419 109.413 182.206 109.332 182.033 109.17C181.871 108.997 181.79 108.785 181.79 108.531C181.79 108.288 181.871 108.085 182.033 107.923C182.206 107.76 182.419 107.679 182.672 107.679C182.915 107.679 183.123 107.76 183.296 107.923C183.468 108.085 183.554 108.288 183.554 108.531C183.554 108.785 183.468 108.997 183.296 109.17C183.123 109.332 182.915 109.413 182.672 109.413ZM182.033 118.63V111.086H183.311V118.63H182.033ZM188.517 116.258C188.091 116.258 187.7 116.202 187.345 116.09L186.585 116.805C186.696 116.886 186.833 116.957 186.996 117.018C187.168 117.069 187.411 117.12 187.726 117.17C188.04 117.211 188.481 117.256 189.049 117.307C190.063 117.378 190.788 117.611 191.224 118.007C191.66 118.402 191.878 118.919 191.878 119.558C191.878 119.994 191.756 120.41 191.513 120.805C191.28 121.201 190.915 121.525 190.418 121.779C189.931 122.032 189.302 122.159 188.532 122.159C187.852 122.159 187.249 122.068 186.722 121.885C186.194 121.713 185.784 121.444 185.49 121.079C185.196 120.724 185.049 120.273 185.049 119.725C185.049 119.442 185.125 119.132 185.277 118.798C185.429 118.473 185.713 118.164 186.129 117.87C185.906 117.779 185.713 117.682 185.551 117.581C185.399 117.469 185.257 117.348 185.125 117.216V116.866L186.418 115.588C185.819 115.081 185.52 114.412 185.52 113.581C185.52 113.084 185.637 112.633 185.87 112.227C186.103 111.821 186.443 111.502 186.889 111.269C187.335 111.025 187.878 110.904 188.517 110.904C188.953 110.904 189.348 110.965 189.703 111.086H192.486V112.044L191.072 112.105C191.366 112.531 191.513 113.023 191.513 113.581C191.513 114.078 191.391 114.529 191.148 114.934C190.915 115.34 190.575 115.664 190.129 115.908C189.693 116.141 189.155 116.258 188.517 116.258ZM188.517 115.208C189.054 115.208 189.48 115.071 189.794 114.797C190.119 114.514 190.281 114.108 190.281 113.581C190.281 113.064 190.119 112.668 189.794 112.394C189.48 112.11 189.054 111.968 188.517 111.968C187.969 111.968 187.533 112.11 187.208 112.394C186.894 112.668 186.737 113.064 186.737 113.581C186.737 114.108 186.894 114.514 187.208 114.797C187.533 115.071 187.969 115.208 188.517 115.208ZM186.296 119.604C186.296 120.111 186.509 120.486 186.935 120.729C187.361 120.983 187.893 121.11 188.532 121.11C189.16 121.11 189.662 120.973 190.038 120.699C190.423 120.425 190.615 120.06 190.615 119.604C190.615 119.279 190.484 118.995 190.22 118.752C189.956 118.519 189.47 118.382 188.76 118.341C188.202 118.301 187.721 118.25 187.315 118.189C186.899 118.412 186.625 118.651 186.494 118.904C186.362 119.168 186.296 119.401 186.296 119.604ZM193.928 118.63V111.086H195.084L195.16 112.44C195.403 111.963 195.753 111.588 196.209 111.314C196.665 111.041 197.182 110.904 197.76 110.904C198.653 110.904 199.363 111.178 199.89 111.725C200.427 112.263 200.696 113.094 200.696 114.22V118.63H199.418V114.356C199.418 112.785 198.769 111.999 197.471 111.999C196.823 111.999 196.28 112.237 195.844 112.714C195.418 113.18 195.205 113.849 195.205 114.721V118.63H193.928ZM206.023 118.813C205.304 118.813 204.665 118.651 204.107 118.326C203.549 117.992 203.108 117.53 202.784 116.942C202.469 116.354 202.312 115.659 202.312 114.858C202.312 114.067 202.469 113.378 202.784 112.79C203.098 112.192 203.534 111.73 204.092 111.406C204.66 111.071 205.314 110.904 206.054 110.904C206.784 110.904 207.413 111.071 207.94 111.406C208.477 111.73 208.888 112.161 209.172 112.699C209.456 113.236 209.598 113.814 209.598 114.432C209.598 114.544 209.593 114.656 209.583 114.767C209.583 114.879 209.583 115.005 209.583 115.147H203.575C203.605 115.725 203.737 116.207 203.97 116.592C204.213 116.967 204.513 117.251 204.867 117.444C205.233 117.637 205.618 117.733 206.023 117.733C206.551 117.733 206.992 117.611 207.347 117.368C207.702 117.125 207.96 116.795 208.122 116.379H209.385C209.182 117.079 208.792 117.662 208.214 118.128C207.646 118.585 206.916 118.813 206.023 118.813ZM206.023 111.984C205.415 111.984 204.873 112.171 204.396 112.546C203.93 112.911 203.661 113.449 203.59 114.159H208.335C208.305 113.479 208.072 112.947 207.636 112.562C207.2 112.176 206.662 111.984 206.023 111.984ZM214.713 118.813C213.963 118.813 213.304 118.641 212.736 118.296C212.178 117.951 211.742 117.479 211.428 116.881C211.124 116.283 210.972 115.604 210.972 114.843C210.972 114.083 211.129 113.408 211.443 112.82C211.758 112.222 212.194 111.756 212.751 111.421C213.309 111.076 213.968 110.904 214.729 110.904C215.347 110.904 215.895 111.031 216.371 111.284C216.848 111.538 217.218 111.892 217.482 112.349V107.679H218.759V118.63H217.603L217.482 117.383C217.238 117.748 216.888 118.078 216.432 118.372C215.976 118.666 215.403 118.813 214.713 118.813ZM214.85 117.703C215.357 117.703 215.803 117.586 216.189 117.353C216.584 117.109 216.888 116.775 217.101 116.349C217.324 115.923 217.436 115.426 217.436 114.858C217.436 114.29 217.324 113.794 217.101 113.368C216.888 112.942 216.584 112.612 216.189 112.379C215.803 112.136 215.357 112.014 214.85 112.014C214.353 112.014 213.907 112.136 213.512 112.379C213.126 112.612 212.822 112.942 212.599 113.368C212.386 113.794 212.28 114.29 212.28 114.858C212.28 115.426 212.386 115.923 212.599 116.349C212.822 116.775 213.126 117.109 213.512 117.353C213.907 117.586 214.353 117.703 214.85 117.703ZM227.377 118.813C226.748 118.813 226.226 118.706 225.81 118.493C225.394 118.281 225.085 117.997 224.882 117.642C224.68 117.287 224.578 116.902 224.578 116.486C224.578 115.715 224.872 115.122 225.46 114.706C226.048 114.29 226.85 114.083 227.864 114.083H229.902V113.991C229.902 113.332 229.729 112.835 229.384 112.501C229.04 112.156 228.578 111.984 228 111.984C227.504 111.984 227.073 112.11 226.708 112.364C226.353 112.607 226.13 112.967 226.038 113.444H224.73C224.781 112.896 224.963 112.435 225.278 112.06C225.602 111.685 226.003 111.401 226.479 111.208C226.956 111.005 227.463 110.904 228 110.904C229.055 110.904 229.846 111.188 230.373 111.756C230.911 112.313 231.179 113.058 231.179 113.991V118.63H230.039L229.962 117.277C229.75 117.703 229.435 118.068 229.019 118.372C228.614 118.666 228.066 118.813 227.377 118.813ZM227.575 117.733C228.061 117.733 228.477 117.606 228.822 117.353C229.177 117.099 229.445 116.77 229.628 116.364C229.81 115.959 229.902 115.533 229.902 115.086V115.071H227.97C227.22 115.071 226.687 115.203 226.373 115.467C226.069 115.72 225.917 116.04 225.917 116.425C225.917 116.82 226.059 117.14 226.343 117.383C226.637 117.616 227.047 117.733 227.575 117.733ZM235.986 118.813C235.083 118.813 234.333 118.585 233.735 118.128C233.136 117.672 232.787 117.054 232.685 116.273H233.993C234.074 116.668 234.282 117.013 234.617 117.307C234.962 117.591 235.423 117.733 236.001 117.733C236.538 117.733 236.934 117.621 237.187 117.398C237.441 117.165 237.568 116.891 237.568 116.577C237.568 116.121 237.4 115.817 237.066 115.664C236.741 115.512 236.28 115.375 235.682 115.254C235.276 115.173 234.87 115.056 234.465 114.904C234.059 114.752 233.72 114.539 233.446 114.265C233.172 113.981 233.035 113.611 233.035 113.155C233.035 112.496 233.278 111.958 233.765 111.543C234.262 111.117 234.931 110.904 235.773 110.904C236.574 110.904 237.228 111.107 237.735 111.512C238.252 111.908 238.551 112.475 238.632 113.216H237.37C237.319 112.83 237.152 112.531 236.868 112.318C236.594 112.095 236.224 111.984 235.758 111.984C235.301 111.984 234.946 112.08 234.693 112.273C234.45 112.465 234.328 112.719 234.328 113.033C234.328 113.337 234.485 113.576 234.799 113.748C235.124 113.92 235.56 114.067 236.107 114.189C236.574 114.29 237.015 114.417 237.431 114.569C237.857 114.711 238.201 114.929 238.465 115.223C238.739 115.507 238.876 115.923 238.876 116.471C238.886 117.15 238.627 117.713 238.1 118.159C237.583 118.595 236.878 118.813 235.986 118.813ZM243.591 118.813C242.688 118.813 241.938 118.585 241.34 118.128C240.741 117.672 240.392 117.054 240.29 116.273H241.598C241.679 116.668 241.887 117.013 242.222 117.307C242.567 117.591 243.028 117.733 243.606 117.733C244.143 117.733 244.539 117.621 244.792 117.398C245.046 117.165 245.173 116.891 245.173 116.577C245.173 116.121 245.005 115.817 244.671 115.664C244.346 115.512 243.885 115.375 243.287 115.254C242.881 115.173 242.475 115.056 242.07 114.904C241.664 114.752 241.324 114.539 241.051 114.265C240.777 113.981 240.64 113.611 240.64 113.155C240.64 112.496 240.883 111.958 241.37 111.543C241.867 111.117 242.536 110.904 243.378 110.904C244.179 110.904 244.833 111.107 245.34 111.512C245.857 111.908 246.156 112.475 246.237 113.216H244.975C244.924 112.83 244.757 112.531 244.473 112.318C244.199 112.095 243.829 111.984 243.363 111.984C242.906 111.984 242.551 112.08 242.298 112.273C242.055 112.465 241.933 112.719 241.933 113.033C241.933 113.337 242.09 113.576 242.404 113.748C242.729 113.92 243.165 114.067 243.712 114.189C244.179 114.29 244.62 114.417 245.036 114.569C245.462 114.711 245.806 114.929 246.07 115.223C246.344 115.507 246.481 115.923 246.481 116.471C246.491 117.15 246.232 117.713 245.705 118.159C245.188 118.595 244.483 118.813 243.591 118.813ZM251.698 118.813C250.978 118.813 250.339 118.651 249.781 118.326C249.223 117.992 248.782 117.53 248.458 116.942C248.144 116.354 247.986 115.659 247.986 114.858C247.986 114.067 248.144 113.378 248.458 112.79C248.772 112.192 249.208 111.73 249.766 111.406C250.334 111.071 250.988 110.904 251.728 110.904C252.458 110.904 253.087 111.071 253.614 111.406C254.151 111.73 254.562 112.161 254.846 112.699C255.13 113.236 255.272 113.814 255.272 114.432C255.272 114.544 255.267 114.656 255.257 114.767C255.257 114.879 255.257 115.005 255.257 115.147H249.249C249.279 115.725 249.411 116.207 249.644 116.592C249.888 116.967 250.187 117.251 250.542 117.444C250.907 117.637 251.292 117.733 251.698 117.733C252.225 117.733 252.666 117.611 253.021 117.368C253.376 117.125 253.634 116.795 253.797 116.379H255.059C254.856 117.079 254.466 117.662 253.888 118.128C253.32 118.585 252.59 118.813 251.698 118.813ZM251.698 111.984C251.089 111.984 250.547 112.171 250.07 112.546C249.604 112.911 249.335 113.449 249.264 114.159H254.009C253.979 113.479 253.746 112.947 253.31 112.562C252.874 112.176 252.336 111.984 251.698 111.984ZM259.855 118.813C258.953 118.813 258.202 118.585 257.604 118.128C257.006 117.672 256.656 117.054 256.555 116.273H257.863C257.944 116.668 258.152 117.013 258.486 117.307C258.831 117.591 259.292 117.733 259.87 117.733C260.408 117.733 260.803 117.621 261.057 117.398C261.31 117.165 261.437 116.891 261.437 116.577C261.437 116.121 261.27 115.817 260.935 115.664C260.611 115.512 260.149 115.375 259.551 115.254C259.145 115.173 258.74 115.056 258.334 114.904C257.929 114.752 257.589 114.539 257.315 114.265C257.041 113.981 256.904 113.611 256.904 113.155C256.904 112.496 257.148 111.958 257.635 111.543C258.131 111.117 258.801 110.904 259.642 110.904C260.443 110.904 261.097 111.107 261.604 111.512C262.121 111.908 262.421 112.475 262.502 113.216H261.239C261.189 112.83 261.021 112.531 260.737 112.318C260.464 112.095 260.093 111.984 259.627 111.984C259.171 111.984 258.816 112.08 258.562 112.273C258.319 112.465 258.197 112.719 258.197 113.033C258.197 113.337 258.354 113.576 258.669 113.748C258.993 113.92 259.429 114.067 259.977 114.189C260.443 114.29 260.884 114.417 261.3 114.569C261.726 114.711 262.071 114.929 262.334 115.223C262.608 115.507 262.745 115.923 262.745 116.471C262.755 117.15 262.497 117.713 261.969 118.159C261.452 118.595 260.748 118.813 259.855 118.813ZM267.46 118.813C266.558 118.813 265.807 118.585 265.209 118.128C264.611 117.672 264.261 117.054 264.16 116.273H265.468C265.549 116.668 265.757 117.013 266.091 117.307C266.436 117.591 266.897 117.733 267.475 117.733C268.013 117.733 268.408 117.621 268.662 117.398C268.915 117.165 269.042 116.891 269.042 116.577C269.042 116.121 268.875 115.817 268.54 115.664C268.216 115.512 267.754 115.375 267.156 115.254C266.75 115.173 266.345 115.056 265.939 114.904C265.534 114.752 265.194 114.539 264.92 114.265C264.646 113.981 264.509 113.611 264.509 113.155C264.509 112.496 264.753 111.958 265.239 111.543C265.736 111.117 266.406 110.904 267.247 110.904C268.048 110.904 268.702 111.107 269.209 111.512C269.726 111.908 270.026 112.475 270.107 113.216H268.844C268.794 112.83 268.626 112.531 268.342 112.318C268.069 112.095 267.698 111.984 267.232 111.984C266.776 111.984 266.421 112.08 266.167 112.273C265.924 112.465 265.802 112.719 265.802 113.033C265.802 113.337 265.959 113.576 266.274 113.748C266.598 113.92 267.034 114.067 267.582 114.189C268.048 114.29 268.489 114.417 268.905 114.569C269.331 114.711 269.676 114.929 269.939 115.223C270.213 115.507 270.35 115.923 270.35 116.471C270.36 117.15 270.102 117.713 269.574 118.159C269.057 118.595 268.352 118.813 267.46 118.813ZM272.175 118.63V111.086H273.331L273.422 112.181C273.666 111.776 273.99 111.461 274.396 111.238C274.801 111.015 275.258 110.904 275.765 110.904C276.363 110.904 276.875 111.025 277.301 111.269C277.737 111.512 278.072 111.882 278.305 112.379C278.568 111.923 278.928 111.563 279.385 111.299C279.851 111.036 280.353 110.904 280.89 110.904C281.793 110.904 282.513 111.178 283.05 111.725C283.588 112.263 283.856 113.094 283.856 114.22V118.63H282.594V114.356C282.594 113.576 282.437 112.988 282.122 112.592C281.808 112.197 281.357 111.999 280.769 111.999C280.16 111.999 279.653 112.237 279.248 112.714C278.852 113.18 278.655 113.849 278.655 114.721V118.63H277.377V114.356C277.377 113.576 277.22 112.988 276.905 112.592C276.591 112.197 276.14 111.999 275.552 111.999C274.954 111.999 274.452 112.237 274.046 112.714C273.651 113.18 273.453 113.849 273.453 114.721V118.63H272.175ZM289.173 118.813C288.453 118.813 287.814 118.651 287.256 118.326C286.699 117.992 286.257 117.53 285.933 116.942C285.619 116.354 285.461 115.659 285.461 114.858C285.461 114.067 285.619 113.378 285.933 112.79C286.247 112.192 286.683 111.73 287.241 111.406C287.809 111.071 288.463 110.904 289.203 110.904C289.933 110.904 290.562 111.071 291.089 111.406C291.627 111.73 292.037 112.161 292.321 112.699C292.605 113.236 292.747 113.814 292.747 114.432C292.747 114.544 292.742 114.656 292.732 114.767C292.732 114.879 292.732 115.005 292.732 115.147H286.724C286.754 115.725 286.886 116.207 287.119 116.592C287.363 116.967 287.662 117.251 288.017 117.444C288.382 117.637 288.767 117.733 289.173 117.733C289.7 117.733 290.141 117.611 290.496 117.368C290.851 117.125 291.109 116.795 291.272 116.379H292.534C292.331 117.079 291.941 117.662 291.363 118.128C290.795 118.585 290.065 118.813 289.173 118.813ZM289.173 111.984C288.564 111.984 288.022 112.171 287.545 112.546C287.079 112.911 286.81 113.449 286.739 114.159H291.485C291.454 113.479 291.221 112.947 290.785 112.562C290.349 112.176 289.812 111.984 289.173 111.984ZM294.44 118.63V111.086H295.596L295.672 112.44C295.916 111.963 296.266 111.588 296.722 111.314C297.178 111.041 297.695 110.904 298.273 110.904C299.166 110.904 299.875 111.178 300.403 111.725C300.94 112.263 301.209 113.094 301.209 114.22V118.63H299.931V114.356C299.931 112.785 299.282 111.999 297.984 111.999C297.335 111.999 296.793 112.237 296.357 112.714C295.931 113.18 295.718 113.849 295.718 114.721V118.63H294.44ZM306.126 118.63C305.436 118.63 304.894 118.463 304.498 118.128C304.103 117.794 303.905 117.191 303.905 116.318V112.166H302.597V111.086H303.905L304.072 109.276H305.183V111.086H307.403V112.166H305.183V116.318C305.183 116.795 305.279 117.12 305.472 117.292C305.664 117.454 306.004 117.535 306.491 117.535H307.282V118.63H306.126ZM311.916 118.813C311.014 118.813 310.263 118.585 309.665 118.128C309.067 117.672 308.717 117.054 308.616 116.273H309.924C310.005 116.668 310.213 117.013 310.547 117.307C310.892 117.591 311.354 117.733 311.932 117.733C312.469 117.733 312.864 117.621 313.118 117.398C313.371 117.165 313.498 116.891 313.498 116.577C313.498 116.121 313.331 115.817 312.996 115.664C312.672 115.512 312.21 115.375 311.612 115.254C311.207 115.173 310.801 115.056 310.395 114.904C309.99 114.752 309.65 114.539 309.376 114.265C309.102 113.981 308.966 113.611 308.966 113.155C308.966 112.496 309.209 111.958 309.696 111.543C310.193 111.117 310.862 110.904 311.703 110.904C312.504 110.904 313.158 111.107 313.665 111.512C314.183 111.908 314.482 112.475 314.563 113.216H313.3C313.25 112.83 313.082 112.531 312.798 112.318C312.525 112.095 312.155 111.984 311.688 111.984C311.232 111.984 310.877 112.08 310.623 112.273C310.38 112.465 310.258 112.719 310.258 113.033C310.258 113.337 310.416 113.576 310.73 113.748C311.054 113.92 311.49 114.067 312.038 114.189C312.504 114.29 312.945 114.417 313.361 114.569C313.787 114.711 314.132 114.929 314.396 115.223C314.669 115.507 314.806 115.923 314.806 116.471C314.816 117.15 314.558 117.713 314.03 118.159C313.513 118.595 312.809 118.813 311.916 118.813Z" fill="#616161"/>
</g>
<defs>
<filter id="filter0_ddd_520_3167" x="0.962974" y="0.617298" width="395.457" height="182.518" filterUnits="userSpaceOnUse" color-interpolation-filters="sRGB">
<feFlood flood-opacity="0" result="BackgroundImageFix"/>
<feColorMatrix in="SourceAlpha" type="matrix" values="0 0 0 0 0 0 0 0 0 0 0 0 0 0 0 0 0 0 127 0" result="hardAlpha"/>
<feOffset dx="8.69135" dy="4.34568"/>
<feGaussianBlur stdDeviation="10.8642"/>
<feComposite in2="hardAlpha" operator="out"/>
<feColorMatrix type="matrix" values="0 0 0 0 0.117647 0 0 0 0 0.117647 0 0 0 0 0.117647 0 0 0 0.11 0"/>
<feBlend mode="normal" in2="BackgroundImageFix" result="effect1_dropShadow_520_3167"/>
<feColorMatrix in="SourceAlpha" type="matrix" values="0 0 0 0 0 0 0 0 0 0 0 0 0 0 0 0 0 0 127 0" result="hardAlpha"/>
<feOffset dy="4.34568"/>
<feGaussianBlur stdDeviation="5.9753"/>
<feComposite in2="hardAlpha" operator="out"/>
<feColorMatrix type="matrix" values="0 0 0 0 0 0 0 0 0 0 0 0 0 0 0 0 0 0 0.11 0"/>
<feBlend mode="normal" in2="effect1_dropShadow_520_3167" result="effect2_dropShadow_520_3167"/>
<feColorMatrix in="SourceAlpha" type="matrix" values="0 0 0 0 0 0 0 0 0 0 0 0 0 0 0 0 0 0 127 0" result="hardAlpha"/>
<feOffset dy="4.34568"/>
<feGaussianBlur stdDeviation="2.17284"/>
<feComposite in2="hardAlpha" operator="out"/>
<feColorMatrix type="matrix" values="0 0 0 0 0 0 0 0 0 0 0 0 0 0 0 0 0 0 0.25 0"/>
<feBlend mode="normal" in2="effect2_dropShadow_520_3167" result="effect3_dropShadow_520_3167"/>
<feBlend mode="normal" in="SourceGraphic" in2="effect3_dropShadow_520_3167" result="shape"/>
</filter>
</defs>
</svg>
