<svg width="160" height="160" viewBox="0 0 160 160" fill="none" xmlns="http://www.w3.org/2000/svg">
<g id="Frame">
<path id="Vector" d="M80 143.84C115.257 143.84 143.84 115.257 143.84 80C143.84 44.7428 115.257 16.16 80 16.16C44.7428 16.16 16.16 44.7428 16.16 80C16.16 115.257 44.7428 143.84 80 143.84Z" fill="#E6E6E6"/>
<path id="Vector_2" d="M98.7961 71.222V70.0649C98.7961 64.85 96.7245 59.8487 93.0371 56.1613C89.3496 52.4738 84.3483 50.4022 79.1334 50.4022C73.9185 50.4022 68.9173 52.4738 65.2298 56.1613C61.5423 59.8487 59.4707 64.85 59.4707 70.0649V71.222C59.4741 73.9816 60.5718 76.6273 62.5232 78.5786C64.4745 80.53 67.1202 81.6277 69.8798 81.6311H88.3934C91.1519 81.6261 93.7959 80.5276 95.7459 78.5764C97.6959 76.6252 98.7928 73.9805 98.7961 71.222Z" fill="white"/>
<path id="Vector_3" d="M98.7961 71.222V70.0649C98.7961 64.85 96.7245 59.8487 93.0371 56.1613C89.3496 52.4738 84.3483 50.4022 79.1334 50.4022C73.9185 50.4022 68.9173 52.4738 65.2298 56.1613C61.5423 59.8487 59.4707 64.85 59.4707 70.0649V71.222C59.4741 73.9816 60.5718 76.6273 62.5232 78.5786C64.4745 80.53 67.1202 81.6277 69.8798 81.6311H88.3934C91.1519 81.6261 93.7959 80.5276 95.7459 78.5764C97.6959 76.6252 98.7928 73.9805 98.7961 71.222Z" stroke="#212121" stroke-linecap="round" stroke-linejoin="round"/>
<path id="Vector_4" d="M71.0371 52.1403V58.2641C71.0357 58.5621 71.1038 58.8562 71.2361 59.1232C71.3683 59.3902 71.561 59.6227 71.7989 59.8021C72.0368 59.9816 72.3132 60.1031 72.6063 60.1569C72.8993 60.2107 73.2009 60.1955 73.487 60.1123L79.1336 58.5003L73.2971 51.2832C72.5262 51.5226 71.7713 51.8083 71.0371 52.1403Z" fill="white" stroke="#212121" stroke-linecap="round" stroke-linejoin="round"/>
<path id="Vector_5" d="M87.2292 52.1401V58.264C87.2305 58.5612 87.1626 58.8546 87.0309 59.121C86.8992 59.3874 86.7073 59.6196 86.4704 59.799C86.2335 59.9785 85.9581 60.1003 85.666 60.155C85.3738 60.2096 85.073 60.1955 84.7873 60.1137L79.1406 58.5018L84.9788 51.2847C85.7449 51.5241 86.4982 51.8098 87.2292 52.1417V52.1401Z" fill="white" stroke="#212121" stroke-linecap="round" stroke-linejoin="round"/>
<path id="Vector_6" d="M79.1343 58.4988L74.5059 77.0044L79.1343 82.7883L83.7595 77.0044L79.1343 58.4988Z" fill="#EAEAEA" stroke="#212121" stroke-linecap="round" stroke-linejoin="round"/>
<path id="Vector_7" d="M66.4082 64.281V71.2236C66.4099 72.1434 66.7763 73.0251 67.427 73.6752C68.0777 74.3253 68.9597 74.6909 69.8795 74.6917H72.1921" stroke="#212121" stroke-linecap="round" stroke-linejoin="round"/>
<path id="Vector_8" d="M91.8581 64.281V71.2236C91.8564 72.1432 91.4903 73.0246 90.8399 73.6746C90.1895 74.3247 89.308 74.6905 88.3884 74.6917H86.0742" stroke="#212121" stroke-linecap="round" stroke-linejoin="round"/>
<path id="Vector_9" d="M75.6611 81.6311C76.5813 81.6311 77.4639 81.2655 78.1146 80.6148C78.7653 79.9641 79.1308 79.0816 79.1308 78.1614C79.1308 77.2411 78.7653 76.3586 78.1146 75.7079C77.4639 75.0572 76.5813 74.6917 75.6611 74.6917H72.1914V81.6311H75.6611Z" fill="white" stroke="#212121" stroke-linecap="round" stroke-linejoin="round"/>
<path id="Vector_10" d="M82.6025 81.6311C81.6823 81.6311 80.7998 81.2655 80.1491 80.6148C79.4984 79.9641 79.1328 79.0816 79.1328 78.1614C79.1328 77.2411 79.4984 76.3586 80.1491 75.7079C80.7998 75.0572 81.6823 74.6917 82.6025 74.6917H86.0642V81.6311H82.6025Z" fill="white" stroke="#212121" stroke-linecap="round" stroke-linejoin="round"/>
<path id="Vector_11" d="M80.6806 127.178C110.143 127.178 134.025 125.885 134.025 124.292C134.025 122.699 110.143 121.408 80.6806 121.408C51.2185 121.408 27.3359 122.701 27.3359 124.292C27.3359 125.885 51.2185 127.176 80.6806 127.176V127.178Z" fill="#EAEAEA"/>
<path id="Vector_12" d="M127.709 88.572H31.7109V120.518C31.7109 120.941 31.8791 121.347 32.1784 121.646C32.4777 121.945 32.8837 122.114 33.3069 122.114H126.113C126.536 122.114 126.942 121.945 127.241 121.646C127.541 121.347 127.709 120.941 127.709 120.518V88.572Z" fill="#EAEAEA"/>
<path id="Vector_13" d="M127.709 88.572H31.7109V120.518C31.7109 120.941 31.8791 121.347 32.1784 121.646C32.4777 121.945 32.8837 122.114 33.3069 122.114H126.113C126.536 122.114 126.942 121.945 127.241 121.646C127.541 121.347 127.709 120.941 127.709 120.518V88.572Z" stroke="#212121" stroke-linecap="round" stroke-linejoin="round"/>
<path id="Vector_14" d="M130.743 81.6311H28.68C28.2567 81.6311 27.8508 81.7993 27.5514 82.0986C27.2521 82.3979 27.084 82.8038 27.084 83.2271V86.9777C27.084 87.401 27.2521 87.8069 27.5514 88.1063C27.8508 88.4056 28.2567 88.5737 28.68 88.5737H130.743C131.166 88.5737 131.572 88.4056 131.871 88.1063C132.17 87.8069 132.339 87.401 132.339 86.9777V83.2271C132.339 82.8038 132.17 82.3979 131.871 82.0986C131.572 81.7993 131.166 81.6311 130.743 81.6311Z" fill="white" stroke="#212121" stroke-linecap="round" stroke-linejoin="round"/>
<path id="Vector_15" d="M126.553 81.631H104.578V71.2219H124.957C125.381 71.2219 125.787 71.3901 126.086 71.6894C126.385 71.9887 126.553 72.3946 126.553 72.8179V81.631Z" fill="#EAEAEA" stroke="#212121" stroke-linecap="round" stroke-linejoin="round"/>
<path id="Vector_16" d="M118.256 65.4381H111.318C111.774 65.4377 112.226 65.5272 112.648 65.7014C113.069 65.8757 113.452 66.1313 113.775 66.4537C114.098 66.7761 114.354 67.1589 114.528 67.5803C114.703 68.0016 114.793 68.4533 114.793 68.9094V71.2236C114.793 73.8985 111.513 79.194 114.74 87.2762C116.363 91.3493 116.591 95.8451 115.39 100.062C115.316 100.346 115.309 100.642 115.369 100.929C115.428 101.216 115.553 101.486 115.733 101.717C115.913 101.948 116.144 102.135 116.408 102.263C116.671 102.391 116.961 102.457 117.254 102.456H123.702C124.131 102.457 124.548 102.315 124.886 102.051C125.225 101.787 125.464 101.417 125.567 101C127.009 96.5154 126.86 91.6716 125.148 87.2826C122.658 81.0582 123.392 78.1502 124.22 72.3153C124.342 71.4614 124.279 70.5913 124.036 69.764C123.792 68.9366 123.374 68.1711 122.809 67.5195C122.243 66.8679 121.545 66.3453 120.76 65.987C119.976 65.6287 119.123 65.4432 118.261 65.4429L118.256 65.4381Z" fill="white" stroke="#212121" stroke-linecap="round" stroke-linejoin="round"/>
<path id="Vector_17" d="M114.792 71.222H107.848V68.9094C107.848 67.9885 108.213 67.1054 108.865 66.4542C109.516 65.8031 110.399 65.4373 111.32 65.4373C112.241 65.4373 113.124 65.8031 113.775 66.4542C114.426 67.1054 114.792 67.9885 114.792 68.9094V71.2236V71.222Z" fill="white" stroke="#212121" stroke-linecap="round" stroke-linejoin="round"/>
<path id="Vector_18" d="M93.0117 81.631H104.578V71.2219L93.9438 77.6059C93.6591 77.7762 93.4235 78.0176 93.2601 78.3063C93.0967 78.595 93.0111 78.9212 93.0117 79.253V81.631Z" fill="#EAEAEA" stroke="#212121" stroke-linecap="round" stroke-linejoin="round"/>
<path id="Vector_19" d="M55.5592 57.0016H32.1507C31.7274 57.0016 31.3215 57.1697 31.0221 57.4691C30.7228 57.7684 30.5547 58.1743 30.5547 58.5976V60.0292C30.5547 60.4525 30.7228 60.8584 31.0221 61.1578C31.3215 61.4571 31.7274 61.6252 32.1507 61.6252H55.5592C55.9825 61.6252 56.3885 61.4571 56.6878 61.1578C56.9871 60.8584 57.1552 60.4525 57.1552 60.0292V58.596C57.1552 58.1727 56.9871 57.7668 56.6878 57.4675C56.3885 57.1681 55.9825 57 55.5592 57V57.0016Z" fill="white" stroke="#212121" stroke-linecap="round" stroke-linejoin="round"/>
<path id="Vector_20" d="M55.5592 61.627H32.1507C31.9411 61.627 31.7336 61.6682 31.5399 61.7484C31.3463 61.8286 31.1703 61.9462 31.0221 62.0944C30.8739 62.2426 30.7564 62.4186 30.6762 62.6122C30.596 62.8058 30.5547 63.0134 30.5547 63.2229V64.6562C30.5547 64.8657 30.596 65.0733 30.6762 65.2669C30.7564 65.4606 30.8739 65.6365 31.0221 65.7847C31.1703 65.9329 31.3463 66.0505 31.5399 66.1307C31.7336 66.2109 31.9411 66.2522 32.1507 66.2522H55.5592C55.7688 66.2522 55.9763 66.2109 56.17 66.1307C56.3636 66.0505 56.5396 65.9329 56.6878 65.7847C56.836 65.6365 56.9535 65.4606 57.0337 65.2669C57.1139 65.0733 57.1552 64.8657 57.1552 64.6562V63.2229C57.1552 63.0134 57.1139 62.8058 57.0337 62.6122C56.9535 62.4186 56.836 62.2426 56.6878 62.0944C56.5396 61.9462 56.3636 61.8286 56.17 61.7484C55.9763 61.6682 55.7688 61.627 55.5592 61.627Z" fill="white" stroke="#212121" stroke-linecap="round" stroke-linejoin="round"/>
<path id="Vector_21" d="M57.8741 66.252H35.6194C35.1962 66.252 34.7902 66.4201 34.4909 66.7194C34.1916 67.0187 34.0234 67.4247 34.0234 67.8479V72.3455C34.0234 72.5551 34.0647 72.7626 34.1449 72.9562C34.2251 73.1499 34.3427 73.3258 34.4909 73.474C34.6391 73.6222 34.815 73.7398 35.0087 73.82C35.2023 73.9002 35.4099 73.9415 35.6194 73.9415H57.8741C58.0837 73.9415 58.2912 73.9002 58.4848 73.82C58.6785 73.7398 58.8544 73.6222 59.0026 73.474C59.1508 73.3258 59.2684 73.1499 59.3486 72.9562C59.4288 72.7626 59.4701 72.5551 59.4701 72.3455V67.8479C59.4701 67.4247 59.3019 67.0187 59.0026 66.7194C58.7033 66.4201 58.2973 66.252 57.8741 66.252Z" fill="#EAEAEA" stroke="#212121" stroke-linecap="round" stroke-linejoin="round"/>
<path id="Vector_22" d="M56.0007 70.0969H43.2773" stroke="#212121" stroke-linecap="round" stroke-linejoin="round"/>
<path id="Vector_23" d="M37.4922 70.0968H38.6493" stroke="#212121" stroke-linecap="round" stroke-linejoin="round"/>
<path id="Vector_24" d="M55.5461 73.9416H33.2914C32.8681 73.9416 32.4622 74.1097 32.1629 74.409C31.8636 74.7084 31.6954 75.1143 31.6954 75.5376V80.0351C31.6954 80.4584 31.8636 80.8644 32.1629 81.1637C32.4622 81.463 32.8681 81.6311 33.2914 81.6311H55.5461C55.9693 81.6311 56.3753 81.463 56.6746 81.1637C56.9739 80.8644 57.1421 80.4584 57.1421 80.0351V75.5376C57.1421 75.1143 56.9739 74.7084 56.6746 74.409C56.3753 74.1097 55.9693 73.9416 55.5461 73.9416Z" fill="#EAEAEA" stroke="#212121" stroke-linecap="round" stroke-linejoin="round"/>
<path id="Vector_25" d="M53.6708 77.7863H40.9475" stroke="#212121" stroke-linecap="round" stroke-linejoin="round"/>
<path id="Vector_26" d="M35.1641 77.7864H36.3212" stroke="#212121" stroke-linecap="round" stroke-linejoin="round"/>
<path id="Vector_27" d="M118.282 118.703C118.238 118.426 118.254 118.143 118.331 117.874C118.408 117.605 118.543 117.355 118.727 117.144C118.911 116.932 119.138 116.764 119.394 116.65C119.65 116.536 119.928 116.479 120.208 116.485C123.842 116.533 130.956 116.028 135.244 111.815C135.456 111.608 135.714 111.452 135.996 111.361C136.278 111.269 136.577 111.244 136.87 111.287C137.164 111.33 137.443 111.44 137.687 111.608C137.931 111.777 138.133 111.999 138.277 112.258C139.206 113.897 139.898 115.661 140.329 117.495C140.408 117.85 140.385 118.22 140.261 118.562C140.138 118.904 139.919 119.204 139.632 119.426C137.116 121.381 129.553 126.439 120.497 124.672C120.109 124.596 119.754 124.402 119.48 124.116C119.206 123.83 119.027 123.467 118.967 123.076C118.711 121.456 118.464 119.9 118.282 118.703Z" fill="white" stroke="#212121" stroke-linecap="round" stroke-linejoin="round"/>
<path id="Vector_28" d="M58.537 98.354C58.726 98.153 58.956 97.9951 59.2114 97.891C59.4668 97.7868 59.7416 97.7389 60.0171 97.7504C60.2927 97.7619 60.5626 97.8326 60.8084 97.9577C61.0542 98.0828 61.2702 98.2593 61.4418 98.4753C63.5501 101.121 68.1162 105.886 74.529 107.282C74.8052 107.342 75.0647 107.463 75.289 107.635C75.5134 107.807 75.6972 108.026 75.8273 108.277C75.9574 108.529 76.0306 108.805 76.0418 109.088C76.0529 109.37 76.0018 109.652 75.8919 109.912C73.2649 116.109 72.1733 115.948 72.1557 115.945C71.9961 115.916 60.232 113.87 55.1503 103.8C54.9715 103.447 54.9062 103.048 54.9634 102.656C55.0205 102.265 55.1973 101.901 55.4695 101.615L58.537 98.354Z" fill="white" stroke="#212121" stroke-linecap="round" stroke-linejoin="round"/>
<path id="Vector_29" d="M84.3687 51.1125C84.0303 51.0202 83.7317 50.8191 83.519 50.5401C83.3064 50.2611 83.1916 49.9199 83.1924 49.5692V44.8833H75.0528V49.5708C75.0525 49.9198 74.9377 50.2591 74.7261 50.5367C74.5146 50.8143 74.2178 51.0149 73.8813 51.1077C73.6803 51.1636 73.4807 51.221 73.2812 51.2833L79.121 58.4988L84.9576 51.2849C84.763 51.2216 84.5666 51.1641 84.3687 51.1125Z" fill="white" stroke="#212121" stroke-linecap="round" stroke-linejoin="round"/>
<path id="Vector_30" d="M79.1492 48.5588C81.6028 48.5531 83.9906 47.7646 85.9651 46.3082C87.9397 44.8517 89.3981 42.8032 90.1281 40.4607H90.1376C93.7925 40.4607 94.0159 34.6768 90.7154 34.6768V32.3594C90.7154 29.2919 89.4968 26.35 87.3277 24.1809C85.1586 22.0118 82.2167 20.7932 79.1492 20.7932C76.0816 20.7932 73.1397 22.0118 70.9706 24.1809C68.8015 26.35 67.583 29.2919 67.583 32.3594V34.6736C64.2808 34.6736 64.5043 40.4575 68.1623 40.4575H68.1703C68.8995 42.8008 70.3576 44.8501 72.3323 46.3072C74.3069 47.7643 76.6951 48.5531 79.1492 48.5588Z" fill="white" stroke="#212121" stroke-linecap="round" stroke-linejoin="round"/>
<path id="Vector_31" d="M82.9029 33.5164C82.713 33.5151 82.5247 33.5513 82.3488 33.6228C82.1729 33.6943 82.0127 33.7998 81.8776 33.9331C81.6046 34.2025 81.4498 34.5693 81.4473 34.9528C81.4448 35.3363 81.5947 35.7051 81.864 35.9781C82.1334 36.251 82.5002 36.4058 82.8837 36.4083C83.2672 36.4109 83.636 36.261 83.909 35.9916C84.1819 35.7222 84.3367 35.3554 84.3393 34.9719C84.3418 34.5884 84.1919 34.2196 83.9225 33.9467C83.6531 33.6737 83.2863 33.5189 82.9029 33.5164Z" fill="#212121"/>
<path id="Vector_32" d="M75.3846 33.5166C75.0013 33.5166 74.6338 33.6689 74.3627 33.9399C74.0917 34.2109 73.9395 34.5785 73.9395 34.9618C73.9395 35.3451 74.0917 35.7126 74.3627 35.9837C74.6338 36.2547 75.0013 36.407 75.3846 36.407C75.7679 36.407 76.1355 36.2547 76.4065 35.9837C76.6775 35.7126 76.8298 35.3451 76.8298 34.9618C76.8298 34.5785 76.6775 34.2109 76.4065 33.9399C76.1355 33.6689 75.7679 33.5166 75.3846 33.5166Z" fill="#212121"/>
<path id="Vector_33" d="M73.3611 38.1417C73.3615 38.2937 73.332 38.4442 73.2742 38.5848C73.2165 38.7253 73.1316 38.8531 73.0244 38.9608C72.9173 39.0686 72.79 39.1542 72.6497 39.2127C72.5095 39.2712 72.3591 39.3016 72.2072 39.302C72.0552 39.3024 71.9047 39.2729 71.7641 39.2151C71.6236 39.1574 71.4958 39.0725 71.388 38.9653C71.2803 38.8582 71.1947 38.7309 71.1362 38.5907C71.0776 38.4504 71.0473 38.3 71.0469 38.1481C71.046 37.8412 71.1671 37.5466 71.3835 37.329C71.5999 37.1114 71.8939 36.9886 72.2008 36.9878C72.5077 36.987 72.8023 37.108 73.0199 37.3244C73.2375 37.5408 73.3602 37.8348 73.3611 38.1417Z" fill="#EAEAEA"/>
<path id="Vector_34" d="M87.24 38.1417C87.2404 38.2937 87.2109 38.4442 87.1531 38.5848C87.0954 38.7253 87.0105 38.8531 86.9033 38.9608C86.7962 39.0686 86.6689 39.1542 86.5286 39.2127C86.3884 39.2712 86.238 39.3016 86.0861 39.302C85.9341 39.3024 85.7836 39.2729 85.643 39.2151C85.5025 39.1574 85.3747 39.0725 85.2669 38.9653C85.1592 38.8582 85.0736 38.7309 85.0151 38.5907C84.9565 38.4504 84.9262 38.3 84.9258 38.1481C84.9249 37.8412 85.046 37.5466 85.2624 37.329C85.4788 37.1114 85.7728 36.9886 86.0797 36.9878C86.3866 36.987 86.6812 37.108 86.8988 37.3244C87.1164 37.5408 87.2391 37.8348 87.24 38.1417Z" fill="#EAEAEA"/>
<path id="Vector_35" d="M76.4004 41.6001C77.2297 40.8176 78.2039 40.4001 79.2004 40.4001C80.1969 40.4001 81.1711 40.8176 82.0004 41.6001" stroke="#212121" stroke-width="2" stroke-linecap="round" stroke-linejoin="round"/>
<path id="Vector_36" d="M72.7094 28.7684C77.7815 33.6889 86.5276 32.8765 91.796 31.0954C91.7562 27.7454 90.397 24.5462 88.0132 22.1922C85.6294 19.8382 82.4134 18.5192 79.0632 18.5215C75.713 18.5238 72.4988 19.8472 70.1183 22.2045C67.7378 24.5619 66.3829 27.7629 66.3478 31.1129V35.1301C66.3478 35.1301 72.7094 33.5341 72.7094 28.7684Z" fill="white"/>
<path id="Vector_37" d="M72.7094 28.7684C77.7815 33.6889 86.5276 32.8765 91.796 31.0954C91.7562 27.7454 90.397 24.5462 88.0132 22.1922C85.6294 19.8382 82.4134 18.5192 79.0632 18.5215C75.713 18.5238 72.4988 19.8472 70.1183 22.2045C67.7378 24.5619 66.3829 27.7629 66.3478 31.1129V35.1301C66.3478 35.1301 72.7094 33.5341 72.7094 28.7684Z" stroke="#212121" stroke-linecap="round" stroke-linejoin="round"/>
<path id="Vector_38" d="M72.7094 28.7684C77.7815 33.6889 86.5276 32.8765 91.796 31.0954C91.7562 27.7454 90.397 24.5462 88.0132 22.1922C85.6294 19.8382 82.4134 18.5192 79.0632 18.5215C75.713 18.5238 72.4988 19.8472 70.1183 22.2045C67.7378 24.5619 66.3829 27.7629 66.3478 31.1129V35.1301C66.3478 35.1301 72.7094 33.5341 72.7094 28.7684Z" stroke="#212121" stroke-linecap="round" stroke-linejoin="round"/>
<path id="Vector_39" d="M72.71 28.7685C72.1243 28.2003 72.0397 28.2897 71.5625 27.5603" stroke="#212121" stroke-linecap="round" stroke-linejoin="round"/>
</g>
</svg>
