<svg width="160" height="160" viewBox="0 0 160 160" fill="none" xmlns="http://www.w3.org/2000/svg">
<g id="Frame">
<path id="Vector" d="M54.7504 138.637C62.4507 141.953 70.7287 143.719 79.1117 143.836C87.4948 143.952 95.8187 142.416 103.608 139.316C111.398 136.216 118.5 131.611 124.51 125.766C130.52 119.921 135.32 112.949 138.636 105.249C141.952 97.5483 143.718 89.2703 143.835 80.8872C143.951 72.5042 142.416 64.1803 139.315 56.3908C136.215 48.6013 131.611 41.4987 125.765 35.4886C119.92 29.4785 112.948 24.6786 105.248 21.3628C89.6963 14.6667 72.1217 14.4226 56.3902 20.6843C40.6587 26.9459 28.059 39.2004 21.3628 54.752C14.6667 70.3035 14.4226 87.8781 20.6843 103.61C26.9459 119.341 39.2005 131.941 54.752 138.637H54.7504Z" fill="#E6E6E6"/>
<path id="Vector_2" d="M51.6875 128.924C51.6875 129.654 53.8146 130.354 57.6008 130.87C61.3871 131.387 66.5223 131.677 71.8769 131.677C77.2315 131.677 82.3667 131.387 86.153 130.87C89.9392 130.354 92.0663 129.654 92.0663 128.924C92.0663 128.194 89.9392 127.493 86.153 126.977C82.3667 126.461 77.2315 126.171 71.8769 126.171C66.5223 126.171 61.3871 126.461 57.6008 126.977C53.8146 127.493 51.6875 128.194 51.6875 128.924Z" fill="#EAEAEA"/>
<path id="Vector_3" d="M42.4829 37.4762H86.807L104.537 55.2062V115.348C104.537 115.639 104.48 115.928 104.369 116.196C104.258 116.465 104.094 116.71 103.889 116.916C103.683 117.122 103.439 117.285 103.17 117.396C102.901 117.508 102.613 117.565 102.322 117.565H42.4829C42.1912 117.566 41.9023 117.509 41.6326 117.398C41.3629 117.287 41.1177 117.124 40.9112 116.918C40.7047 116.712 40.5408 116.467 40.429 116.198C40.3172 115.929 40.2596 115.64 40.2596 115.348V39.6978C40.259 39.4058 40.3161 39.1165 40.4276 38.8465C40.5392 38.5766 40.7029 38.3314 40.9095 38.1249C41.1161 37.9185 41.3614 37.7549 41.6315 37.6436C41.9015 37.5322 42.1908 37.4754 42.4829 37.4762Z" fill="white"/>
<path id="Vector_4" d="M42.4829 37.4762H86.807L104.537 55.2062V115.348C104.537 115.639 104.48 115.928 104.369 116.196C104.258 116.465 104.094 116.71 103.889 116.916C103.683 117.122 103.439 117.285 103.17 117.396C102.901 117.508 102.613 117.565 102.322 117.565H42.4829C42.1912 117.566 41.9023 117.509 41.6326 117.398C41.3629 117.287 41.1177 117.124 40.9112 116.918C40.7047 116.712 40.5408 116.467 40.429 116.198C40.3172 115.929 40.2596 115.64 40.2596 115.348V39.6978C40.259 39.4058 40.3161 39.1165 40.4276 38.8465C40.5392 38.5766 40.7029 38.3314 40.9095 38.1249C41.1161 37.9185 41.3614 37.7549 41.6315 37.6436C41.9015 37.5322 42.1908 37.4754 42.4829 37.4762Z" stroke="#212121" stroke-linecap="round" stroke-linejoin="round"/>
<path id="Vector_5" d="M104.537 55.206L86.8066 37.4761V52.9892C86.8066 53.5771 87.0402 54.141 87.4559 54.5567C87.8717 54.9725 88.4355 55.206 89.0235 55.206H104.537Z" fill="#EAEAEA" stroke="#212121" stroke-linecap="round" stroke-linejoin="round"/>
<path id="Vector_6" d="M52.1602 53.9949H76.5391" stroke="#212121" stroke-linecap="round" stroke-linejoin="round"/>
<path id="Vector_7" d="M52.1602 64.3384H76.5391" stroke="#212121" stroke-linecap="round" stroke-linejoin="round"/>
<path id="Vector_8" d="M52.1602 74.8911H93.4918" stroke="#212121" stroke-linecap="round" stroke-linejoin="round"/>
<path id="Vector_9" d="M52.1602 84.9858H93.4918" stroke="#212121" stroke-linecap="round" stroke-linejoin="round"/>
<path id="Vector_10" d="M52.1602 95.5403H93.4918" stroke="#212121" stroke-linecap="round" stroke-linejoin="round"/>
<path id="Vector_11" d="M52.1602 105.635H93.4918" stroke="#212121" stroke-linecap="round" stroke-linejoin="round"/>
<path id="Vector_12" d="M109.359 70.9746L113.301 67.0325L123.154 76.8862L119.211 80.8283L109.359 70.9746Z" fill="white" stroke="#212121" stroke-linecap="round" stroke-linejoin="round"/>
<path id="Vector_13" d="M114.288 36.4867C117.796 39.9946 120.185 44.4639 121.152 49.3295C122.12 54.195 121.623 59.2383 119.725 63.8216C117.826 68.4048 114.611 72.3222 110.487 75.0783C106.362 77.8344 101.512 79.3054 96.5515 79.3054C91.5906 79.3054 86.7411 77.8344 82.6163 75.0783C78.4915 72.3222 75.2766 68.4048 73.3781 63.8216C71.4797 59.2383 70.9829 54.195 71.9507 49.3295C72.9185 44.4639 75.3073 39.9946 78.8151 36.4867C83.5193 31.7831 89.8992 29.1406 96.5515 29.1406C103.204 29.1406 109.584 31.7831 114.288 36.4867Z" fill="white" stroke="#212121" stroke-linecap="round" stroke-linejoin="round"/>
<path id="Vector_14" d="M109.366 41.4136C111.899 43.947 113.624 47.1748 114.323 50.6886C115.021 54.2024 114.663 57.8446 113.292 61.1545C111.92 64.4645 109.599 67.2935 106.62 69.2839C103.641 71.2743 100.139 72.3366 96.556 72.3366C92.9733 72.3366 89.4711 71.2743 86.4922 69.2839C83.5133 67.2935 81.1916 64.4645 79.8205 61.1545C78.4494 57.8446 78.0905 54.2024 78.7894 50.6886C79.4882 47.1748 81.2133 43.947 83.7465 41.4136C85.4286 39.7313 87.4256 38.3969 89.6235 37.4865C91.8214 36.576 94.177 36.1074 96.556 36.1074C98.935 36.1074 101.291 36.576 103.489 37.4865C105.686 38.3969 107.683 39.7313 109.366 41.4136Z" fill="#EAEAEA"/>
<path id="Vector_15" d="M107.092 68.9589C104.384 70.8962 101.194 72.0496 97.8734 72.2925C94.5526 72.5354 91.229 71.8584 88.2678 70.3359C85.3066 68.8133 82.8223 66.5041 81.0878 63.6619C79.3532 60.8196 78.4355 57.5543 78.4355 54.2246C78.4355 50.8949 79.3532 47.6296 81.0878 44.7873C82.8223 41.9451 85.3066 39.6359 88.2678 38.1133C91.229 36.5908 94.5526 35.9138 97.8734 36.1567C101.194 36.3996 104.384 37.5531 107.092 39.4903V68.9589Z" stroke="#212121" stroke-linecap="round" stroke-linejoin="round"/>
<path id="Vector_16" d="M107.092 68.9589C104.384 70.8962 101.194 72.0496 97.8734 72.2925C94.5526 72.5354 91.229 71.8584 88.2678 70.3359C85.3066 68.8133 82.8223 66.5041 81.0878 63.6619C79.3532 60.8196 78.4355 57.5543 78.4355 54.2246C78.4355 50.8949 79.3532 47.6296 81.0878 44.7873C82.8223 41.9451 85.3066 39.6359 88.2678 38.1133C91.229 36.5908 94.5526 35.9138 97.8734 36.1567C101.194 36.3996 104.384 37.5531 107.092 39.4903V68.9589Z" fill="#EAEAEA"/>
<path id="Vector_17" d="M83.7424 67.0326C82.0603 65.35 80.726 63.3526 79.8158 61.1543C78.9055 58.9561 78.4372 56.6001 78.4375 54.2208C78.4381 49.4157 80.3475 44.8077 83.7456 41.4104C87.1438 38.0131 91.7523 36.1049 96.5574 36.1055C101.362 36.1061 105.971 38.0155 109.368 41.4136L83.7424 67.0326Z" fill="white"/>
<path id="Vector_18" d="M109.366 41.4136C111.899 43.947 113.624 47.1748 114.323 50.6886C115.021 54.2024 114.663 57.8446 113.292 61.1545C111.92 64.4645 109.599 67.2935 106.62 69.2839C103.641 71.2743 100.139 72.3366 96.556 72.3366C92.9733 72.3366 89.4711 71.2743 86.4922 69.2839C83.5133 67.2935 81.1916 64.4645 79.8205 61.1545C78.4494 57.8446 78.0905 54.2024 78.7894 50.6886C79.4882 47.1748 81.2133 43.947 83.7465 41.4136C85.4286 39.7313 87.4256 38.3969 89.6235 37.4865C91.8214 36.576 94.177 36.1074 96.556 36.1074C98.935 36.1074 101.291 36.576 103.489 37.4865C105.686 38.3969 107.683 39.7313 109.366 41.4136Z" stroke="#212121" stroke-linecap="round" stroke-linejoin="round"/>
<path id="Vector_19" d="M107.092 68.9589C104.384 70.8962 101.194 72.0496 97.8734 72.2925C94.5526 72.5354 91.229 71.8584 88.2678 70.3359C85.3066 68.8133 82.8223 66.5041 81.0878 63.6619C79.3532 60.8196 78.4355 57.5543 78.4355 54.2246C78.4355 50.8949 79.3532 47.6296 81.0878 44.7873C82.8223 41.9451 85.3066 39.6359 88.2678 38.1133C91.229 36.5908 94.5526 35.9138 97.8734 36.1567C101.194 36.3996 104.384 37.5531 107.092 39.4903V68.9589Z" stroke="#212121" stroke-linecap="round" stroke-linejoin="round"/>
<path id="Vector_20" d="M139.904 89.6957C140.902 90.7496 141.449 92.151 141.429 93.602C141.41 95.053 140.825 96.4391 139.8 97.4657C138.774 98.4923 137.388 99.0784 135.937 99.0995C134.486 99.1205 133.085 98.5748 132.03 97.5784L119.329 84.8774C119.055 84.6044 118.839 84.2802 118.691 83.9234C118.543 83.5665 118.467 83.1841 118.467 82.7978C118.467 82.4115 118.543 82.0291 118.691 81.6722C118.839 81.3154 119.055 80.9912 119.329 80.7182L123.052 76.9947C123.325 76.7215 123.649 76.5048 124.006 76.3569C124.363 76.209 124.745 76.1329 125.132 76.1329C125.518 76.1329 125.9 76.209 126.257 76.3569C126.614 76.5048 126.938 76.7215 127.211 76.9947L139.904 89.6957Z" fill="#EAEAEA"/>
<path id="Vector_21" d="M139.904 89.6957C140.902 90.7496 141.449 92.151 141.429 93.602C141.41 95.053 140.825 96.4391 139.8 97.4657C138.774 98.4923 137.388 99.0784 135.937 99.0995C134.486 99.1205 133.085 98.5748 132.03 97.5784L119.329 84.8774C119.055 84.6044 118.839 84.2802 118.691 83.9234C118.543 83.5665 118.467 83.1841 118.467 82.7978C118.467 82.4115 118.543 82.0291 118.691 81.6722C118.839 81.3154 119.055 80.9912 119.329 80.7182L123.052 76.9947C123.325 76.7215 123.649 76.5048 124.006 76.3569C124.363 76.209 124.745 76.1329 125.132 76.1329C125.518 76.1329 125.9 76.209 126.257 76.3569C126.614 76.5048 126.938 76.7215 127.211 76.9947L139.904 89.6957Z" stroke="#212121" stroke-linecap="round" stroke-linejoin="round"/>
</g>
</svg>
