<svg width="292" height="289" viewBox="0 0 292 289" fill="none" xmlns="http://www.w3.org/2000/svg">
<path d="M292 50.331C292 50.4781 226.766 50.6043 146 50.6043C65.2341 50.6043 0 50.4781 0 50.331C0 50.1838 65.2341 50.0577 146 50.0577C226.766 50.0577 292 50.1733 292 50.331Z" fill="white" fill-opacity="0.26"/>
<path d="M292 163.635C292 163.783 226.766 163.909 146 163.909C65.2341 163.909 0 163.783 0 163.635C0 163.488 65.2341 163.362 146 163.362C226.766 163.362 292 163.478 292 163.635Z" fill="white" fill-opacity="0.26"/>
<path d="M292 88.099C292 88.2461 226.766 88.3722 146 88.3722C65.2341 88.3722 0 88.2461 0 88.099C0 87.9518 65.2341 87.8257 146 87.8257C226.766 87.8257 292 87.9413 292 88.099Z" fill="white" fill-opacity="0.26"/>
<path d="M292 201.403C292 201.55 226.766 201.677 146 201.677C65.2341 201.677 0 201.55 0 201.403C0 201.256 65.2341 201.13 146 201.13C226.766 201.13 292 201.246 292 201.403Z" fill="white" fill-opacity="0.26"/>
<path d="M292 125.867C292 126.014 226.766 126.14 146 126.14C65.2341 126.14 0 126.014 0 125.867C0 125.72 65.2341 125.594 146 125.594C226.766 125.594 292 125.71 292 125.867Z" fill="white" fill-opacity="0.26"/>
<path d="M292 239.172C292 239.319 226.766 239.445 146 239.445C65.2341 239.445 0 239.319 0 239.172C0 239.025 65.2341 238.898 146 238.898C226.766 238.898 292 239.014 292 239.172Z" fill="white" fill-opacity="0.26"/>
<path d="M254.437 288.708C254.31 288.708 254.201 224.387 254.201 144.752C254.201 65.1161 254.31 0.794922 254.437 0.794922C254.564 0.794922 254.673 65.1161 254.673 144.752C254.673 224.387 254.573 288.708 254.437 288.708Z" fill="white" fill-opacity="0.26"/>
<path d="M118.359 288.708C118.232 288.708 118.123 224.387 118.123 144.752C118.123 65.1161 118.232 0.794922 118.359 0.794922C118.486 0.794922 118.595 65.1161 118.595 144.752C118.595 224.387 118.496 288.708 118.359 288.708Z" fill="white" fill-opacity="0.26"/>
<path d="M209.078 288.708C208.95 288.708 208.841 224.387 208.841 144.752C208.841 65.1161 208.95 0.794922 209.078 0.794922C209.205 0.794922 209.314 65.1161 209.314 144.752C209.314 224.387 209.214 288.708 209.078 288.708Z" fill="white" fill-opacity="0.26"/>
<path d="M73 288.708C72.8728 288.708 72.7638 224.387 72.7638 144.752C72.7638 65.1161 72.8728 0.794922 73 0.794922C73.1272 0.794922 73.2362 65.1161 73.2362 144.752C73.2362 224.387 73.1363 288.708 73 288.708Z" fill="white" fill-opacity="0.26"/>
<path d="M163.718 288.708C163.591 288.708 163.482 224.387 163.482 144.752C163.482 65.1161 163.591 0.794922 163.718 0.794922C163.846 0.794922 163.955 65.1161 163.955 144.752C163.955 224.387 163.855 288.708 163.718 288.708Z" fill="white" fill-opacity="0.26"/>
<path d="M27.6408 288.708C27.5136 288.708 27.4045 224.387 27.4045 144.752C27.4045 65.1161 27.5136 0.794922 27.6408 0.794922C27.768 0.794922 27.877 65.1161 27.877 144.752C27.877 224.387 27.7771 288.708 27.6408 288.708Z" fill="white" fill-opacity="0.26"/>
</svg>
