<svg width="45" height="51" viewBox="0 0 45 51" fill="none" xmlns="http://www.w3.org/2000/svg">
<path d="M38.7675 33.3445L38.5 35.1992L38.2325 33.3445C37.7385 29.9192 35.8076 27.2417 33.3375 26.5566L32 26.1856L33.3375 25.8148C35.8076 25.1297 37.7385 22.4522 38.2325 19.0268L38.5 17.1722L38.7675 19.0268C39.2616 22.4522 41.1924 25.1297 43.6625 25.8148L45 26.1856L43.6625 26.5566C41.1924 27.2417 39.2616 29.9192 38.7675 33.3445Z" fill="white"/>
<path d="M5.72635 48.6761L5.50004 50.2217L5.27365 48.6761C4.85568 45.8217 3.22185 43.5905 1.1317 43.0196L0 42.7104L1.1317 42.4013C3.22185 41.8304 4.85568 39.5992 5.27365 36.7447L5.50004 35.1992L5.72635 36.7447C6.14439 39.5992 7.77815 41.8304 9.8683 42.4013L11 42.7104L9.8683 43.0196C7.77815 43.5905 6.14439 45.8217 5.72635 48.6761Z" fill="white"/>
<path d="M12.4938 23.5068L12.0001 26.1857L11.5062 23.5068C10.5942 18.559 7.02949 14.6916 2.46916 13.702L-5.65738e-07 13.1661L2.46916 12.6304C7.02949 11.6408 10.5942 7.77341 11.5062 2.82565L12.0001 0.146716L12.4938 2.82565C13.4059 7.77341 16.9705 11.6408 21.5308 12.6304L24 13.1661L21.5308 13.702C16.9705 14.6916 13.4059 18.559 12.4938 23.5068Z" fill="#9D0C32"/>
</svg>
