<svg width="349" height="345" viewBox="0 0 349 345" fill="none" xmlns="http://www.w3.org/2000/svg">
<path d="M348.197 59.8553C348.197 60.0308 270.408 60.1811 174.099 60.1811C77.7888 60.1811 0 60.0308 0 59.8553C0 59.6798 77.7888 59.5294 174.099 59.5294C270.408 59.5294 348.197 59.6673 348.197 59.8553Z" fill="white" fill-opacity="0.26"/>
<path d="M348.197 194.966C348.197 195.141 270.408 195.292 174.099 195.292C77.7888 195.292 0 195.141 0 194.966C0 194.79 77.7888 194.64 174.099 194.64C270.408 194.64 348.197 194.778 348.197 194.966Z" fill="white" fill-opacity="0.26"/>
<path d="M348.197 104.892C348.197 105.067 270.408 105.218 174.099 105.218C77.7888 105.218 0 105.067 0 104.892C0 104.716 77.7888 104.566 174.099 104.566C270.408 104.566 348.197 104.704 348.197 104.892Z" fill="white" fill-opacity="0.26"/>
<path d="M348.197 240.002C348.197 240.178 270.408 240.328 174.099 240.328C77.7888 240.328 0 240.178 0 240.002C0 239.827 77.7888 239.677 174.099 239.677C270.408 239.677 348.197 239.814 348.197 240.002Z" fill="white" fill-opacity="0.26"/>
<path d="M348.197 149.929C348.197 150.104 270.408 150.255 174.099 150.255C77.7888 150.255 0 150.104 0 149.929C0 149.753 77.7888 149.603 174.099 149.603C270.408 149.603 348.197 149.741 348.197 149.929Z" fill="white" fill-opacity="0.26"/>
<path d="M348.197 285.039C348.197 285.215 270.408 285.365 174.099 285.365C77.7888 285.365 0 285.215 0 285.039C0 284.864 77.7888 284.714 174.099 284.714C270.408 284.714 348.197 284.851 348.197 285.039Z" fill="white" fill-opacity="0.26"/>
<path d="M303.405 344.11C303.253 344.11 303.123 267.41 303.123 172.448C303.123 77.4858 303.253 0.785645 303.405 0.785645C303.557 0.785645 303.687 77.4858 303.687 172.448C303.687 267.41 303.567 344.11 303.405 344.11Z" fill="white" fill-opacity="0.26"/>
<path d="M141.138 344.11C140.986 344.11 140.856 267.41 140.856 172.448C140.856 77.4858 140.986 0.785645 141.138 0.785645C141.29 0.785645 141.42 77.4858 141.42 172.448C141.42 267.41 141.301 344.11 141.138 344.11Z" fill="white" fill-opacity="0.26"/>
<path d="M249.316 344.11C249.164 344.11 249.034 267.41 249.034 172.448C249.034 77.4858 249.164 0.785645 249.316 0.785645C249.468 0.785645 249.598 77.4858 249.598 172.448C249.598 267.41 249.478 344.11 249.316 344.11Z" fill="white" fill-opacity="0.26"/>
<path d="M87.0493 344.11C86.8976 344.11 86.7676 267.41 86.7676 172.448C86.7676 77.4858 86.8976 0.785645 87.0493 0.785645C87.201 0.785645 87.331 77.4858 87.331 172.448C87.331 267.41 87.2118 344.11 87.0493 344.11Z" fill="white" fill-opacity="0.26"/>
<path d="M195.227 344.11C195.075 344.11 194.945 267.41 194.945 172.448C194.945 77.4858 195.075 0.785645 195.227 0.785645C195.379 0.785645 195.509 77.4858 195.509 172.448C195.509 267.41 195.39 344.11 195.227 344.11Z" fill="white" fill-opacity="0.26"/>
<path d="M32.9604 344.11C32.8087 344.11 32.6787 267.41 32.6787 172.448C32.6787 77.4858 32.8087 0.785645 32.9604 0.785645C33.1121 0.785645 33.2421 77.4858 33.2421 172.448C33.2421 267.41 33.1229 344.11 32.9604 344.11Z" fill="white" fill-opacity="0.26"/>
</svg>
