<svg width="292" height="288" viewBox="0 0 292 288" fill="none" xmlns="http://www.w3.org/2000/svg">
<path d="M292 49.581C292 49.7281 226.766 49.8543 146 49.8543C65.2341 49.8543 0 49.7281 0 49.581C0 49.4338 65.2341 49.3077 146 49.3077C226.766 49.3077 292 49.4233 292 49.581Z" fill="white" fill-opacity="0.26"/>
<path d="M292 162.885C292 163.033 226.766 163.159 146 163.159C65.2341 163.159 0 163.033 0 162.885C0 162.738 65.2341 162.612 146 162.612C226.766 162.612 292 162.728 292 162.885Z" fill="white" fill-opacity="0.26"/>
<path d="M292 87.349C292 87.4961 226.766 87.6223 146 87.6223C65.2341 87.6223 0 87.4961 0 87.349C0 87.2018 65.2341 87.0757 146 87.0757C226.766 87.0757 292 87.1913 292 87.349Z" fill="white" fill-opacity="0.26"/>
<path d="M292 200.653C292 200.801 226.766 200.927 146 200.927C65.2341 200.927 0 200.801 0 200.653C0 200.506 65.2341 200.38 146 200.38C226.766 200.38 292 200.496 292 200.653Z" fill="white" fill-opacity="0.26"/>
<path d="M292 125.117C292 125.264 226.766 125.39 146 125.39C65.2341 125.39 0 125.264 0 125.117C0 124.97 65.2341 124.844 146 124.844C226.766 124.844 292 124.96 292 125.117Z" fill="white" fill-opacity="0.26"/>
<path d="M292 238.422C292 238.569 226.766 238.695 146 238.695C65.2341 238.695 0 238.569 0 238.422C0 238.275 65.2341 238.148 146 238.148C226.766 238.148 292 238.264 292 238.422Z" fill="white" fill-opacity="0.26"/>
<path d="M254.437 287.958C254.31 287.958 254.201 223.637 254.201 144.002C254.201 64.3661 254.31 0.0449219 254.437 0.0449219C254.564 0.0449219 254.673 64.3661 254.673 144.002C254.673 223.637 254.573 287.958 254.437 287.958Z" fill="white" fill-opacity="0.26"/>
<path d="M118.359 287.958C118.232 287.958 118.123 223.637 118.123 144.002C118.123 64.3661 118.232 0.0449219 118.359 0.0449219C118.486 0.0449219 118.595 64.3661 118.595 144.002C118.595 223.637 118.495 287.958 118.359 287.958Z" fill="white" fill-opacity="0.26"/>
<path d="M209.078 287.958C208.951 287.958 208.841 223.637 208.841 144.002C208.841 64.3661 208.951 0.0449219 209.078 0.0449219C209.205 0.0449219 209.314 64.3661 209.314 144.002C209.314 223.637 209.214 287.958 209.078 287.958Z" fill="white" fill-opacity="0.26"/>
<path d="M73 287.958C72.8727 287.958 72.7637 223.637 72.7637 144.002C72.7637 64.3661 72.8728 0.0449219 73 0.0449219C73.1272 0.0449219 73.2362 64.3661 73.2362 144.002C73.2362 223.637 73.1362 287.958 73 287.958Z" fill="white" fill-opacity="0.26"/>
<path d="M163.718 287.958C163.591 287.958 163.482 223.637 163.482 144.002C163.482 64.3661 163.591 0.0449219 163.718 0.0449219C163.846 0.0449219 163.955 64.3661 163.955 144.002C163.955 223.637 163.855 287.958 163.718 287.958Z" fill="white" fill-opacity="0.26"/>
<path d="M27.6408 287.958C27.5136 287.958 27.4046 223.637 27.4046 144.002C27.4046 64.3661 27.5136 0.0449219 27.6408 0.0449219C27.768 0.0449219 27.8771 64.3661 27.8771 144.002C27.8771 223.637 27.7771 287.958 27.6408 287.958Z" fill="white" fill-opacity="0.26"/>
</svg>
