<svg width="2169" height="1334" viewBox="0 0 2169 1334" fill="none" xmlns="http://www.w3.org/2000/svg">
<path d="M1812.39 229.981L2100.5 333.08L2168.29 357.339L1898.58 1111.03L1465.47 956.049C1450.23 922.451 1470.64 898.563 1371.32 814.023C1235.36 698.296 1076.67 691.059 1028.09 548.876C994.383 450.253 1016.76 334.179 1157.1 283.318C1263.27 244.84 1369.49 305.682 1473.36 278.067C1565.37 253.607 1569 142.885 1812.39 229.981Z" fill="#FF1E58"/>
<path d="M1793.13 388.93C1793.13 388.93 1784.77 383.83 1775.53 403.71C1766.29 423.59 1762.92 435 1762.92 435C1762.92 435 1760.43 439.18 1757.53 436.61C1754.63 434.04 1750.53 426.61 1745.77 428.13C1740.87 429.72 1739.44 435.31 1740.68 443.4C1741.92 451.49 1743.97 469.31 1744.16 470.92C1744.35 472.53 1743.51 474.92 1741.25 473.44C1738.99 471.96 1725.79 458.33 1719.67 464.98C1713.55 471.63 1720.67 493.6 1721.45 495.98C1722.23 498.36 1721.74 499.45 1720.6 500.1C1719.46 500.75 1715.46 495.73 1711.6 491.99C1707.74 488.25 1702.49 484.61 1699.29 488.74C1696.09 492.87 1695.61 509.57 1712.44 536.05L1721.04 547.81L1735.61 546.47C1766.61 541.71 1778.87 530.37 1779.87 525.24C1780.87 520.11 1774.71 518.59 1769.33 518.11C1763.95 517.63 1757.53 517.9 1757.27 516.62C1757.01 515.34 1757.51 514.31 1759.82 513.28C1762.13 512.25 1783.36 503.17 1784.35 494.18C1785.34 485.19 1766.35 484.27 1763.78 483.51C1761.21 482.75 1762.45 480.57 1763.78 479.66C1765.11 478.75 1779.89 468.56 1786.78 464.17C1793.67 459.78 1796.85 455.05 1794.85 450.31C1792.85 445.74 1784.58 447.54 1780.73 447.04C1776.88 446.54 1778.4 441.92 1778.4 441.92C1778.4 441.92 1784.77 431.92 1793.65 411.85C1802.53 391.78 1792.94 388.85 1792.94 388.85" fill="#F0F0F0"/>
<path d="M1784.85 406.72C1784.85 406.72 1784.8 406.87 1784.68 407.15C1784.56 407.43 1784.38 407.87 1784.16 408.4L1782.1 413.15C1780.3 417.28 1777.66 423.24 1774.37 430.59C1767.79 445.29 1758.53 465.51 1748.23 487.81C1737.93 510.11 1728.59 530.33 1721.93 545L1714.06 562.37L1711.92 567.09C1711.67 567.61 1711.48 568.02 1711.35 568.31C1711.29 568.45 1711.22 568.587 1711.14 568.72C1711.18 568.573 1711.24 568.43 1711.3 568.29C1711.43 567.99 1711.6 567.58 1711.82 567.05C1712.3 565.94 1713 564.34 1713.88 562.29C1715.68 558.16 1718.32 552.21 1721.61 544.86C1728.19 530.16 1737.45 509.94 1747.75 487.63C1758.05 465.32 1767.36 445.12 1774.02 430.46C1777.34 423.15 1780.02 417.22 1781.89 413.1L1784.04 408.38C1784.28 407.85 1784.47 407.45 1784.61 407.15C1784.75 406.85 1784.85 406.72 1784.85 406.72Z" fill="#7A7676"/>
<path d="M1751.12 438.77C1751.3 439.084 1751.44 439.42 1751.53 439.77C1751.77 440.4 1752.08 441.33 1752.46 442.48C1753.2 444.79 1754.15 447.99 1755.13 451.55L1757.6 460.67C1757.9 461.76 1758.15 462.67 1758.36 463.43C1758.48 463.752 1758.56 464.088 1758.59 464.43C1758.41 464.116 1758.27 463.78 1758.18 463.43C1757.94 462.8 1757.63 461.87 1757.26 460.71C1756.54 458.4 1755.63 455.18 1754.65 451.62L1752.12 442.52L1751.35 439.77C1751.23 439.447 1751.16 439.111 1751.12 438.77Z" fill="#7A7676"/>
<path d="M1759.94 464.64C1759.94 464.51 1766.42 462.26 1774.51 459.64C1782.6 457.02 1789.2 454.95 1789.24 455.08C1789.28 455.21 1782.76 457.46 1774.67 460.08C1766.58 462.7 1759.98 464.77 1759.94 464.64Z" fill="#7A7676"/>
<path d="M1742.57 498.18C1742.92 498.113 1743.29 498.083 1743.65 498.09L1746.57 497.99C1749.03 497.9 1752.44 497.77 1756.19 497.48C1759.94 497.19 1763.33 496.85 1765.79 496.57L1768.69 496.24C1769.04 496.174 1769.41 496.153 1769.77 496.18C1769.45 496.298 1769.11 496.381 1768.77 496.43C1768.09 496.56 1767.1 496.73 1765.88 496.91C1763.44 497.28 1760.04 497.7 1756.28 497.98C1752.52 498.26 1749.1 498.34 1746.62 498.33C1745.39 498.33 1744.39 498.33 1743.7 498.28C1743.32 498.299 1742.94 498.265 1742.57 498.18Z" fill="#7A7676"/>
<path d="M1729.45 476.54C1729.68 476.778 1729.88 477.043 1730.05 477.33C1730.41 477.85 1730.93 478.62 1731.55 479.58C1732.8 481.49 1734.49 484.15 1736.33 487.1C1738.17 490.05 1739.82 492.74 1740.99 494.7C1741.58 495.7 1742.04 496.48 1742.35 497.04C1742.54 497.315 1742.69 497.615 1742.8 497.93C1742.56 497.698 1742.35 497.432 1742.19 497.14C1741.83 496.61 1741.32 495.85 1740.69 494.89C1739.45 492.98 1737.76 490.32 1735.91 487.36C1734.06 484.4 1732.42 481.72 1731.25 479.76C1730.67 478.76 1730.25 477.98 1729.89 477.43C1729.71 477.152 1729.56 476.854 1729.45 476.54Z" fill="#7A7676"/>
<path d="M1710.35 504.2C1710.64 504.505 1710.9 504.84 1711.12 505.2L1713.05 508.08C1714.65 510.52 1716.85 513.91 1719.25 517.67C1721.65 521.43 1723.8 524.86 1725.33 527.35L1727.13 530.35C1727.36 530.705 1727.56 531.08 1727.73 531.47C1727.44 531.164 1727.18 530.829 1726.96 530.47L1725.04 527.59C1723.43 525.14 1721.23 521.75 1718.83 517.99C1716.43 514.23 1714.29 510.8 1712.75 508.31C1712.03 507.13 1711.43 506.13 1710.96 505.31C1710.72 504.963 1710.51 504.59 1710.35 504.2Z" fill="#7A7676"/>
<path d="M1727.5 530.69C1727.94 530.589 1728.39 530.535 1728.85 530.53L1732.55 530.27C1735.67 530.05 1739.99 529.73 1744.74 529.27C1749.49 528.81 1753.74 528.27 1756.89 527.84L1760.56 527.35C1761.01 527.269 1761.46 527.229 1761.92 527.23C1761.49 527.378 1761.04 527.482 1760.59 527.54C1759.73 527.71 1758.48 527.93 1756.94 528.18C1753.84 528.69 1749.55 529.29 1744.79 529.77C1740.03 530.25 1735.7 530.52 1732.57 530.65C1731 530.71 1729.74 530.75 1728.86 530.75C1728.4 530.769 1727.95 530.749 1727.5 530.69Z" fill="#7A7676"/>
<path d="M1197.64 487.43C1220.97 471.86 1226.64 442.43 1226.17 415.84C1226.08 411.4 1226.65 406.74 1224.57 402.84C1222.49 398.94 1217.57 396.18 1213.5 397.99C1210.15 399.49 1208.63 403.3 1206.72 406.44C1204.14 410.635 1200.44 414.021 1196.03 416.21C1193.15 417.63 1189.6 418.47 1186.8 416.89C1182.96 414.73 1182.58 409.44 1182.68 405.03L1183.22 380.39C1183.31 375.98 1183.4 371.48 1182.07 367.27C1180.74 363.06 1177.74 359.14 1173.51 357.9C1169.28 356.66 1163.99 359 1163.02 363.3C1162.62 365.09 1162.96 366.96 1162.81 368.79C1162.66 370.62 1161.81 372.63 1159.99 373.11C1158.17 373.59 1156.44 372.32 1155.12 371.02C1150.58 366.49 1147.54 360.72 1144.71 355.02C1141.88 349.32 1139.12 343.39 1135.02 338.48C1130.92 333.57 1125.18 329.63 1118.79 329.17C1112.4 328.71 1105.53 332.52 1103.79 338.69C1102.05 344.86 1105.65 351.24 1109.57 356.33C1115.41 363.87 1122.3 370.529 1130.04 376.1C1131.44 377.1 1132.94 378.19 1133.46 379.83C1134.38 382.83 1131.52 385.66 1128.56 386.59C1125.21 387.59 1121.56 387.24 1118.12 387.59C1114.68 387.94 1110.83 389.4 1109.46 392.59C1107.57 397.07 1111.31 401.85 1115.02 405C1122.45 411.31 1130.91 416.305 1140.02 419.77C1143.29 421.01 1146.73 422.1 1149.34 424.42C1151.95 426.74 1153.5 430.72 1151.85 433.8C1150.2 436.88 1146.07 437.8 1142.64 437.14C1139.21 436.48 1136.16 434.57 1132.9 433.3C1126.79 430.92 1118.9 431.22 1114.85 436.4C1112.21 439.8 1111.91 444.59 1113.15 448.71C1114.39 452.83 1116.99 456.4 1119.75 459.71C1129.41 471.25 1141.87 480.61 1156.03 485.71C1170.19 490.81 1183.36 492.31 1197.59 487.41" fill="#EBEBEB"/>
<path d="M1195.85 487.94C1192.1 474.49 1181.85 442.84 1175.7 427.94L1171.13 416.94C1169.62 413.33 1168.13 409.76 1166.44 406.35C1163.19 399.823 1159.59 393.48 1155.64 387.35C1151.9 381.45 1148.14 375.99 1144.64 370.9C1141.14 365.81 1137.64 361.16 1134.36 357.03C1129.19 350.486 1123.5 344.363 1117.36 338.72C1115.19 336.72 1113.46 335.22 1112.27 334.22L1110.85 333C1110.54 332.75 1110.37 332.63 1110.37 332.63C1110.37 332.63 1110.51 332.78 1110.8 333.05L1112.12 334.23C1113.27 335.23 1114.98 336.79 1117.12 338.82C1123.17 344.53 1128.79 350.683 1133.92 357.23C1137.18 361.37 1140.56 366.05 1144.11 371.13C1147.66 376.21 1151.38 381.69 1155.11 387.58C1159.03 393.712 1162.61 400.055 1165.84 406.58C1167.51 409.98 1169 413.58 1170.51 417.15C1172.02 420.72 1173.51 424.44 1175.08 428.15C1181.19 443.03 1191.47 474.65 1195.25 488.06" fill="#7A7676"/>
<path d="M1166.23 406.28C1166.44 405.669 1166.58 405.039 1166.67 404.4C1166.91 403.18 1167.21 401.4 1167.55 399.22C1168.24 394.84 1168.99 388.76 1169.8 382.05C1170.61 375.34 1171.46 369.29 1172.24 364.93C1172.62 362.75 1172.95 360.99 1173.24 359.78C1173.4 359.156 1173.5 358.521 1173.55 357.88C1173.3 358.474 1173.12 359.09 1172.99 359.72C1172.66 360.92 1172.26 362.72 1171.82 364.85C1170.85 369.19 1169.95 375.26 1169.14 382C1168.33 388.74 1167.63 394.67 1167.09 399.19C1166.82 401.29 1166.59 403.04 1166.41 404.39C1166.3 405.014 1166.24 405.646 1166.23 406.28Z" fill="#7A7676"/>
<path d="M1108.97 394.83C1109.16 394.891 1109.36 394.925 1109.56 394.93L1111.26 395.1C1112.74 395.25 1114.87 395.45 1117.49 395.78C1122.74 396.4 1129.97 397.53 1137.89 399.12C1145.81 400.71 1152.89 402.5 1157.99 403.93C1160.54 404.63 1162.59 405.25 1163.99 405.67L1165.63 406.15C1165.81 406.222 1166.01 406.266 1166.21 406.28C1166.04 406.17 1165.86 406.086 1165.67 406.03C1165.23 405.86 1164.67 405.66 1164.07 405.43C1162.68 404.93 1160.64 404.23 1158.07 403.43C1153 401.88 1145.9 400.03 1137.97 398.43C1130.04 396.83 1122.85 395.82 1117.54 395.31C1114.91 395.04 1112.76 394.91 1111.28 394.85H1109.57C1109.37 394.818 1109.17 394.812 1108.97 394.83Z" fill="#7A7676"/>
<path d="M1190.27 469.63C1190.42 469.413 1190.55 469.182 1190.66 468.94L1191.66 466.94C1192.52 465.16 1193.66 462.56 1195.14 459.33C1198 452.88 1201.67 443.84 1205.6 433.82C1209.53 423.8 1213.12 414.7 1215.85 408.2L1219.13 400.52C1219.49 399.66 1219.79 398.97 1220.02 398.43C1220.13 398.189 1220.22 397.938 1220.29 397.68C1220.13 397.891 1220 398.123 1219.9 398.37L1218.9 400.37C1218.04 402.15 1216.85 404.75 1215.43 407.97C1212.57 414.43 1208.89 423.47 1204.97 433.49C1201.05 443.51 1197.44 452.57 1194.69 459.07L1191.41 466.75L1190.53 468.84C1190.41 469.092 1190.32 469.357 1190.27 469.63Z" fill="#7A7676"/>
<path d="M1114.34 444.22C1114.58 444.345 1114.83 444.446 1115.09 444.52L1117.3 445.27L1125.44 448C1132.31 450.3 1141.76 453.59 1152.19 457.25C1162.62 460.91 1172.11 464.13 1179.02 466.32C1182.47 467.41 1185.28 468.27 1187.22 468.83L1189.47 469.46C1189.73 469.548 1190 469.608 1190.27 469.64C1190.03 469.513 1189.77 469.409 1189.51 469.33L1187.3 468.58L1179.16 465.87C1172.29 463.57 1162.84 460.28 1152.41 456.62C1141.98 452.96 1132.5 449.73 1125.59 447.55C1122.13 446.46 1119.33 445.6 1117.38 445.04L1115.14 444.4C1114.88 444.314 1114.61 444.254 1114.34 444.22Z" fill="#7A7676"/>
<path d="M1581.61 333.37H1707.68L1683.02 350.9V365.54C1682.96 372.773 1680.04 379.689 1674.88 384.765C1669.73 389.841 1662.77 392.663 1655.54 392.61H1576.43C1569.2 392.663 1562.24 389.841 1557.08 384.765C1551.93 379.689 1549 372.773 1548.95 365.54C1548.98 361.283 1549.85 357.074 1551.51 353.153C1553.17 349.232 1555.58 345.677 1558.61 342.689C1561.65 339.702 1565.24 337.341 1569.18 335.742C1573.13 334.143 1577.35 333.337 1581.61 333.37Z" fill="#F0F0F0"/>
<path d="M1661.75 353.18C1661.75 353.449 1640.75 353.68 1614.75 353.68C1588.75 353.68 1567.75 353.449 1567.75 353.18C1567.75 352.911 1588.75 352.68 1614.75 352.68C1640.75 352.68 1661.75 352.891 1661.75 353.18Z" fill="#C26880"/>
<path d="M1661.75 370.5C1661.75 370.769 1640.75 371 1614.75 371C1588.75 371 1567.75 370.769 1567.75 370.5C1567.75 370.231 1588.75 370 1614.75 370C1640.75 370 1661.75 370.212 1661.75 370.5Z" fill="#C26880"/>
<path d="M1661.75 362.92C1661.75 363.189 1640.75 363.42 1614.75 363.42C1588.75 363.42 1567.75 363.189 1567.75 362.92C1567.75 362.651 1588.75 362.42 1614.75 362.42C1640.75 362.42 1661.75 362.632 1661.75 362.92Z" fill="#C26880"/>
<path d="M1661.75 380.24C1661.75 380.509 1640.75 380.74 1614.75 380.74C1588.75 380.74 1567.75 380.509 1567.75 380.24C1567.75 379.971 1588.75 379.74 1614.75 379.74C1640.75 379.74 1661.75 379.952 1661.75 380.24Z" fill="#C26880"/>
<path d="M1390.34 633.42H1241.16L1265.46 651V685.5C1265.46 686.446 1265.65 687.383 1266.01 688.258C1266.37 689.132 1266.9 689.926 1267.57 690.595C1268.24 691.263 1269.04 691.794 1269.91 692.155C1270.79 692.516 1271.72 692.701 1272.67 692.7H1390.34C1391.29 692.701 1392.22 692.516 1393.1 692.155C1393.97 691.794 1394.77 691.263 1395.44 690.595C1396.11 689.926 1396.64 689.132 1397 688.258C1397.36 687.383 1397.55 686.446 1397.55 685.5V640.62C1397.55 638.71 1396.79 636.878 1395.43 635.528C1394.08 634.178 1392.25 633.42 1390.34 633.42Z" fill="#F0F0F0"/>
<path d="M1384.12 658.04C1384.12 658.329 1361.62 658.54 1333.87 658.54C1306.12 658.54 1283.62 658.329 1283.62 658.04C1283.62 657.752 1306.11 657.54 1333.87 657.54C1361.63 657.54 1384.12 657.771 1384.12 658.04Z" fill="#7A7676"/>
<path d="M1384.12 671.29C1384.12 671.559 1361.62 671.79 1333.87 671.79C1306.12 671.79 1283.62 671.559 1283.62 671.29C1283.62 671.021 1306.11 670.79 1333.87 670.79C1361.63 670.79 1384.12 671.021 1384.12 671.29Z" fill="#7A7676"/>
<path d="M1694.93 463.4H1520.34C1498.92 463.4 1481.55 480.767 1481.55 502.19V644.29C1481.55 665.713 1498.92 683.08 1520.34 683.08H1694.93C1716.35 683.08 1733.72 665.713 1733.72 644.29V502.19C1733.72 480.767 1716.35 463.4 1694.93 463.4Z" fill="#FF5B86"/>
<g opacity="0.4">
<path d="M1694.93 463.4H1520.34C1498.92 463.4 1481.55 480.767 1481.55 502.19V644.29C1481.55 665.713 1498.92 683.08 1520.34 683.08H1694.93C1716.35 683.08 1733.72 665.713 1733.72 644.29V502.19C1733.72 480.767 1716.35 463.4 1694.93 463.4Z" fill="#9F0029"/>
</g>
<path d="M1733.65 539.98H1771.42L1732.8 578.61L1733.65 539.98Z" fill="#FF5B86"/>
<g opacity="0.4">
<path d="M1733.65 539.98H1771.42L1732.8 578.61L1733.65 539.98Z" fill="black"/>
</g>
<path d="M1475.51 563.73L1459.68 545.73C1455.4 541.45 1453.93 539.39 1454.79 538.64C1455.93 537.64 1455.44 537.97 1464.33 544.64C1464.33 544.64 1451.73 535.01 1456.1 534.95C1456.87 534.95 1459.01 536.19 1461.3 537.69C1458.18 535.04 1457.3 533.25 1457.91 532.4C1458.91 530.92 1466.63 536.27 1470.18 538.84C1467.28 536.68 1461.75 532.49 1460.78 531.17C1459.44 529.37 1462.15 529.52 1464.35 530.27C1466.82 531.11 1480.47 538.08 1484.51 539.88C1484.83 540.073 1485.19 540.194 1485.57 540.234C1485.94 540.274 1486.32 540.232 1486.68 540.111C1487.04 539.991 1487.37 539.794 1487.64 539.535C1487.91 539.276 1488.13 538.96 1488.27 538.61C1489.76 532.35 1494.27 528.28 1495.99 527.75C1497.71 527.22 1499.04 529.42 1497.81 531.02C1496.65 532.882 1495.76 534.894 1495.15 537C1494.59 538.652 1494.32 540.387 1494.34 542.13C1494.34 544.13 1494.48 545.86 1494.61 547.31L1509.08 567.16L1484.88 581.16L1475.51 563.73Z" fill="#B78876"/>
<path d="M1469.85 547.44C1469.69 547.66 1466.85 545.73 1463.57 543.12C1460.29 540.51 1457.73 538.21 1457.92 538C1458.11 537.79 1460.92 539.73 1464.2 542.32C1467.48 544.91 1469.99 547.21 1469.85 547.44Z" fill="#AA6550"/>
<path d="M1472.91 544.28C1472.75 544.51 1469.64 542.61 1465.96 540.05C1462.28 537.49 1459.42 535.22 1459.58 535C1459.74 534.78 1462.85 536.66 1466.53 539.22C1470.21 541.78 1473.07 544.05 1472.91 544.28Z" fill="#AA6550"/>
<path d="M1475.15 540.92C1474.99 541.15 1472.01 539.41 1468.5 537.03C1464.99 534.65 1462.27 532.54 1462.42 532.3C1462.57 532.06 1465.55 533.81 1469.07 536.19C1472.59 538.57 1475.3 540.69 1475.15 540.92Z" fill="#AA6550"/>
<path d="M1495.96 550L1553.64 623.14L1540.43 653.89C1540.43 653.89 1524.61 650.39 1519.81 643.73C1515.01 637.07 1475.51 563.73 1475.51 563.73L1495.96 550Z" fill="#B78876"/>
<path d="M1642.38 447.68C1646.53 451.28 1646.52 457.62 1646.04 463.09C1645.56 468.56 1645.19 474.79 1648.98 478.77C1652.11 482.05 1657.78 483.48 1658.5 487.95C1658.67 489 1658.51 490.078 1658.04 491.034C1657.58 491.99 1656.83 492.778 1655.89 493.29C1654.96 493.802 1653.89 494.013 1652.83 493.893C1651.78 493.772 1650.78 493.328 1649.99 492.62C1651.21 496.15 1650.37 500.56 1647.31 502.7C1644.25 504.84 1639.12 503.52 1638.17 499.91C1638.32 500.513 1638.35 501.141 1638.26 501.756C1638.16 502.37 1637.93 502.958 1637.6 503.482C1637.26 504.007 1636.82 504.456 1636.31 504.803C1635.79 505.15 1635.21 505.386 1634.59 505.498C1633.98 505.61 1633.35 505.594 1632.75 505.452C1632.14 505.309 1631.57 505.044 1631.07 504.672C1630.57 504.299 1630.16 503.828 1629.85 503.288C1629.54 502.747 1629.35 502.149 1629.28 501.53" fill="#263238"/>
<path d="M1582.95 484.6C1582.39 485.939 1581.32 487.002 1579.98 487.554C1578.64 488.107 1577.13 488.103 1575.79 487.545C1574.45 486.987 1573.39 485.919 1572.84 484.577C1572.29 483.236 1572.29 481.729 1572.85 480.39C1573.8 478.31 1576.05 476.81 1576.27 474.53C1576.53 471.78 1573.72 469.81 1571.27 468.61C1568.82 467.41 1565.86 465.85 1565.59 463.09C1565.32 460.33 1567.71 458.36 1569.7 456.58C1571.69 454.8 1573.7 452.04 1572.43 449.67C1571.8 448.45 1570.49 447.76 1569.64 446.67C1567.77 444.29 1568.75 440.5 1571.14 438.67C1573.53 436.84 1576.83 436.55 1579.81 437.08C1582.79 437.61 1585.59 438.85 1588.49 439.72C1593.3 441.118 1598.34 441.504 1603.31 440.853C1608.27 440.202 1613.04 438.53 1617.33 435.94" fill="#263238"/>
<path d="M1600.66 549.09C1605.83 550.133 1611.19 549.102 1615.61 546.221C1620.02 543.34 1623.12 538.839 1624.25 533.69L1638.44 468.63C1639.32 464.873 1639.45 460.977 1638.8 457.172C1638.16 453.366 1636.75 449.729 1634.68 446.475C1632.6 443.222 1629.89 440.417 1626.71 438.228C1623.53 436.039 1619.95 434.509 1616.17 433.73L1614.69 433.51C1607.46 432.447 1600.1 434.147 1594.06 438.27C1588.03 442.394 1583.77 448.638 1582.14 455.76C1578.98 469.49 1575.67 484.7 1574.67 492.17C1572.6 507.64 1587.67 512.3 1587.67 512.3L1584.96 525.3C1584.42 527.89 1584.4 530.561 1584.9 533.159C1585.4 535.757 1586.4 538.231 1587.86 540.439C1589.32 542.647 1591.2 544.545 1593.39 546.024C1595.58 547.504 1598.05 548.535 1600.64 549.06L1600.66 549.09Z" fill="#B78876"/>
<path d="M1584.92 466C1584.83 466.574 1584.97 467.16 1585.31 467.634C1585.64 468.108 1586.15 468.433 1586.72 468.54C1587 468.603 1587.28 468.61 1587.56 468.561C1587.84 468.512 1588.11 468.407 1588.35 468.254C1588.58 468.1 1588.79 467.9 1588.95 467.666C1589.11 467.432 1589.22 467.168 1589.28 466.89C1589.37 466.317 1589.24 465.729 1588.9 465.255C1588.57 464.78 1588.06 464.455 1587.49 464.35C1587.21 464.287 1586.92 464.28 1586.64 464.329C1586.36 464.378 1586.1 464.482 1585.86 464.636C1585.62 464.789 1585.41 464.989 1585.25 465.223C1585.09 465.458 1584.98 465.722 1584.92 466Z" fill="#263238"/>
<path d="M1584.35 463.8C1584.58 464.13 1586.43 463.13 1588.81 463.49C1591.19 463.85 1592.74 465.28 1593.04 465.03C1593.19 464.92 1592.98 464.36 1592.31 463.7C1591.39 462.838 1590.22 462.283 1588.97 462.11C1587.74 461.924 1586.48 462.134 1585.37 462.71C1584.56 463.17 1584.24 463.65 1584.35 463.8Z" fill="#263238"/>
<path d="M1608.11 469.8C1608.02 470.374 1608.16 470.962 1608.49 471.436C1608.83 471.911 1609.34 472.235 1609.91 472.34C1610.19 472.403 1610.47 472.41 1610.75 472.36C1611.03 472.31 1611.3 472.205 1611.54 472.05C1611.78 471.895 1611.98 471.694 1612.14 471.459C1612.3 471.224 1612.41 470.959 1612.47 470.68C1612.56 470.107 1612.42 469.521 1612.08 469.048C1611.75 468.575 1611.24 468.253 1610.67 468.15C1610.39 468.086 1610.11 468.077 1609.83 468.126C1609.55 468.175 1609.28 468.279 1609.04 468.433C1608.8 468.587 1608.6 468.787 1608.44 469.022C1608.28 469.257 1608.16 469.521 1608.11 469.8Z" fill="#263238"/>
<path d="M1607.61 467.66C1607.84 467.98 1609.69 466.99 1612.06 467.35C1614.43 467.71 1616 469.14 1616.3 468.89C1616.44 468.78 1616.24 468.22 1615.56 467.56C1614.64 466.698 1613.47 466.143 1612.22 465.97C1610.99 465.784 1609.73 465.994 1608.62 466.57C1607.85 467 1607.49 467.51 1607.61 467.66Z" fill="#263238"/>
<path d="M1596.42 484C1596.42 483.86 1595.01 483.39 1592.67 482.74C1592.07 482.59 1591.52 482.38 1591.48 481.95C1591.52 481.32 1591.75 480.717 1592.14 480.22C1592.93 478.84 1593.76 477.39 1594.61 475.87C1598.06 469.66 1600.61 464.53 1600.4 464.39C1600.19 464.25 1597.15 469.17 1593.7 475.39L1591.3 479.77C1590.81 480.45 1590.58 481.277 1590.64 482.11C1590.7 482.331 1590.81 482.535 1590.96 482.708C1591.11 482.881 1591.3 483.019 1591.51 483.11C1591.83 483.247 1592.16 483.345 1592.51 483.4C1593.78 483.762 1595.1 483.963 1596.42 484Z" fill="#263238"/>
<path d="M1608.35 458.27C1608.49 458.95 1610.91 458.99 1613.64 459.73C1616.37 460.47 1618.51 461.56 1618.97 461.04C1619.17 460.79 1618.87 460.12 1618.06 459.37C1616.96 458.426 1615.66 457.745 1614.26 457.379C1612.86 457.014 1611.39 456.973 1609.97 457.26C1608.85 457.52 1608.3 458 1608.35 458.27Z" fill="#263238"/>
<path d="M1586.23 457.06C1586.57 457.66 1588.23 457.34 1590.23 457.6C1592.23 457.86 1593.81 458.5 1594.23 457.99C1594.44 457.74 1594.23 457.16 1593.61 456.54C1592.72 455.786 1591.63 455.312 1590.47 455.181C1589.31 455.049 1588.14 455.264 1587.11 455.8C1586.39 456.25 1586.08 456.77 1586.23 457.06Z" fill="#263238"/>
<path d="M1624.16 449.24L1624.23 449.32C1626.41 451.619 1627.61 454.673 1627.59 457.84V458.15C1627.59 462.65 1626.78 467.15 1626.79 471.6C1626.8 476.05 1627.66 480.79 1630.47 484.29C1631.62 485.74 1633.86 486.94 1635.17 485.64C1635.63 485.087 1635.93 484.414 1636.02 483.7C1638.4 473.19 1642.68 464.19 1644.29 453.07C1644.51 451.581 1644.38 450.061 1643.9 448.635C1643.41 447.209 1642.6 445.918 1641.52 444.87C1639.44 442.87 1636.85 440.71 1634.08 441.56C1631.31 442.41 1627.26 446.76 1624.95 448.56" fill="#263238"/>
<path d="M1632.21 474.85C1632.49 474.77 1643.28 473.26 1641.39 483.77C1639.5 494.28 1629.39 490.22 1629.39 489.91C1629.39 489.6 1632.21 474.85 1632.21 474.85Z" fill="#B78876"/>
<path d="M1633.31 486.51C1633.31 486.51 1633.47 486.67 1633.75 486.86C1634.15 487.127 1634.64 487.227 1635.12 487.14C1636.3 486.93 1637.55 485.34 1637.94 483.45C1638.14 482.558 1638.14 481.632 1637.94 480.74C1637.9 480.394 1637.77 480.064 1637.58 479.776C1637.38 479.489 1637.12 479.254 1636.81 479.09C1636.61 478.996 1636.38 478.975 1636.17 479.032C1635.95 479.088 1635.77 479.219 1635.64 479.4C1635.45 479.66 1635.48 479.89 1635.42 479.89C1635.36 479.89 1635.23 479.68 1635.42 479.26C1635.52 479.011 1635.71 478.806 1635.95 478.68C1636.28 478.513 1636.66 478.48 1637.01 478.59C1637.43 478.757 1637.8 479.028 1638.08 479.378C1638.36 479.729 1638.55 480.146 1638.63 480.59C1638.91 481.567 1638.94 482.596 1638.74 483.59C1638.29 485.7 1636.85 487.48 1635.26 487.65C1634.96 487.682 1634.66 487.646 1634.38 487.545C1634.1 487.445 1633.84 487.283 1633.63 487.07C1633.28 486.76 1633.27 486.52 1633.31 486.51Z" fill="#AA6550"/>
<path d="M1634.2 443.25C1637.42 439.4 1631.2 432.3 1626.2 429.89C1621.2 427.48 1614 429.02 1608.56 429.98C1605.13 430.59 1601.65 431.63 1598.23 430.98C1595.96 430.412 1593.79 429.505 1591.79 428.29C1589.78 427.097 1587.56 426.318 1585.25 426C1584.09 425.857 1582.91 426.034 1581.84 426.511C1580.77 426.989 1579.85 427.749 1579.18 428.71C1577.99 430.71 1578.82 433.84 1581.06 434.49C1580.38 433.978 1579.59 433.636 1578.76 433.496C1577.92 433.356 1577.07 433.42 1576.26 433.684C1575.45 433.948 1574.72 434.403 1574.13 435.011C1573.54 435.618 1573.11 436.36 1572.87 437.173C1572.63 437.985 1572.59 438.844 1572.75 439.676C1572.91 440.507 1573.28 441.287 1573.81 441.947C1574.34 442.608 1575.02 443.13 1575.8 443.468C1576.58 443.806 1577.42 443.951 1578.27 443.89C1576.94 442.53 1574.36 444.08 1574.27 445.98C1574.18 447.88 1575.68 449.49 1577.27 450.5C1581.38 453.08 1586.6 453.21 1591.38 452.35C1596.16 451.49 1600.74 449.71 1605.5 448.73C1610.26 447.75 1618.25 445.89 1622.55 448.16C1625.71 449.82 1627.45 454.16 1629.46 453.57C1630.41 453.219 1631.27 452.652 1631.96 451.912C1632.66 451.173 1633.17 450.282 1633.46 449.31C1634 447.358 1634.23 445.333 1634.13 443.31" fill="#263238"/>
<path d="M1654.77 492C1654.97 491.955 1655.15 491.874 1655.32 491.76C1655.81 491.442 1656.21 490.992 1656.46 490.46C1656.85 489.609 1656.97 488.66 1656.8 487.74C1656.54 486.53 1655.88 485.444 1654.92 484.66C1653.78 483.725 1652.5 482.978 1651.13 482.45C1649.58 481.886 1648.1 481.17 1646.7 480.31C1645.23 479.278 1644.11 477.824 1643.49 476.14C1642.81 474.327 1642.49 472.396 1642.56 470.46C1642.66 466.46 1643.77 462.71 1644.04 459.18C1644.31 455.65 1643.86 452.34 1642.36 450.05C1641.23 448.208 1639.44 446.867 1637.36 446.3C1636.8 446.159 1636.22 446.102 1635.65 446.13C1635.45 446.133 1635.25 446.163 1635.06 446.22C1635.82 446.215 1636.57 446.309 1637.31 446.5C1639.29 447.126 1640.97 448.462 1642.03 450.25C1643.42 452.47 1643.9 455.69 1643.55 459.14C1643.2 462.59 1642.13 466.34 1642.01 470.45C1641.95 472.457 1642.29 474.457 1643.01 476.33C1643.68 478.109 1644.87 479.641 1646.44 480.72C1647.87 481.582 1649.39 482.299 1650.97 482.86C1652.31 483.356 1653.56 484.058 1654.68 484.94C1655.59 485.663 1656.24 486.669 1656.52 487.8C1656.7 488.661 1656.62 489.558 1656.28 490.37C1655.97 491.065 1655.44 491.639 1654.77 492Z" fill="#455A64"/>
<path d="M1580.72 434.24C1580.58 434.135 1580.42 434.05 1580.26 433.99C1580.07 433.898 1579.88 433.821 1579.68 433.76C1579.4 433.665 1579.12 433.595 1578.83 433.55C1577.88 433.4 1576.91 433.468 1575.99 433.749C1575.07 434.03 1574.23 434.515 1573.53 435.17C1572.82 436.037 1572.28 437.037 1571.96 438.111C1571.64 439.186 1571.53 440.314 1571.65 441.43C1571.78 442.816 1572.19 444.161 1572.86 445.386C1573.52 446.61 1574.42 447.69 1575.51 448.56C1578.01 450.573 1581.05 451.795 1584.25 452.07C1587.72 452.368 1591.22 452.156 1594.63 451.44C1600.04 450.38 1605.22 448.376 1609.93 445.52C1611.95 444.27 1614.06 443.177 1616.25 442.25C1618.16 441.476 1620.19 441.059 1622.25 441.02C1625.24 440.955 1628.21 441.643 1630.87 443.02C1631.83 443.558 1632.76 444.149 1633.66 444.79C1632.86 444.003 1631.95 443.33 1630.97 442.79C1628.3 441.303 1625.29 440.535 1622.24 440.56C1620.13 440.576 1618.04 440.979 1616.08 441.75C1613.87 442.676 1611.73 443.769 1609.69 445.02C1605.01 447.817 1599.88 449.783 1594.53 450.83C1591.17 451.541 1587.72 451.76 1584.3 451.48C1581.2 451.223 1578.25 450.053 1575.81 448.12C1574.76 447.291 1573.89 446.263 1573.24 445.093C1572.6 443.924 1572.19 442.638 1572.05 441.31C1571.93 440.246 1572.02 439.168 1572.31 438.138C1572.61 437.109 1573.1 436.148 1573.77 435.31C1574.44 434.673 1575.24 434.193 1576.11 433.904C1576.99 433.616 1577.91 433.525 1578.83 433.64C1579.48 433.781 1580.11 433.982 1580.72 434.24Z" fill="#455A64"/>
<path d="M1586.57 425.49C1586.53 426.294 1586.66 427.096 1586.94 427.85C1587.72 429.934 1589.18 431.695 1591.08 432.85C1592.36 433.683 1593.78 434.272 1595.27 434.59C1596.98 434.935 1598.73 435.026 1600.47 434.86C1604.14 434.59 1607.98 433.33 1612.01 432.29C1616.04 431.25 1620.07 430.7 1623.55 431.63C1626.64 432.448 1629.38 434.232 1631.39 436.72C1632.77 438.373 1633.79 440.293 1634.39 442.36C1634.79 443.83 1634.84 444.69 1634.91 444.68C1634.92 444.474 1634.92 444.266 1634.91 444.06C1634.85 443.471 1634.76 442.886 1634.62 442.31C1634.09 440.178 1633.09 438.188 1631.71 436.48C1629.68 433.889 1626.88 432.02 1623.71 431.15C1620.11 430.15 1615.97 430.72 1611.92 431.77C1607.87 432.82 1604.06 434.08 1600.47 434.37C1598.78 434.545 1597.07 434.474 1595.4 434.16C1593.95 433.866 1592.57 433.317 1591.32 432.54C1589.46 431.447 1588.01 429.784 1587.18 427.8C1586.91 427.048 1586.71 426.276 1586.57 425.49Z" fill="#455A64"/>
<path d="M1591.68 491.85C1591.81 492.882 1592.08 493.892 1592.49 494.85C1592.7 495.323 1593.01 495.747 1593.4 496.091C1593.79 496.436 1594.24 496.695 1594.74 496.85C1595.28 496.961 1595.83 496.936 1596.35 496.777C1596.88 496.618 1597.35 496.33 1597.74 495.94C1598.51 495.132 1599 494.104 1599.15 493C1599.31 492 1599.15 490.75 1598.15 490.43C1597.74 490.33 1597.32 490.33 1596.92 490.43L1591.38 491.43" fill="#AA6550"/>
<path d="M1592.65 496.05C1593.53 496.389 1594.46 496.565 1595.41 496.57C1596.39 496.513 1597.31 496.092 1597.99 495.39C1598.39 494.961 1598.7 494.451 1598.89 493.894C1599.08 493.337 1599.15 492.746 1599.1 492.16C1599.07 491.86 1599 491.564 1598.9 491.28C1598.77 491.01 1598.81 491.03 1598.58 491C1598.35 490.97 1597.99 491 1597.69 491.05L1596.76 491.12C1595.56 491.21 1594.48 491.28 1593.57 491.33C1592.57 491.469 1591.56 491.448 1590.57 491.27C1591.5 490.929 1592.48 490.726 1593.48 490.67C1594.38 490.54 1595.48 490.41 1596.65 490.27L1597.57 490.17C1597.9 490.121 1598.23 490.091 1598.57 490.08C1598.83 490.087 1599.09 490.178 1599.3 490.34C1599.49 490.505 1599.63 490.715 1599.71 490.95C1599.84 491.31 1599.93 491.687 1599.97 492.07C1600.03 492.79 1599.94 493.515 1599.69 494.195C1599.45 494.874 1599.05 495.491 1598.54 496C1597.69 496.812 1596.55 497.254 1595.37 497.23C1594.6 497.233 1593.84 497.022 1593.19 496.62C1592.85 496.34 1592.62 496.09 1592.65 496.05Z" fill="#263238"/>
<path d="M1587.69 512.3C1587.69 512.3 1597.77 516.12 1607.58 513.3C1607.58 513.3 1600.18 519.51 1586.68 517.13L1587.69 512.3Z" fill="#AA6550"/>
<path d="M1603.07 655.67C1602.58 655.352 1602.12 654.997 1601.69 654.61C1601.26 654.26 1600.69 653.83 1600.08 653.37C1599.47 652.91 1598.73 652.37 1597.88 651.82C1597.03 651.27 1596.15 650.67 1595.12 650.1C1594.09 649.53 1593 648.93 1591.83 648.33C1586.7 645.806 1581.18 644.156 1575.51 643.45C1574.2 643.31 1572.96 643.15 1571.79 643.12C1570.62 643.09 1569.53 643.04 1568.54 643.05C1567.55 643.06 1566.64 643.11 1565.85 643.14C1565.06 643.17 1564.38 643.23 1563.85 643.29C1563.28 643.378 1562.7 643.418 1562.12 643.41C1562.68 643.266 1563.25 643.159 1563.83 643.09C1564.49 642.976 1565.16 642.896 1565.83 642.85C1566.62 642.79 1567.52 642.68 1568.53 642.68C1569.54 642.68 1570.63 642.62 1571.81 642.68C1572.99 642.74 1574.25 642.84 1575.57 642.96C1578.43 643.316 1581.26 643.898 1584.03 644.7C1586.78 645.545 1589.45 646.611 1592.03 647.89C1593.2 648.51 1594.33 649.08 1595.32 649.72C1596.31 650.36 1597.25 650.93 1598.07 651.51C1598.89 652.09 1599.61 652.65 1600.24 653.13C1600.87 653.61 1601.39 654.07 1601.8 654.45C1602.26 654.821 1602.68 655.229 1603.07 655.67Z" fill="#362F2F"/>
<path d="M1544.3 604.31L1552.5 568.78C1555.64 555.42 1559.36 542.58 1565.61 541.06V545.19L1562.93 646.7C1562.93 646.7 1546.22 665.7 1524.93 655.16C1518.27 651.85 1506.12 628.6 1506.12 628.6C1506.12 628.6 1477.85 578.16 1479.03 575.87C1480.21 573.58 1497.48 551.32 1499.24 550.21L1544.3 604.31Z" fill="#FF5B86"/>
<path d="M1628.68 531C1644.98 534.12 1663.33 543.63 1671.78 568C1674.86 576.9 1697.3 642.51 1697.3 642.51L1659.03 641.71L1652.85 628.2L1655.85 650.15L1658.44 681.45L1561.8 683.08L1562.48 635.92L1563.41 542.12C1563.41 542.12 1564.49 540.7 1581.16 531.51C1591.5 525.8 1628.68 531 1628.68 531Z" fill="#FF5B86"/>
<g opacity="0.2">
<path d="M1638.32 593.74C1639.91 613.54 1641.73 619.66 1643.32 639.46C1643.36 641.335 1643.69 643.192 1644.32 644.96C1644.65 645.839 1645.19 646.628 1645.88 647.262C1646.58 647.896 1647.41 648.358 1648.32 648.61C1651.14 649.18 1654.8 651.22 1655.59 648.46L1652.92 629.39C1652.34 626.616 1651.46 623.915 1650.28 621.34C1644.35 608.17 1642.16 607.4 1638.28 593.74" fill="black"/>
</g>
<path d="M1581.15 541.66L1581.47 539.6L1584.56 519.84C1584.65 519.266 1584.95 518.746 1585.41 518.386C1585.86 518.026 1586.44 517.853 1587.02 517.9L1625.07 521.08C1626.22 521.174 1627.28 521.719 1628.03 522.596C1628.78 523.473 1629.15 524.61 1629.07 525.76L1628.22 537.24L1616.34 552.74L1599.23 555.41" fill="#FF5B86"/>
<path d="M1562.04 578.81C1562.19 578.81 1562.3 594.29 1562.3 613.38C1562.3 632.47 1562.19 647.95 1562.04 647.95C1561.89 647.95 1561.78 632.47 1561.78 613.38C1561.78 594.29 1561.9 578.81 1562.04 578.81Z" fill="#263238"/>
<path d="M1659.85 644.89C1659.85 644.89 1659.85 644.82 1659.73 644.67C1659.61 644.52 1659.54 644.27 1659.41 643.99L1658.25 641.36L1654.08 631.65L1640.49 599.54C1637.85 593.26 1635.34 587.28 1633.06 581.83C1631.91 579.277 1631.08 576.589 1630.6 573.83C1630.18 571.419 1629.96 568.977 1629.94 566.53C1629.81 562.984 1630.33 559.443 1631.46 556.08L1631.77 555.25L1632.12 554.55C1632.28 554.178 1632.48 553.823 1632.72 553.49L1633.14 552.87C1633.19 552.8 1633.24 552.733 1633.3 552.67C1632.64 553.776 1632.09 554.941 1631.65 556.15C1630.6 559.506 1630.15 563.018 1630.31 566.53C1630.33 571.745 1631.41 576.901 1633.5 581.68L1640.97 599.37L1654.42 631.54L1658.42 641.31L1659.49 643.98L1659.76 644.68C1659.8 644.747 1659.83 644.817 1659.85 644.89Z" fill="#263238"/>
<path d="M1640.54 534.49C1640.19 534.845 1639.82 535.179 1639.43 535.49C1638.3 536.347 1637.08 537.063 1635.78 537.62C1633.72 538.479 1631.56 539.084 1629.36 539.42C1626.44 539.873 1623.51 540.163 1620.56 540.29C1617.28 540.43 1613.7 540.37 1609.86 540.44C1605.78 540.433 1601.72 540.93 1597.76 541.92C1593.37 542.956 1589.41 545.295 1586.38 548.63C1584.87 550.446 1583.79 552.579 1583.22 554.87C1582.61 557.22 1582.65 559.692 1583.34 562.02C1583.72 563.169 1584.29 564.249 1585.01 565.22C1585.74 566.162 1586.66 566.939 1587.71 567.5C1588.73 568.058 1589.89 568.302 1591.05 568.2C1592.18 568.084 1593.23 567.549 1593.99 566.7C1594.66 565.807 1595.15 564.783 1595.4 563.692C1595.66 562.602 1595.68 561.47 1595.47 560.37C1595.3 559.284 1594.97 558.231 1594.47 557.25C1593.98 556.293 1593.38 555.392 1592.7 554.56C1590.03 551.479 1586.43 549.349 1582.44 548.49C1578.98 547.675 1575.38 547.716 1571.95 548.61C1569.12 549.341 1566.43 550.497 1563.95 552.04C1562.06 553.216 1560.28 554.555 1558.63 556.04C1557.26 557.24 1556.29 558.28 1555.63 558.96L1554.89 559.76C1554.81 559.856 1554.72 559.943 1554.62 560.02C1555.8 558.532 1557.1 557.15 1558.52 555.89C1560.16 554.375 1561.93 553.016 1563.82 551.83C1566.32 550.239 1569.05 549.045 1571.92 548.29C1575.41 547.354 1579.08 547.292 1582.6 548.11C1586.69 548.973 1590.39 551.146 1593.13 554.3C1593.83 555.134 1594.44 556.039 1594.95 557C1595.45 558.03 1595.79 559.134 1595.95 560.27C1596.12 561.429 1596.1 562.608 1595.89 563.76C1595.67 564.959 1595.15 566.08 1594.36 567.01C1593.52 567.953 1592.36 568.549 1591.1 568.68C1589.84 568.8 1588.57 568.539 1587.46 567.93C1586.34 567.334 1585.36 566.509 1584.59 565.51C1583.83 564.492 1583.23 563.357 1582.83 562.15C1582.11 559.731 1582.07 557.161 1582.71 554.72C1583.29 552.349 1584.41 550.142 1585.98 548.27C1589.08 544.867 1593.14 542.48 1597.62 541.42C1601.62 540.442 1605.73 539.965 1609.85 540C1613.7 539.94 1617.28 540 1620.54 539.91C1623.47 539.808 1626.4 539.544 1629.31 539.12C1631.5 538.805 1633.65 538.235 1635.71 537.42C1637 536.895 1638.23 536.224 1639.37 535.42C1639.77 535.15 1640.04 534.9 1640.24 534.76C1640.33 534.66 1640.43 534.57 1640.54 534.49Z" fill="#362F2F"/>
<path d="M1673.61 576.11C1673.47 576.149 1673.32 576.173 1673.18 576.18C1672.9 576.18 1672.49 576.25 1671.95 576.27C1670.44 576.32 1668.93 576.283 1667.42 576.16C1665.51 576.02 1663.25 575.73 1660.75 575.38C1658.25 575.03 1655.51 574.66 1652.61 574.51C1649.9 574.362 1647.18 574.567 1644.52 575.12C1642.34 575.562 1640.26 576.356 1638.34 577.47C1636.6 578.532 1635.06 579.885 1633.78 581.47C1633.83 581.336 1633.91 581.211 1634 581.1C1634.21 580.747 1634.45 580.412 1634.72 580.1C1635.69 578.917 1636.85 577.903 1638.15 577.1C1640.08 575.92 1642.2 575.075 1644.41 574.6C1647.11 574.01 1649.88 573.788 1652.64 573.94C1655.57 574.09 1658.32 574.49 1660.82 574.86C1663.32 575.23 1665.56 575.56 1667.45 575.74C1669.34 575.92 1670.89 576 1671.95 576.01C1672.5 576.009 1673.06 576.043 1673.61 576.11Z" fill="#362F2F"/>
<path d="M1649.58 620.94C1647.7 620.503 1645.77 620.338 1643.84 620.45C1641.58 620.603 1639.34 621.002 1637.17 621.64C1634.62 622.33 1631.77 623.34 1628.57 624.33C1625.09 625.508 1621.46 626.139 1617.79 626.2C1613.56 626.199 1609.38 625.331 1605.51 623.65C1601.2 621.83 1597.37 619.045 1594.31 615.51C1592.65 613.663 1591.3 611.563 1590.31 609.29C1589.25 606.937 1588.85 604.341 1589.16 601.78C1589.51 599.198 1590.77 596.826 1592.71 595.09C1593.67 594.248 1594.83 593.658 1596.08 593.37C1597.3 593.112 1598.56 593.146 1599.77 593.471C1600.97 593.796 1602.08 594.403 1603.01 595.24C1603.91 596.068 1604.54 597.154 1604.81 598.35C1605.07 599.521 1604.97 600.742 1604.54 601.86C1604.12 602.934 1603.48 603.911 1602.67 604.73C1601.12 606.283 1599.24 607.475 1597.18 608.22C1596.21 608.589 1595.2 608.867 1594.18 609.05C1593.68 609.14 1593.18 609.25 1592.69 609.32L1591.2 609.5C1587.54 609.862 1583.86 609.602 1580.29 608.73C1577.35 608.03 1574.51 606.94 1571.86 605.49C1569.85 604.406 1567.97 603.105 1566.25 601.61L1565.25 600.74L1564.43 599.91C1563.99 599.491 1563.57 599.043 1563.19 598.57L1562.47 597.71C1562.39 597.617 1562.31 597.516 1562.25 597.41C1562.35 597.493 1562.44 597.583 1562.52 597.68L1563.27 598.5C1563.67 598.959 1564.09 599.393 1564.54 599.8L1565.37 600.61L1566.37 601.46C1568.1 602.914 1569.98 604.178 1571.98 605.23C1574.62 606.641 1577.43 607.696 1580.35 608.37C1583.88 609.211 1587.53 609.448 1591.14 609.07L1592.6 608.89C1593.09 608.81 1593.6 608.7 1594.08 608.61C1595.08 608.429 1596.06 608.155 1597.01 607.79C1599.01 607.063 1600.82 605.905 1602.32 604.4C1603.08 603.626 1603.68 602.704 1604.08 601.69C1604.47 600.66 1604.56 599.538 1604.33 598.46C1604.03 597.359 1603.44 596.359 1602.62 595.57C1601.79 594.78 1600.77 594.23 1599.66 593.98C1598.52 593.651 1597.32 593.617 1596.16 593.881C1595 594.145 1593.93 594.699 1593.05 595.49C1591.2 597.14 1590 599.401 1589.68 601.86C1589.39 604.325 1589.77 606.822 1590.78 609.09C1591.75 611.31 1593.06 613.365 1594.66 615.18C1597.67 618.65 1601.43 621.386 1605.66 623.18C1609.47 624.845 1613.59 625.716 1617.75 625.74C1621.38 625.695 1624.98 625.088 1628.43 623.94C1631.62 622.94 1634.43 622 1637.06 621.33C1639.25 620.713 1641.51 620.341 1643.79 620.22C1644.62 620.168 1645.45 620.168 1646.28 620.22C1646.99 620.33 1647.6 620.38 1648.08 620.49L1649.17 620.76C1649.31 620.801 1649.45 620.861 1649.58 620.94Z" fill="#362F2F"/>
<path d="M1561.71 610.27C1561.62 610.27 1561.16 609.27 1560.19 607.59C1557.65 603.326 1553.95 599.875 1549.52 597.64C1547.82 596.78 1546.7 596.4 1546.73 596.31C1547.01 596.334 1547.29 596.398 1547.55 596.5C1548.28 596.717 1548.99 596.984 1549.68 597.3C1551.97 598.345 1554.08 599.753 1555.92 601.47C1557.76 603.185 1559.31 605.192 1560.51 607.41C1560.89 608.074 1561.22 608.762 1561.51 609.47C1561.61 609.727 1561.68 609.996 1561.71 610.27Z" fill="#362F2F"/>
<path d="M1522.91 653.07C1522.91 653.07 1522.84 652.99 1522.75 652.82C1522.66 652.65 1522.51 652.38 1522.34 652.07C1521.98 651.41 1521.46 650.42 1520.82 649.14C1518.96 645.527 1517.43 641.755 1516.24 637.87C1515.44 635.171 1514.96 632.389 1514.81 629.58C1514.73 628.011 1514.79 626.438 1515 624.88C1515.25 623.231 1515.64 621.608 1516.18 620.03C1517.35 616.618 1519.37 613.561 1522.05 611.15C1523.48 609.836 1525.17 608.826 1527 608.181C1528.83 607.537 1530.78 607.271 1532.72 607.4C1534.73 607.551 1536.62 608.467 1537.98 609.96C1538.63 610.698 1539.1 611.575 1539.36 612.523C1539.61 613.471 1539.65 614.465 1539.47 615.43C1539.25 616.377 1538.76 617.237 1538.05 617.9C1537.36 618.535 1536.52 618.991 1535.61 619.23C1533.85 619.688 1531.98 619.463 1530.38 618.6C1528.89 617.798 1527.59 616.69 1526.57 615.35C1525.59 614.109 1524.77 612.739 1524.16 611.28C1523.08 608.662 1522.63 605.825 1522.85 603C1523.05 600.669 1523.73 598.405 1524.85 596.35C1525.68 594.799 1526.74 593.383 1527.99 592.15C1528.77 591.368 1529.63 590.668 1530.56 590.06C1530.87 589.85 1531.13 589.72 1531.3 589.62L1531.56 589.49C1531.56 589.49 1531.24 589.72 1530.62 590.15C1529.73 590.787 1528.89 591.503 1528.13 592.29C1526.93 593.534 1525.92 594.945 1525.13 596.48C1524.07 598.51 1523.43 600.735 1523.26 603.02C1523.07 605.79 1523.53 608.565 1524.62 611.12C1525.23 612.536 1526.02 613.864 1526.98 615.07C1527.97 616.353 1529.23 617.413 1530.66 618.18C1532.15 618.984 1533.9 619.192 1535.54 618.76C1536.38 618.563 1537.15 618.138 1537.77 617.531C1538.38 616.924 1538.82 616.159 1539.03 615.32C1539.19 614.436 1539.15 613.529 1538.91 612.663C1538.67 611.798 1538.24 610.997 1537.65 610.32C1536.37 608.928 1534.61 608.076 1532.73 607.94C1530.86 607.817 1528.99 608.073 1527.22 608.693C1525.45 609.314 1523.83 610.285 1522.45 611.55C1519.83 613.904 1517.85 616.884 1516.7 620.21C1516.16 621.754 1515.76 623.344 1515.51 624.96C1515.3 626.491 1515.23 628.037 1515.3 629.58C1515.44 632.359 1515.9 635.114 1516.66 637.79C1517.81 641.665 1519.28 645.438 1521.06 649.07L1522.49 652.07C1522.64 652.39 1522.76 652.65 1522.86 652.85C1522.96 653.05 1522.91 653.07 1522.91 653.07Z" fill="#362F2F"/>
<path d="M1510.56 564.79C1510.56 564.79 1510.61 564.93 1510.65 565.2C1510.72 565.604 1510.77 566.011 1510.8 566.42C1510.93 567.914 1510.93 569.416 1510.8 570.91C1510.39 575.884 1508.69 580.665 1505.87 584.776C1503.04 588.887 1499.18 592.185 1494.68 594.34C1493.33 594.998 1491.93 595.537 1490.49 595.95C1489.99 596.11 1489.58 596.18 1489.31 596.25C1489.04 596.32 1488.89 596.33 1488.89 596.31C1489.39 596.094 1489.9 595.91 1490.43 595.76C1491.83 595.274 1493.2 594.689 1494.52 594.01C1498.9 591.797 1502.65 588.518 1505.44 584.474C1508.22 580.431 1509.94 575.753 1510.44 570.87C1510.6 569.396 1510.65 567.912 1510.61 566.43C1510.56 565.885 1510.54 565.337 1510.56 564.79Z" fill="#362F2F"/>
<path d="M1682.36 608.15C1680.87 609.082 1679.56 610.274 1678.5 611.67C1677.5 612.96 1676.5 614.67 1675.37 616.47C1674.13 618.486 1672.7 620.378 1671.1 622.12C1668.17 625.283 1664.7 627.894 1660.85 629.83C1659.69 630.417 1658.49 630.928 1657.27 631.36C1656.82 631.535 1656.36 631.669 1655.89 631.76C1656.3 631.523 1656.74 631.326 1657.19 631.17C1658.03 630.8 1659.25 630.28 1660.68 629.5C1664.42 627.492 1667.79 624.88 1670.68 621.77C1672.26 620.055 1673.69 618.197 1674.93 616.22C1675.92 614.568 1677.01 612.972 1678.18 611.44C1678.99 610.413 1679.96 609.519 1681.05 608.79C1681.34 608.594 1681.65 608.423 1681.98 608.28C1682.24 608.18 1682.36 608.13 1682.36 608.15Z" fill="#362F2F"/>
<path d="M1628.32 532.2C1628.17 532.263 1628.02 532.303 1627.86 532.32L1626.53 532.56C1625.37 532.75 1623.69 533 1621.62 533.28C1617.46 533.84 1611.7 534.5 1605.31 534.97C1602.32 535.243 1599.31 535.35 1596.31 535.29C1593.83 535.23 1591.38 534.808 1589.02 534.04C1587.43 533.524 1585.93 532.765 1584.57 531.79C1584.2 531.529 1583.84 531.245 1583.51 530.94C1583.29 530.72 1583.18 530.61 1583.19 530.59C1583.2 530.57 1583.71 530.99 1584.68 531.59C1586.06 532.478 1587.56 533.171 1589.13 533.65C1591.46 534.361 1593.89 534.738 1596.33 534.77C1599.33 534.802 1602.34 534.682 1605.33 534.41C1611.7 533.94 1617.46 533.35 1621.62 532.88L1626.55 532.32C1627.14 532.239 1627.73 532.199 1628.32 532.2Z" fill="#263238"/>
<path d="M1696.85 649.59C1697.6 653.459 1697.49 657.446 1696.53 661.268C1695.57 665.09 1693.78 668.655 1691.29 671.708C1688.8 674.762 1685.67 677.23 1682.12 678.938C1678.56 680.646 1674.68 681.551 1670.74 681.59L1594.99 680.75L1596.99 656.22L1661.85 646.48" fill="#B78876"/>
<path d="M1601.63 657.29C1601.28 657.4 1596.91 655.44 1592.99 653.63C1588.83 651.704 1584.27 650.818 1579.69 651.05L1561.63 651.97C1561.63 651.97 1562.74 654.97 1564.63 655.97C1566.52 656.97 1577.85 657.29 1577.85 657.29L1577.27 657.88C1574.9 660.32 1571.67 661.734 1568.27 661.82H1566.54C1565.26 661.718 1563.99 661.47 1562.77 661.08L1558.32 659.28C1556.97 658.68 1555.55 658.77 1554.96 660.13C1554.37 661.49 1554.82 663.05 1558.5 664.9C1560.55 665.9 1568.17 668.57 1568.17 668.57C1568.22 669.655 1568.37 670.733 1568.62 671.79C1568.95 672.9 1571.94 674.01 1571.94 674.01C1572.72 675.656 1573.6 677.246 1574.6 678.77C1574.95 679.17 1577.66 680.02 1580.55 680.83C1585.21 682.134 1590.14 682.096 1594.78 680.72L1601.66 678.66V657.66" fill="#B78876"/>
<path d="M1576.93 671C1573.75 670.919 1570.63 670.097 1567.82 668.6C1567.82 668.48 1569.82 669.24 1572.35 669.89C1574.88 670.54 1576.94 670.85 1576.93 671Z" fill="#AA6550"/>
<path d="M1576.29 675.21C1575.44 675.386 1574.56 675.32 1573.75 675.02C1572.9 674.864 1572.11 674.476 1571.47 673.9C1572.29 674.063 1573.09 674.294 1573.87 674.59C1574.69 674.734 1575.5 674.942 1576.29 675.21Z" fill="#AA6550"/>
<path d="M1579.59 655.66C1579.19 656.216 1578.73 656.717 1578.2 657.15C1577 658.293 1575.68 659.3 1574.26 660.15C1572.83 660.986 1571.27 661.587 1569.65 661.93C1569 662.104 1568.32 662.179 1567.65 662.15C1569.88 661.636 1572.04 660.833 1574.07 659.76C1575.46 658.923 1576.78 657.976 1578.02 656.93C1578.5 656.461 1579.03 656.036 1579.59 655.66Z" fill="#AA6550"/>
<path d="M1603.47 654L1601.63 681.74H1672.98C1677.82 681.743 1682.58 680.426 1686.73 677.93C1691.43 675.106 1695.14 670.904 1697.37 665.894C1699.59 660.884 1700.22 655.31 1699.17 649.93C1698.14 644.662 1696.6 639.507 1694.57 634.54L1658.69 640.45L1659.84 644.91L1603.47 654Z" fill="#FF5B86"/>
<path d="M1676.37 642.58C1676.13 642.648 1675.89 642.702 1675.65 642.74L1673.56 643.12L1665.85 644.4L1640.49 648.4L1615.1 652.29L1607.4 653.41L1605.3 653.69C1605.05 653.724 1604.81 653.744 1604.56 653.75C1604.8 653.668 1605.04 653.611 1605.29 653.58L1607.37 653.21L1615.05 651.92L1640.41 647.92L1665.85 644L1673.55 642.88L1675.65 642.6C1675.89 642.568 1676.13 642.561 1676.37 642.58Z" fill="#263238"/>
<path d="M1639.85 681.76C1639.72 681.76 1640.28 679.76 1640.35 676.49C1640.36 675.602 1640.33 674.714 1640.24 673.83C1640.15 672.822 1640.01 671.82 1639.8 670.83C1639.3 668.548 1638.52 666.338 1637.48 664.25C1636.41 662.172 1635.1 660.225 1633.58 658.45L1632.58 657.28C1632.24 656.9 1631.87 656.57 1631.53 656.23C1630.86 655.54 1630.15 654.99 1629.53 654.46C1626.98 652.46 1625.17 651.46 1625.23 651.37C1625.67 651.547 1626.1 651.765 1626.5 652.02C1627 652.28 1627.48 652.57 1627.94 652.89C1628.47 653.27 1629.13 653.64 1629.76 654.18C1630.48 654.719 1631.17 655.3 1631.82 655.92C1632.17 656.26 1632.56 656.58 1632.91 656.92L1634 658.1C1635.57 659.887 1636.91 661.859 1638 663.97C1639.06 666.101 1639.84 668.36 1640.32 670.69C1640.52 671.709 1640.66 672.742 1640.72 673.78C1640.78 674.679 1640.78 675.581 1640.72 676.48C1640.7 677.227 1640.63 677.972 1640.52 678.71C1640.46 679.267 1640.37 679.818 1640.23 680.36C1640.14 680.837 1640.02 681.305 1639.85 681.76Z" fill="#362F2F"/>
<path d="M1683.29 679.67C1682.17 679.663 1681.06 679.533 1679.98 679.28C1678.7 678.987 1677.46 678.547 1676.28 677.97C1674.72 677.193 1673.3 676.143 1672.11 674.87C1670.66 673.309 1669.61 671.423 1669.04 669.37C1668.72 668.229 1668.54 667.054 1668.51 665.87C1668.44 664.619 1668.54 663.364 1668.81 662.14C1669.08 660.837 1669.58 659.594 1670.29 658.47C1671.03 657.278 1672.06 656.294 1673.29 655.61C1674.56 654.871 1676.01 654.523 1677.48 654.61C1678.23 654.662 1678.97 654.866 1679.64 655.21C1680.31 655.554 1680.91 656.03 1681.39 656.61C1681.89 657.182 1682.26 657.852 1682.49 658.576C1682.72 659.301 1682.79 660.065 1682.71 660.82C1682.59 661.553 1682.3 662.249 1681.88 662.858C1681.45 663.466 1680.89 663.973 1680.25 664.34C1677.83 665.608 1675.04 665.99 1672.37 665.42C1668.58 664.829 1665.11 662.93 1662.57 660.052C1660.03 657.173 1658.57 653.497 1658.46 649.66C1658.4 648.546 1658.49 647.428 1658.74 646.34C1658.65 647.441 1658.62 648.546 1658.66 649.65C1658.85 652.66 1659.83 655.566 1661.51 658.07C1662.76 659.908 1664.38 661.471 1666.25 662.663C1668.13 663.855 1670.23 664.65 1672.43 665C1674.98 665.549 1677.65 665.195 1679.97 664C1680.55 663.672 1681.05 663.219 1681.43 662.675C1681.82 662.13 1682.08 661.507 1682.19 660.85C1682.25 660.166 1682.17 659.476 1681.96 658.822C1681.76 658.167 1681.42 657.56 1680.98 657.035C1680.53 656.51 1679.99 656.078 1679.38 655.763C1678.77 655.448 1678.1 655.257 1677.42 655.2C1676.06 655.108 1674.71 655.417 1673.53 656.09C1672.42 656.754 1671.46 657.65 1670.73 658.716C1670 659.783 1669.5 660.995 1669.28 662.27C1669.01 663.456 1668.9 664.675 1668.97 665.89C1669 667.036 1669.16 668.174 1669.46 669.28C1669.99 671.279 1670.99 673.121 1672.38 674.65C1673.52 675.905 1674.88 676.951 1676.38 677.74C1677.53 678.329 1678.75 678.788 1680 679.11C1682.1 679.58 1683.3 679.6 1683.29 679.67Z" fill="#362F2F"/>
<path d="M1400.26 377.47H1221.57C1211.12 377.47 1201.11 381.619 1193.72 389.004C1186.34 396.389 1182.19 406.406 1182.19 416.85V480.53H1143.64L1182.19 519.08V562.37C1182.19 572.814 1186.34 582.831 1193.72 590.216C1201.11 597.601 1211.12 601.75 1221.57 601.75H1400.26C1410.7 601.75 1420.72 597.601 1428.1 590.216C1435.49 582.831 1439.64 572.814 1439.64 562.37V416.85C1439.64 406.406 1435.49 396.389 1428.1 389.004C1420.72 381.619 1410.7 377.47 1400.26 377.47Z" fill="#DD3B65"/>
<path d="M1327.26 384.2C1326.13 387.13 1328.07 390.32 1330.26 392.58C1332.45 394.84 1335.07 396.98 1335.76 400.04C1336.33 402.61 1335.38 405.28 1335.61 407.9C1335.84 410.52 1337.29 412.99 1338.11 415.55C1339.6 420.19 1339 425.26 1337.67 429.95C1336.71 433.847 1334.88 437.475 1332.31 440.56C1331.02 442.088 1329.41 443.323 1327.61 444.185C1325.8 445.047 1323.83 445.516 1321.83 445.56C1321.26 445.596 1320.7 445.514 1320.16 445.322C1319.63 445.129 1319.14 444.829 1318.73 444.44C1318.17 443.631 1317.86 442.674 1317.84 441.69C1315.55 421.555 1315.55 401.225 1317.84 381.09" fill="#263238"/>
<path d="M1325.15 449.09C1333.85 448.71 1341.89 457.04 1341.2 465.72C1350.01 467.87 1356.2 477.56 1354.51 486.46C1353.94 489.4 1352.63 492.2 1352.45 495.18C1352.25 498.44 1353.45 501.61 1354.04 504.81C1355.17 510.642 1354.57 516.679 1352.3 522.17C1350.93 525.48 1348.37 528.9 1344.79 529C1343.58 528.949 1342.39 528.6 1341.35 527.985C1340.3 527.369 1339.42 526.505 1338.79 525.47C1337.54 523.374 1336.72 521.053 1336.37 518.64C1334.82 510.82 1334.37 502.79 1332.21 495.12C1330.05 487.45 1325.85 479.89 1318.92 476C1315.09 473.84 1310.49 472.82 1307.44 469.65C1305.9 467.92 1304.88 465.797 1304.48 463.519C1304.09 461.241 1304.33 458.897 1305.19 456.75C1306.09 454.622 1307.43 452.707 1309.11 451.131C1310.8 449.554 1312.8 448.351 1314.99 447.6" fill="#263238"/>
<path d="M1264.93 391.37C1264.83 387.65 1268.26 384.78 1271.72 383.37C1275.18 381.96 1279.03 381.49 1282.11 379.37C1284.85 377.53 1286.68 374.66 1288.99 372.37C1291.84 369.477 1295.41 367.396 1299.33 366.34C1303.26 365.283 1307.39 365.29 1311.31 366.359C1315.23 367.427 1318.79 369.52 1321.64 372.422C1324.48 375.324 1326.5 378.93 1327.49 382.87C1328.82 388.16 1327.91 394.42 1323.74 397.94C1318.9 402.02 1311.74 401.11 1305.51 399.84C1299.28 398.57 1292.28 397.32 1287.1 400.97C1283.98 403.16 1282.18 406.74 1280.27 410.05C1278.36 413.36 1275.97 416.73 1272.36 417.98C1268.75 419.23 1263.84 417.07 1263.7 413.26" fill="#263238"/>
<path d="M1279.59 392.13C1278.04 392.297 1276.61 393.04 1275.58 394.21C1274.56 395.38 1274 396.893 1274.04 398.45L1277.75 482.45C1277.91 492.37 1292.41 497.94 1303.03 497.69C1313.76 497.44 1314.1 492.18 1314.24 482.74C1314.46 466.98 1314.44 461.06 1314.45 461.15C1314.46 461.24 1328 458.87 1330.77 441.15C1332.14 432.36 1331.67 417.94 1330.9 406.15C1330.21 395.54 1323.15 382.54 1312.58 383.68L1279.59 392.13Z" fill="#FFBE9D"/>
<path d="M1327.85 417.29C1327.85 417.88 1327.63 418.449 1327.22 418.877C1326.82 419.304 1326.26 419.557 1325.67 419.58C1325.38 419.605 1325.1 419.572 1324.82 419.485C1324.55 419.397 1324.3 419.256 1324.08 419.07C1323.86 418.884 1323.68 418.656 1323.55 418.4C1323.43 418.145 1323.35 417.866 1323.33 417.58C1323.32 416.989 1323.54 416.418 1323.95 415.99C1324.36 415.562 1324.92 415.311 1325.51 415.29C1325.79 415.265 1326.08 415.298 1326.35 415.385C1326.63 415.473 1326.88 415.614 1327.1 415.8C1327.32 415.986 1327.49 416.214 1327.62 416.47C1327.75 416.725 1327.83 417.004 1327.85 417.29Z" fill="#263238"/>
<path d="M1327.79 413.69C1327.51 413.99 1325.79 412.69 1323.35 412.69C1320.91 412.69 1319.12 413.93 1318.85 413.63C1318.72 413.5 1319.01 412.96 1319.79 412.39C1320.84 411.657 1322.1 411.269 1323.38 411.28C1324.65 411.273 1325.89 411.668 1326.92 412.41C1327.67 413 1327.93 413.56 1327.79 413.69Z" fill="#263238"/>
<path d="M1304.4 417.29C1304.4 417.88 1304.18 418.449 1303.77 418.877C1303.37 419.304 1302.81 419.557 1302.22 419.58C1301.93 419.605 1301.65 419.572 1301.37 419.485C1301.1 419.397 1300.85 419.256 1300.63 419.07C1300.41 418.884 1300.23 418.656 1300.1 418.4C1299.98 418.145 1299.9 417.866 1299.88 417.58C1299.87 416.989 1300.09 416.418 1300.5 415.99C1300.91 415.562 1301.47 415.311 1302.06 415.29C1302.34 415.265 1302.63 415.298 1302.9 415.385C1303.18 415.473 1303.43 415.614 1303.65 415.8C1303.87 415.986 1304.04 416.214 1304.17 416.47C1304.3 416.725 1304.38 417.004 1304.4 417.29Z" fill="#263238"/>
<path d="M1303.85 414.2C1303.57 414.5 1301.85 413.2 1299.41 413.2C1296.97 413.2 1295.18 414.44 1294.92 414.14C1294.79 414.01 1295.07 413.47 1295.85 412.9C1296.9 412.165 1298.16 411.774 1299.44 411.78C1300.71 411.775 1301.95 412.175 1302.98 412.92C1303.68 413.53 1303.94 414.07 1303.85 414.2Z" fill="#263238"/>
<path d="M1312.7 432.28C1312.7 432.14 1314.2 431.88 1316.7 431.56C1317.32 431.49 1317.91 431.36 1318.02 430.94C1318.06 430.295 1317.92 429.652 1317.6 429.09L1315.74 424.35C1313.17 417.6 1311.3 412.05 1311.58 411.95C1311.86 411.85 1314.16 417.24 1316.73 423.95L1318.51 428.72C1318.9 429.471 1319.01 430.333 1318.84 431.16C1318.75 431.378 1318.62 431.574 1318.44 431.733C1318.27 431.892 1318.06 432.011 1317.84 432.08C1317.51 432.17 1317.18 432.217 1316.84 432.22C1314.24 432.4 1312.71 432.42 1312.7 432.28Z" fill="#263238"/>
<path d="M1314.45 461.16C1306.12 461.304 1297.92 459.133 1290.75 454.89C1290.75 454.89 1296.52 467.03 1314.22 465.33L1314.45 461.16Z" fill="#CE1444"/>
<path d="M1311.68 438.16C1311.21 437.568 1310.59 437.108 1309.89 436.825C1309.19 436.541 1308.43 436.443 1307.68 436.54C1307.14 436.588 1306.62 436.745 1306.14 437.001C1305.67 437.257 1305.25 437.607 1304.91 438.03C1304.58 438.438 1304.39 438.936 1304.36 439.457C1304.33 439.977 1304.46 440.495 1304.73 440.94C1305.12 441.379 1305.63 441.69 1306.21 441.833C1306.78 441.976 1307.38 441.943 1307.93 441.74C1309.08 441.331 1310.14 440.695 1311.04 439.87C1311.32 439.677 1311.55 439.432 1311.74 439.15C1311.83 439.016 1311.88 438.857 1311.88 438.695C1311.88 438.533 1311.83 438.374 1311.74 438.24" fill="#CE1444"/>
<path d="M1305.52 434C1305.92 434 1305.93 436.63 1308.2 438.5C1310.47 440.37 1313.29 440.08 1313.31 440.5C1313.31 440.67 1312.68 441.02 1311.49 441.05C1309.94 441.078 1308.42 440.558 1307.22 439.58C1306.06 438.636 1305.32 437.281 1305.15 435.8C1305.04 434.63 1305.34 434 1305.52 434Z" fill="#263238"/>
<path d="M1304.85 409.92C1304.61 410.59 1302.17 410.28 1299.31 410.63C1296.45 410.98 1294.13 411.77 1293.75 411.17C1293.58 410.89 1293.98 410.26 1294.91 409.62C1296.15 408.822 1297.56 408.317 1299.02 408.144C1300.49 407.971 1301.98 408.133 1303.37 408.62C1304.46 409.09 1304.99 409.61 1304.85 409.92Z" fill="#263238"/>
<path d="M1326.85 406.63C1326.42 407.18 1324.74 406.63 1322.71 406.63C1320.68 406.63 1318.98 407.01 1318.59 406.43C1318.41 406.15 1318.68 405.6 1319.43 405.07C1320.43 404.442 1321.6 404.125 1322.78 404.159C1323.97 404.193 1325.11 404.576 1326.08 405.26C1326.85 405.79 1327.06 406.36 1326.85 406.63Z" fill="#263238"/>
<path d="M1267.24 450.31C1269.68 450.803 1272.2 450.709 1274.59 450.036C1276.99 449.363 1279.19 448.13 1281.01 446.44C1282.84 444.749 1284.23 442.648 1285.09 440.312C1285.94 437.975 1286.23 435.469 1285.92 433C1285.37 428.65 1283.03 424.24 1284.54 420.12C1286.54 414.69 1294.15 413.02 1296.17 407.59C1297.34 404.44 1296.29 400.75 1297.62 397.66C1298.87 394.76 1301.93 393.09 1304.91 392.01C1307.89 390.93 1311.07 390.19 1313.57 388.25C1316.07 386.31 1317.62 382.65 1316.01 379.92C1302.8 381.505 1289.83 384.657 1277.37 389.31C1274.48 390.39 1271.45 391.69 1269.74 394.25C1267.94 396.97 1268.03 400.47 1268.18 403.73C1268.92 419.61 1266.5 434.48 1267.24 450.36" fill="#263238"/>
<path d="M1263.03 445.33C1262.93 445.315 1262.83 445.285 1262.74 445.24C1262.45 445.141 1262.18 445.006 1261.93 444.84C1260.95 444.21 1260.19 443.305 1259.73 442.24C1258.97 440.556 1258.77 438.676 1259.15 436.87C1259.75 434.523 1260.85 432.332 1262.36 430.44C1263.91 428.28 1265.88 426.09 1267.22 423.3C1267.93 421.882 1268.33 420.327 1268.39 418.74C1268.33 417.056 1267.99 415.393 1267.39 413.82C1266.71 412.119 1266.36 410.309 1266.34 408.48C1266.44 406.523 1267.01 404.619 1268.01 402.935C1269.02 401.251 1270.41 399.838 1272.09 398.82C1273.88 397.84 1275.88 397.273 1277.92 397.16C1279.9 397.063 1281.85 396.727 1283.75 396.16C1285.53 395.486 1286.99 394.169 1287.85 392.47C1288.67 390.798 1289.32 389.05 1289.79 387.25C1290.29 385.523 1290.96 383.849 1291.79 382.25C1293.29 379.218 1295.58 376.645 1298.42 374.8C1300.92 373.225 1303.85 372.464 1306.81 372.62C1309.26 372.747 1311.59 373.702 1313.42 375.33C1314.78 376.558 1315.8 378.124 1316.37 379.87C1316.74 380.963 1316.88 382.121 1316.78 383.27C1316.76 383.67 1316.69 384.066 1316.58 384.45C1316.58 384.45 1316.65 384.04 1316.68 383.26C1316.73 382.128 1316.56 380.998 1316.18 379.93C1315.49 377.965 1314.23 376.252 1312.55 375.015C1310.88 373.777 1308.87 373.071 1306.79 372.99C1303.92 372.863 1301.07 373.625 1298.65 375.17C1295.89 376.984 1293.66 379.505 1292.21 382.47C1291.4 384.07 1290.75 385.744 1290.27 387.47C1289.78 389.302 1289.11 391.081 1288.27 392.78C1287.81 393.659 1287.2 394.456 1286.48 395.14C1285.73 395.831 1284.86 396.365 1283.9 396.71C1281.95 397.311 1279.94 397.667 1277.9 397.77C1275.93 397.874 1274.01 398.417 1272.28 399.36C1270.68 400.331 1269.34 401.679 1268.38 403.286C1267.42 404.893 1266.87 406.71 1266.77 408.58C1266.79 410.353 1267.13 412.108 1267.77 413.76C1268.41 415.381 1268.76 417.099 1268.82 418.84C1268.75 420.491 1268.33 422.108 1267.58 423.58C1266.18 426.44 1264.19 428.58 1262.63 430.75C1261.12 432.588 1260.03 434.725 1259.41 437.02C1259.01 438.766 1259.17 440.593 1259.88 442.24C1260.31 443.289 1261.03 444.194 1261.96 444.85C1262.63 445.19 1263.04 445.29 1263.03 445.33Z" fill="#455A64"/>
<path d="M1314.42 368.22C1314.66 368.238 1314.9 368.31 1315.11 368.43C1315.71 368.685 1316.27 369.021 1316.78 369.43C1318.52 370.782 1319.68 372.753 1320 374.934C1320.33 377.115 1319.8 379.338 1318.53 381.14C1318.16 381.677 1317.72 382.164 1317.23 382.59C1316.87 382.89 1316.65 383.02 1316.63 382.99C1317.19 382.351 1317.72 381.683 1318.22 380.99C1319.35 379.233 1319.8 377.127 1319.49 375.062C1319.18 372.997 1318.14 371.113 1316.55 369.76C1315.87 369.206 1315.16 368.692 1314.42 368.22Z" fill="#455A64"/>
<path d="M1353.6 489.59C1353.81 488.975 1353.98 488.347 1354.11 487.71C1354.34 485.964 1354.04 484.189 1353.24 482.62C1352.01 480.317 1350.04 478.488 1347.66 477.42C1346.26 476.76 1344.81 476.241 1343.31 475.87C1341.75 475.47 1340.1 475.14 1338.45 474.6C1336.79 474.148 1335.26 473.312 1333.98 472.16C1332.83 471.013 1332.09 469.525 1331.87 467.92C1331.6 466.43 1331.51 465.02 1331.18 463.76C1330.88 462.594 1330.33 461.508 1329.57 460.58C1328.45 459.22 1326.96 458.21 1325.29 457.67C1324.1 457.31 1323.39 457.31 1323.39 457.25C1323.56 457.233 1323.73 457.233 1323.9 457.25C1324.39 457.284 1324.87 457.361 1325.35 457.48C1327.1 457.964 1328.67 458.964 1329.85 460.35C1330.67 461.309 1331.27 462.44 1331.6 463.66C1331.96 464.97 1332.07 466.4 1332.35 467.84C1332.55 469.358 1333.26 470.765 1334.35 471.84C1335.58 472.929 1337.04 473.719 1338.62 474.15C1340.23 474.67 1341.88 475.01 1343.45 475.42C1344.97 475.791 1346.44 476.321 1347.85 477C1350.31 478.128 1352.32 480.056 1353.55 482.47C1354.35 484.11 1354.61 485.963 1354.29 487.76C1354.19 488.239 1354.04 488.706 1353.84 489.15C1353.77 489.305 1353.69 489.452 1353.6 489.59Z" fill="#455A64"/>
<path d="M1276.68 458.27C1267.68 455.87 1259.98 447.1 1256.84 438.37C1253.7 429.64 1253.7 420.11 1254.51 410.87C1255.09 404.18 1256.27 397.1 1260.71 392.06C1267.41 384.46 1274.71 380.58 1284.79 380.9" fill="#263238"/>
<path d="M1328.98 477.77L1320.63 475.67C1321.54 475.044 1322.2 474.121 1322.51 473.059C1322.81 471.996 1322.73 470.862 1322.29 469.85C1321.76 468.553 1320.89 467.426 1319.76 466.592C1318.64 465.758 1317.3 465.249 1315.91 465.12L1277.85 460.82C1277.18 460.731 1276.51 460.868 1275.93 461.209C1275.35 461.55 1274.9 462.075 1274.66 462.7C1272.97 466.993 1272.92 470.527 1274.49 473.3H1274.31L1266.97 474.76L1254.53 584.5L1336.01 580.69L1328.98 477.77Z" fill="#F0F0F0"/>
<path d="M1317 476.09C1316.5 476.236 1315.99 476.336 1315.47 476.39C1314.47 476.55 1313.04 476.72 1311.26 476.9C1301.94 477.765 1292.55 477.297 1283.37 475.51C1281.61 475.16 1280.2 474.84 1279.23 474.58C1278.72 474.481 1278.22 474.334 1277.74 474.14C1278.26 474.178 1278.77 474.262 1279.27 474.39C1280.27 474.58 1281.68 474.85 1283.44 475.15C1292.61 476.729 1301.94 477.192 1311.23 476.53C1313.01 476.41 1314.45 476.28 1315.45 476.18C1315.96 476.109 1316.48 476.079 1317 476.09Z" fill="#263238"/>
<path d="M1280.17 493.53C1280.97 491.865 1281.92 490.279 1283.02 488.79C1283.97 487.207 1285.08 485.717 1286.31 484.34C1285.51 486.006 1284.55 487.593 1283.45 489.08C1282.5 490.664 1281.4 492.154 1280.17 493.53Z" fill="#7A7676"/>
<path d="M1306.43 495.39C1303.89 492.78 1301.6 489.934 1299.6 486.89C1300.93 488.137 1302.14 489.506 1303.22 490.98C1304.43 492.343 1305.5 493.82 1306.43 495.39Z" fill="#7A7676"/>
<path d="M1294.23 509.34C1293.65 507.561 1293.24 505.734 1293 503.88C1292.58 502.057 1292.34 500.199 1292.29 498.33C1292.87 500.108 1293.28 501.936 1293.52 503.79C1293.92 505.615 1294.16 507.472 1294.23 509.34Z" fill="#7A7676"/>
<path d="M1314.28 510.2C1312.87 511.956 1311.32 513.601 1309.66 515.12C1308.11 516.765 1306.44 518.287 1304.66 519.67C1306.07 517.914 1307.61 516.269 1309.28 514.75C1310.83 513.111 1312.5 511.591 1314.28 510.2Z" fill="#7A7676"/>
<path d="M1287.39 528.9C1283.7 526.698 1280.7 523.517 1278.72 519.71C1278.86 519.62 1280.39 522.02 1282.8 524.55C1285.21 527.08 1287.49 528.77 1287.39 528.9Z" fill="#7A7676"/>
<path d="M1296.03 543.34C1296.03 543.49 1293.75 544.22 1291.11 545.63C1288.47 547.04 1286.54 548.52 1286.44 548.39C1287.7 547.042 1289.2 545.946 1290.87 545.16C1292.46 544.225 1294.21 543.607 1296.03 543.34Z" fill="#7A7676"/>
<path d="M1310.08 544.27C1309.48 543.765 1308.95 543.191 1308.49 542.56C1307.57 541.46 1306.34 539.89 1305.06 538.1C1303.78 536.31 1302.7 534.64 1301.95 533.4C1301.5 532.759 1301.13 532.067 1300.85 531.34C1301.38 531.911 1301.85 532.534 1302.26 533.2L1305.49 537.8L1308.78 542.34C1309.28 542.936 1309.71 543.583 1310.08 544.27Z" fill="#7A7676"/>
<path d="M1311.49 556.59C1309.55 557.272 1307.53 557.741 1305.49 557.99C1303.47 558.412 1301.4 558.616 1299.34 558.6C1301.34 558.098 1303.36 557.724 1305.41 557.48C1307.42 557.063 1309.45 556.766 1311.49 556.59Z" fill="#7A7676"/>
<path d="M1288.74 474.54C1288.67 474.54 1289.15 473.94 1289.56 472.88C1290.07 471.493 1290.22 470.001 1290 468.54C1289.75 467.068 1289.32 465.633 1288.71 464.27C1288.41 463.712 1288.19 463.121 1288.03 462.51C1288.45 462.989 1288.78 463.533 1289.03 464.12C1289.76 465.475 1290.25 466.942 1290.5 468.46C1290.74 470.01 1290.53 471.597 1289.89 473.03C1289.67 473.637 1289.26 474.163 1288.74 474.54Z" fill="#7A7676"/>
<path d="M1303.96 466.32C1304.67 467.302 1305.18 468.416 1305.46 469.598C1305.73 470.779 1305.77 472.004 1305.57 473.2C1305.42 473.2 1305.4 471.61 1304.95 469.72C1304.5 467.83 1303.85 466.4 1303.96 466.32Z" fill="#7A7676"/>
<path d="M1372.61 544.51L1410.51 477.94L1415.08 466.39C1415.08 466.39 1426.9 440.99 1427.72 438.39C1428.67 435.39 1430.34 435.15 1431.42 435.57C1433.1 436.24 1433.64 438.74 1432.9 441.33C1432.64 442.22 1428.05 456.18 1428.05 456.18C1429.28 455.116 1430.59 454.143 1431.97 453.27C1434.88 451.27 1440.21 451.37 1445.15 453.13C1450.09 454.89 1451.31 455.82 1450.72 457.76C1450.59 458.124 1450.38 458.454 1450.1 458.726C1449.83 458.998 1449.49 459.204 1449.13 459.33C1447.97 459.816 1446.66 459.844 1445.48 459.41C1437.54 456.71 1434.02 460.29 1434.02 460.29L1433.43 461.8C1433.43 461.8 1439.43 459.89 1442.79 462.59C1443.29 462.986 1443.71 463.475 1444.03 464.03C1445.12 464.385 1446.09 465.018 1446.86 465.866C1447.63 466.714 1448.16 467.748 1448.41 468.865C1448.65 469.983 1448.6 471.145 1448.26 472.236C1447.92 473.328 1447.3 474.312 1446.46 475.09C1446.09 475.505 1445.61 475.8 1445.08 475.936C1444.54 476.072 1443.98 476.042 1443.46 475.85C1442.97 475.52 1442.58 475.068 1442.33 474.54C1442.17 474.276 1441.98 474.025 1441.78 473.79L1439.52 477.79C1439.52 477.79 1433.95 486.49 1431.95 490.56L1405.85 560.09C1404.99 562.379 1403.69 564.474 1402.01 566.253C1400.33 568.031 1398.32 569.458 1396.08 570.45C1393.85 571.441 1391.44 571.977 1389 572.027C1386.55 572.077 1384.12 571.64 1381.85 570.74C1379.4 569.772 1377.18 568.288 1375.35 566.389C1373.52 564.49 1372.12 562.22 1371.24 559.733C1370.37 557.246 1370.04 554.6 1370.27 551.973C1370.51 549.347 1371.3 546.802 1372.61 544.51Z" fill="#FFBE9D"/>
<path d="M1413.12 477.71C1414.46 478.59 1416.31 477.99 1417.51 476.95C1418.71 475.91 1419.51 474.48 1420.67 473.35C1424.04 469.98 1429.67 469.66 1432.9 466.13C1433.35 465.64 1433.75 464.89 1433.36 464.35C1432.97 463.81 1432.25 463.91 1431.65 464.03L1416.14 467.1" fill="#FFBE9D"/>
<path d="M1416.14 467.1C1416.66 466.863 1417.21 466.695 1417.78 466.6C1418.85 466.33 1420.41 465.98 1422.33 465.6L1429.09 464.17L1431.09 463.76C1431.86 463.478 1432.71 463.507 1433.46 463.84C1433.67 463.999 1433.83 464.218 1433.92 464.469C1434.01 464.72 1434.03 464.992 1433.96 465.25C1433.86 465.674 1433.65 466.065 1433.36 466.39C1432.84 466.968 1432.25 467.485 1431.61 467.93C1429.03 469.72 1426.2 470.45 1423.94 471.64C1422.86 472.15 1421.87 472.824 1421 473.64C1420.2 474.41 1419.57 475.29 1418.91 476.04C1418.43 476.702 1417.82 477.251 1417.11 477.65C1416.4 478.049 1415.61 478.288 1414.8 478.35C1413.61 478.35 1413.12 477.76 1413.16 477.75C1413.68 477.929 1414.23 478.013 1414.78 478C1415.52 477.878 1416.22 477.604 1416.85 477.196C1417.47 476.788 1418.01 476.255 1418.42 475.63C1419.06 474.756 1419.74 473.915 1420.47 473.11C1421.38 472.212 1422.42 471.462 1423.56 470.89C1425.89 469.63 1428.71 468.89 1431.09 467.19C1431.66 466.783 1432.19 466.317 1432.67 465.8C1433.11 465.31 1433.26 464.72 1432.95 464.55C1432.64 464.38 1431.95 464.46 1431.26 464.6L1429.26 464.97L1422.46 466.22C1420.52 466.56 1418.95 466.82 1417.86 466.98C1417.3 467.11 1416.71 467.15 1416.14 467.1Z" fill="#CE1444"/>
<path d="M1433.22 461.82C1433.62 460.892 1434.23 460.07 1435 459.42C1435.86 458.771 1436.92 458.42 1438 458.42C1439.36 458.428 1440.71 458.651 1442 459.08C1443.32 459.525 1444.68 459.833 1446.06 460C1447.22 460.133 1448.39 459.954 1449.46 459.48C1449.83 459.311 1450.15 459.058 1450.4 458.742C1450.65 458.426 1450.83 458.055 1450.91 457.66C1450.98 457.382 1450.98 457.088 1450.91 456.81C1450.85 456.81 1450.85 457.11 1450.7 457.61C1450.59 457.947 1450.41 458.256 1450.16 458.515C1449.92 458.774 1449.63 458.977 1449.3 459.11C1448.28 459.488 1447.19 459.612 1446.11 459.47C1444.77 459.259 1443.45 458.924 1442.17 458.47C1440.83 458.03 1439.43 457.814 1438.03 457.83C1436.85 457.858 1435.71 458.28 1434.8 459.03C1434.19 459.534 1433.73 460.184 1433.45 460.92C1433.2 461.51 1433.18 461.81 1433.22 461.82Z" fill="#CE1444"/>
<path d="M1433.17 440.33C1432.78 441.225 1432.46 442.151 1432.23 443.1C1431.64 445.02 1430.94 447.3 1430.16 449.82C1429.38 452.34 1428.61 454.6 1427.99 456.51C1427.63 457.416 1427.35 458.353 1427.16 459.31C1427.66 458.468 1428.06 457.576 1428.38 456.65C1429.04 454.97 1429.88 452.65 1430.72 450C1431.56 447.35 1432.21 445 1432.63 443.21C1432.91 442.272 1433.09 441.306 1433.17 440.33Z" fill="#CE1444"/>
<path d="M1435.36 466C1435.66 466.044 1435.97 466.044 1436.28 466C1436.66 465.935 1437.06 465.953 1437.43 466.053C1437.81 466.153 1438.16 466.333 1438.46 466.58C1438.63 466.764 1438.76 466.989 1438.82 467.234C1438.88 467.48 1438.88 467.736 1438.81 467.98C1438.65 468.594 1438.41 469.186 1438.1 469.74C1437.7 470.436 1437.57 471.254 1437.73 472.04C1437.87 472.457 1438.1 472.836 1438.41 473.146C1438.72 473.457 1439.09 473.691 1439.51 473.83C1439.92 473.96 1440.35 474.005 1440.78 473.962C1441.21 473.919 1441.62 473.789 1442 473.58C1442.7 473.223 1443.27 472.661 1443.65 471.97C1444.19 470.831 1444.56 469.618 1444.75 468.37C1444.89 467.533 1444.89 466.677 1444.75 465.84C1444.72 465.526 1444.6 465.227 1444.4 464.98C1444.35 464.98 1444.48 465.3 1444.53 465.87C1444.57 466.686 1444.5 467.504 1444.32 468.3C1444.08 469.482 1443.69 470.629 1443.16 471.71C1442.83 472.319 1442.32 472.803 1441.69 473.087C1441.06 473.371 1440.35 473.439 1439.68 473.28C1439.35 473.174 1439.05 472.992 1438.8 472.749C1438.56 472.506 1438.37 472.208 1438.26 471.88C1438.13 471.227 1438.24 470.549 1438.57 469.97C1438.88 469.365 1439.12 468.723 1439.27 468.06C1439.34 467.743 1439.32 467.413 1439.22 467.104C1439.13 466.794 1438.95 466.514 1438.72 466.29C1438.37 466.015 1437.96 465.825 1437.53 465.735C1437.1 465.644 1436.65 465.657 1436.22 465.77C1435.92 465.8 1435.63 465.878 1435.36 466Z" fill="#CE1444"/>
<path d="M1441.9 473C1441.9 473 1441.71 473.26 1441.73 473.82C1441.76 474.213 1441.88 474.594 1442.08 474.932C1442.28 475.271 1442.56 475.558 1442.89 475.77C1443.4 476.065 1443.98 476.22 1444.57 476.22C1445.17 476.22 1445.75 476.065 1446.26 475.77C1447.49 475.059 1448.4 473.898 1448.8 472.53C1449.23 471.191 1449.23 469.749 1448.8 468.41C1448.44 467.328 1447.81 466.361 1446.95 465.61C1446.38 465.105 1445.73 464.711 1445.02 464.45C1444.77 464.329 1444.49 464.267 1444.21 464.27C1445.1 464.702 1445.93 465.253 1446.67 465.91C1447.51 466.728 1448.1 467.766 1448.38 468.904C1448.66 470.042 1448.61 471.236 1448.25 472.35C1447.89 473.579 1447.09 474.63 1446 475.3C1445.56 475.556 1445.07 475.697 1444.56 475.711C1444.06 475.725 1443.56 475.611 1443.11 475.38C1442.81 475.206 1442.55 474.971 1442.35 474.69C1442.15 474.409 1442.02 474.088 1441.95 473.75C1441.85 473.31 1441.95 473 1441.9 473Z" fill="#CE1444"/>
<path d="M1429.28 479.28C1428.88 479.013 1428.42 478.87 1427.94 478.87C1426.72 478.751 1425.49 479.043 1424.46 479.7L1424.89 479.99C1425.02 479.33 1425.12 478.662 1425.17 477.99C1425.52 474.13 1424.29 471.15 1424.17 471.23C1424.55 473.445 1424.7 475.694 1424.6 477.94C1424.55 478.581 1424.47 479.218 1424.35 479.85L1424.23 480.5L1424.78 480.13C1425.72 479.518 1426.81 479.192 1427.93 479.19C1428.76 479.21 1429.26 479.35 1429.28 479.28Z" fill="#CE1444"/>
<path d="M1437.17 455.56C1437.01 455.56 1437.23 456.76 1438.29 457.68C1439.35 458.6 1440.54 458.68 1440.54 458.51C1440.54 458.34 1439.59 458.05 1438.68 457.24C1437.77 456.43 1437.33 455.5 1437.17 455.56Z" fill="#CE1444"/>
<path d="M1318.85 599.75L1358.5 600.14L1351.85 571.37L1354.08 576.8C1356.13 581.813 1359.63 586.102 1364.13 589.12C1368.63 592.139 1373.93 593.75 1379.35 593.75C1391.89 593.75 1400.56 584.42 1405.86 573.06C1418.26 546.5 1430.21 503.73 1430.21 503.73L1406.04 482.49C1388.54 515.59 1372.1 544.33 1372.1 544.33C1372.1 544.33 1367.35 529.9 1363.68 517.02C1360.01 504.14 1360.04 497.38 1354.41 490.96C1345.74 481.08 1333.41 478.63 1321.93 475.67L1321.5 529.11L1318.85 599.75Z" fill="#FF725E"/>
<path d="M1273.48 560L1345.68 574L1349.19 601.74H1238.49C1235.46 601.777 1232.45 601.182 1229.67 599.993C1226.88 598.804 1224.37 597.047 1222.3 594.834C1220.23 592.62 1218.64 590 1217.64 587.139C1216.64 584.279 1216.25 581.241 1216.49 578.22C1218.08 558 1219.81 533.1 1221.13 522.57C1222.13 514.36 1225.43 505.87 1229.3 498.57C1234.89 488.05 1253.52 474.57 1269.85 473.87L1272.94 542.64" fill="#FF725E"/>
<g opacity="0.4">
<path d="M1318.85 599.75L1358.5 600.14L1351.85 571.37L1354.08 576.8C1356.13 581.813 1359.63 586.102 1364.13 589.12C1368.63 592.139 1373.93 593.75 1379.35 593.75C1391.89 593.75 1400.56 584.42 1405.86 573.06C1418.26 546.5 1430.21 503.73 1430.21 503.73L1406.04 482.49C1388.54 515.59 1372.1 544.33 1372.1 544.33C1372.1 544.33 1367.35 529.9 1363.68 517.02C1360.01 504.14 1360.04 497.38 1354.41 490.96C1345.74 481.08 1333.41 478.63 1321.93 475.67L1321.5 529.11L1318.85 599.75Z" fill="black"/>
<path d="M1273.48 560L1338.6 571.94C1339.93 572.186 1341.15 572.819 1342.12 573.761C1343.08 574.703 1343.75 575.91 1344.03 577.23L1349.19 601.8H1238.49C1235.46 601.837 1232.45 601.242 1229.67 600.053C1226.88 598.864 1224.37 597.107 1222.3 594.894C1220.23 592.68 1218.64 590.06 1217.64 587.199C1216.64 584.339 1216.25 581.301 1216.49 578.28C1218.08 558.06 1219.81 533.16 1221.13 522.63C1222.13 514.42 1225.43 505.93 1229.3 498.63C1234.89 488.11 1253.52 474.63 1269.85 473.93L1272.94 542.7" fill="black"/>
</g>
<path d="M1259.73 557.94C1259.7 557.721 1259.7 557.499 1259.73 557.28C1259.73 556.79 1259.73 556.16 1259.73 555.39C1259.73 553.68 1259.73 551.32 1259.73 548.39C1259.73 542.52 1259.62 534.39 1259.17 525.46C1258.94 520.98 1258.65 516.72 1258.34 512.86C1258.19 509.434 1257.71 506.03 1256.89 502.7C1256.32 500.477 1255.23 498.421 1253.71 496.7C1253.12 496.099 1252.5 495.532 1251.85 495C1252.61 495.393 1253.31 495.91 1253.9 496.53C1255.52 498.239 1256.68 500.325 1257.29 502.6C1258.16 505.957 1258.69 509.395 1258.85 512.86C1259.19 516.73 1259.49 520.99 1259.72 525.47C1260.18 534.47 1260.23 542.56 1260.13 548.47C1260.07 551.41 1259.99 553.79 1259.92 555.47L1259.81 557.36C1259.81 557.556 1259.78 557.75 1259.73 557.94Z" fill="#263238"/>
<path d="M1344.28 576C1343.52 575.159 1342.63 574.44 1341.65 573.87C1340.48 573.234 1339.24 572.741 1337.96 572.4C1336.47 571.97 1334.72 571.64 1332.79 571.25C1325.07 569.67 1314.42 567.48 1302.62 565.25C1290.82 563.02 1280.08 561.25 1272.31 560.01L1263.1 558.54L1260.6 558.12C1260.3 558.084 1260.01 558.024 1259.73 557.94C1260.02 557.941 1260.32 557.968 1260.61 558.02L1263.13 558.34C1265.31 558.63 1268.47 559.07 1272.36 559.65C1280.15 560.81 1290.9 562.53 1302.71 564.74C1314.52 566.95 1325.17 569.19 1332.86 570.85C1334.79 571.27 1336.54 571.63 1338.04 572.09C1339.34 572.457 1340.58 572.988 1341.75 573.67C1342.5 574.092 1343.17 574.633 1343.75 575.27C1343.9 575.428 1344.04 575.599 1344.17 575.78C1344.24 575.9 1344.29 576 1344.28 576Z" fill="#263238"/>
<path d="M1259.95 557.94C1259.95 558.03 1258.62 558.34 1256.56 559.18C1255.36 559.677 1254.19 560.252 1253.06 560.9C1251.69 561.713 1250.39 562.629 1249.17 563.64C1247.98 564.673 1246.87 565.796 1245.85 567C1245.01 567.993 1244.24 569.042 1243.55 570.14C1242.37 572.03 1241.83 573.31 1241.74 573.27C1241.8 572.948 1241.91 572.635 1242.05 572.34C1242.39 571.518 1242.78 570.72 1243.23 569.95C1243.9 568.809 1244.65 567.719 1245.48 566.69C1247.53 564.172 1250.04 562.065 1252.88 560.48C1254.03 559.832 1255.23 559.28 1256.47 558.83C1257.3 558.519 1258.16 558.268 1259.03 558.08C1259.33 557.99 1259.64 557.943 1259.95 557.94Z" fill="#263238"/>
<path d="M1353.18 575.22C1353.11 574.995 1353.06 574.764 1353.03 574.53C1352.95 574.03 1352.84 573.37 1352.71 572.53C1352.43 570.8 1352.06 568.3 1351.64 565.2C1350.8 559.01 1349.78 550.43 1348.92 540.93C1348.06 531.43 1347.55 522.81 1347.27 516.56C1347.13 513.44 1347.05 510.91 1347.01 509.16C1347.01 508.327 1347.01 507.66 1347.01 507.16C1346.99 506.927 1346.99 506.693 1347.01 506.46C1347.06 506.689 1347.09 506.924 1347.09 507.16L1347.22 509.16C1347.33 510.96 1347.47 513.47 1347.65 516.54C1348.02 522.78 1348.6 531.39 1349.45 540.88C1350.3 550.37 1351.27 558.95 1352.02 565.15C1352.39 568.21 1352.7 570.7 1352.92 572.5C1353.01 573.33 1353.09 573.99 1353.15 574.5C1353.19 574.738 1353.2 574.98 1353.18 575.22Z" fill="#263238"/>
<path d="M1377.12 564.47C1377.12 564.47 1376.89 564.25 1376.54 563.81C1376.05 563.172 1375.61 562.504 1375.21 561.81C1372.53 557.23 1371.29 551.946 1371.66 546.65C1371.71 545.853 1371.82 545.061 1371.98 544.28C1372.01 543.988 1372.09 543.702 1372.2 543.43C1372.29 543.43 1372.1 544.67 1372.03 546.67C1371.86 551.89 1373.07 557.063 1375.53 561.67C1376.47 563.4 1377.2 564.41 1377.12 564.47Z" fill="#263238"/>
<path d="M1259.44 520.78C1259.44 520.78 1259.31 520.83 1259.07 520.86C1258.71 520.918 1258.34 520.955 1257.98 520.97C1256.64 521.026 1255.29 520.919 1253.98 520.65C1252.03 520.257 1250.12 519.661 1248.29 518.87C1246.22 518.01 1244.02 516.87 1241.72 515.76C1239.57 514.679 1237.34 513.756 1235.05 513C1233.19 512.377 1231.26 511.997 1229.31 511.87C1227.5 511.811 1225.69 512.017 1223.94 512.48C1224.05 512.408 1224.16 512.354 1224.29 512.32C1224.61 512.178 1224.95 512.061 1225.29 511.97C1226.59 511.621 1227.94 511.466 1229.29 511.51C1231.29 511.572 1233.26 511.909 1235.17 512.51C1237.49 513.256 1239.74 514.185 1241.91 515.29C1244.22 516.43 1246.4 517.55 1248.44 518.42C1250.23 519.218 1252.1 519.841 1254.02 520.28C1255.8 520.644 1257.62 520.812 1259.44 520.78Z" fill="#362F2F"/>
<path d="M1271.85 518.35C1269.93 518.935 1267.96 519.356 1265.97 519.61C1264 520.04 1261.99 520.291 1259.97 520.36C1261.89 519.775 1263.86 519.354 1265.85 519.1C1267.82 518.67 1269.83 518.419 1271.85 518.35Z" fill="#362F2F"/>
<path d="M1258.99 539.81C1258.53 540.07 1258.04 540.281 1257.54 540.44C1256.59 540.81 1255.2 541.31 1253.47 541.87C1248.94 543.322 1244.33 544.464 1239.65 545.29C1236.91 545.77 1234.28 546.12 1231.88 546.36C1229.75 546.635 1227.6 546.692 1225.46 546.53C1224.01 546.413 1222.59 546.008 1221.3 545.34C1220.95 545.157 1220.61 544.943 1220.3 544.7C1220.18 544.621 1220.08 544.527 1219.99 544.42C1219.99 544.42 1220.47 544.73 1221.38 545.16C1222.68 545.745 1224.07 546.084 1225.49 546.16C1227.6 546.269 1229.72 546.176 1231.82 545.88C1234.21 545.61 1236.82 545.25 1239.55 544.77C1244.21 543.944 1248.81 542.859 1253.35 541.52C1255.09 541 1256.49 540.52 1257.46 540.25C1257.96 540.066 1258.47 539.919 1258.99 539.81Z" fill="#362F2F"/>
<path d="M1271.52 545.08C1269.72 545.366 1267.89 545.483 1266.07 545.43C1264.25 545.545 1262.43 545.488 1260.62 545.26C1262.42 544.974 1264.25 544.857 1266.07 544.91C1267.89 544.795 1269.71 544.852 1271.52 545.08Z" fill="#362F2F"/>
<path d="M1220.06 590.64C1220.07 590.456 1220.11 590.274 1220.17 590.1C1220.27 589.7 1220.41 589.21 1220.57 588.6L1220.87 587.52C1221 587.13 1221.17 586.72 1221.33 586.27C1221.69 585.249 1222.1 584.247 1222.57 583.27L1223.38 581.56C1223.67 580.96 1224.04 580.38 1224.38 579.76C1225.13 578.449 1225.95 577.177 1226.84 575.95C1230.92 570.302 1236.25 565.666 1242.41 562.4C1243.75 561.692 1245.12 561.055 1246.53 560.49C1247.2 560.24 1247.82 559.95 1248.45 559.75L1250.26 559.18C1251.3 558.85 1252.35 558.579 1253.42 558.37C1253.89 558.27 1254.32 558.16 1254.72 558.09L1255.84 557.94L1257.38 557.75C1257.56 557.723 1257.74 557.723 1257.92 557.75C1257.75 557.815 1257.57 557.859 1257.39 557.88L1255.87 558.17L1254.77 558.36L1253.48 558.68C1252.56 558.93 1251.48 559.14 1250.37 559.56L1248.59 560.16C1247.97 560.37 1247.35 560.66 1246.7 560.92C1245.31 561.495 1243.96 562.139 1242.64 562.85C1239.63 564.513 1236.8 566.477 1234.19 568.71C1231.61 570.986 1229.26 573.516 1227.19 576.26C1226.29 577.56 1225.4 578.78 1224.72 580.01C1224.37 580.62 1224 581.19 1223.72 581.78L1222.88 583.46C1222.31 584.52 1221.96 585.54 1221.58 586.46C1221.41 586.9 1221.23 587.31 1221.09 587.69L1220.74 588.75L1220.25 590.22C1220.2 590.366 1220.14 590.507 1220.06 590.64Z" fill="#362F2F"/>
<path d="M1270.21 559.92C1268.54 561.373 1267.15 563.122 1266.11 565.08C1265.02 567.22 1264.24 569.507 1263.81 571.87C1263.29 574.776 1262.96 577.712 1262.81 580.66C1262.68 583.63 1262.35 586.587 1261.81 589.51C1261.32 591.906 1260.47 594.215 1259.3 596.36C1258.51 597.798 1257.5 599.098 1256.3 600.21C1255.97 600.514 1255.62 600.791 1255.25 601.04C1255 601.21 1254.86 601.3 1254.85 601.28C1256.55 599.859 1257.97 598.129 1259.03 596.18C1260.14 594.052 1260.93 591.775 1261.39 589.42C1261.92 586.516 1262.26 583.579 1262.39 580.63C1262.52 577.657 1262.85 574.697 1263.39 571.77C1263.85 569.374 1264.68 567.062 1265.83 564.91C1266.61 563.459 1267.63 562.142 1268.83 561.01C1269.14 560.709 1269.48 560.428 1269.83 560.17C1269.94 560.071 1270.07 559.987 1270.21 559.92Z" fill="#362F2F"/>
<path d="M1287.28 601.91C1287.14 601.91 1287.28 593.29 1287.65 582.67C1288.02 572.05 1288.4 563.44 1288.54 563.44C1288.68 563.44 1288.54 572.06 1288.17 582.69C1287.8 593.32 1287.42 601.92 1287.28 601.91Z" fill="#362F2F"/>
<path d="M1314.42 600.43C1314.23 600.029 1314.08 599.61 1313.98 599.18C1313.82 598.687 1313.68 598.187 1313.57 597.68C1313.44 597.09 1313.26 596.42 1313.15 595.68C1312.84 593.916 1312.66 592.131 1312.62 590.34C1312.52 585.939 1313.2 581.556 1314.62 577.39C1315.2 575.693 1315.9 574.042 1316.73 572.45C1317.06 571.76 1317.43 571.18 1317.73 570.66C1317.98 570.207 1318.26 569.77 1318.57 569.35C1318.79 568.968 1319.06 568.613 1319.36 568.29C1319.45 568.34 1318.36 569.89 1317.05 572.62C1316.27 574.213 1315.6 575.857 1315.05 577.54C1313.68 581.663 1313 585.985 1313.05 590.33C1313.07 592.1 1313.21 593.867 1313.46 595.62C1313.96 598.6 1314.52 600.4 1314.42 600.43Z" fill="#362F2F"/>
<path d="M1268.33 489.91C1268.33 489.99 1266.75 489.3 1264.15 488.46C1257.38 486.274 1250.2 485.638 1243.15 486.6C1240.45 486.97 1238.8 487.39 1238.78 487.3C1239.14 487.127 1239.52 487.003 1239.91 486.93C1240.96 486.641 1242.02 486.41 1243.09 486.24C1250.19 485.06 1257.48 485.703 1264.27 488.11C1265.29 488.47 1266.29 488.88 1267.27 489.34C1267.64 489.486 1268 489.677 1268.33 489.91Z" fill="#362F2F"/>
<path d="M1347.33 532C1346.09 532.064 1344.85 532.044 1343.62 531.94C1341.33 531.85 1338.17 531.73 1334.68 531.65C1331.19 531.57 1328.03 531.52 1325.74 531.5C1324.5 531.539 1323.26 531.496 1322.03 531.37C1322.36 531.293 1322.69 531.252 1323.03 531.25C1323.67 531.25 1324.6 531.16 1325.75 531.13C1328.04 531.06 1331.2 531.04 1334.7 531.13C1338.2 531.22 1341.36 531.4 1343.7 531.59C1344.84 531.68 1345.76 531.76 1346.4 531.84C1346.71 531.86 1347.03 531.914 1347.33 532Z" fill="#362F2F"/>
<path d="M1367.07 528.21C1367.07 528.3 1365.82 528.73 1363.87 529.69C1358.77 532.199 1354.45 536.05 1351.37 540.83C1350.19 542.66 1349.62 543.88 1349.54 543.83C1349.59 543.514 1349.7 543.21 1349.86 542.93C1350.21 542.135 1350.61 541.364 1351.06 540.62C1352.53 538.147 1354.37 535.917 1356.52 534.01C1358.66 532.097 1361.09 530.522 1363.71 529.34C1364.5 528.984 1365.31 528.677 1366.14 528.42C1366.44 528.31 1366.75 528.239 1367.07 528.21Z" fill="#362F2F"/>
<path d="M1357.33 496.16C1355.61 496.101 1353.89 496.341 1352.25 496.87C1350.48 497.488 1348.76 498.25 1347.12 499.15C1345.09 500.275 1342.97 501.229 1340.78 502C1336.73 503.296 1332.43 503.575 1328.25 502.81C1326.99 502.582 1325.76 502.247 1324.56 501.81C1324.11 501.67 1323.68 501.482 1323.27 501.25C1323.27 501.15 1325.15 501.94 1328.27 502.45C1332.39 503.093 1336.61 502.768 1340.58 501.5C1342.74 500.734 1344.85 499.805 1346.87 498.72C1348.54 497.832 1350.29 497.095 1352.1 496.52C1353.33 496.13 1354.61 495.944 1355.9 495.97C1356.23 495.98 1356.57 496.013 1356.9 496.07C1357.21 496.11 1357.34 496.14 1357.33 496.16Z" fill="#362F2F"/>
<path d="M1352.34 563.18C1351.98 563.41 1351.59 563.595 1351.18 563.73C1350.8 563.89 1350.33 564.08 1349.77 564.26C1349.21 564.44 1348.58 564.68 1347.87 564.86C1346.19 565.327 1344.49 565.681 1342.77 565.92C1340.66 566.193 1338.53 566.304 1336.41 566.25C1334.28 566.171 1332.17 565.934 1330.08 565.54C1328.38 565.197 1326.71 564.74 1325.08 564.17C1324.37 563.95 1323.76 563.68 1323.22 563.46C1322.68 563.24 1322.22 563.03 1321.84 562.85C1321.44 562.685 1321.06 562.477 1320.71 562.23C1320.71 562.14 1322.4 562.94 1325.2 563.82C1326.84 564.336 1328.51 564.75 1330.2 565.06C1334.34 565.826 1338.56 565.954 1342.74 565.44C1344.44 565.23 1346.13 564.916 1347.8 564.5C1350.62 563.78 1352.31 563.09 1352.34 563.18Z" fill="#362F2F"/>
<path d="M1375.32 592.78C1375.18 592.69 1375.05 592.582 1374.93 592.46C1374.7 592.23 1374.32 591.92 1373.93 591.46C1372.72 590.168 1371.66 588.746 1370.77 587.22C1367.88 582.106 1366.35 576.342 1366.31 570.47C1366.32 564.639 1367.08 558.834 1368.58 553.2C1369.12 551.04 1369.58 549.3 1369.95 548.11C1370.12 547.56 1370.26 547.11 1370.37 546.74C1370.48 546.37 1370.53 546.26 1370.55 546.27C1370.55 546.436 1370.52 546.602 1370.47 546.76C1370.39 547.14 1370.28 547.6 1370.15 548.16C1369.85 549.45 1369.44 551.16 1368.94 553.29C1367.56 558.906 1366.86 564.667 1366.85 570.45C1366.88 576.228 1368.33 581.909 1371.06 587C1371.92 588.525 1372.92 589.962 1374.06 591.29C1374.85 592.25 1375.35 592.74 1375.32 592.78Z" fill="#362F2F"/>
<path d="M1411.71 558.82C1410.11 557.553 1408.33 556.541 1406.42 555.82C1404.33 555.098 1402.19 554.54 1400.02 554.15C1397.32 553.695 1394.65 553.084 1392.02 552.32C1387.27 550.776 1382.94 548.17 1379.35 544.7C1378.27 543.653 1377.26 542.527 1376.35 541.33C1376.02 540.91 1375.8 540.56 1375.64 540.33C1375.48 540.1 1375.41 539.97 1375.43 539.96C1375.82 540.349 1376.18 540.764 1376.51 541.2C1377.47 542.342 1378.5 543.421 1379.6 544.43C1383.2 547.775 1387.49 550.297 1392.17 551.82C1394.77 552.579 1397.41 553.2 1400.08 553.68C1402.27 554.1 1404.42 554.699 1406.52 555.47C1407.93 556.005 1409.26 556.746 1410.46 557.67C1410.79 557.916 1411.09 558.187 1411.38 558.48C1411.63 558.7 1411.73 558.81 1411.71 558.82Z" fill="#362F2F"/>
<path d="M1423.15 525.45C1422.76 525.175 1422.41 524.863 1422.08 524.52C1421.75 524.21 1421.35 523.83 1420.85 523.41C1420.35 522.99 1419.85 522.49 1419.17 522.01C1417.69 520.818 1416.14 519.72 1414.53 518.72C1410.57 516.273 1406.27 514.432 1401.77 513.26C1399.93 512.786 1398.06 512.422 1396.18 512.17C1395.38 512.04 1394.65 511.99 1394.01 511.93C1393.37 511.87 1392.81 511.82 1392.36 511.8C1391.89 511.798 1391.41 511.754 1390.95 511.67C1391.42 511.598 1391.89 511.574 1392.36 511.6C1392.92 511.572 1393.47 511.572 1394.03 511.6C1394.67 511.6 1395.42 511.65 1396.23 511.76C1398.13 511.968 1400.02 512.302 1401.88 512.76C1404.16 513.344 1406.39 514.093 1408.56 515C1410.71 515.938 1412.79 517.034 1414.78 518.28C1416.4 519.312 1417.94 520.451 1419.41 521.69C1420.05 522.2 1420.57 522.69 1421.05 523.17C1421.46 523.543 1421.85 523.937 1422.22 524.35C1422.57 524.682 1422.88 525.051 1423.15 525.45Z" fill="#362F2F"/>
<path d="M1335.65 479.55C1335.06 479.942 1334.42 480.248 1333.75 480.46C1332.17 481.079 1330.55 481.58 1328.9 481.96C1327.25 482.348 1325.58 482.615 1323.9 482.76C1323.2 482.866 1322.49 482.866 1321.8 482.76C1321.8 482.6 1324.97 482.34 1328.8 481.43C1332.63 480.52 1335.59 479.4 1335.65 479.55Z" fill="#362F2F"/>
<path d="M1371.12 620.39C1371.25 620.836 1371.26 621.308 1371.17 621.762C1371.07 622.216 1370.85 622.637 1370.55 622.989C1370.25 623.34 1369.86 623.609 1369.42 623.772C1368.99 623.934 1368.52 623.985 1368.06 623.92C1367.53 623.844 1367.03 623.615 1366.62 623.26C1366.22 622.905 1365.92 622.439 1365.78 621.92L1364.93 618.78H1365.06C1365.15 619.233 1365.12 619.701 1364.99 620.144C1364.86 620.587 1364.63 620.993 1364.31 621.328C1364 621.663 1363.6 621.918 1363.17 622.071C1362.73 622.225 1362.27 622.272 1361.81 622.21C1360.5 622.21 1359.37 620.3 1358.99 619.29C1358 619.386 1357 619.209 1356.11 618.779C1355.21 618.349 1354.45 617.682 1353.91 616.85L1348.04 607.69L1337.17 599.74L1343.75 576.25L1367.14 591.39C1368.06 592.11 1368.2 592.39 1369.66 593.76L1384.76 607.65C1383.05 608.65 1381.6 608.6 1379.22 607.65C1376.84 606.7 1366.42 599.65 1366.42 599.65L1371.12 620.3" fill="#FFBE9D"/>
<path d="M1351.11 601.07C1351.11 601.07 1351.38 601.19 1351.8 601.48L1352.58 602.02C1352.95 602.252 1353.29 602.535 1353.58 602.86C1353.93 603.258 1354.2 603.715 1354.38 604.21C1354.56 604.74 1354.75 605.28 1354.95 605.85L1356.23 609.61C1357.12 612.29 1357.9 614.71 1358.44 616.48C1358.78 617.419 1359.04 618.386 1359.21 619.37C1358.75 618.478 1358.38 617.548 1358.09 616.59C1357.46 614.85 1356.62 612.45 1355.73 609.78C1355.3 608.45 1354.88 607.18 1354.49 606.01C1354.31 605.43 1354.14 604.88 1353.97 604.36C1353.82 603.902 1353.59 603.472 1353.3 603.09C1353.05 602.778 1352.76 602.496 1352.44 602.25L1351.72 601.64C1351.29 601.3 1351.09 601.1 1351.11 601.07Z" fill="#CE1444"/>
<path d="M1365.18 619.32C1365.03 619.001 1364.92 618.665 1364.85 618.32L1364.1 615.64C1363.46 613.38 1362.61 610.25 1361.52 606.84C1360.43 603.43 1359.29 600.39 1357.92 598.51C1357.41 597.759 1356.76 597.111 1356.01 596.6C1355.46 596.26 1355.11 596.16 1355.12 596.1C1355.21 596.098 1355.3 596.115 1355.39 596.15C1355.64 596.214 1355.88 596.304 1356.11 596.42C1356.94 596.883 1357.66 597.521 1358.22 598.29C1359.71 600.19 1360.91 603.29 1362.01 606.68C1363.11 610.07 1363.91 613.26 1364.45 615.55C1364.72 616.69 1364.92 617.62 1365.05 618.27C1365.14 618.611 1365.19 618.965 1365.18 619.32Z" fill="#CE1444"/>
<path d="M1371.22 620.74C1371.04 620.409 1370.9 620.056 1370.81 619.69C1370.56 618.89 1370.25 617.92 1369.88 616.77C1369.12 614.3 1368.11 610.88 1367.02 607.1C1365.93 603.32 1365.02 600 1364.27 597.4C1364.01 596.436 1363.45 595.581 1362.67 594.96C1362.35 594.756 1362.02 594.582 1361.67 594.44C1361.77 594.416 1361.87 594.416 1361.97 594.44C1362.25 594.503 1362.52 594.615 1362.76 594.77C1363.63 595.37 1364.28 596.247 1364.59 597.26C1365.41 599.73 1366.38 603.15 1367.49 606.93C1368.6 610.71 1369.54 614.16 1370.21 616.65C1370.51 617.81 1370.77 618.8 1370.97 619.65C1371.09 620.004 1371.17 620.369 1371.22 620.74Z" fill="#CE1444"/>
<path d="M1513.32 403.89C1513.32 404.582 1513.52 405.259 1513.91 405.834C1514.29 406.41 1514.84 406.858 1515.48 407.123C1516.12 407.388 1516.82 407.458 1517.5 407.323C1518.18 407.187 1518.8 406.854 1519.29 406.365C1519.78 405.875 1520.12 405.252 1520.25 404.573C1520.39 403.894 1520.32 403.19 1520.05 402.55C1519.79 401.911 1519.34 401.364 1518.76 400.98C1518.19 400.595 1517.51 400.39 1516.82 400.39C1515.89 400.39 1515 400.759 1514.34 401.415C1513.69 402.071 1513.32 402.961 1513.32 403.89Z" fill="#509DC1"/>
<path d="M1502.81 407.39C1504.74 407.39 1506.31 405.823 1506.31 403.89C1506.31 401.957 1504.74 400.39 1502.81 400.39C1500.88 400.39 1499.31 401.957 1499.31 403.89C1499.31 405.823 1500.88 407.39 1502.81 407.39Z" fill="#509DC1"/>
<path d="M1485.34 402.14C1484.99 402.739 1484.83 403.428 1484.88 404.119C1484.92 404.81 1485.17 405.472 1485.59 406.021C1486.01 406.57 1486.59 406.982 1487.24 407.205C1487.9 407.428 1488.61 407.451 1489.27 407.272C1489.94 407.093 1490.54 406.719 1491 406.199C1491.46 405.679 1491.75 405.034 1491.84 404.348C1491.93 403.662 1491.81 402.964 1491.51 402.343C1491.2 401.722 1490.72 401.206 1490.12 400.86C1489.72 400.629 1489.28 400.479 1488.83 400.418C1488.37 400.357 1487.91 400.387 1487.46 400.506C1487.02 400.625 1486.6 400.831 1486.24 401.111C1485.87 401.391 1485.57 401.741 1485.34 402.14Z" fill="#509DC1"/>
<path d="M1502.59 363C1502.36 362.982 1502.12 362.982 1501.89 363L1499.81 363.06C1499.35 363.06 1498.81 363.06 1498.27 363.13L1496.44 363.39L1494.3 363.7L1491.9 364.29C1487.79 365.31 1483.87 367 1480.31 369.29C1475.04 372.646 1470.61 377.162 1467.35 382.493C1464.09 387.824 1462.09 393.829 1461.51 400.05C1461.35 401.915 1461.31 403.789 1461.4 405.66C1461.47 406.6 1461.45 407.57 1461.59 408.52C1461.73 409.47 1461.88 410.44 1462.02 411.41C1462.75 415.384 1464.07 419.229 1465.92 422.82C1467.89 426.582 1470.4 430.038 1473.37 433.08C1476.53 436.188 1480.15 438.789 1484.11 440.79C1488.2 442.884 1492.63 444.239 1497.2 444.79C1498.35 444.962 1499.52 445.059 1500.69 445.08C1501.86 445.168 1503.04 445.192 1504.22 445.15C1506.59 445.052 1508.95 444.754 1511.28 444.26C1516.3 443.173 1521.07 441.162 1525.35 438.33L1524.93 438.38L1539.26 444.13L1540.11 444.47L1539.87 443.59L1535.65 428.27L1535.58 428.64C1539.47 423.489 1542.09 417.493 1543.23 411.14C1543.78 408.173 1543.97 405.151 1543.79 402.14C1543.75 400.695 1543.62 399.255 1543.38 397.83C1543.27 397.123 1543.16 396.423 1543.05 395.73C1542.93 395.04 1542.72 394.37 1542.55 393.73C1540.15 384.308 1534.48 376.047 1526.55 370.42C1523.62 368.325 1520.42 366.643 1517.04 365.42L1514.89 364.65L1512.89 364.13L1511.03 363.67C1510.43 363.56 1509.85 363.5 1509.31 363.41C1508.23 363.28 1507.31 363.09 1506.44 363.05L1504.34 362.98H1503.05C1502.9 362.969 1502.76 362.969 1502.61 362.98C1502.75 363.025 1502.9 363.045 1503.05 363.04L1504.33 363.15L1506.42 363.29C1507.25 363.35 1508.19 363.56 1509.27 363.72C1517.05 365.071 1524.27 368.652 1530.05 374.027C1535.83 379.402 1539.93 386.34 1541.85 394C1542 394.66 1542.21 395.32 1542.33 396C1542.45 396.68 1542.53 397.36 1542.64 398.06C1542.87 399.459 1542.99 400.872 1543.02 402.29C1543.18 405.232 1542.98 408.183 1542.44 411.08C1541.28 417.294 1538.68 423.15 1534.85 428.18L1534.72 428.35L1534.78 428.56C1536.11 433.506 1537.51 438.616 1538.96 443.89L1539.57 443.35L1525.24 437.58L1525.02 437.49L1524.81 437.62C1518.66 441.692 1511.52 443.996 1504.15 444.28C1503 444.32 1501.85 444.3 1500.7 444.22C1499.56 444.199 1498.42 444.102 1497.29 443.93C1492.83 443.39 1488.49 442.066 1484.49 440.02C1480.62 438.061 1477.07 435.522 1473.97 432.49C1471.06 429.526 1468.59 426.158 1466.65 422.49C1464.84 418.965 1463.56 415.195 1462.85 411.3C1462.7 410.3 1462.55 409.41 1462.41 408.47C1462.27 407.53 1462.29 406.59 1462.22 405.66C1462.13 403.827 1462.15 401.989 1462.3 400.16C1462.84 394.037 1464.78 388.118 1467.95 382.852C1471.12 377.587 1475.45 373.113 1480.61 369.77C1484.11 367.453 1487.96 365.718 1492.02 364.63L1494.38 364L1496.5 363.65L1498.32 363.35C1498.88 363.29 1499.39 363.27 1499.84 363.24L1501.91 363.09C1502.14 363.084 1502.37 363.054 1502.59 363Z" fill="#C8E5F3"/>
</svg>
