<svg width="45" height="51" viewBox="0 0 45 51" fill="none" xmlns="http://www.w3.org/2000/svg">
<path d="M6.2325 16.8771L6.49996 15.0225L6.7675 16.8771C7.26147 20.3025 9.19236 22.9799 11.6625 23.665L13 24.036L11.6625 24.4069C9.19236 25.092 7.26147 27.7695 6.7675 31.1948L6.49996 33.0495L6.2325 31.1948C5.73845 27.7695 3.80764 25.092 1.33746 24.4069L0 24.036L1.33746 23.665C3.80764 22.9799 5.73845 20.3025 6.2325 16.8771Z" fill="white"/>
<path d="M39.2737 1.54554L39.5 0L39.7263 1.54554C40.1443 4.40002 41.7782 6.63121 43.8683 7.20213L45 7.51129L43.8683 7.82036C41.7782 8.39128 40.1443 10.6225 39.7263 13.477L39.5 15.0225L39.2737 13.477C38.8556 10.6225 37.2218 8.39128 35.1317 7.82036L34 7.51129L35.1317 7.20213C37.2218 6.63121 38.8556 4.40002 39.2737 1.54554Z" fill="white"/>
<path d="M30.109 26.7149L30.4999 24.036L30.891 26.7149C31.6129 31.6627 34.435 35.5301 38.0452 36.5197L40 37.0556L38.0452 37.5913C34.435 38.5809 31.6129 42.4483 30.891 47.396L30.4999 50.075L30.109 47.396C29.387 42.4483 26.565 38.5809 22.9548 37.5913L21 37.0556L22.9548 36.5197C26.565 35.5301 29.387 31.6627 30.109 26.7149Z" fill="#C40738"/>
</svg>
