<svg width="160" height="160" viewBox="0 0 160 160" fill="none" xmlns="http://www.w3.org/2000/svg">
<g id="Frame">
<path id="Vector" d="M16.16 80C16.16 88.3836 17.8112 96.6851 21.0195 104.43C24.2278 112.176 28.9302 119.214 34.8583 125.142C40.7864 131.07 47.824 135.772 55.5695 138.98C63.3149 142.189 71.6164 143.84 80 143.84C88.3836 143.84 96.6851 142.189 104.43 138.98C112.176 135.772 119.214 131.07 125.142 125.142C131.07 119.214 135.772 112.176 138.98 104.43C142.189 96.6851 143.84 88.3836 143.84 80C143.84 71.6164 142.189 63.3149 138.98 55.5695C135.772 47.824 131.07 40.7864 125.142 34.8583C119.214 28.9302 112.176 24.2278 104.43 21.0195C96.6851 17.8112 88.3836 16.16 80 16.16C71.6164 16.16 63.3149 17.8112 55.5695 21.0195C47.824 24.2278 40.7864 28.9302 34.8583 34.8583C28.9302 40.7864 24.2278 47.824 21.0195 55.5695C17.8112 63.3149 16.16 71.6164 16.16 80Z" fill="#EBEBEB"/>
<path id="Vector_2" d="M45.2324 133.997C45.2324 134.437 46.2134 134.872 48.1193 135.278C50.0253 135.684 52.8189 136.053 56.3406 136.364C59.8623 136.675 64.0433 136.921 68.6446 137.089C73.246 137.258 78.1777 137.344 83.1582 137.344C88.1386 137.344 93.0704 137.258 97.6717 137.089C102.273 136.921 106.454 136.675 109.976 136.364C113.497 136.053 116.291 135.684 118.197 135.278C120.103 134.872 121.084 134.437 121.084 133.997C121.084 133.11 117.088 132.259 109.976 131.631C102.863 131.003 93.2167 130.651 83.1582 130.651C73.0996 130.651 63.4531 131.003 56.3406 131.631C49.2282 132.259 45.2324 133.11 45.2324 133.997Z" fill="#C6C6C6"/>
<path id="Vector_3" d="M57.4961 30.8162H102.12L119.968 48.6642V113.356C119.968 113.949 119.733 114.517 119.314 114.936C118.895 115.355 118.327 115.591 117.734 115.591H57.4961C57.2027 115.591 56.9121 115.533 56.6411 115.421C56.37 115.309 56.1236 115.144 55.9162 114.936C55.7087 114.729 55.5441 114.483 55.4318 114.212C55.3195 113.94 55.2617 113.65 55.2617 113.356V33.0474C55.2626 32.4553 55.4983 31.8878 55.9173 31.4695C56.3362 31.0511 56.9041 30.8162 57.4961 30.8162Z" fill="white"/>
<path id="Vector_4" d="M57.4961 30.8162H102.12L119.968 48.6642V113.356C119.968 113.949 119.733 114.517 119.314 114.936C118.895 115.355 118.327 115.591 117.734 115.591H57.4961C57.2027 115.591 56.9121 115.533 56.6411 115.421C56.37 115.309 56.1236 115.144 55.9162 114.936C55.7087 114.729 55.5441 114.483 55.4318 114.212C55.3195 113.94 55.2617 113.65 55.2617 113.356V33.0474C55.2626 32.4553 55.4983 31.8878 55.9173 31.4695C56.3362 31.0511 56.9041 30.8162 57.4961 30.8162Z" stroke="#212121" stroke-linecap="round" stroke-linejoin="round"/>
<path id="Vector_5" d="M119.969 48.6642L102.121 30.8162V46.433C102.121 47.0256 102.356 47.594 102.776 48.013C103.195 48.432 103.763 48.6674 104.355 48.6674L119.969 48.6642Z" fill="white" stroke="#212121" stroke-linecap="round" stroke-linejoin="round"/>
<path id="Vector_6" d="M36.3086 97.7443C36.3086 104.549 39.0116 111.074 43.823 115.886C48.6344 120.697 55.16 123.4 61.9643 123.4C68.7686 123.4 75.2942 120.697 80.1056 115.886C84.917 111.074 87.62 104.549 87.62 97.7443C87.62 90.94 84.917 84.4144 80.1056 79.603C75.2942 74.7916 68.7686 72.0886 61.9643 72.0886C55.16 72.0886 48.6344 74.7916 43.823 79.603C39.0116 84.4144 36.3086 90.94 36.3086 97.7443Z" fill="#C6C6C6" stroke="#212121" stroke-linecap="round" stroke-linejoin="round"/>
<path id="Vector_7" d="M41.8867 97.7444C41.8867 100.381 42.406 102.992 43.415 105.428C44.424 107.864 45.9029 110.077 47.7673 111.941C49.6317 113.806 51.8451 115.285 54.281 116.294C56.7169 117.303 59.3278 117.822 61.9644 117.822C64.601 117.822 67.2119 117.303 69.6478 116.294C72.0837 115.285 74.2971 113.806 76.1615 111.941C78.0258 110.077 79.5048 107.864 80.5138 105.428C81.5228 102.992 82.0421 100.381 82.0421 97.7444C82.0421 92.4195 79.9268 87.3127 76.1615 83.5474C72.3962 79.7821 67.2893 77.6667 61.9644 77.6667C56.6395 77.6667 51.5326 79.7821 47.7673 83.5474C44.002 87.3127 41.8867 92.4195 41.8867 97.7444Z" fill="white"/>
<path id="Vector_8" d="M41.8867 97.7444C41.8867 100.381 42.406 102.992 43.415 105.428C44.424 107.864 45.9029 110.077 47.7673 111.941C49.6317 113.806 51.8451 115.285 54.281 116.294C56.7169 117.303 59.3278 117.822 61.9644 117.822C64.601 117.822 67.2119 117.303 69.6478 116.294C72.0837 115.285 74.2971 113.806 76.1615 111.941C78.0258 110.077 79.5048 107.864 80.5138 105.428C81.5228 102.992 82.0421 100.381 82.0421 97.7444C82.0421 92.4195 79.9268 87.3127 76.1615 83.5474C72.3962 79.7821 67.2893 77.6667 61.9644 77.6667C56.6395 77.6667 51.5326 79.7821 47.7673 83.5474C44.002 87.3127 41.8867 92.4195 41.8867 97.7444Z" stroke="#212121" stroke-linecap="round" stroke-linejoin="round"/>
<path id="Vector_9" d="M67.2461 41.9705H91.7862" stroke="#212121" stroke-linecap="round" stroke-linejoin="round"/>
<path id="Vector_10" d="M67.2461 49.7798H91.7862" stroke="#212121" stroke-linecap="round" stroke-linejoin="round"/>
<path id="Vector_11" d="M67.2461 57.5874H108.519" stroke="#212121" stroke-linecap="round" stroke-linejoin="round"/>
<path id="Vector_12" d="M67.2461 65.395H108.519" stroke="#212121" stroke-linecap="round" stroke-linejoin="round"/>
<path id="Vector_13" d="M85.0938 73.2043H108.518" stroke="#212121" stroke-linecap="round" stroke-linejoin="round"/>
<path id="Vector_14" d="M91.7852 81.012H108.518" stroke="#212121" stroke-linecap="round" stroke-linejoin="round"/>
<path id="Vector_15" d="M95.1309 88.821H108.517" stroke="#212121" stroke-linecap="round" stroke-linejoin="round"/>
<path id="Vector_16" d="M96.248 96.6287H108.518" stroke="#212121" stroke-linecap="round" stroke-linejoin="round"/>
<path id="Vector_17" d="M95.1309 104.436H108.517" stroke="#212121" stroke-linecap="round" stroke-linejoin="round"/>
<path id="Vector_18" d="M58.3072 107.783C57.9171 107.783 57.5308 107.707 57.1704 107.558C56.8099 107.408 56.4825 107.189 56.2068 106.913L50.2681 100.973C49.728 100.413 49.4291 99.6637 49.4359 98.8858C49.4427 98.1079 49.7546 97.3638 50.3045 96.8135C50.8543 96.2632 51.5983 95.9507 52.3762 95.9433C53.1541 95.9359 53.9038 96.2342 54.464 96.774L58.304 100.614L68.0843 90.8337C68.3583 90.5504 68.686 90.3245 69.0482 90.1692C69.4105 90.0138 69.8 89.9321 70.1941 89.9288C70.5882 89.9255 70.979 90.0007 71.3438 90.15C71.7086 90.2992 72.04 90.5196 72.3187 90.7982C72.5975 91.0769 72.818 91.4082 72.9674 91.7729C73.1168 92.1377 73.1921 92.5285 73.189 92.9226C73.1858 93.3167 73.1043 93.7062 72.9491 94.0685C72.7939 94.4308 72.5681 94.7586 72.285 95.0327L60.4043 106.913C60.129 107.189 59.8021 107.408 59.4423 107.557C59.0825 107.706 58.6967 107.783 58.3072 107.783Z" fill="#C6C6C6" stroke="#212121"/>
</g>
</svg>
