<svg width="101" height="22" viewBox="0 0 101 22" fill="none" xmlns="http://www.w3.org/2000/svg">
<path id="Frame 48097220 --&#62; Frame 48097221" d="M2 9C0.89543 9 0 9.89543 0 11C0 12.1046 0.89543 13 2 13V9ZM79.3333 11C79.3333 16.891 84.109 21.6667 90 21.6667C95.891 21.6667 100.667 16.891 100.667 11C100.667 5.10896 95.891 0.333333 90 0.333333C84.109 0.333333 79.3333 5.10896 79.3333 11ZM7.5 13C8.60457 13 9.5 12.1046 9.5 11C9.5 9.89543 8.60457 9 7.5 9V13ZM18.5 9C17.3954 9 16.5 9.89543 16.5 11C16.5 12.1046 17.3954 13 18.5 13V9ZM29.5 13C30.6046 13 31.5 12.1046 31.5 11C31.5 9.89543 30.6046 9 29.5 9V13ZM40.5 9C39.3954 9 38.5 9.89543 38.5 11C38.5 12.1046 39.3954 13 40.5 13V9ZM51.5 13C52.6046 13 53.5 12.1046 53.5 11C53.5 9.89543 52.6046 9 51.5 9V13ZM62.5 9C61.3954 9 60.5 9.89543 60.5 11C60.5 12.1046 61.3954 13 62.5 13V9ZM73.5 13C74.6046 13 75.5 12.1046 75.5 11C75.5 9.89543 74.6046 9 73.5 9V13ZM84.5 9C83.3954 9 82.5 9.89543 82.5 11C82.5 12.1046 83.3954 13 84.5 13V9ZM2 13H7.5V9H2V13ZM18.5 13H29.5V9H18.5V13ZM40.5 13H51.5V9H40.5V13ZM62.5 13H73.5V9H62.5V13ZM84.5 13H90V9H84.5V13Z" fill="#FF980E"/>
</svg>
