<svg width="27" height="27" viewBox="0 0 27 27" fill="none" xmlns="http://www.w3.org/2000/svg">
<rect width="26" height="26" transform="translate(0.853027 0.861572)" fill="#F0F0FA"/>
<path d="M9.65442 11.0803C10.4282 11.0803 11.0554 10.4531 11.0554 9.67932C11.0554 8.90557 10.4282 8.27832 9.65442 8.27832C8.88067 8.27832 8.25342 8.90557 8.25342 9.67932C8.25342 10.4531 8.88067 11.0803 9.65442 11.0803Z" fill="#212121"/>
<path d="M12.3781 12.1418V19.9145H14.7914V16.0707C14.7914 15.0565 14.9822 14.0743 16.2398 14.0743C17.4801 14.0743 17.4955 15.2339 17.4955 16.1348V19.9152H19.9101V15.6526C19.9101 13.5588 19.4593 11.9497 17.012 11.9497C15.8371 11.9497 15.0495 12.5945 14.7274 13.2047H14.6947V12.1418H12.3781ZM8.44531 12.1418H10.8625V19.9145H8.44531V12.1418Z" fill="#212121"/>
</svg>
