<svg width="52" height="53" viewBox="0 0 52 53" fill="none" xmlns="http://www.w3.org/2000/svg">
<g id="magnet--design-magnet-snap-supplies-to-tool">
<path id="Rectangle 650 (Stroke)" fill-rule="evenodd" clip-rule="evenodd" d="M23.4737 50.1623C24.3355 51.0431 25.6376 51.2533 26.7752 50.7781C30.4424 49.2446 33.9371 47.2975 37.216 45.0692C50.4665 36.0706 55.9738 21.4474 43.5442 8.91713C31.5181 -3.20792 16.1895 2.7203 7.71159 15.2825C5.47971 18.5907 3.49874 22.1812 1.97606 25.9167C1.5278 27.0185 1.72181 28.2723 2.57419 29.1016C4.1664 30.6523 7.19693 33.046 11.4208 33.9415C12.7206 34.2174 13.9964 33.5312 14.6884 32.3976C15.9951 30.256 18.1542 26.7568 19.5653 24.6666C23.707 18.5297 29.4197 15.9158 33.0216 19.5468C36.6247 23.1789 34.3401 28.9574 28.0552 33.2263C25.8997 34.6899 22.2118 36.8996 20.0843 38.157C19.0593 38.7634 18.3626 39.8477 18.519 41.0289C19.0508 45.0634 21.7513 48.4018 23.4737 50.1623Z" stroke="#212121" stroke-opacity="0.9" stroke-width="3" stroke-linecap="round" stroke-linejoin="round"/>
<path id="Intersect" d="M5.47868 18.8379C8.64348 20.2543 13.8445 22.9223 18.1882 26.7732M25.8306 34.67C29.5032 39.1728 32.022 44.4403 33.3173 47.5216" stroke="#212121" stroke-opacity="0.9" stroke-width="3" stroke-linecap="round" stroke-linejoin="round"/>
</g>
</svg>
