<svg width="21" height="21" viewBox="0 0 21 21" fill="none" xmlns="http://www.w3.org/2000/svg">
<g id="majesticons:mail-line">
<path id="Vector" d="M6.33333 8.16634L9.45833 10.6663C9.75394 10.903 10.1213 11.032 10.5 11.032C10.8787 11.032 11.2461 10.903 11.5417 10.6663L14.6667 8.16634M18 14.833V6.49967C18 6.05765 17.8244 5.63372 17.5118 5.32116C17.1993 5.0086 16.7754 4.83301 16.3333 4.83301H4.66667C4.22464 4.83301 3.80072 5.0086 3.48816 5.32116C3.17559 5.63372 3 6.05765 3 6.49967V14.833C3 15.275 3.17559 15.699 3.48816 16.0115C3.80072 16.3241 4.22464 16.4997 4.66667 16.4997H16.3333C16.7754 16.4997 17.1993 16.3241 17.5118 16.0115C17.8244 15.699 18 15.275 18 14.833Z" stroke="#011B2E" stroke-width="1.5" stroke-linecap="round" stroke-linejoin="round"/>
</g>
</svg>
