<svg width="160" height="160" viewBox="0 0 160 160" fill="none" xmlns="http://www.w3.org/2000/svg">
<g id="message-notification-1 1">
<path id="Vector" d="M16.16 84.3252C16.16 92.7088 17.8113 101.01 21.0196 108.756C24.2278 116.501 28.9302 123.539 34.8583 129.467C40.7864 135.395 47.8241 140.097 55.5695 143.306C63.3149 146.514 71.6164 148.165 80 148.165C88.3836 148.165 96.6851 146.514 104.431 143.306C112.176 140.097 119.214 135.395 125.142 129.467C131.07 123.539 135.772 116.501 138.981 108.756C142.189 101.01 143.84 92.7088 143.84 84.3252C143.84 75.9416 142.189 67.6401 138.981 59.8947C135.772 52.1492 131.07 45.1116 125.142 39.1835C119.214 33.2554 112.176 28.553 104.431 25.3447C96.6851 22.1364 88.3836 20.4852 80 20.4852C71.6164 20.4852 63.3149 22.1364 55.5695 25.3447C47.8241 28.553 40.7864 33.2554 34.8583 39.1835C28.9302 45.1116 24.2278 52.1492 21.0196 59.8947C17.8113 67.6401 16.16 75.9416 16.16 84.3252Z" fill="#EBEBEB"/>
<path id="Vector_2" d="M102.267 136.254C101.438 137.766 100.041 138.887 98.3857 139.37C96.73 139.853 94.9503 139.658 93.4381 138.829L64.9654 123.212C63.4533 122.382 62.3326 120.985 61.8498 119.329C61.3671 117.673 61.5618 115.894 62.3911 114.381L97.5829 50.2315C98.4124 48.7194 99.8086 47.5987 101.464 47.116C103.12 46.6332 104.9 46.8278 106.412 47.6571L134.885 63.274C135.633 63.6848 136.294 64.2392 136.828 64.9054C137.363 65.5715 137.761 66.3364 138 67.1564C138.239 67.9765 138.314 68.8355 138.221 69.6845C138.128 70.5335 137.868 71.3559 137.457 72.1046L102.267 136.254Z" fill="white" stroke="#212121" stroke-linecap="round" stroke-linejoin="round"/>
<path id="Vector_3" d="M65.5195 108.68L94.4518 55.9323L134.328 77.8055L105.396 130.553L65.5195 108.68Z" fill="#EBEBEB"/>
<path id="Vector_4" d="M65.5195 108.68L94.4518 55.9323L134.328 77.8055L105.396 130.553L65.5195 108.68Z" stroke="#212121" stroke-linecap="round" stroke-linejoin="round"/>
<path id="Vector_5" d="M123.24 64.3065L124.666 65.0886" stroke="#212121" stroke-linecap="round" stroke-linejoin="round"/>
<path id="Vector_6" d="M109.852 57.0304L119.025 62.1951" stroke="#212121" stroke-linecap="round" stroke-linejoin="round"/>
<path id="Vector_7" d="M23.342 31.8008C23.342 30.6156 23.8129 29.479 24.6509 28.6409C25.489 27.8028 26.6256 27.332 27.8108 27.332H76.9676C78.1528 27.332 79.2895 27.8028 80.1276 28.6409C80.9656 29.479 81.4364 30.6156 81.4364 31.8008V66.434C81.4364 67.6192 80.9656 68.7559 80.1276 69.594C79.2895 70.432 78.1528 70.9028 76.9676 70.9028H61.3268V75.8504C61.3268 76.3611 61.1753 76.8603 60.8915 77.2849C60.6078 77.7095 60.2045 78.0405 59.7327 78.2359C59.2609 78.4313 58.7417 78.4825 58.2408 78.3828C57.7399 78.2832 57.2798 78.0373 56.9187 77.6763L50.1548 70.9108H27.8108C26.6256 70.9108 25.489 70.44 24.6509 69.6019C23.8129 68.7639 23.342 67.6272 23.342 66.442V31.8008Z" fill="white" stroke="#212121" stroke-linejoin="round"/>
<path id="Vector_8" d="M58.2012 27.3305C58.2012 29.3654 58.602 31.3804 59.3807 33.2604C60.1594 35.1404 61.3008 36.8486 62.7397 38.2875C64.1786 39.7264 65.8868 40.8678 67.7668 41.6466C69.6468 42.4253 71.6618 42.8261 73.6967 42.8261C75.7316 42.8261 77.7466 42.4253 79.6266 41.6466C81.5066 40.8678 83.2149 39.7264 84.6538 38.2875C86.0926 36.8486 87.234 35.1404 88.0128 33.2604C88.7915 31.3804 89.1923 29.3654 89.1923 27.3305C89.1923 23.2208 87.5597 19.2795 84.6538 16.3735C81.7478 13.4675 77.8064 11.835 73.6967 11.835C69.5871 11.835 65.6457 13.4675 62.7397 16.3735C59.8337 19.2795 58.2012 23.2208 58.2012 27.3305Z" fill="white"/>
<path id="Vector_9" d="M58.2012 27.3305C58.2012 29.3654 58.602 31.3804 59.3807 33.2604C60.1594 35.1404 61.3008 36.8486 62.7397 38.2875C64.1786 39.7264 65.8868 40.8678 67.7668 41.6466C69.6468 42.4253 71.6618 42.8261 73.6967 42.8261C75.7316 42.8261 77.7466 42.4253 79.6266 41.6466C81.5066 40.8678 83.2149 39.7264 84.6538 38.2875C86.0927 36.8486 87.234 35.1404 88.0128 33.2604C88.7915 31.3804 89.1923 29.3654 89.1923 27.3305C89.1923 23.2208 87.5597 19.2795 84.6538 16.3735C81.7478 13.4675 77.8064 11.835 73.6967 11.835C69.5871 11.835 65.6457 13.4675 62.7397 16.3735C59.8337 19.2795 58.2012 23.2208 58.2012 27.3305Z" stroke="#212121" stroke-linecap="round" stroke-linejoin="round"/>
<path id="Vector_10" d="M73.6953 18.2908V26.0394" stroke="#212121" stroke-linecap="round" stroke-linejoin="round"/>
<path id="Vector_11" d="M71.1135 34.4326C71.1135 35.1175 71.3856 35.7743 71.8699 36.2586C72.3542 36.7429 73.011 37.0149 73.6959 37.0149C74.3807 37.0149 75.0376 36.7429 75.5218 36.2586C76.0061 35.7743 76.2782 35.1175 76.2782 34.4326C76.2782 33.7477 76.0061 33.0909 75.5218 32.6066C75.0376 32.1223 74.3807 31.8503 73.6959 31.8503C73.011 31.8503 72.3542 32.1223 71.8699 32.6066C71.3856 33.0909 71.1135 33.7477 71.1135 34.4326Z" fill="#212121"/>
<path id="Vector_12" d="M33.6641 42.8259H58.1994" stroke="#212121" stroke-linecap="round" stroke-linejoin="round"/>
<path id="Vector_13" d="M33.6641 50.573H67.2391" stroke="#212121" stroke-linecap="round" stroke-linejoin="round"/>
<path id="Vector_14" d="M33.6641 58.3213H67.2391" stroke="#212121" stroke-linecap="round" stroke-linejoin="round"/>
<path id="Vector_15" d="M81.0565 125.33C81.0565 125.499 81.0899 125.667 81.1548 125.824C81.2197 125.98 81.3148 126.123 81.4347 126.243C81.5546 126.362 81.6969 126.458 81.8536 126.522C82.0102 126.587 82.1781 126.621 82.3477 126.621C82.5172 126.621 82.6851 126.587 82.8418 126.522C82.9984 126.458 83.1408 126.362 83.2607 126.243C83.3806 126.123 83.4757 125.98 83.5406 125.824C83.6055 125.667 83.6388 125.499 83.6388 125.33C83.6388 125.16 83.6055 124.992 83.5406 124.836C83.4757 124.679 83.3806 124.537 83.2607 124.417C83.1408 124.297 82.9984 124.202 82.8418 124.137C82.6851 124.072 82.5172 124.038 82.3477 124.038C82.1781 124.038 82.0102 124.072 81.8536 124.137C81.6969 124.202 81.5546 124.297 81.4347 124.417C81.3148 124.537 81.2197 124.679 81.1548 124.836C81.0899 124.992 81.0565 125.16 81.0565 125.33Z" fill="#212121" stroke="#212121" stroke-linejoin="round"/>
</g>
</svg>
