<svg width="730" height="754" viewBox="0 0 730 754" fill="none" xmlns="http://www.w3.org/2000/svg">
<g clip-path="url(#clip0_40_17014)">
<mask id="mask0_40_17014" style="mask-type:luminance" maskUnits="userSpaceOnUse" x="0" y="0" width="730" height="754">
<path d="M730 6.38186e-05L0 0L-6.59168e-05 754L730 754L730 6.38186e-05Z" fill="white"/>
</mask>
<g mask="url(#mask0_40_17014)">
<path d="M709.414 754.78L710.437 753.219L629.639 696.745L574.668 628.048C574.645 628.018 574.606 628.006 574.579 627.98C574.535 627.939 574.491 627.91 574.442 627.876C574.395 627.844 574.36 627.797 574.309 627.774C540.654 613.611 432.994 568.555 422.774 567.449C422.75 567.439 422.733 567.419 422.708 567.413C422.529 567.366 422.347 567.398 422.175 567.466C422.148 567.473 422.104 567.475 422.084 567.485C419.18 568.983 352.035 585.479 325.915 591.829L255.326 548.831L195.216 390.792C195.207 390.77 195.187 390.755 195.176 390.732C195.14 390.655 195.094 390.585 195.037 390.519C195.01 390.485 194.983 390.455 194.952 390.427C194.933 390.412 194.922 390.389 194.902 390.374C194.842 390.329 194.773 390.302 194.707 390.274C194.689 390.266 194.676 390.249 194.656 390.242L194.621 390.229C194.618 390.229 194.614 390.227 194.614 390.227L117.342 363.379L-5.70353 221.796L-7.06133 223.056L115.507 364.089L71.0833 401.311L-5.94079 357.32L-6.8241 358.97L68.8879 402.21L-10.3099 428.404L-9.75323 430.2L70.2621 403.74L70.2621 508.505L0.65475 434.151L-0.657426 435.461L70.0102 510.946L41.0456 556.512L-9.98319 553.247L-10.0963 555.128L40.7226 558.38L48.2745 610.225L-10.4759 643.213L-9.6036 644.87L48.7526 612.104L77.385 700.826L-10.5362 759.807L-9.54156 761.387L78.261 702.486L123.981 764.467L125.434 763.327L80.4656 702.368L219.054 716.221L223.564 782.343L225.383 782.211L220.912 716.635L283.838 735.227L262.349 767.608L263.854 768.671L285.88 735.48L370.562 707.621L313.272 763.21L314.522 764.584L374.115 706.762L406.98 739.342L389.814 763.336L391.283 764.456L408.926 739.794C408.938 739.777 408.94 739.757 408.953 739.738L408.96 739.744L435.833 696.428L475.536 766.727L477.111 765.777L438.122 696.743L495.467 724.264L520.265 764.403L521.805 763.391L497.458 723.983L566.144 696.093L557.24 760.782L559.046 761.048L568.055 695.604L628.716 698.381L709.414 754.78ZM567.445 693.687L512.093 674.223L573.792 629.916L627.006 696.415L567.445 693.687ZM495.518 722.209L438.551 694.869L508.753 675.848L495.518 722.209ZM373.973 704.294L326.47 676.92L441.171 636.232L373.973 704.294ZM220.043 714.307L128.419 649.301L320.45 677.116L220.043 714.307ZM72.0871 402.896L117.009 365.256L192.628 391.527L72.0871 508.654L72.0871 402.896ZM253.215 548.448L164.003 542.919L148.122 494.399L194.284 393.512L253.215 548.448ZM324.205 592.979L280.77 631.891L217.233 621.795L254.936 550.784L324.205 592.979ZM480.431 621.684L496.44 597.5C520.24 607.22 546.193 618.003 568.447 627.349L480.431 621.684ZM571.289 629.42L510.355 673.175L480.482 623.575L571.289 629.42ZM478.193 621.724L445.259 632.806L423.812 569.388C430.205 570.864 459.976 582.617 494.699 596.789L478.193 621.724ZM163.948 544.806L253.094 550.331L215.193 621.716L126.202 646.423L163.948 544.806ZM215.855 623.482L280.619 633.774L321.628 675.386L129.27 647.522L215.855 623.482ZM282.395 632.93L325.799 594.048L363.707 624.097L324.16 675.309L282.395 632.93ZM365.396 624.934L440.648 634.425L326.908 674.771L365.396 624.934ZM367.049 623.245L422.087 570.005L443.347 632.87L367.049 623.245ZM364.941 622.7L327.843 593.294C339.849 590.372 402.752 575.027 418.992 570.418L364.941 622.7ZM74.1657 509.223L191.479 395.233L146.509 493.515L74.1657 509.223ZM146.536 495.436L162.368 543.803L124.687 645.241L72.4283 511.527L146.536 495.436ZM478.374 623.646L508.658 673.929L436.978 693.348L445.509 634.704L478.374 623.646ZM42.4728 557.703L70.9811 512.857L122.986 645.921L50.1068 610.104L42.4728 557.703ZM50.8185 612.542L123.216 648.123L78.8432 699.38L50.8185 612.542ZM80.3561 700.46L124.853 649.058L216.483 714.066L80.3561 700.46ZM324.16 677.746L371.841 705.222L285.295 733.693L222.889 715.255L324.16 677.746ZM375.435 705.453L443.383 636.632L434.997 694.283L408.024 737.76L375.435 705.453ZM510.693 675.723L564.62 694.686L497.496 721.942L510.693 675.723Z" fill="url(#paint0_linear_40_17014)" fill-opacity="0.18"/>
</g>
</g>
<defs>
<linearGradient id="paint0_linear_40_17014" x1="-53.5578" y1="461.044" x2="505.113" y2="809.336" gradientUnits="userSpaceOnUse">
<stop stop-color="#B6B643"/>
<stop offset="1" stop-color="#281A1A"/>
<stop offset="1" stop-color="#9A9292" stop-opacity="0.28"/>
</linearGradient>
<clipPath id="clip0_40_17014">
<rect width="730" height="754" fill="white"/>
</clipPath>
</defs>
</svg>
