<svg width="711" height="533" viewBox="0 0 711 533" fill="none" xmlns="http://www.w3.org/2000/svg">
<path d="M709.414 -0.780163L710.438 0.780622L629.64 57.2552L574.669 125.952C574.645 125.982 574.607 125.994 574.579 126.02C574.536 126.061 574.492 126.09 574.443 126.124C574.395 126.156 574.36 126.203 574.309 126.226C540.655 140.389 432.994 185.445 422.774 186.551C422.75 186.561 422.734 186.581 422.708 186.587C422.53 186.634 422.347 186.602 422.175 186.534C422.148 186.527 422.104 186.525 422.084 186.515C419.181 185.017 352.035 168.521 325.916 162.171L255.327 205.169L195.217 363.208C195.208 363.23 195.187 363.245 195.177 363.268C195.14 363.345 195.094 363.415 195.038 363.481C195.01 363.515 194.983 363.545 194.952 363.573C194.934 363.588 194.923 363.611 194.903 363.626C194.843 363.671 194.773 363.698 194.708 363.726C194.689 363.734 194.676 363.751 194.656 363.758L194.622 363.771C194.618 363.771 194.614 363.773 194.614 363.773L117.342 390.621L-5.70304 532.204L-7.06084 530.944L115.508 389.911L71.0838 352.689L-5.94031 396.68L-6.82361 395.03L68.8883 351.79L-10.3094 325.596L-9.75274 323.8L70.2626 350.26L70.2626 245.495L0.655238 319.849L-0.656938 318.539L70.0107 243.054L41.0461 197.488L-9.9827 200.753L-10.0958 198.872L40.7231 195.62L48.2749 143.775L-10.4755 110.787L-9.60311 109.13L48.7531 141.896L77.3855 53.1743L-10.5357 -5.80738L-9.54107 -7.38703L78.2615 51.5136L123.981 -10.4671L125.434 -9.3267L80.4661 51.6323L219.055 37.7794L223.564 -28.3426L225.384 -28.2106L220.913 37.3647L283.839 18.773L262.349 -13.6075L263.855 -14.6707L285.881 18.5204L370.563 46.3788L313.272 -9.20982L314.522 -10.584L374.116 47.2384L406.981 14.658L389.815 -9.33615L391.284 -10.4558L408.926 14.2056C408.939 14.2226 408.941 14.2433 408.953 14.2622L408.961 14.2565L435.834 57.5719L475.537 -12.7273L477.112 -11.7772L438.122 57.2571L495.468 29.7361L520.266 -10.4031L521.806 -9.39081L497.459 30.017L566.144 57.9074L557.24 -6.78197L559.047 -7.0478L568.055 58.3957L628.716 55.6191L709.414 -0.780163ZM567.446 60.3127L512.093 79.7772L573.793 124.084L627.006 57.5851L567.446 60.3127ZM495.519 31.7908L438.551 59.1308L508.754 78.1523L495.519 31.7908ZM373.974 49.7058L326.471 77.0798L441.172 117.768L373.974 49.7058ZM220.044 39.6927L128.42 104.699L320.45 76.8837L220.044 39.6927ZM72.0876 351.104L117.01 388.744L192.629 362.473L72.0876 245.346L72.0876 351.104ZM253.215 205.552L164.004 211.081L148.123 259.601L194.284 360.488L253.215 205.552ZM324.206 161.021L280.771 122.109L217.233 132.205L254.936 203.216L324.206 161.021ZM480.431 132.316L496.44 156.5C520.24 146.78 546.193 135.997 568.447 126.651L480.431 132.316ZM571.289 124.58L510.356 80.8253L480.482 130.425L571.289 124.58ZM478.194 132.276L445.26 121.194L423.813 184.612C430.206 183.136 459.977 171.383 494.699 157.211L478.194 132.276ZM163.949 209.194L253.095 203.669L215.193 132.284L126.202 107.577L163.949 209.194ZM215.856 130.518L280.619 120.226L321.629 78.6142L129.27 106.478L215.856 130.518ZM282.395 121.07L325.799 159.952L363.708 129.903L324.16 78.6915L282.395 121.07ZM365.396 129.066L440.648 119.575L326.909 79.2287L365.396 129.066ZM367.05 130.755L422.088 183.995L443.347 121.13L367.05 130.755ZM364.942 131.3L327.843 160.706C339.85 163.628 402.752 178.973 418.993 183.582L364.942 131.3ZM74.1662 244.777L191.479 358.767L146.509 260.485L74.1662 244.777ZM146.537 258.564L162.369 210.197L124.688 108.759L72.4288 242.473L146.537 258.564ZM478.375 130.354L508.659 80.0713L436.978 60.652L445.51 119.296L478.375 130.354ZM42.4733 196.297L70.9816 241.143L122.987 108.079L50.1073 143.896L42.4733 196.297ZM50.819 141.458L123.217 105.877L78.8437 54.6201L50.819 141.458ZM80.3566 53.54L124.854 104.942L216.483 39.934L80.3566 53.54ZM324.16 76.2542L371.842 48.7784L285.295 20.3074L222.889 38.7445L324.16 76.2542ZM375.435 48.5465L443.384 117.368L434.998 59.717L408.024 16.2395L375.435 48.5465ZM510.694 78.2768L564.62 59.3137L497.497 32.0584L510.694 78.2768Z" fill="url(#paint0_linear_40_17372)" fill-opacity="0.18"/>
<defs>
<linearGradient id="paint0_linear_40_17372" x1="-53.5573" y1="292.956" x2="505.113" y2="-55.3364" gradientUnits="userSpaceOnUse">
<stop stop-color="#B6B643"/>
<stop offset="1" stop-color="#281A1A"/>
<stop offset="1" stop-color="#9A9292" stop-opacity="0.28"/>
</linearGradient>
</defs>
</svg>
