<svg width="730" height="612" viewBox="0 0 730 612" fill="none" xmlns="http://www.w3.org/2000/svg">
<g clip-path="url(#clip0_40_17287)">
<mask id="mask0_40_17287" style="mask-type:luminance" maskUnits="userSpaceOnUse" x="0" y="-142" width="730" height="754">
<path d="M-6.10352e-05 -142L730 -142L730 612L4.88161e-06 612L-6.10352e-05 -142Z" fill="white"/>
</mask>
<g mask="url(#mask0_40_17287)">
<path d="M20.5859 612.78L19.562 611.219L100.36 554.745L155.331 486.048C155.355 486.018 155.393 486.006 155.421 485.98C155.464 485.939 155.508 485.91 155.557 485.876C155.605 485.844 155.64 485.797 155.691 485.774C189.345 471.611 297.006 426.555 307.226 425.449C307.25 425.439 307.266 425.419 307.292 425.413C307.47 425.366 307.653 425.398 307.825 425.466C307.852 425.473 307.896 425.475 307.916 425.485C310.819 426.983 377.965 443.479 404.084 449.829L474.673 406.831L534.783 248.792C534.792 248.77 534.813 248.755 534.823 248.732C534.86 248.655 534.906 248.585 534.962 248.519C534.99 248.485 535.017 248.455 535.048 248.427C535.066 248.412 535.077 248.389 535.097 248.374C535.157 248.329 535.227 248.302 535.292 248.274C535.311 248.266 535.324 248.249 535.344 248.242L535.378 248.229C535.382 248.229 535.386 248.227 535.386 248.227L612.658 221.379L735.703 79.7964L737.061 81.0556L614.492 222.089L658.916 259.311L735.94 215.32L736.824 216.97L661.112 260.21L740.309 286.404L739.753 288.2L659.737 261.74L659.737 366.505L729.345 292.151L730.657 293.461L659.989 368.946L688.954 414.512L739.983 411.247L740.096 413.128L689.277 416.38L681.725 468.225L740.475 501.213L739.603 502.87L681.247 470.104L652.614 558.826L740.536 617.807L739.541 619.387L651.738 560.486L606.019 622.467L604.566 621.327L649.534 560.368L510.945 574.221L506.436 640.343L504.616 640.211L509.087 574.635L446.161 593.227L467.651 625.608L466.145 626.671L444.119 593.48L359.437 565.621L416.728 621.21L415.478 622.584L355.884 564.762L323.019 597.342L340.185 621.336L338.716 622.456L321.074 597.794C321.061 597.777 321.059 597.757 321.047 597.738L321.039 597.744L294.166 554.428L254.463 624.727L252.888 623.777L291.878 554.743L234.532 582.264L209.734 622.403L208.194 621.391L232.541 581.983L163.856 554.093L172.76 618.782L170.953 619.048L161.945 553.604L101.284 556.381L20.5859 612.78ZM162.554 551.687L217.907 532.223L156.207 487.916L102.994 554.415L162.554 551.687ZM234.481 580.209L291.449 552.869L221.246 533.848L234.481 580.209ZM356.026 562.294L403.529 534.92L288.828 494.232L356.026 562.294ZM509.956 572.307L601.58 507.301L409.55 535.116L509.956 572.307ZM657.912 260.896L612.99 223.256L537.371 249.527L657.912 366.654L657.912 260.896ZM476.785 406.448L565.996 400.919L581.877 352.399L535.716 251.512L476.785 406.448ZM405.794 450.979L449.229 489.891L512.767 479.795L475.064 408.784L405.794 450.979ZM249.569 479.684L233.56 455.5C209.76 465.22 183.807 476.003 161.553 485.349L249.569 479.684ZM158.711 487.42L219.644 531.175L249.518 481.575L158.711 487.42ZM251.806 479.724L284.74 490.806L306.187 427.388C299.794 428.864 270.023 440.617 235.301 454.789L251.806 479.724ZM566.051 402.806L476.905 408.331L514.807 479.716L603.798 504.423L566.051 402.806ZM514.144 481.482L449.381 491.774L408.371 533.386L600.73 505.522L514.144 481.482ZM447.605 490.93L404.201 452.048L366.292 482.097L405.84 533.309L447.605 490.93ZM364.604 482.934L289.352 492.425L403.091 532.771L364.604 482.934ZM362.95 481.245L307.912 428.005L286.653 490.87L362.95 481.245ZM365.058 480.7L402.157 451.294C390.15 448.372 327.248 433.027 311.007 428.418L365.058 480.7ZM655.834 367.223L538.521 253.233L583.491 351.515L655.834 367.223ZM583.463 353.436L567.631 401.803L605.312 503.241L657.571 369.527L583.463 353.436ZM251.625 481.646L221.341 531.929L293.022 551.348L284.49 492.704L251.625 481.646ZM687.527 415.703L659.018 370.857L607.013 503.921L679.893 468.104L687.527 415.703ZM679.181 470.542L606.783 506.123L651.156 557.38L679.181 470.542ZM649.643 558.46L605.146 507.058L513.517 572.066L649.643 558.46ZM405.84 535.746L358.158 563.222L444.705 591.693L507.111 573.255L405.84 535.746ZM354.565 563.453L286.616 494.632L295.002 552.283L321.976 595.76L354.565 563.453ZM219.306 533.723L165.38 552.686L232.503 579.942L219.306 533.723Z" fill="url(#paint0_linear_40_17287)"/>
</g>
</g>
<defs>
<linearGradient id="paint0_linear_40_17287" x1="783.557" y1="319.044" x2="224.887" y2="667.336" gradientUnits="userSpaceOnUse">
<stop stop-color="#FFFF00"/>
<stop offset="1" stop-color="#ED1C24"/>
</linearGradient>
<clipPath id="clip0_40_17287">
<rect width="730" height="754" fill="white" transform="matrix(-1 8.74228e-08 8.74228e-08 1 730 -142)"/>
</clipPath>
</defs>
</svg>
