<svg width="730" height="677" viewBox="0 0 730 677" fill="none" xmlns="http://www.w3.org/2000/svg">
<g clip-path="url(#clip0_40_18975)">
<mask id="mask0_40_18975" style="mask-type:luminance" maskUnits="userSpaceOnUse" x="0" y="-677" width="730" height="754">
<path d="M-6.10352e-05 -677L730 -677L730 76.9999L-6.10352e-05 76.9999L-6.10352e-05 -677Z" fill="white"/>
</mask>
<g mask="url(#mask0_40_18975)">
<path d="M20.5863 77.7806L19.5625 76.2198L100.361 19.7452L155.332 -48.9517C155.355 -48.9819 155.394 -48.9932 155.421 -49.0196C155.465 -49.0611 155.509 -49.0893 155.558 -49.1233C155.605 -49.1553 155.64 -49.2025 155.691 -49.2251C189.346 -63.389 297.006 -108.444 307.226 -109.551C307.25 -109.56 307.266 -109.581 307.292 -109.586C307.471 -109.634 307.653 -109.602 307.825 -109.534C307.852 -109.526 307.896 -109.524 307.916 -109.515C310.82 -108.016 377.965 -91.5207 404.085 -85.1701L474.674 -128.169L534.784 -286.207C534.793 -286.23 534.813 -286.245 534.824 -286.268C534.86 -286.345 534.906 -286.415 534.963 -286.481C534.99 -286.514 535.017 -286.545 535.048 -286.573C535.067 -286.588 535.078 -286.611 535.098 -286.626C535.158 -286.671 535.227 -286.697 535.293 -286.726C535.311 -286.733 535.324 -286.75 535.344 -286.758L535.379 -286.771C535.382 -286.771 535.386 -286.773 535.386 -286.773L612.658 -313.621L735.704 -455.203L737.061 -453.944L614.492 -312.91L658.917 -275.689L735.941 -319.679L736.824 -318.03L661.112 -274.79L740.31 -248.596L739.753 -246.799L659.738 -273.259V-168.495L729.345 -242.848L730.657 -241.538L659.99 -166.054L688.954 -120.487L739.983 -123.752L740.096 -121.871L689.277 -118.619L681.726 -66.7744L740.476 -33.7869L739.604 -32.13L681.247 -64.8951L652.615 23.8262L740.536 82.8079L739.542 84.3875L651.739 25.4869L606.019 87.4676L604.566 86.3272L649.534 25.3682L510.946 39.221L506.436 105.343L504.617 105.211L509.088 39.6357L446.162 58.2275L467.651 90.608L466.146 91.6711L444.12 58.48L359.438 30.6217L416.728 86.2103L415.478 87.5845L355.885 29.7621L323.02 62.3424L340.186 86.3366L338.717 87.4563L321.074 62.7948C321.062 62.7779 321.06 62.7571 321.047 62.7383L321.04 62.744L294.167 19.4285L254.464 89.7277L252.889 88.7776L291.878 19.7433L234.533 47.2643L209.735 87.4035L208.195 86.3913L232.542 46.9834L163.856 19.093L172.76 83.7824L170.954 84.0482L161.945 18.6048L101.284 21.3814L20.5863 77.7806ZM162.555 16.6877L217.907 -2.77675L156.208 -47.0837L102.994 19.4153L162.555 16.6877ZM234.482 45.2097L291.449 17.8697L221.247 -1.15188L234.482 45.2097ZM356.027 27.2947L403.53 -0.0793173L288.829 -40.7671L356.027 27.2947ZM509.956 37.3077L601.581 -27.6984L409.55 0.11673L509.956 37.3077ZM657.913 -274.104L612.991 -311.743L537.372 -285.472L657.913 -168.346V-274.104ZM476.785 -128.551L565.997 -134.08L581.878 -182.6L535.716 -283.487L476.785 -128.551ZM405.795 -84.0203L449.23 -45.1082L512.767 -55.2043L475.064 -126.216L405.795 -84.0203ZM249.569 -55.3155L233.56 -79.5C209.76 -69.7791 183.807 -58.9969 161.553 -49.6511L249.569 -55.3155ZM158.711 -47.5794L219.645 -3.82481L249.518 -53.4248L158.711 -47.5794ZM251.807 -55.2759L284.741 -44.194L306.188 -107.611C299.795 -106.135 270.024 -94.3821 235.301 -80.2107L251.807 -55.2759ZM566.052 -132.193L476.906 -126.668L514.807 -55.2834L603.798 -30.5768L566.052 -132.193ZM514.145 -53.5172L449.381 -43.2251L408.372 -1.6137L600.73 -29.4778L514.145 -53.5172ZM447.605 -44.0696L404.201 -82.9515L366.292 -52.9027L405.84 -1.69101L447.605 -44.0696ZM364.604 -52.0657L289.352 -42.5748L403.092 -2.22824L364.604 -52.0657ZM362.951 -53.7547L307.913 -106.995L286.653 -44.1299L362.951 -53.7547ZM365.059 -54.2995L402.157 -83.7055C390.151 -86.6272 327.248 -101.973 311.008 -106.582L365.059 -54.2995ZM655.834 -167.776L538.521 -281.766L583.491 -183.484L655.834 -167.776ZM583.464 -181.563L567.632 -133.196L605.313 -31.7586L657.572 -165.473L583.464 -181.563ZM251.626 -53.3532L221.342 -3.07082L293.022 16.3484L284.49 -42.2958L251.626 -53.3532ZM687.527 -119.296L659.019 -164.142L607.014 -31.0782L679.893 -66.895L687.527 -119.296ZM679.181 -64.4577L606.784 -28.8765L651.157 22.3804L679.181 -64.4577ZM649.644 23.4605L605.147 -27.9415L513.517 37.0665L649.644 23.4605ZM405.84 0.746291L358.158 28.222L444.705 56.6931L507.111 38.2559L405.84 0.746291ZM354.565 28.4539L286.617 -40.3675L295.003 17.2834L321.976 60.7609L354.565 28.4539ZM219.307 -1.27631L165.38 17.6868L232.503 44.942L219.307 -1.27631Z" fill="url(#paint0_linear_40_18975)"/>
</g>
</g>
<mask id="mask1_40_18975" style="mask-type:luminance" maskUnits="userSpaceOnUse" x="0" y="-77" width="730" height="754">
<path d="M-6.10352e-05 677L730 677L730 -76.9999L4.88161e-06 -77L-6.10352e-05 677Z" fill="white"/>
</mask>
<g mask="url(#mask1_40_18975)">
<path d="M20.5864 -77.7802L19.5625 -76.2194L100.361 -19.7448L155.332 48.9521C155.355 48.9823 155.394 48.9936 155.421 49.02C155.465 49.0615 155.509 49.0898 155.558 49.1237C155.605 49.1557 155.64 49.2029 155.691 49.2255C189.346 63.3894 297.006 108.445 307.226 109.551C307.25 109.561 307.267 109.581 307.292 109.587C307.471 109.634 307.653 109.602 307.825 109.534C307.852 109.527 307.896 109.525 307.916 109.515C310.82 108.017 377.965 91.5212 404.085 85.1706L474.674 128.169L534.784 286.208C534.793 286.23 534.813 286.245 534.824 286.268C534.86 286.345 534.906 286.415 534.963 286.481C534.99 286.515 535.017 286.545 535.048 286.573C535.067 286.588 535.078 286.611 535.098 286.626C535.158 286.671 535.227 286.698 535.293 286.726C535.311 286.734 535.324 286.751 535.344 286.758L535.379 286.771C535.382 286.771 535.386 286.773 535.386 286.773L612.658 313.621L735.704 455.204L737.061 453.944L614.493 312.911L658.917 275.689L735.941 319.68L736.824 318.03L661.112 274.79L740.31 248.596L739.753 246.8L659.738 273.26L659.738 168.495L729.345 242.849L730.657 241.539L659.99 166.054L688.954 120.488L739.983 123.753L740.096 121.872L689.277 118.62L681.726 66.7749L740.476 33.7874L739.604 32.1305L681.247 64.8955L652.615 -23.8257L740.536 -82.8074L739.542 -84.387L651.739 -25.4864L606.019 -87.4671L604.566 -86.3267L649.534 -25.3677L510.946 -39.2206L506.436 -105.343L504.617 -105.211L509.088 -39.6353L446.162 -58.227L467.651 -90.6075L466.146 -91.6707L444.12 -58.4796L359.438 -30.6212L416.728 -86.2098L415.478 -87.584L355.885 -29.7616L323.02 -62.342L340.186 -86.3362L338.717 -87.4558L321.074 -62.7944C321.062 -62.7774 321.06 -62.7567 321.047 -62.7378L321.04 -62.7435L294.167 -19.4281L254.464 -89.7273L252.889 -88.7772L291.878 -19.7429L234.533 -47.2639L209.735 -87.4031L208.195 -86.3908L232.542 -46.983L163.856 -19.0926L172.76 -83.782L170.954 -84.0478L161.945 -18.6043L101.284 -21.3809L20.5864 -77.7802ZM162.555 -16.6873L217.907 2.77719L156.208 47.0841L102.994 -19.4149L162.555 -16.6873ZM234.482 -45.2092L291.449 -17.8692L221.247 1.15233L234.482 -45.2092ZM356.027 -27.2942L403.53 0.0797761L288.829 40.7675L356.027 -27.2942ZM509.957 -37.3073L601.581 27.6988L409.55 -0.116271L509.957 -37.3073ZM657.913 274.104L612.991 311.744L537.372 285.473L657.913 168.346L657.913 274.104ZM476.785 128.552L565.997 134.081L581.878 182.601L535.716 283.488L476.785 128.552ZM405.795 84.0207L449.23 45.1087L512.767 55.2048L475.064 126.216L405.795 84.0207ZM249.569 55.3159L233.56 79.5005C209.76 69.7795 183.807 58.9973 161.553 49.6515L249.569 55.3159ZM158.711 47.5799L219.645 3.82525L249.518 53.4253L158.711 47.5799ZM251.807 55.2764L284.741 44.1944L306.188 107.612C299.795 106.136 270.024 94.3826 235.301 80.2111L251.807 55.2764ZM566.052 132.194L476.906 126.669L514.807 55.2839L603.798 30.5772L566.052 132.194ZM514.145 53.5176L449.381 43.2256L408.372 1.61416L600.73 29.4783L514.145 53.5176ZM447.605 44.07L404.201 82.9519L366.293 52.9031L405.84 1.69147L447.605 44.07ZM364.604 52.0662L289.352 42.5752L403.092 2.2287L364.604 52.0662ZM362.951 53.7552L307.913 106.995L286.653 44.1304L362.951 53.7552ZM365.059 54.2999L402.157 83.7059C390.151 86.6277 327.248 101.973 311.008 106.582L365.059 54.2999ZM655.834 167.777L538.521 281.767L583.491 183.485L655.834 167.777ZM583.464 181.564L567.632 133.197L605.313 31.7591L657.572 165.473L583.464 181.564ZM251.626 53.3537L221.342 3.07127L293.022 -16.348L284.491 42.2962L251.626 53.3537ZM687.527 119.297L659.019 164.143L607.014 31.0786L679.893 66.8955L687.527 119.297ZM679.181 64.4582L606.784 28.877L651.157 -22.3799L679.181 64.4582ZM649.644 -23.46L605.147 27.942L513.517 -37.066L649.644 -23.46ZM405.84 -0.745832L358.159 -28.2216L444.705 -56.6926L507.111 -38.2555L405.84 -0.745832ZM354.565 -28.4535L286.617 40.3679L295.003 -17.283L321.976 -60.7605L354.565 -28.4535ZM219.307 1.27675L165.38 -17.6863L232.504 -44.9416L219.307 1.27675Z" fill="url(#paint1_linear_40_18975)"/>
</g>
<defs>
<linearGradient id="paint0_linear_40_18975" x1="783.558" y1="-215.956" x2="224.887" y2="132.337" gradientUnits="userSpaceOnUse">
<stop stop-color="white" stop-opacity="0.04"/>
<stop offset="1" stop-color="white" stop-opacity="0.2"/>
</linearGradient>
<linearGradient id="paint1_linear_40_18975" x1="783.558" y1="215.956" x2="224.887" y2="-132.336" gradientUnits="userSpaceOnUse">
<stop stop-color="#FFFF00"/>
<stop offset="1" stop-color="#ED1C24"/>
</linearGradient>
<clipPath id="clip0_40_18975">
<rect width="730" height="754" fill="white" transform="matrix(-1 0 0 1 730 -678)"/>
</clipPath>
</defs>
</svg>
