<svg width="143" height="142" viewBox="0 0 143 142" fill="none" xmlns="http://www.w3.org/2000/svg">
<g id="Group">
<path id="Vector" d="M137.07 76.2518C140.01 40.1212 113.102 8.44827 76.9708 5.50829C40.8391 2.56831 9.16538 29.4746 6.22549 65.6052C3.2856 101.736 30.1928 133.409 66.3245 136.349C102.456 139.289 134.13 112.382 137.07 76.2518Z" fill="white"/>
<g id="Group_2">
<path id="Vector_2" d="M110.406 42.2474L100.876 47.0136L98.7446 42.751L108.277 37.9849L110.406 42.2474Z" fill="black"/>
<path id="Vector_3" d="M108.275 80.3769L98.7427 75.6107L100.874 71.3481L110.406 76.1143L108.275 80.3769Z" fill="black"/>
<path id="Vector_4" d="M102.191 56.7969H111.883V61.563H102.191V56.7969Z" fill="black"/>
<path id="Vector_5" d="M34.1499 37.9849L43.6822 42.751L41.5509 47.0136L32.0205 42.2474L34.1499 37.9849Z" fill="black"/>
<path id="Vector_6" d="M34.1498 80.3749L32.0186 76.1124L41.5509 71.3462L43.6822 75.6087L34.1498 80.3749Z" fill="black"/>
<path id="Vector_7" d="M30.542 56.7969H40.2333V61.563H30.542V56.7969Z" fill="black"/>
<path id="Vector_8" d="M64.064 109.541H78.3625V114.307H64.064V109.541Z" fill="black"/>
<path id="Vector_9" d="M97.4255 59.1807C97.4255 44.7271 85.6661 32.9678 71.2125 32.9678C56.7589 32.9678 44.9995 44.7271 44.9995 59.1807C44.9995 69.0367 50.5623 78.0233 59.298 82.4965V90.1599H54.5318V94.9261H59.298V104.776H83.1269V94.9261H87.8931V90.1599H83.1269V82.4965C91.8627 78.0233 97.4255 69.0367 97.4255 59.1807ZM78.3608 100.008H64.0623V94.9241H78.3608V100.008ZM68.8284 63.9469C68.8284 62.6333 69.8969 61.5648 71.2106 61.5648C72.5242 61.5648 73.5927 62.6333 73.5927 63.9469C73.5927 65.2605 72.5242 66.329 71.2106 66.329C69.8989 66.329 68.8284 65.2605 68.8284 63.9469ZM73.5946 90.1599V70.6873C76.3693 69.7031 78.3608 67.0548 78.3608 63.9469C78.3608 60.0041 75.1533 56.7986 71.2125 56.7986C67.2716 56.7986 64.0642 60.0061 64.0642 63.9469C64.0642 67.0529 66.0557 69.7012 68.8304 70.6873V90.1599H64.0642V79.4346L62.6395 78.8084C54.8191 75.375 49.7676 67.6714 49.7676 59.1807C49.7676 47.3563 59.388 37.7339 71.2144 37.7339C83.0408 37.7339 92.6612 47.3563 92.6612 59.1807C92.6612 67.6714 87.6078 75.375 79.7893 78.8084L78.3646 79.4346V90.1599H73.5946Z" fill="black"/>
</g>
</g>
</svg>
