<svg width="68" height="648" viewBox="0 0 68 648" fill="none" xmlns="http://www.w3.org/2000/svg">
<path fill-rule="evenodd" clip-rule="evenodd" d="M34 0C52.7777 0 68 15.2219 68 33.999C68 46.5232 61.2279 57.4658 51.1456 63.3648C44.7244 67.1218 39 73.1448 39 80.5843V103.414C39 110.853 44.7244 116.876 51.1456 120.633C61.2279 126.532 68 137.475 68 149.999C68 162.523 61.2279 173.466 51.1456 179.365C44.7244 183.122 39 189.145 39 196.584V219.414C39 226.853 44.7244 232.876 51.1456 236.633C61.2279 242.532 68 253.475 68 265.999C68 278.523 61.2279 289.466 51.1456 295.365C44.7244 299.122 39 305.145 39 312.584V335.414C39 342.853 44.7244 348.876 51.1456 352.633C61.2279 358.532 68 369.475 68 381.999C68 394.523 61.2279 405.466 51.1456 411.365C44.7244 415.122 39 421.145 39 428.584V451.414C39 458.853 44.7244 464.876 51.1456 468.633C61.2279 474.532 68 485.475 68 497.999C68 510.523 61.2279 521.466 51.1456 527.365C44.7244 531.122 39 537.145 39 544.584V567.414C39 574.853 44.7244 580.876 51.1456 584.633C61.2279 590.532 68 601.475 68 613.999C68 632.776 52.7777 647.998 34 647.998C15.2223 647.998 0 632.776 0 613.999C-1.5387e-06 601.475 6.77211 590.532 16.8544 584.633C23.2756 580.876 29 574.853 29 567.414V544.584C29 537.145 23.2756 531.122 16.8544 527.365C6.77211 521.466 0 510.523 0 497.999C-1.5387e-06 485.475 6.77212 474.532 16.8544 468.633C23.2756 464.876 29 458.853 29 451.414V428.584C29 421.145 23.2756 415.122 16.8544 411.365C6.77212 405.466 0 394.523 0 381.999C-1.5387e-06 369.475 6.77212 358.532 16.8544 352.633C23.2756 348.876 29 342.853 29 335.414V312.584C29 305.145 23.2756 299.122 16.8544 295.365C6.77212 289.466 0 278.523 0 265.999C-1.5387e-06 253.475 6.77212 242.532 16.8544 236.633C23.2756 232.876 29 226.853 29 219.414V196.584C29 189.145 23.2756 183.122 16.8544 179.365C6.77212 173.466 0 162.523 0 149.999C0 137.475 6.77212 126.532 16.8544 120.633C23.2756 116.876 29 110.853 29 103.414V80.5843C29 73.1447 23.2756 67.1218 16.8544 63.3648C6.77212 57.4658 0 46.5232 0 33.999C-2.30692e-06 15.2219 15.2223 0 34 0Z" fill="#FF980E"/>
<path d="M58.1637 498.081C58.1637 484.782 47.3819 474 34.0818 474C20.7818 474 10 484.782 10 498.081C10 511.381 20.7818 522.162 34.0818 522.162C47.3819 522.162 58.1637 511.381 58.1637 498.081Z" fill="white"/>
<path d="M32.2809 489.779C32.8057 489.287 33.1338 488.588 33.1338 487.813C33.1338 486.787 32.5585 485.893 31.7133 485.437L33.6685 481.396H23.6023L25.5575 485.437C24.7124 485.893 24.137 486.787 24.137 487.813C24.137 488.588 24.4658 489.287 24.9906 489.78C20.1338 493.498 18.7393 499.384 18.7393 505.5V510.302H34.9317V512.101H49.4449C49.4449 509.783 49.4449 496.24 49.4449 494.11H36.036C35.07 492.401 33.8132 490.952 32.2809 489.779ZM26.8369 488.712C26.3409 488.712 25.9369 488.308 25.9369 487.813C25.9369 487.317 26.3409 486.913 26.8369 486.913H30.4353C30.9313 486.913 31.3346 487.317 31.3346 487.813C31.3346 488.309 30.9306 488.712 30.4353 488.712H26.8369ZM30.7999 483.195L29.8712 485.114H27.401L26.4722 483.195H30.7999ZM20.5399 508.503V505.5C20.5399 498.172 22.6834 493.266 27.0905 490.511H30.1817C32.2901 491.827 33.8469 493.589 34.9331 495.886V508.502L20.5399 508.503ZM47.6471 510.301H36.7323V506.703H47.6471V510.301ZM36.7323 504.904V501.306H47.6471V504.904H36.7323ZM47.6471 495.909V499.507H36.7323V495.909H47.6471Z" fill="black"/>
<path d="M28.6362 498.607C29.1322 498.607 29.5362 499.011 29.5362 499.507H31.3354C31.3354 498.334 30.5837 497.334 29.5362 496.963V495.908H27.7369V496.963C26.6901 497.334 25.9377 498.334 25.9377 499.507C25.9377 500.995 27.1482 502.205 28.6362 502.205C29.1322 502.205 29.5362 502.608 29.5362 503.104C29.5362 503.6 29.1322 504.004 28.6362 504.004C28.1402 504.004 27.7369 503.6 27.7369 503.104H25.9377C25.9377 504.277 26.6894 505.277 27.7369 505.648V506.703H29.5362V505.648C30.583 505.277 31.3354 504.277 31.3354 503.104C31.3354 501.616 30.1249 500.406 28.6369 500.406C28.1409 500.406 27.7377 500.002 27.7377 499.507C27.7363 499.011 28.1402 498.607 28.6362 498.607Z" fill="black"/>
<path d="M34.0813 406.163C47.3811 406.163 58.1626 395.381 58.1626 382.081C58.1626 368.782 47.3811 358 34.0813 358C20.7816 358 10 368.782 10 382.081C10 395.381 20.7816 406.163 34.0813 406.163Z" fill="white"/>
<path d="M43.9384 373.142L45.472 371.608L46.854 372.99L48.2359 371.608L44.0901 367.463L42.7082 368.844L44.0901 370.226L42.4272 371.889C40.7411 370.67 38.828 369.833 36.7955 369.423V367.111H38.75V365.157H28.9776V367.111H30.9321V369.423C28.8996 369.833 26.9865 370.67 25.3004 371.889L23.6375 370.226L25.0194 368.844L23.6375 367.463L19.4917 371.609L20.8736 372.991L22.2556 371.609L23.7892 373.143C20.9067 375.874 19.2051 379.644 19.2051 383.79C19.2051 391.908 25.781 398.513 33.8638 398.513C41.9466 398.513 48.5225 391.908 48.5225 383.79C48.5225 379.844 46.9657 376.011 43.9384 373.142ZM32.8865 367.111H34.841V369.163C34.5172 369.142 34.1912 369.13 33.8638 369.13C33.5364 369.13 33.2104 369.142 32.8865 369.163V367.111ZM33.8638 396.559C26.8587 396.559 21.1596 390.83 21.1596 383.79C21.1596 376.785 26.8587 371.086 33.8638 371.086C40.8689 371.086 46.568 376.785 46.568 383.79C46.568 390.83 40.8689 396.559 33.8638 396.559Z" fill="black"/>
<path d="M34.8406 381.026V373.04H32.8861V381.026C31.7487 381.43 30.9316 382.516 30.9316 383.79C30.9316 385.406 32.2468 386.721 33.8634 386.721C35.48 386.721 36.7951 385.406 36.7951 383.79C36.7951 382.515 35.9781 381.429 34.8406 381.026ZM33.8634 384.766C33.3245 384.766 32.8861 384.328 32.8861 383.789C32.8861 383.25 33.3245 382.812 33.8634 382.812C34.4022 382.812 34.8406 383.25 34.8406 383.789C34.8406 384.328 34.4022 384.766 33.8634 384.766Z" fill="black"/>
<path d="M32.8867 392.584H34.8412V394.538H32.8867V392.584Z" fill="black"/>
<path d="M23.1152 382.812H25.0697V384.767H23.1152V382.812Z" fill="black"/>
<path d="M42.6582 382.812H44.6127V384.767H42.6582V382.812Z" fill="black"/>
<path d="M26.9542 392.082L25.5723 390.7L26.9542 389.318L28.3361 390.7L26.9542 392.082Z" fill="black"/>
<path d="M40.7735 378.262L39.3916 376.88L40.7735 375.498L42.1554 376.88L40.7735 378.262Z" fill="black"/>
<path d="M40.7735 392.082L39.3916 390.7L40.7735 389.318L42.1554 390.7L40.7735 392.082Z" fill="black"/>
<path d="M26.9542 378.262L25.5723 376.88L26.9542 375.498L28.3361 376.88L26.9542 378.262Z" fill="black"/>
<path d="M34.0813 638.163C47.381 638.163 58.1626 627.381 58.1626 614.081C58.1626 600.782 47.381 590 34.0813 590C20.7816 590 10 600.782 10 614.081C10 627.381 20.7816 638.163 34.0813 638.163Z" fill="white"/>
<path d="M30.1157 613.538L34.0802 611.454L38.0447 613.538L37.2874 609.123L40.4945 605.997L36.0621 605.353L34.0802 601.336L32.0983 605.353L27.6659 605.997L30.8731 609.123L30.1157 613.538ZM33.2927 606.997L34.0802 605.402L34.8678 606.997L36.6291 607.253L35.3547 608.495L35.6553 610.25L34.0802 609.421L32.5051 610.25L32.8058 608.495L31.5314 607.253L33.2927 606.997Z" fill="black"/>
<path d="M23.2261 602.469C20.7461 602.469 18.7284 604.487 18.7284 606.967C18.7284 609.447 20.7461 611.465 23.2261 611.465H24.502C25.4427 614.76 28.0632 617.361 31.3814 618.291L31.3814 622.259H28.0323L26.2331 627.717H24.1851V629.516H43.9746V627.717H41.9266L40.1274 622.259H36.7784V618.287C40.0691 617.354 42.6664 614.756 43.6001 611.465H44.9335C47.4135 611.465 49.4313 609.448 49.4313 606.968C49.4313 604.488 47.4135 602.47 44.9335 602.47H43.9739V600.611H45.8328V598.812C44.5633 598.812 24.1823 598.812 22.3255 598.812V600.611H24.1247V602.47H23.2261V602.469ZM23.2261 609.666C21.7381 609.666 20.5276 608.455 20.5276 606.967C20.5276 605.479 21.7381 604.269 23.2261 604.269H24.1254V608.766C24.1254 609.07 24.1401 609.37 24.1668 609.666H23.2261ZM40.0325 627.715H28.1278L29.3334 624.057H38.827L40.0325 627.715ZM34.9798 622.259H33.1806V618.62C33.4771 618.646 33.7771 618.66 34.0799 618.66C34.3834 618.66 34.6833 618.646 34.9791 618.619V622.259H34.9798ZM44.9342 604.269C46.4222 604.269 47.6327 605.479 47.6327 606.967C47.6327 608.455 46.4222 609.666 44.9342 609.666H43.9338C43.9605 609.369 43.9753 609.069 43.9753 608.766V604.269H44.9342ZM42.176 600.61V608.766C42.176 613.23 38.5445 616.862 34.0805 616.862C29.5835 616.862 25.9246 613.23 25.9246 608.766V600.61H42.176Z" fill="black"/>
<path d="M58.1637 266.081C58.1637 252.781 47.3819 242 34.0818 242C20.7818 242 10 252.782 10 266.081C10 279.381 20.7818 290.162 34.0818 290.162C47.3819 290.162 58.1637 279.381 58.1637 266.081Z" fill="white"/>
<path d="M49.2188 278.73H47.4765V265.965L49.2188 267.707V257.763H39.2749L42.3992 260.888L39.3887 263.898L32.6456 258.883L21.225 267.001V250.736H19.4827L19.4827 280.472H49.2181V278.73H49.2188ZM31.7379 265.949L31.7379 278.73H26.511L26.511 269.665L31.7379 265.949ZM33.4803 266.032L38.7655 269.963V278.73H33.4803V266.032ZM40.5072 270.171L45.7341 264.944V278.73H40.5072V270.171ZM32.6225 261.037L39.5566 266.194L44.863 260.888L43.4818 259.506H47.4765V263.5L46.0946 262.119L39.7154 268.498L32.5951 263.201L21.2257 271.284V269.139L32.6225 261.037ZM21.2257 273.422L24.7687 270.903V278.73H21.2257V273.422Z" fill="black"/>
<path d="M58.1637 34.081C58.1637 20.7813 47.3819 9.9998 34.0819 9.99981C20.7818 9.99981 10 20.7813 10 34.081C10 47.3806 20.7818 58.1621 34.0819 58.1621C47.3819 58.1621 58.1637 47.3806 58.1637 34.081Z" fill="white"/>
<path d="M48.1566 23.5941L44.66 25.3427L43.8781 23.7789L47.3754 22.0302L48.1566 23.5941Z" fill="black"/>
<path d="M47.3742 37.5835L43.877 35.8349L44.6589 34.271L48.1562 36.0196L47.3742 37.5835Z" fill="black"/>
<path d="M45.1436 28.9321H48.6992V30.6808H45.1436V28.9321Z" fill="black"/>
<path d="M20.1787 22.0303L23.676 23.7789L22.8941 25.3428L19.3975 23.5941L20.1787 22.0303Z" fill="black"/>
<path d="M20.1794 37.5825L19.3975 36.0187L22.8948 34.27L23.6767 35.8339L20.1794 37.5825Z" fill="black"/>
<path d="M18.8555 28.9321H22.4111V30.6807H18.8555V28.9321Z" fill="black"/>
<path d="M31.1543 48.2837H36.4002V50.0323H31.1543V48.2837Z" fill="black"/>
<path d="M43.3946 29.8071C43.3946 24.5043 39.0802 20.1899 33.7774 20.1899C28.4745 20.1899 24.1602 24.5043 24.1602 29.8071C24.1602 33.4232 26.2011 36.7202 29.4061 38.3614L29.4061 41.173H27.6574V42.9216H29.4061V46.5356H38.1486V42.9216H39.8973V41.173H38.1486V38.3614C41.3537 36.7202 43.3946 33.4232 43.3946 29.8071ZM36.4 44.7862H31.154V42.9209H36.4V44.7862ZM32.9027 31.5558C32.9027 31.0738 33.2947 30.6818 33.7767 30.6818C34.2586 30.6818 34.6506 31.0738 34.6506 31.5558C34.6506 32.0377 34.2586 32.4298 33.7767 32.4298C33.2954 32.4298 32.9027 32.0377 32.9027 31.5558ZM34.6513 41.173V34.0288C35.6693 33.6677 36.4 32.696 36.4 31.5558C36.4 30.1092 35.2232 28.9332 33.7774 28.9332C32.3315 28.9332 31.1547 30.1099 31.1547 31.5558C31.1547 32.6953 31.8854 33.667 32.9034 34.0288V41.173H31.1547L31.1547 37.238L30.632 37.0083C27.7628 35.7486 25.9095 32.9222 25.9095 29.8071C25.9095 25.4689 29.4391 21.9386 33.7781 21.9386C38.117 21.9386 41.6466 25.4689 41.6466 29.8071C41.6466 32.9222 39.7926 35.7486 36.9241 37.0083L36.4014 37.238V41.173H34.6513Z" fill="black"/>
<path d="M34.082 174.164C47.3821 174.164 58.164 163.382 58.164 150.082C58.164 136.782 47.3821 126 34.082 126C20.7819 126 10 136.782 10 150.082C10 163.382 20.7819 174.164 34.082 174.164Z" fill="white"/>
<path d="M34.0756 145.575C31.6462 145.575 29.6699 147.552 29.6699 149.981C29.6699 152.41 31.6462 154.387 34.0756 154.387C36.505 154.387 38.4813 152.41 38.4813 149.981C38.4813 147.551 36.505 145.575 34.0756 145.575ZM34.0756 152.625C32.6178 152.625 31.4319 151.439 31.4319 149.981C31.4319 148.523 32.6178 147.337 34.0756 147.337C35.5334 147.337 36.7193 148.523 36.7193 149.981C36.7193 151.439 35.5334 152.625 34.0756 152.625Z" fill="black"/>
<path d="M34.0754 151.227L32.8291 149.98L34.0754 148.734L35.3218 149.98L34.0754 151.227Z" fill="black"/>
<path d="M41.9526 155.673C42.0531 153.903 41.9716 152.137 41.7053 150.384C41.0358 145.978 39.2232 141.78 36.3196 137.908L34.0749 134.916L31.8303 137.908C28.9259 141.78 27.1141 145.978 26.4445 150.384C26.1783 152.137 26.0968 153.903 26.1972 155.673C25.1743 156.411 24.3186 157.371 23.7039 158.476C22.9943 159.752 22.6191 161.199 22.6191 162.661V165.024L24.4486 163.683C25.364 163.076 26.4024 162.668 27.4829 162.485C27.8166 163.525 28.0632 164.118 28.3983 165.026C28.98 164.637 30.3767 162.912 33.1932 162.574V165.018H34.9552V162.574C37.7802 162.913 39.1747 164.641 39.7501 165.026C40.0867 164.113 40.3311 163.525 40.6655 162.485C41.7461 162.668 42.7837 163.075 43.6999 163.683L45.53 165.024V162.661C45.53 159.894 44.2001 157.295 41.9526 155.673ZM24.4563 161.645C24.6734 160.176 25.357 158.832 26.4052 157.796C26.5436 158.792 26.7396 159.788 26.9932 160.783C26.1122 160.951 25.2572 161.241 24.4563 161.645ZM38.9218 162.151C37.7001 161.386 36.3399 160.937 34.9559 160.803V156.208H33.1932V160.803C31.8085 160.937 30.4491 161.386 29.2273 162.151C26.5984 154.137 28.0049 145.946 33.2396 138.966L34.0742 137.853L34.9089 138.966C40.1443 145.946 41.5508 154.137 38.9218 162.151ZM41.1559 160.783C41.4095 159.788 41.6056 158.792 41.744 157.797C42.7922 158.832 43.4758 160.177 43.6928 161.645C42.8926 161.241 42.0376 160.951 41.1559 160.783Z" fill="black"/>
<path d="M19.0371 142.051H24.3828V143.813H19.0371V142.051Z" fill="black"/>
<path d="M43.7695 142.051H49.1152V143.813H43.7695V142.051Z" fill="black"/>
<path d="M20.8714 135.802L25.6628 138.036L24.9181 139.633L20.126 137.399L20.8714 135.802Z" fill="black"/>
<path d="M47.2797 150.061L42.4883 147.827L43.233 146.229L48.0244 148.464L47.2797 150.061Z" fill="black"/>
<path d="M20.127 148.463L24.9183 146.229L25.663 147.826L20.8717 150.06L20.127 148.463Z" fill="black"/>
<path d="M47.2804 135.802L48.0251 137.399L43.233 139.633L42.4883 138.036L47.2804 135.802Z" fill="black"/>
</svg>
