<svg width="1239" height="273" viewBox="0 0 1239 273" fill="none" xmlns="http://www.w3.org/2000/svg">
<path d="M1238.04 176.479C1234.59 133.245 1199.41 98.3169 1156.16 95.1516C1131.32 93.3343 1108.43 101.794 1091.29 116.708C1079.8 126.705 1063.45 128.905 1049.55 122.684C1035.39 116.349 1026.51 102.323 1026.16 86.816C1026.13 85.1692 1026.05 83.5128 1025.92 81.8469C1022.56 38.1816 986.848 2.96665 943.142 0.184313C891.559 -3.09973 848.541 37.9326 848.541 88.8248V89.0545C848.558 103.144 840.286 115.926 827.423 121.681L822.705 123.791C810.143 129.411 795.244 127.465 785.087 118.18C778.454 112.116 770.89 107.056 762.652 103.209C762.566 103.169 762.48 103.125 762.393 103.085C761.48 102.662 760.553 102.262 759.623 101.867C759.27 101.718 758.922 101.565 758.568 101.419C757.84 101.124 757.105 100.845 756.369 100.569C755.797 100.352 755.224 100.136 754.648 99.9311C754.077 99.7301 753.501 99.5405 752.924 99.3509C752.168 99.1001 751.412 98.8569 750.646 98.6271C750.201 98.4931 749.753 98.3686 749.305 98.2422C748.405 97.9875 747.501 97.7424 746.59 97.5165C746.234 97.4284 745.874 97.3441 745.516 97.2599C744.52 97.0262 743.518 96.806 742.511 96.6069C742.191 96.5437 741.872 96.4843 741.552 96.4231C740.522 96.2316 739.488 96.0554 738.446 95.9003C738.105 95.8486 737.764 95.8007 737.423 95.7528C736.429 95.6169 735.432 95.4962 734.43 95.3948C733.998 95.3507 733.565 95.3086 733.132 95.2684C732.722 95.232 732.316 95.1803 731.905 95.1496C731.479 95.119 731.062 95.1152 730.639 95.0903C729.892 95.0443 729.141 95.0099 728.389 94.9831C727.686 94.9582 726.983 94.9409 726.284 94.9333C725.928 94.9294 725.578 94.9084 725.222 94.9084C724.745 94.9084 724.274 94.9333 723.799 94.9409C723.186 94.9505 722.575 94.9601 721.966 94.9831C721.062 95.0156 720.164 95.0692 719.268 95.1286C718.736 95.165 718.203 95.1937 717.673 95.2396C716.664 95.3258 715.662 95.435 714.663 95.5556C714.251 95.6054 713.836 95.6437 713.426 95.6992C712.196 95.8639 710.979 96.0573 709.766 96.2699C709.59 96.3005 709.412 96.3254 709.236 96.356C704.906 97.1469 700.688 98.2556 696.6 99.6516C696.584 99.6573 696.569 99.663 696.554 99.6688C695.225 100.125 693.911 100.611 692.609 101.128C692.506 101.17 692.402 101.214 692.299 101.256C691.085 101.743 689.884 102.254 688.697 102.792C688.563 102.853 688.431 102.916 688.297 102.978C687.132 103.512 685.98 104.071 684.844 104.653C684.724 104.716 684.603 104.78 684.48 104.841C683.322 105.442 682.179 106.066 681.051 106.718C680.966 106.765 680.882 106.813 680.8 106.863C679.615 107.55 678.446 108.265 677.298 109.004C677.28 109.015 677.261 109.027 677.244 109.038C673.546 111.422 670.025 114.055 666.731 116.947C666.279 117.341 665.81 117.705 665.345 118.077C653.976 126.881 638.536 128.609 625.299 122.686C611.14 116.351 602.259 102.325 601.914 86.8179C601.878 85.1711 601.795 83.5147 601.667 81.8488C600.016 60.3618 590.518 40.9333 576.099 26.3954C576.086 26.382 576.071 26.3667 576.057 26.3533C575.228 25.5184 574.38 24.7026 573.518 23.9003C573.409 23.7988 573.302 23.6954 573.192 23.5939C572.417 22.8796 571.626 22.1826 570.826 21.4952C570.621 21.319 570.418 21.1371 570.211 20.9628C569.493 20.3577 568.761 19.7699 568.024 19.1858C567.722 18.9464 567.421 18.7014 567.116 18.4658C566.456 17.9565 565.782 17.4624 565.108 16.9722C564.711 16.683 564.319 16.392 563.919 16.1086C563.312 15.6816 562.693 15.2699 562.076 14.8582C561.594 14.5365 561.113 14.2109 560.625 13.8988C560.064 13.5407 559.491 13.196 558.923 12.8494C558.364 12.5105 557.808 12.1697 557.241 11.8422C556.717 11.5397 556.182 11.2486 555.652 10.9556C555.03 10.6128 554.407 10.2701 553.777 9.9407C553.276 9.68027 552.77 9.43326 552.265 9.18241C551.59 8.8473 550.915 8.5141 550.231 8.19431C549.748 7.97027 549.258 7.75582 548.772 7.54135C548.056 7.22348 547.338 6.90753 546.612 6.6088C546.133 6.41157 545.649 6.2258 545.166 6.03623C544.425 5.74708 543.682 5.45984 542.931 5.18984C542.439 5.01367 541.941 4.84708 541.445 4.67857C540.695 4.42389 539.944 4.17112 539.186 3.93559C538.673 3.77665 538.154 3.62922 537.635 3.47986C536.886 3.26348 536.137 3.049 535.381 2.85177C534.831 2.70815 534.278 2.57793 533.725 2.4458C532.995 2.26963 532.265 2.09731 531.528 1.94029C530.935 1.8139 530.335 1.70093 529.736 1.58603C529.031 1.45199 528.328 1.31794 527.618 1.20113C526.971 1.0939 526.32 1.00198 525.667 0.908155C525 0.814325 524.336 0.718568 523.664 0.638142C522.957 0.553887 522.247 0.486869 521.534 0.419847C521.113 0.379635 520.699 0.3241 520.276 0.291547C520.094 0.276228 519.916 0.276229 519.734 0.262825C519.453 0.241761 519.175 0.207304 518.894 0.19007C518.17 0.144112 517.456 0.138353 516.736 0.10963C516.044 0.0809063 515.351 0.0445362 514.662 0.0330468C513.731 0.0177277 512.806 0.0330541 511.881 0.0464583C511.161 0.0560328 510.438 0.054099 509.721 0.0809075C508.864 0.113461 508.013 0.178584 507.161 0.236031C506.389 0.287733 505.616 0.324102 504.85 0.394953C504.116 0.463889 503.395 0.563484 502.667 0.649655C501.798 0.751144 500.922 0.83923 500.061 0.967528C499.708 1.01923 499.364 1.092 499.013 1.14944C494.923 1.80242 490.925 2.73113 487.041 3.92411C486.896 3.96815 486.747 4.00646 486.603 4.05051C485.41 4.42391 484.234 4.83752 483.064 5.2588C482.794 5.35646 482.518 5.44262 482.248 5.54219C481.121 5.96156 480.012 6.4154 478.907 6.87689C478.608 7.00327 478.304 7.11815 478.007 7.24645C476.914 7.71751 475.839 8.22113 474.771 8.73623C474.478 8.87794 474.181 9.01008 473.888 9.15561C472.823 9.68221 471.778 10.2356 470.738 10.8024C470.455 10.9575 470.169 11.1069 469.888 11.2639C468.848 11.846 467.825 12.453 466.811 13.0735C466.548 13.2362 466.282 13.3933 466.02 13.5579C464.999 14.1994 463.996 14.862 463.002 15.5437C462.764 15.7065 462.527 15.8673 462.291 16.032C461.286 16.7347 460.3 17.4586 459.327 18.2016C459.122 18.3586 458.917 18.5137 458.712 18.6726C457.722 19.4424 456.75 20.2313 455.792 21.0413C455.624 21.183 455.459 21.3267 455.292 21.4703C454.312 22.3128 453.351 23.1726 452.407 24.0573C452.284 24.1722 452.162 24.289 452.039 24.4058C451.064 25.3307 450.109 26.2728 449.176 27.2399C449.105 27.3126 449.036 27.3873 448.968 27.4601C447.993 28.4769 447.041 29.5148 446.114 30.5775C446.107 30.5871 446.097 30.5986 446.088 30.6081C432.454 46.2739 424.221 66.7403 424.287 89.1063C424.288 103.179 416.02 115.942 403.171 121.69L398.453 123.8C385.891 129.42 370.991 127.475 360.835 118.19C345.033 103.744 324.013 94.9179 300.965 94.9179C278.582 94.9179 258.11 103.242 242.475 116.956C231.282 126.774 215.383 129.126 201.791 123.046L201.134 122.753C186.849 116.361 177.964 102.336 177.621 86.8314C177.589 85.3607 177.52 83.8824 177.415 82.3964C174.341 39.0356 139.352 3.72688 96.0201 0.297303C41.3767 -4.02844 -4.06372 41.4273 0.288835 96.0784C3.73373 139.311 38.9084 174.242 82.162 177.413C106.996 179.235 129.895 170.773 147.039 155.858C158.532 145.86 174.875 143.662 188.779 149.881C202.938 156.216 211.821 170.24 212.164 185.747C212.233 188.826 212.459 191.94 212.85 195.08C217.865 235.324 250.454 267.471 290.757 271.99C344.282 277.991 389.786 236.08 389.786 183.742V183.512C389.767 169.423 398.041 156.641 410.901 150.886L415.62 148.776C428.181 143.156 443.081 145.102 453.238 154.387C459.869 160.449 467.427 165.505 475.659 169.35C475.747 169.392 475.835 169.436 475.923 169.476C476.843 169.901 477.771 170.305 478.708 170.698C479.052 170.845 479.395 170.995 479.742 171.136C480.475 171.435 481.216 171.717 481.959 171.996C482.528 172.211 483.097 172.427 483.669 172.628C484.244 172.831 484.822 173.021 485.402 173.212C486.153 173.461 486.907 173.704 487.668 173.932C488.12 174.068 488.571 174.195 489.027 174.323C489.923 174.577 490.821 174.819 491.727 175.045C492.089 175.135 492.451 175.219 492.815 175.303C493.807 175.537 494.802 175.755 495.806 175.954C496.129 176.018 496.453 176.079 496.779 176.14C497.807 176.332 498.841 176.508 499.881 176.663C500.22 176.713 500.559 176.762 500.898 176.808C501.891 176.944 502.889 177.065 503.891 177.166C504.325 177.211 504.76 177.255 505.196 177.293C505.602 177.329 506.005 177.381 506.412 177.41C506.836 177.44 507.255 177.446 507.678 177.471C508.429 177.517 509.183 177.553 509.94 177.58C510.641 177.605 511.338 177.622 512.033 177.63C512.391 177.634 512.747 177.655 513.107 177.655C513.591 177.655 514.07 177.63 514.553 177.622C515.142 177.613 515.732 177.603 516.32 177.582C517.245 177.549 518.162 177.494 519.079 177.433C519.587 177.398 520.096 177.371 520.602 177.327C521.655 177.239 522.701 177.122 523.742 176.998C524.104 176.954 524.47 176.921 524.832 176.873C529.173 176.297 533.416 175.407 537.539 174.225C537.606 174.206 537.673 174.183 537.74 174.164C539.036 173.789 540.321 173.385 541.593 172.952C541.758 172.896 541.922 172.835 542.087 172.778C543.266 172.37 544.433 171.939 545.589 171.483C545.775 171.41 545.959 171.334 546.145 171.259C547.286 170.799 548.418 170.319 549.536 169.813C549.702 169.739 549.869 169.662 550.036 169.585C551.188 169.057 552.328 168.503 553.454 167.925C553.565 167.868 553.678 167.812 553.789 167.755C555.009 167.123 556.213 166.466 557.4 165.779C557.408 165.775 557.414 165.771 557.421 165.767C562.23 162.987 566.764 159.781 570.952 156.179C580.948 147.581 594.365 144.498 606.843 147.721C608.942 148.271 611.014 148.975 613.032 149.877C627.191 156.212 636.074 170.236 636.417 185.743C636.485 188.822 636.711 191.936 637.102 195.076C637.196 195.839 637.368 196.576 637.483 197.33C637.617 198.194 637.761 199.054 637.92 199.912C638.299 201.995 638.758 204.05 639.285 206.081C639.341 206.288 639.392 206.497 639.448 206.706C646.544 233.3 665.85 255.064 690.88 265.612C691.001 265.663 691.119 265.719 691.24 265.769C692.58 266.326 693.934 266.85 695.305 267.343C696.466 267.762 697.634 268.16 698.815 268.532C699.778 268.832 700.743 269.116 701.72 269.384C703.329 269.828 704.954 270.23 706.597 270.585C707.296 270.734 707.999 270.866 708.702 270.998C710.634 271.364 712.583 271.676 714.554 271.913C714.707 271.931 714.856 271.967 715.009 271.984C715.465 272.036 715.917 272.055 716.373 272.099C716.928 272.155 717.482 272.226 718.039 272.27C718.339 272.295 718.634 272.295 718.933 272.316C719.856 272.379 720.773 272.421 721.689 272.457C722.464 272.488 723.24 272.517 724.011 272.528C724.875 272.54 725.733 272.53 726.593 272.517C727.405 272.505 728.215 272.492 729.021 272.457C729.821 272.423 730.618 272.367 731.412 272.314C732.265 272.254 733.117 272.197 733.961 272.115C734.689 272.044 735.411 271.95 736.135 271.862C737.033 271.751 737.933 271.642 738.823 271.504C739.474 271.402 740.119 271.282 740.767 271.167C741.713 271 742.657 270.832 743.593 270.634C744.162 270.514 744.721 270.376 745.286 270.246C746.285 270.014 747.285 269.78 748.273 269.516C748.744 269.39 749.211 269.244 749.68 269.11C750.743 268.806 751.802 268.497 752.848 268.155C753.212 268.036 753.568 267.902 753.93 267.777C755.067 267.389 756.199 266.99 757.315 266.556C757.547 266.466 757.773 266.366 758.003 266.274C759.236 265.782 760.459 265.276 761.666 264.731C761.733 264.7 761.798 264.668 761.865 264.637C792.699 250.626 814.145 219.503 814.038 183.461C814.038 169.39 822.307 156.629 835.154 150.883L839.872 148.772C852.434 143.152 867.333 145.098 877.49 154.383C893.292 168.829 914.312 177.655 937.359 177.655C959.434 177.655 979.652 169.559 995.202 156.179C1006.89 146.128 1023.25 143.585 1037.32 149.877H1037.32C1051.48 156.212 1060.36 170.238 1060.71 185.745C1060.74 187.4 1060.82 189.064 1060.95 190.737C1064.28 233.861 1099.18 268.848 1142.29 272.27C1196.95 276.601 1242.4 231.134 1238.04 176.479Z" fill="#FF980E"/>
<path d="M154.243 94.1498C157.183 58.0192 130.275 26.3463 94.1437 23.4063C58.012 20.4663 26.3383 47.3726 23.3984 83.5032C20.4585 119.634 47.3657 151.307 83.4974 154.247C119.629 157.187 151.303 130.28 154.243 94.1498Z" fill="white"/>
<path d="M127.579 60.1454L118.049 64.9116L115.918 60.649L125.45 55.8828L127.579 60.1454Z" fill="black"/>
<path d="M125.448 98.2748L115.916 93.5086L118.047 89.246L127.58 94.0122L125.448 98.2748Z" fill="black"/>
<path d="M119.365 74.6948H129.056V79.4609H119.365V74.6948Z" fill="black"/>
<path d="M51.3227 55.8828L60.8551 60.649L58.7238 64.9116L49.1934 60.1454L51.3227 55.8828Z" fill="black"/>
<path d="M51.3227 98.2728L49.1914 94.0103L58.7237 89.2441L60.855 93.5067L51.3227 98.2728Z" fill="black"/>
<path d="M47.715 74.6948H57.4063V79.4609H47.715V74.6948Z" fill="black"/>
<path d="M81.2372 127.439H95.5357V132.205H81.2372V127.439Z" fill="black"/>
<path d="M114.598 77.0788C114.598 62.6252 102.839 50.8658 88.3855 50.8658C73.9318 50.8658 62.1725 62.6252 62.1725 77.0788C62.1725 86.9348 67.7352 95.9213 76.471 100.395V108.058H71.7048V112.824H76.471V122.674H100.3V112.824H105.066V108.058H100.3V100.395C109.036 95.9213 114.598 86.9348 114.598 77.0788ZM95.5338 117.906H81.2353V112.822H95.5338V117.906ZM86.0014 81.845C86.0014 80.5313 87.0699 79.4628 88.3835 79.4628C89.6972 79.4628 90.7657 80.5313 90.7657 81.845C90.7657 83.1586 89.6972 84.2271 88.3835 84.2271C87.0718 84.2271 86.0014 83.1586 86.0014 81.845ZM90.7676 108.058V88.5854C93.5423 87.6011 95.5338 84.9528 95.5338 81.845C95.5338 77.9022 92.3263 74.6967 88.3855 74.6967C84.4446 74.6967 81.2372 77.9041 81.2372 81.845C81.2372 84.9509 83.2287 87.5992 86.0033 88.5854V108.058H81.2372V97.3326L79.8125 96.7065C71.9921 93.2731 66.9406 85.5694 66.9406 77.0788C66.9406 65.2543 76.561 55.632 88.3874 55.632C100.214 55.632 109.834 65.2543 109.834 77.0788C109.834 85.5694 104.781 93.2731 96.9623 96.7065L95.5376 97.3326V108.058H90.7676Z" fill="black"/>
<circle cx="937.398" cy="198.121" r="1.91489" fill="#303030"/>
<path d="M937.398 206.596V219.309" stroke="#303030" stroke-width="2" stroke-miterlimit="10" stroke-linecap="round"/>
<circle cx="937.398" cy="223.547" r="1.91489" fill="#303030"/>
<path d="M300.967 249.368C337.219 249.368 366.606 219.98 366.606 183.729C366.606 147.478 337.219 118.09 300.967 118.09C264.716 118.09 235.329 147.478 235.329 183.729C235.329 219.98 264.716 249.368 300.967 249.368Z" fill="white"/>
<path d="M300.95 170.439C294.328 170.439 288.942 175.828 288.942 182.448C288.942 189.069 294.328 194.456 300.95 194.456C307.572 194.456 312.958 189.069 312.958 182.448C312.958 175.826 307.572 170.439 300.95 170.439ZM300.95 189.653C296.977 189.653 293.744 186.421 293.744 182.448C293.744 178.474 296.977 175.242 300.95 175.242C304.924 175.242 308.156 178.474 308.156 182.448C308.156 186.421 304.924 189.653 300.95 189.653Z" fill="black"/>
<path d="M300.95 185.845L297.553 182.448L300.95 179.051L304.347 182.448L300.95 185.845Z" fill="black"/>
<path d="M322.422 197.964C322.696 193.139 322.474 188.326 321.748 183.549C319.923 171.539 314.982 160.097 307.068 149.544L300.95 141.387L294.832 149.544C286.916 160.097 281.977 171.539 280.152 183.549C279.427 188.326 279.205 193.139 279.478 197.964C276.69 199.975 274.358 202.592 272.682 205.605C270.748 209.082 269.726 213.027 269.726 217.012V223.451L274.712 219.796C277.207 218.141 280.038 217.029 282.983 216.531C283.892 219.365 284.564 220.983 285.478 223.457C287.063 222.396 290.87 217.695 298.547 216.774V223.436H303.349V216.774C311.049 217.697 314.85 222.408 316.419 223.457C317.336 220.968 318.002 219.365 318.914 216.531C321.859 217.029 324.687 218.139 327.184 219.796L332.172 223.451V217.012C332.172 209.469 328.548 202.384 322.422 197.964ZM274.733 214.241C275.325 210.239 277.188 206.573 280.045 203.751C280.422 206.464 280.957 209.18 281.648 211.891C279.247 212.351 276.916 213.142 274.733 214.241ZM314.161 215.619C310.831 213.534 307.124 212.31 303.351 211.947V199.421H298.547V211.947C294.773 212.31 291.067 213.534 287.737 215.619C280.572 193.778 284.405 171.451 298.673 152.426L300.948 149.393L303.223 152.426C317.493 171.451 321.327 193.778 314.161 215.619ZM320.25 211.893C320.942 209.18 321.476 206.466 321.853 203.753C324.71 206.575 326.573 210.241 327.165 214.243C324.984 213.142 322.654 212.351 320.25 211.893Z" fill="black"/>
<path d="M259.96 160.832H274.53V165.635H259.96V160.832Z" fill="black"/>
<path d="M327.37 160.832H341.94V165.635H327.37V160.832Z" fill="black"/>
<path d="M264.96 143.801L278.019 149.891L275.989 154.245L262.928 148.156L264.96 143.801Z" fill="black"/>
<path d="M336.939 182.668L323.879 176.579L325.909 172.224L338.968 178.313L336.939 182.668Z" fill="black"/>
<path d="M262.93 178.312L275.989 172.222L278.019 176.575L264.96 182.664L262.93 178.312Z" fill="black"/>
<path d="M336.941 143.801L338.97 148.154L325.909 154.243L323.879 149.891L336.941 143.801Z" fill="black"/>
<path d="M577.874 99.4487C583.743 63.677 559.501 29.9205 523.728 24.0514C487.956 18.1823 454.198 42.4232 448.329 78.1949C442.461 113.967 466.702 147.723 502.475 153.592C538.248 159.461 572.005 135.22 577.874 99.4487Z" fill="white"/>
<path d="M554.36 123.333H549.611V88.5413L554.36 93.2903V66.1869H527.256L535.772 74.7024L527.566 82.9077L509.187 69.2392L478.059 91.3658V47.0341H473.31V128.082H554.358V123.333H554.36ZM506.713 88.4973V123.333H492.466V98.6252L506.713 88.4973ZM511.462 88.7232L525.868 99.439V123.333H511.462V88.7232ZM530.615 100.006L544.862 85.759V123.333H530.615V100.006ZM509.124 75.1103L528.024 89.1656L542.487 74.7024L538.722 70.9358H549.611V81.8239L545.844 78.0592L528.457 95.4464L509.049 81.0082L478.061 103.039V97.1928L509.124 75.1103ZM478.061 108.866L487.717 102.001V123.333H478.061V108.866Z" fill="black"/>
<path d="M1002.14 99.4509C1008.01 63.6792 983.767 29.9226 947.994 24.0535C912.221 18.1845 878.464 42.4254 872.595 78.1971C866.726 113.969 890.968 147.725 926.741 153.594C962.513 159.463 996.271 135.223 1002.14 99.4509Z" fill="white"/>
<path d="M932.457 66.1945C933.888 64.8522 934.782 62.9469 934.782 60.8347C934.782 58.039 933.214 55.6032 930.91 54.3586L936.239 43.3441H908.802L914.132 54.3586C911.828 55.6013 910.26 58.039 910.26 60.8347C910.26 62.9469 911.156 64.8522 912.586 66.1964C899.349 76.3301 895.548 92.373 895.548 109.044V122.132H939.682V127.036H979.24C979.24 120.719 979.24 83.8058 979.24 77.9979H942.692C940.059 73.3409 936.634 69.3905 932.457 66.1945ZM917.619 63.2858C916.267 63.2858 915.166 62.1847 915.166 60.8347C915.166 59.4828 916.267 58.3837 917.619 58.3837H927.427C928.779 58.3837 929.878 59.4847 929.878 60.8347C929.878 62.1867 928.777 63.2858 927.427 63.2858H917.619ZM928.42 48.2481L925.889 53.4796H919.156L916.625 48.2481H928.42ZM900.455 117.228V109.044C900.455 89.0717 906.298 75.6981 918.31 68.1898H926.735C932.482 71.7764 936.725 76.579 939.686 82.8388V117.226L900.455 117.228ZM974.34 122.13H944.59V112.322H974.34V122.13ZM944.59 107.42V97.6122H974.34V107.42H944.59ZM974.34 82.902V92.71H944.59V82.902H974.34Z" fill="black"/>
<path d="M922.523 90.2571C923.875 90.2571 924.976 91.3582 924.976 92.7082H929.88C929.88 89.5122 927.831 86.7873 924.976 85.7743V82.9H920.072V85.7743C917.218 86.7873 915.168 89.5122 915.168 92.7082C915.168 96.7639 918.467 100.063 922.523 100.063C923.875 100.063 924.976 101.162 924.976 102.514C924.976 103.866 923.875 104.965 922.523 104.965C921.171 104.965 920.072 103.864 920.072 102.514H915.168C915.168 105.71 917.216 108.435 920.072 109.448V112.322H924.976V109.448C927.829 108.435 929.88 105.71 929.88 102.514C929.88 98.4586 926.58 95.1592 922.525 95.1592C921.173 95.1592 920.074 94.0582 920.074 92.7082C920.07 91.3562 921.171 90.2571 922.523 90.2571Z" fill="black"/>
<path d="M725.254 249.366C761.504 249.366 790.891 219.979 790.891 183.729C790.891 147.479 761.504 118.092 725.254 118.092C689.004 118.092 659.617 147.479 659.617 183.729C659.617 219.979 689.004 249.366 725.254 249.366Z" fill="white"/>
<path d="M752.12 159.364L756.3 155.183L760.067 158.95L763.834 155.183L752.534 143.884L748.767 147.65L752.534 151.417L748.001 155.949C743.405 152.627 738.191 150.345 732.651 149.226V142.926H737.979V137.599H711.342V142.926H716.67V149.226C711.13 150.345 705.916 152.627 701.32 155.949L696.787 151.417L700.554 147.65L696.787 143.884L685.488 155.185L689.254 158.952L693.021 155.185L697.201 159.366C689.344 166.811 684.706 177.086 684.706 188.386C684.706 210.514 702.63 228.516 724.661 228.516C746.691 228.516 764.615 210.514 764.615 188.386C764.615 177.63 760.371 167.184 752.12 159.364ZM721.997 142.926H727.324V148.52C726.441 148.462 725.553 148.43 724.661 148.43C723.768 148.43 722.88 148.462 721.997 148.52V142.926ZM724.661 223.189C705.567 223.189 690.034 207.575 690.034 188.386C690.034 169.292 705.567 153.759 724.661 153.759C743.754 153.759 759.288 169.292 759.288 188.386C759.288 207.575 743.754 223.189 724.661 223.189Z" fill="black"/>
<path d="M727.324 180.853V159.086H721.997V180.853C718.897 181.954 716.67 184.914 716.67 188.386C716.67 192.792 720.254 196.377 724.661 196.377C729.067 196.377 732.651 192.792 732.651 188.386C732.651 184.912 730.424 181.952 727.324 180.853ZM724.661 191.048C723.192 191.048 721.997 189.853 721.997 188.384C721.997 186.915 723.192 185.72 724.661 185.72C726.129 185.72 727.324 186.915 727.324 188.384C727.324 189.853 726.129 191.048 724.661 191.048Z" fill="black"/>
<path d="M721.997 212.356H727.324V217.684H721.997V212.356Z" fill="black"/>
<path d="M695.363 185.722H700.69V191.049H695.363V185.722Z" fill="black"/>
<path d="M748.633 185.722H753.96V191.049H748.633V185.722Z" fill="black"/>
<path d="M705.828 210.987L702.061 207.221L705.828 203.454L709.594 207.221L705.828 210.987Z" fill="black"/>
<path d="M743.495 173.319L739.729 169.553L743.495 165.786L747.262 169.553L743.495 173.319Z" fill="black"/>
<path d="M743.495 210.987L739.729 207.221L743.495 203.454L747.262 207.221L743.495 210.987Z" fill="black"/>
<path d="M705.828 173.318L702.061 169.551L705.828 165.784L709.594 169.551L705.828 173.318Z" fill="black"/>
<path d="M1149.52 249.366C1185.77 249.366 1215.16 219.979 1215.16 183.729C1215.16 147.479 1185.77 118.092 1149.52 118.092C1113.27 118.092 1083.89 147.479 1083.89 183.729C1083.89 219.979 1113.27 249.366 1149.52 249.366Z" fill="white"/>
<path d="M1138.72 183.269L1149.52 177.588L1160.33 183.269L1158.27 171.236L1167.01 162.715L1154.93 160.959L1149.52 150.011L1144.12 160.959L1132.04 162.715L1140.78 171.236L1138.72 183.269ZM1147.38 165.442L1149.52 161.093L1151.67 165.442L1156.47 166.139L1153 169.524L1153.82 174.306L1149.52 172.048L1145.23 174.306L1146.05 169.524L1142.58 166.139L1147.38 165.442Z" fill="black"/>
<path d="M1119.94 153.1C1113.18 153.1 1107.68 158.6 1107.68 165.359C1107.68 172.119 1113.18 177.618 1119.94 177.618H1123.42C1125.98 186.601 1133.12 193.69 1142.17 196.225V207.041H1133.04L1128.13 221.916H1122.55V226.82H1176.49V221.916H1170.91L1166.01 207.041H1156.88V196.214C1165.85 193.669 1172.93 186.588 1175.47 177.62H1179.1C1185.86 177.62 1191.36 172.121 1191.36 165.361C1191.36 158.602 1185.86 153.102 1179.1 153.102H1176.49V148.035H1181.56V143.131C1178.1 143.131 1122.54 143.131 1117.48 143.131V148.035H1122.39V153.102H1119.94V153.1ZM1119.94 172.714C1115.88 172.714 1112.58 169.415 1112.58 165.359C1112.58 161.303 1115.88 158.004 1119.94 158.004H1122.39V170.263C1122.39 171.09 1122.43 171.908 1122.5 172.714H1119.94ZM1165.75 221.912H1133.3L1136.58 211.941H1162.46L1165.75 221.912ZM1151.97 207.039H1147.07V197.12C1147.88 197.192 1148.7 197.231 1149.52 197.231C1150.35 197.231 1151.17 197.191 1151.97 197.118V207.039H1151.97ZM1179.11 158.004C1183.16 158.004 1186.46 161.303 1186.46 165.359C1186.46 169.415 1183.16 172.714 1179.11 172.714H1176.38C1176.45 171.906 1176.49 171.089 1176.49 170.263V158.004H1179.11ZM1171.59 148.033V170.263C1171.59 182.43 1161.69 192.329 1149.52 192.329C1137.27 192.329 1127.29 182.43 1127.29 170.263V148.033H1171.59Z" fill="black"/>
<circle cx="88.6491" cy="204.223" r="1.91489" fill="#303030"/>
<path d="M88.6492 212.698V225.411" stroke="#303030" stroke-width="2" stroke-miterlimit="10" stroke-linecap="round"/>
<circle cx="88.6491" cy="229.649" r="1.91489" fill="#303030"/>
<circle cx="300.794" cy="80.5306" r="1.91489" fill="#303030"/>
<path d="M300.794 72.0553V59.3423" stroke="#303030" stroke-width="2" stroke-miterlimit="10" stroke-linecap="round"/>
<circle cx="300.794" cy="55.1066" r="1.91489" fill="#303030"/>
<circle cx="512.938" cy="204.223" r="1.91489" fill="#303030"/>
<path d="M512.938 212.698V225.411" stroke="#303030" stroke-width="2" stroke-miterlimit="10" stroke-linecap="round"/>
<circle cx="512.938" cy="229.649" r="1.91489" fill="#303030"/>
<circle cx="725.081" cy="80.3387" r="1.91489" fill="#303030"/>
<path d="M725.081 71.8634V59.1504" stroke="#303030" stroke-width="2" stroke-miterlimit="10" stroke-linecap="round"/>
<circle cx="725.081" cy="54.9147" r="1.91489" fill="#303030"/>
<circle cx="1149.37" cy="80.3387" r="1.91489" fill="#303030"/>
<path d="M1149.37 71.8634V59.1504" stroke="#303030" stroke-width="2" stroke-miterlimit="10" stroke-linecap="round"/>
<circle cx="1149.37" cy="54.9147" r="1.91489" fill="#303030"/>
<rect x="235" y="124" width="131.27" height="131.27" rx="65.635" fill="white"/>
<path d="M348.348 187.061L332.735 162.584C332.142 161.657 331.205 161.003 330.13 160.765C329.055 160.528 327.93 160.727 327.001 161.318L319.337 166.207C318.631 166.66 318.078 167.315 317.751 168.087C317.424 168.859 317.338 169.713 317.505 170.535C317.32 170.535 317.133 170.526 316.941 170.515C315.631 170.425 314.358 170.042 313.215 169.396C310.318 167.977 307.891 167.279 301.889 170.469C301.398 169.904 300.797 169.445 300.122 169.121C299.447 168.797 298.714 168.614 297.966 168.583C296.093 168.574 294.23 168.851 292.44 169.405C290.074 169.993 287.645 170.596 285.419 170.172C285.661 169.313 285.621 168.399 285.304 167.564C284.987 166.73 284.41 166.02 283.658 165.539L275.994 160.648C275.065 160.058 273.94 159.861 272.866 160.098C271.791 160.336 270.854 160.989 270.261 161.916L254.65 186.393C254.059 187.321 253.86 188.447 254.098 189.521C254.336 190.596 254.99 191.533 255.917 192.126L263.579 197.015C264.242 197.44 265.013 197.666 265.8 197.666C266.448 197.666 267.087 197.515 267.666 197.225C267.138 198.333 266.914 199.562 267.016 200.786C267.032 201.654 267.24 202.509 267.624 203.288C268.008 204.068 268.559 204.753 269.238 205.295C270.483 206.135 271.988 206.499 273.479 206.322C273.706 207.697 274.366 208.964 275.364 209.936C276.657 211.074 278.313 211.713 280.035 211.74C280.389 212.982 281.156 214.065 282.21 214.811C283.815 215.806 285.741 216.148 287.591 215.767C288.096 216.913 288.94 217.876 290.008 218.527C291.077 219.179 292.32 219.488 293.569 219.412C293.669 219.412 293.771 219.412 293.873 219.412C295.463 219.204 296.93 218.444 298.018 217.265C301.138 219.378 303.806 220.427 306.089 220.427C306.83 220.431 307.566 220.312 308.267 220.073C309.148 219.746 309.95 219.238 310.622 218.582C311.294 217.926 311.82 217.135 312.167 216.262C313.796 216.819 315.575 216.732 317.141 216.019C317.979 215.55 318.716 214.92 319.31 214.165C319.903 213.41 320.34 212.544 320.596 211.619C322.18 211.815 323.779 211.414 325.083 210.494C326.234 209.571 327.019 208.268 327.296 206.818C328.469 206.954 329.657 206.838 330.782 206.479C331.906 206.12 332.941 205.525 333.818 204.735C333.921 204.641 334.012 204.535 334.09 204.42C334.713 203.599 335.161 202.659 335.405 201.658C335.65 200.657 335.686 199.616 335.513 198.601C335.462 198.36 335.397 198.122 335.317 197.89C335.626 198.046 335.953 198.164 336.292 198.24C336.59 198.306 336.894 198.339 337.2 198.339C337.986 198.339 338.756 198.112 339.418 197.687L347.084 192.798C348.011 192.204 348.666 191.267 348.903 190.191C349.14 189.115 348.94 187.99 348.348 187.061ZM311.705 172.482C313.26 173.334 314.983 173.834 316.753 173.945C317.608 173.996 318.466 173.981 319.319 173.902L331.534 193.049C331.455 193.122 331.368 193.188 331.277 193.245C331.219 193.207 331.168 193.169 331.105 193.137C330.041 192.474 328.43 191.326 326.565 189.995C316.611 182.903 309.31 178.097 306.026 180.869C298.234 187.442 294.085 188.395 292.86 187.921C292.724 187.869 292.535 187.798 292.474 187.309C292.176 185.077 295.021 179.538 302.271 174.185C308.205 170.768 309.674 171.487 311.705 172.482ZM266.418 193.902C266.314 194.061 266.151 194.172 265.966 194.213C265.78 194.253 265.586 194.219 265.425 194.118L257.763 189.237C257.605 189.132 257.494 188.97 257.454 188.784C257.413 188.599 257.447 188.405 257.547 188.244L273.158 163.765C273.209 163.686 273.275 163.618 273.352 163.564C273.429 163.51 273.516 163.472 273.608 163.452C273.661 163.441 273.715 163.435 273.769 163.435C273.903 163.434 274.035 163.472 274.149 163.543L281.814 168.435C281.972 168.54 282.084 168.702 282.124 168.887C282.165 169.072 282.131 169.266 282.031 169.427L266.418 193.902ZM271.271 202.527C270.998 202.264 270.783 201.948 270.64 201.597C270.496 201.246 270.428 200.87 270.438 200.491C270.276 198.598 271.819 196.958 273.452 195.222C273.789 194.864 274.138 194.493 274.466 194.123C274.743 193.805 275.101 193.57 275.503 193.443C275.904 193.316 276.333 193.302 276.742 193.403C277.205 193.518 277.634 193.742 277.992 194.058C278.35 194.373 278.628 194.77 278.8 195.215C277.692 198.002 276.097 200.57 274.089 202.799C273.15 203.069 272.142 202.972 271.271 202.527ZM276.759 204.956C279.112 202.345 280.943 199.308 282.153 196.008C282.761 195.412 283.518 194.99 284.344 194.785C285.171 194.58 286.037 194.601 286.853 194.844C287.33 195.047 287.729 195.396 287.996 195.84C288.262 196.284 288.38 196.801 288.334 197.317L280.518 208.325C279.507 208.379 278.511 208.064 277.716 207.438C277.099 206.758 276.757 205.874 276.754 204.956H276.759ZM284.164 211.988C283.672 211.604 283.342 211.049 283.238 210.434L291.038 199.439C292.648 199.199 293.887 199.446 294.484 200.145C295.134 200.91 295.15 202.333 294.527 204.072C292.569 206.447 291.016 208.333 289.868 209.729C288.919 210.882 288.19 211.768 287.789 212.254C286.591 212.625 285.296 212.53 284.164 211.988ZM293.765 215.976C292.1 216.029 291.172 215.514 290.644 214.189L292.519 211.914L296.655 206.892C297.763 207.254 298.822 207.818 299.048 208.682C299.198 209.255 298.704 211.005 297.138 213.098C295.682 215.033 294.264 215.96 293.761 215.975L293.765 215.976ZM331.36 202.325C330.682 202.844 329.893 203.197 329.055 203.357C328.216 203.517 327.352 203.479 326.531 203.246L311.86 193.332C311.673 193.201 311.462 193.109 311.239 193.061C311.017 193.013 310.787 193.01 310.563 193.051C310.339 193.093 310.126 193.178 309.935 193.303C309.745 193.428 309.581 193.589 309.453 193.778C309.326 193.967 309.237 194.179 309.192 194.402C309.148 194.625 309.148 194.855 309.193 195.079C309.238 195.302 309.326 195.514 309.454 195.702C309.582 195.891 309.746 196.052 309.936 196.177L324.021 205.695C323.952 206.483 323.59 207.218 323.007 207.753C322.554 208.006 322.056 208.164 321.54 208.22C321.025 208.276 320.504 208.228 320.008 208.078L308.715 200.711L306.839 203.586L317.363 210.453C317.111 211.474 316.486 212.363 315.61 212.945C314.77 213.363 313.552 213.231 311.992 212.555L305.322 207.814C304.951 207.555 304.492 207.454 304.046 207.532C303.601 207.609 303.203 207.86 302.941 208.229C302.679 208.598 302.573 209.055 302.647 209.502C302.72 209.948 302.967 210.348 303.333 210.613L309.097 214.71C308.938 215.18 308.683 215.611 308.347 215.976C308.011 216.341 307.602 216.631 307.147 216.828C305.63 217.35 303.214 216.572 300.258 214.634C301.233 213.226 302.994 210.225 302.369 207.819C301.896 206.002 300.49 204.653 298.18 203.792C298.479 202.798 298.537 201.746 298.348 200.725C298.16 199.703 297.731 198.742 297.097 197.919C296.404 197.183 295.548 196.619 294.598 196.275C293.647 195.93 292.629 195.814 291.626 195.935C291.463 194.978 291.054 194.08 290.438 193.33C289.822 192.579 289.021 192.002 288.114 191.656C286.968 191.251 285.745 191.114 284.538 191.254C283.33 191.394 282.171 191.807 281.148 192.463C280.258 191.256 278.968 190.405 277.509 190.062C276.537 189.831 275.521 189.859 274.564 190.145C273.606 190.43 272.741 190.962 272.054 191.687L271.971 191.598L283.656 173.269C286.997 174.297 290.438 173.444 293.27 172.739C296.476 171.943 298.013 171.721 298.955 172.401C292.538 177.514 288.526 183.68 289.07 187.762C289.139 188.504 289.415 189.213 289.866 189.806C290.317 190.4 290.926 190.855 291.622 191.121C292.232 191.346 292.877 191.456 293.527 191.446C297.813 191.446 303.711 187.297 308.211 183.509C308.374 183.459 309.696 183.206 314.514 186.031C317.814 187.967 321.562 190.636 324.572 192.782C326.485 194.143 328.136 195.32 329.279 196.032C330.952 197.091 331.918 198.189 332.151 199.296C332.224 199.828 332.192 200.369 332.055 200.889C331.918 201.408 331.68 201.895 331.353 202.322L331.36 202.325ZM345.234 189.9L337.569 194.789C337.408 194.89 337.214 194.924 337.029 194.883C336.843 194.843 336.681 194.731 336.577 194.572L320.965 170.098C320.864 169.937 320.831 169.743 320.871 169.558C320.912 169.372 321.023 169.21 321.181 169.106L328.849 164.21C328.962 164.138 329.094 164.101 329.229 164.101C329.35 164.1 329.469 164.129 329.576 164.186C329.683 164.243 329.773 164.325 329.84 164.426L345.453 188.912C345.552 189.073 345.584 189.265 345.543 189.45C345.502 189.634 345.391 189.795 345.234 189.9ZM277.713 169.657L277.218 170.422C276.967 170.794 276.579 171.053 276.139 171.143C275.699 171.233 275.241 171.147 274.864 170.903C274.486 170.659 274.219 170.277 274.12 169.839C274.021 169.4 274.098 168.941 274.334 168.558L274.829 167.792C275.079 167.414 275.467 167.15 275.91 167.057C276.353 166.964 276.815 167.05 277.195 167.296C277.576 167.541 277.843 167.927 277.94 168.37C278.037 168.812 277.956 169.275 277.713 169.657ZM332.714 175.493C332.842 175.683 332.931 175.896 332.976 176.12C333.02 176.344 333.02 176.575 332.974 176.798C332.928 177.022 332.838 177.235 332.709 177.423C332.58 177.612 332.415 177.773 332.223 177.897C332.031 178.021 331.817 178.106 331.592 178.146C331.367 178.186 331.136 178.18 330.913 178.13C330.69 178.08 330.48 177.985 330.294 177.853C330.108 177.72 329.95 177.551 329.83 177.357L325.27 170.302C325.139 170.113 325.047 169.899 325 169.674C324.953 169.449 324.952 169.216 324.996 168.991C325.041 168.765 325.13 168.551 325.259 168.36C325.388 168.17 325.554 168.007 325.747 167.882C325.94 167.757 326.157 167.672 326.383 167.632C326.61 167.592 326.842 167.598 327.066 167.65C327.29 167.701 327.502 167.797 327.688 167.932C327.875 168.067 328.032 168.238 328.151 168.435L332.714 175.493Z" fill="black"/>
<rect x="1084" y="124" width="131.27" height="131.27" rx="65.635" fill="white"/>
<path d="M1179 196.189L1173.51 193.993C1173.6 192.758 1173.71 191.533 1173.71 190.275C1173.72 182.734 1172.22 175.267 1169.31 168.313C1166.39 161.357 1162.12 155.055 1156.73 149.773C1154.93 147.996 1152.51 147 1149.98 147C1147.45 147 1145.02 147.996 1143.22 149.773C1137.84 155.055 1133.57 161.357 1130.65 168.312C1127.73 175.267 1126.24 182.734 1126.24 190.275C1126.24 191.532 1126.36 192.757 1126.44 193.992L1120.95 196.188C1118.31 197.245 1116.04 199.07 1114.45 201.427C1112.85 203.784 1112 206.564 1112 209.411V217.715C1112 219.138 1112.63 220.487 1113.73 221.389C1114.84 222.291 1116.28 222.651 1117.68 222.369L1135.28 218.85C1135.58 218.789 1135.89 218.758 1136.21 218.758H1163.75C1164.06 218.758 1164.37 218.789 1164.68 218.85L1182.28 222.369C1183.67 222.651 1185.12 222.291 1186.22 221.389C1187.32 220.486 1187.96 219.138 1187.96 217.715V209.411C1187.96 206.564 1187.1 203.784 1185.51 201.427C1183.91 199.07 1181.65 197.245 1179 196.188L1179 196.189ZM1116.75 217.715V209.411C1116.74 207.513 1117.31 205.655 1118.37 204.083C1119.44 202.51 1120.95 201.295 1122.71 200.596L1126.99 198.887C1127.74 203.845 1129.15 208.68 1131.18 213.265C1131.43 213.754 1131.73 214.217 1132.07 214.65L1116.75 217.715ZM1164.44 211.323C1164.06 212.138 1163.45 212.825 1162.69 213.302C1161.92 213.778 1161.04 214.025 1160.14 214.011H1139.82C1138.92 214.025 1138.03 213.778 1137.27 213.302C1136.5 212.825 1135.89 212.138 1135.51 211.323C1132.53 204.707 1130.99 197.532 1130.99 190.275C1130.97 183.362 1132.34 176.515 1135.01 170.14C1137.69 163.763 1141.61 157.988 1146.56 153.154C1147.47 152.252 1148.7 151.747 1149.98 151.747C1151.26 151.747 1152.49 152.252 1153.4 153.154C1158.34 157.988 1162.27 163.764 1164.94 170.14C1167.62 176.515 1168.98 183.362 1168.97 190.275C1168.97 197.533 1167.43 204.708 1164.44 211.323ZM1183.21 217.715L1167.89 214.65C1168.22 214.217 1168.52 213.754 1168.78 213.265C1170.81 208.68 1172.22 203.845 1172.97 198.887L1177.24 200.596C1179.01 201.295 1180.52 202.511 1181.58 204.083C1182.65 205.655 1183.22 207.513 1183.21 209.411L1183.21 217.715ZM1138.11 233C1137.48 233 1136.88 232.75 1136.43 232.305C1135.99 231.86 1135.74 231.256 1135.74 230.626V225.879C1135.74 224.569 1136.8 223.505 1138.11 223.505C1139.42 223.505 1140.48 224.569 1140.48 225.879V230.626C1140.48 231.256 1140.23 231.86 1139.79 232.305C1139.34 232.75 1138.74 233 1138.11 233ZM1161.85 233C1161.22 233 1160.61 232.75 1160.17 232.305C1159.72 231.86 1159.47 231.256 1159.47 230.626V225.879C1159.47 224.569 1160.54 223.505 1161.85 223.505C1163.16 223.505 1164.22 224.569 1164.22 225.879V230.626C1164.22 231.256 1163.97 231.86 1163.53 232.305C1163.08 232.75 1162.48 233 1161.85 233ZM1149.98 233C1149.35 233 1148.75 232.75 1148.3 232.305C1147.85 231.86 1147.61 231.256 1147.61 230.626V225.879C1147.61 224.569 1148.67 223.505 1149.98 223.505C1151.29 223.505 1152.35 224.569 1152.35 225.879V230.626C1152.35 231.256 1152.1 231.86 1151.66 232.305C1151.21 232.75 1150.61 233 1149.98 233ZM1149.98 176.033C1151.87 176.033 1153.68 176.783 1155.01 178.118C1156.35 179.454 1157.1 181.266 1157.1 183.154C1157.1 185.042 1156.35 186.853 1155.01 188.189C1153.68 189.524 1151.87 190.275 1149.98 190.275C1148.09 190.275 1146.28 189.524 1144.94 188.189C1143.61 186.853 1142.86 185.042 1142.86 183.154C1142.86 181.265 1143.61 179.456 1144.95 178.121C1146.28 176.786 1148.09 176.035 1149.98 176.033ZM1149.98 171.286C1146.83 171.286 1143.81 172.536 1141.59 174.762C1139.36 176.987 1138.11 180.006 1138.11 183.154C1138.11 186.302 1139.36 189.32 1141.59 191.545C1143.81 193.771 1146.83 195.022 1149.98 195.022C1153.13 195.022 1156.15 193.772 1158.37 191.545C1160.6 189.32 1161.85 186.302 1161.85 183.154C1161.85 180.006 1160.6 176.987 1158.37 174.762C1156.15 172.536 1153.13 171.286 1149.98 171.286Z" fill="black"/>
</svg>
