<svg width="361" height="254" viewBox="0 0 361 254" fill="none" xmlns="http://www.w3.org/2000/svg">
<rect x="0.793407" y="0.793407" width="359.413" height="252.413" rx="7.20659" fill="#F5FDFF"/>
<rect x="0.793407" y="0.793407" width="359.413" height="252.413" rx="7.20659" stroke="#7D7D7D" stroke-width="1.58681"/>
<path d="M25.7531 33.4403L26 32L26.2469 33.4403C26.703 36.1005 28.4852 38.1799 30.7654 38.7119L32 39L30.7654 39.2881C28.4852 39.8201 26.703 41.8995 26.2469 44.5597L26 46L25.7531 44.5597C25.297 41.8995 23.5147 39.8201 21.2346 39.2881L20 39L21.2346 38.7119C23.5147 38.1799 25.297 36.1005 25.7531 33.4403Z" fill="#212121"/>
<path d="M331.794 193.235L332 192L332.206 193.235C332.586 195.515 334.071 197.297 335.971 197.753L337 198L335.971 198.247C334.071 198.703 332.586 200.485 332.206 202.765L332 204L331.794 202.765C331.414 200.485 329.929 198.703 328.029 198.247L327 198L328.029 197.753C329.929 197.297 331.414 195.515 331.794 193.235Z" fill="#212121"/>
<path d="M310.794 219.235L311 218L311.206 219.235C311.586 221.515 313.071 223.297 314.971 223.753L316 224L314.971 224.247C313.071 224.703 311.586 226.485 311.206 228.765L311 230L310.794 228.765C310.414 226.485 308.929 224.703 307.029 224.247L306 224L307.029 223.753C308.929 223.297 310.414 221.515 310.794 219.235Z" fill="#212121"/>
<path d="M332.835 217.029L333 216L333.165 217.029C333.469 218.929 334.657 220.414 336.177 220.794L337 221L336.177 221.206C334.657 221.586 333.469 223.071 333.165 224.971L333 226L332.835 224.971C332.531 223.071 331.343 221.586 329.823 221.206L329 221L329.823 220.794C331.343 220.414 332.531 218.929 332.835 217.029Z" fill="#226DB4"/>
<path d="M43.8354 17.0288L44 16L44.1646 17.0288C44.4686 18.929 45.6568 20.4142 47.1769 20.7942L48 21L47.1769 21.2058C45.6568 21.5858 44.4686 23.071 44.1646 24.9712L44 26L43.8354 24.9712C43.5314 23.071 42.3432 21.5858 40.8231 21.2058L40 21L40.8231 20.7942C42.3432 20.4142 43.5314 18.929 43.8354 17.0288Z" fill="#226DB4"/>
</svg>
