<svg width="92" height="100" viewBox="0 0 92 100" fill="none" xmlns="http://www.w3.org/2000/svg">
<g id="noun-critical-thinking-5815109" clip-path="url(#clip0_964_14460)">
<g id="Group">
<path id="Vector" d="M58.63 22.6104C54.6294 20.628 50.1039 19.9628 45.702 20.7103C41.3001 21.4578 37.2478 23.5795 34.1257 26.7714C31.0037 29.9633 28.9722 34.0615 28.3223 38.4789C27.6724 42.8962 28.4375 47.4059 30.508 51.3617C30.725 51.8718 30.8363 52.4206 30.8349 52.9749C30.8336 53.5292 30.7197 54.0775 30.5002 54.5865C30.2816 55.3192 30.1206 56.0678 30.0186 56.8256C30.0023 56.9816 30.025 57.1392 30.0847 57.2843L31.0511 59.9023L28.0121 66.8387C27.9502 66.998 27.9276 67.1698 27.9461 67.3396C27.9647 67.5095 28.0239 67.6723 28.1188 67.8145C26.866 71.2834 30.5356 75.5503 33.7018 76.9375C36.868 78.3247 42.4729 78.1211 44.1738 74.8485C44.3439 74.8238 44.5055 74.7583 44.6447 74.6575C44.7839 74.5567 44.8966 74.4236 44.9732 74.2698L47.8841 67.6256L51.558 65.9722C51.6767 65.9157 51.7828 65.8358 51.8699 65.7373C52.3869 65.1558 52.8431 64.523 53.2315 63.8488C53.4148 63.3913 53.6908 62.9767 54.0421 62.631C54.3934 62.2854 54.8124 62.0161 55.2727 61.8401C58.2208 60.9559 60.94 59.4381 63.2401 57.3929C65.5402 55.3478 67.3656 52.8248 68.5885 50.0003C70.7033 45.0222 70.8516 39.4273 69.0034 34.3442C67.1553 29.261 63.4483 25.0678 58.63 22.6104ZM43.5362 72.5138L30.3258 66.7261L32.6136 61.5043L45.8239 67.292L43.5362 72.5138ZM34.5688 75.0646C32.1138 73.989 29.6221 70.8768 30.0086 68.8283L42.235 74.1849C40.9911 75.8578 37.0238 76.1402 34.5688 75.0646ZM54.6769 59.8605C53.9728 60.1029 53.3244 60.4838 52.7697 60.9806C52.215 61.4775 51.7653 62.0802 51.447 62.7535C51.1478 63.2535 50.814 63.7319 50.448 64.1854L47.2615 65.6807L33.1256 59.4875L32.1276 56.8091C32.2199 56.2334 32.342 55.6628 32.4933 55.0997C32.7929 54.3459 32.9338 53.5384 32.9074 52.7277C32.881 51.917 32.6878 51.1204 32.3399 50.3876C30.4827 46.8178 29.8009 42.7524 30.392 38.772C30.9831 34.7916 32.8168 31.0997 35.6312 28.2236C38.4456 25.3474 42.0968 23.4341 46.0634 22.7568C50.0301 22.0795 54.1093 22.6729 57.7186 24.4522C62.0789 26.6627 65.4363 30.4477 67.1108 35.0406C68.7854 39.6335 68.6519 44.6911 66.7375 49.1894C65.6272 51.7401 63.9723 54.017 61.8888 55.8604C59.8054 57.7038 57.3439 59.0691 54.6769 59.8605Z" fill="white" fill-opacity="0.8"/>
<path id="Vector_2" d="M50.5946 29.6337L50.5167 29.5996C49.9038 29.396 49.2569 29.3151 48.6129 29.3617C47.9688 29.4083 47.3402 29.5814 46.7631 29.8711C46.1117 29.5342 45.3856 29.3678 44.6525 29.3876C43.4102 29.4837 42.2565 30.068 41.4439 31.0126C40.6903 30.9987 39.9423 31.1452 39.2496 31.4423C38.5569 31.7394 37.9353 32.1803 37.4259 32.7359C36.9267 33.3595 36.6297 34.1207 36.5746 34.9176C35.1335 35.9322 34.1056 37.4315 33.6789 39.1415C33.565 39.8595 33.5968 40.5931 33.7725 41.2985C33.9483 42.004 34.2643 42.6668 34.7017 43.2474C34.6701 43.7799 34.7724 44.3118 34.9993 44.7945C35.0993 44.9958 35.2174 45.1875 35.3523 45.3672C35.1514 45.8268 35.0477 46.323 35.0477 46.8246C35.0478 47.3262 35.1516 47.8224 35.3526 48.282C36.0293 49.4719 37.1487 50.3463 38.4671 50.7148C38.6475 51.2424 38.9849 51.7023 39.4341 52.0326C39.6065 52.1539 39.7904 52.2579 39.9833 52.3429C41.0456 52.7159 42.1928 52.7751 43.2878 52.5133C43.442 52.4751 43.5857 52.4029 43.7083 52.3019C43.8309 52.2009 43.9294 52.0737 43.9964 51.9296L52.3536 32.8545C52.4324 32.6654 52.455 32.4575 52.4185 32.2559C52.3522 31.703 52.1512 31.1747 51.8332 30.7176C51.5152 30.2604 51.0899 29.8882 50.5946 29.6337ZM42.3692 50.5548C41.796 50.6585 41.2048 50.582 40.6768 50.3359C40.5892 50.2692 40.5188 50.1824 40.4715 50.0829C40.4242 49.9834 40.4013 49.874 40.4049 49.7639C40.3799 49.5454 40.2879 49.3401 40.1414 49.176C39.9949 49.012 39.8011 48.8975 39.5868 48.8481C38.6488 48.6826 37.8122 48.1578 37.255 47.3853C37.1694 47.206 37.1284 47.0088 37.1354 46.8103C37.3497 46.9042 37.5543 46.9938 37.7394 47.0749C37.9994 47.2054 38.266 47.3222 38.5382 47.4249C38.7743 47.4314 39.0059 47.3592 39.1964 47.2196C39.3869 47.08 39.5255 46.881 39.5904 46.6539C39.6553 46.4268 39.6427 46.1846 39.5548 45.9654C39.4668 45.7463 39.3083 45.5626 39.1044 45.4434C38.1936 45.1884 37.4022 44.6196 36.8702 43.8375C36.7534 43.598 36.7212 43.326 36.7786 43.0658C36.8243 42.9313 36.8814 42.8009 36.9493 42.6761C37.0331 42.3984 37.1709 42.1399 37.3549 41.9156C37.5388 41.6913 37.7653 41.5056 38.0213 41.3691C38.2281 41.2577 38.3921 41.0809 38.4879 40.8664C38.5837 40.6519 38.6057 40.4117 38.5506 40.1833C38.4955 39.955 38.3663 39.7513 38.1833 39.604C38.0003 39.4568 37.7736 39.3743 37.5388 39.3694C36.8424 39.5916 36.2389 40.0374 35.8219 40.6377C35.7389 40.2538 35.7349 39.857 35.8103 39.4715C35.9855 38.6768 36.3849 37.9491 36.9612 37.3746L37.0494 37.7035C37.0957 37.8426 37.1702 37.9707 37.2684 38.0796C37.3665 38.1886 37.4861 38.2761 37.6197 38.3366C37.8448 38.433 38.0962 38.4489 38.3316 38.3814C38.5888 38.2939 38.8028 38.1113 38.9296 37.8711C39.0565 37.6308 39.0866 37.3512 39.0138 37.0894C38.5797 35.6683 38.6204 34.5947 39.1226 33.9786C39.8125 33.1196 41.3649 33.0218 41.8564 33.0397C42.0191 33.0497 42.182 33.0221 42.3324 32.9592C42.4828 32.8962 42.6167 32.7995 42.7238 32.6765C42.9624 32.3348 43.2688 32.0459 43.6241 31.8279C43.9793 31.6099 44.3757 31.4675 44.7885 31.4096C45.1848 31.4235 45.5744 31.5169 45.9339 31.6844C46.2934 31.8519 46.6156 32.09 46.8812 32.3846L46.9688 32.423C47.1649 32.601 47.4237 32.694 47.6882 32.6814C47.9528 32.6689 48.2016 32.5519 48.38 32.3561C48.4953 32.2234 48.5759 32.0641 48.6145 31.8926C48.6532 31.7211 48.6488 31.5426 48.6016 31.3733C48.9779 31.2739 49.3754 31.2902 49.7422 31.4201C49.8592 31.4714 50.1709 31.6079 50.3539 32.3035L42.3692 50.5548Z" fill="white" fill-opacity="0.8"/>
<path id="Vector_3" d="M44.3159 36.1725C44.4093 36.1844 44.4972 36.2229 44.5692 36.2835C44.691 36.3536 44.8254 36.3991 44.9647 36.4173C45.104 36.4354 45.2456 36.426 45.3813 36.3895C45.517 36.353 45.6441 36.2901 45.7555 36.2044C45.8669 36.1188 45.9603 36.012 46.0305 35.8902C46.1006 35.7684 46.146 35.6341 46.1642 35.4947C46.1824 35.3554 46.173 35.2138 46.1365 35.0781C46.0999 34.9425 46.037 34.8153 45.9514 34.7039C45.8657 34.5925 45.759 34.4991 45.6372 34.429C45.3577 34.2523 45.0432 34.1383 44.7154 34.0949C44.3875 34.0516 44.0542 34.0798 43.7384 34.1777C43.4267 34.2843 43.1395 34.4523 42.8938 34.6718C42.6481 34.8912 42.4488 35.1576 42.3077 35.4553C42.1984 35.7036 42.1881 35.9844 42.279 36.2401C42.3699 36.4958 42.5551 36.7071 42.7967 36.8307C43.045 36.94 43.3258 36.9503 43.5815 36.8594C43.8372 36.7685 44.0485 36.5833 44.1721 36.3418C44.2078 36.276 44.2568 36.2184 44.3159 36.1725Z" fill="white" fill-opacity="0.8"/>
<path id="Vector_4" d="M44.1497 44.1586C44.2264 43.9719 44.3335 43.799 44.4667 43.6472C44.5641 43.5444 44.6385 43.4221 44.6851 43.2884C44.7317 43.1547 44.7493 43.0125 44.7369 42.8715C44.7288 42.7308 44.6908 42.5934 44.6253 42.4686C44.5598 42.3438 44.4684 42.2344 44.3572 42.1478C44.0839 41.9235 43.9153 41.6987 43.933 41.5787C44.1379 41.1404 44.4861 40.7851 44.9202 40.5713C45.09 40.4117 45.2028 40.2008 45.2411 39.9709C45.2795 39.741 45.2412 39.5049 45.1323 39.2989C45.0233 39.0928 44.8497 38.9283 44.6382 38.8305C44.4266 38.7328 44.1888 38.7072 43.9613 38.7577C43.4502 39.0113 43.0008 39.3738 42.645 39.8198C42.2891 40.2657 42.0353 40.7843 41.9014 41.3389C41.8477 41.9442 42.0283 42.5471 42.4061 43.0231C42.1924 43.4209 42.0885 43.8684 42.1051 44.3196C42.1182 44.5737 42.1858 44.8221 42.3033 45.0479C42.4207 45.2736 42.5853 45.4715 42.7859 45.6281C42.8633 45.6796 42.949 45.7171 43.0392 45.7391C43.2415 45.818 43.4631 45.8331 43.6743 45.7824C43.8854 45.7316 44.0759 45.6175 44.2203 45.4553C44.3534 45.2617 44.4186 45.0295 44.4058 44.795C44.3931 44.5604 44.303 44.3366 44.1497 44.1586Z" fill="white" fill-opacity="0.8"/>
<path id="Vector_5" d="M62.2756 40.1047C62.4192 38.8669 62.0666 37.6227 61.2951 36.6443C60.8133 36.0913 60.1985 35.6701 59.5089 35.4204C59.3207 34.7949 59.0102 34.2129 58.5955 33.7083C58.1807 33.2037 57.6698 32.7864 57.0926 32.4807C56.5636 32.2863 55.9946 32.2264 55.4367 32.3062C54.8788 32.3861 54.3494 32.6032 53.8962 32.9382C53.7232 33.048 53.5857 33.2055 53.5001 33.3917L45.1855 52.3694C45.1251 52.5163 45.0983 52.6749 45.1072 52.8335C45.1161 52.9921 45.1604 53.1468 45.2368 53.286C45.7867 54.2684 46.6079 55.0717 47.6023 55.5997C47.7955 55.6838 47.9967 55.7486 48.2027 55.7931C48.7501 55.8994 49.3169 55.8357 49.827 55.6106C50.9917 56.33 52.3934 56.5601 53.7269 56.2509C54.201 56.0871 54.6361 55.8271 55.0049 55.487C55.3737 55.147 55.6682 54.7344 55.8699 54.2751C56.628 54.1994 57.3355 53.8601 57.8692 53.3164C58.5926 53.2443 59.2941 53.0273 59.9318 52.6782C60.5695 52.3292 61.1304 51.8553 61.581 51.2848C62.5488 49.8118 62.9542 48.0398 62.7231 46.2926C63.2672 45.7088 63.6246 44.9759 63.7498 44.1877C63.805 43.4417 63.7023 42.6925 63.4483 41.9889C63.1943 41.2854 62.7947 40.6433 62.2756 40.1047ZM59.9373 50.0537C59.6974 50.3659 59.4005 50.6299 59.0623 50.8315C59.2209 50.118 59.1396 49.3721 58.8308 48.7096C58.6901 48.474 58.4638 48.3018 58.1992 48.2291C57.9345 48.1565 57.652 48.1889 57.4107 48.3197C57.2927 48.3843 57.189 48.4722 57.1058 48.5779C57.0225 48.6836 56.9614 48.805 56.9262 48.9348C56.891 49.0647 56.8824 49.2003 56.9008 49.3336C56.9193 49.4669 56.9645 49.5951 57.0336 49.7105C57.1061 49.9838 57.1234 50.2687 57.0844 50.5488C57.0455 50.8288 56.9511 51.0982 56.8068 51.3413C56.7631 51.4728 56.7074 51.6 56.6404 51.7213C56.6404 51.7213 56.6404 51.7213 56.619 51.77C56.464 51.9819 56.2448 52.1384 55.994 52.2161C55.0742 52.3358 54.1416 52.1286 53.359 51.6307C53.1332 51.5616 52.8908 51.5696 52.67 51.6535C52.4492 51.7374 52.2626 51.8924 52.1397 52.094C52.0167 52.2957 51.9644 52.5325 51.9909 52.7672C52.0175 53.0019 52.1214 53.2211 52.2862 53.3902C52.5462 53.5207 52.8129 53.6375 53.0851 53.7402C53.2702 53.8213 53.4748 53.9109 53.6891 54.0048C53.5479 54.1445 53.375 54.248 53.1853 54.3066C52.2403 54.4107 51.2911 54.1526 50.5291 53.5841C50.3505 53.4738 50.1432 53.4188 49.9334 53.4261C49.7235 53.4333 49.5206 53.5025 49.35 53.6249C49.2705 53.7008 49.1745 53.7572 49.0696 53.7898C48.9647 53.8224 48.8536 53.8303 48.7451 53.8128C48.2037 53.5959 47.7455 53.2121 47.4369 52.7171L55.3929 34.5578C56.024 34.2304 56.3401 34.3573 56.457 34.4085C57.0542 34.8086 57.4872 35.4106 57.6766 36.104L57.6754 37.1138C58.0738 37.1098 58.4689 37.1858 58.8374 37.3373C59.2058 37.4887 59.5402 37.7126 59.8206 37.9956C60.0578 38.3382 60.2219 38.7261 60.3024 39.1351C60.383 39.544 60.3784 39.9652 60.2889 40.3722C60.2711 40.5343 60.2908 40.6983 60.3464 40.8516C60.4021 41.0048 60.4923 41.1432 60.61 41.2561C61.005 41.6266 61.9898 42.8244 61.8218 43.9236C61.6965 44.7396 60.9476 45.4683 59.6086 46.1125C59.3669 46.2364 59.1817 46.4482 59.0911 46.7043C59.0004 46.9604 59.0113 47.2415 59.1213 47.4899C59.2313 47.7086 59.4134 47.8828 59.6369 47.9828C59.7719 48.04 59.9173 48.0686 60.0639 48.0669C60.2106 48.0652 60.3553 48.0332 60.4889 47.9729L60.7905 47.8147C60.7207 48.6261 60.4252 49.4017 59.9373 50.0537Z" fill="white" fill-opacity="0.8"/>
<path id="Vector_6" d="M56.9573 39.3888C56.8201 39.3001 56.6643 39.2442 56.502 39.2255C56.3396 39.2067 56.1752 39.2256 56.0214 39.2807C55.8675 39.3358 55.7285 39.4256 55.615 39.5432C55.5015 39.6607 55.4165 39.8028 55.3668 39.9585C55.3171 40.1141 55.3039 40.2791 55.3283 40.4407C55.3527 40.6023 55.414 40.7561 55.5074 40.8901C55.6008 41.0242 55.7238 41.1349 55.867 41.2137C56.0101 41.2926 56.1694 41.3373 56.3327 41.3446C56.4886 41.4129 56.5567 41.4428 56.5762 41.4513C56.6031 41.5489 56.5984 41.6526 56.5627 41.7473C56.4751 42.0005 56.4864 42.2775 56.5942 42.5228C56.702 42.7681 56.8984 42.9637 57.1442 43.0704C57.3989 43.1642 57.6797 43.1571 57.9293 43.0506C58.1789 42.9441 58.3784 42.7462 58.4868 42.4974C58.6102 42.1904 58.6714 41.8619 58.6669 41.531C58.6624 41.2001 58.5922 40.8734 58.4604 40.5698C58.3071 40.2783 58.094 40.0223 57.835 39.8188C57.576 39.6153 57.2769 39.4687 56.9573 39.3888Z" fill="white" fill-opacity="0.8"/>
<path id="Vector_7" d="M53.631 42.8201C53.3743 42.8974 53.1562 43.0689 53.0205 43.3001C52.8848 43.5313 52.8413 43.8052 52.8989 44.067C53.036 44.531 53.0108 45.0279 52.8275 45.4757C52.7806 45.5828 52.4718 45.5985 52.1217 45.5496C51.9826 45.5266 51.8402 45.5335 51.7041 45.57C51.5679 45.6065 51.4412 45.6717 51.3322 45.7611C51.2216 45.8488 51.1295 45.9577 51.0614 46.0814C50.9933 46.205 50.9504 46.341 50.9354 46.4814C50.9186 46.6833 50.8674 46.8808 50.7841 47.0654C50.5323 47.065 50.2887 47.1539 50.0963 47.3163C49.904 47.4786 49.7755 47.704 49.7336 47.9522C49.7096 48.1729 49.7552 48.3956 49.8641 48.5891C49.973 48.7826 50.1397 48.9371 50.3409 49.0311C50.4189 49.0813 50.5044 49.1188 50.5942 49.142C50.8453 49.1819 51.102 49.1681 51.3474 49.1015C51.5928 49.0348 51.8212 48.9169 52.0177 48.7554C52.3606 48.4618 52.6192 48.0821 52.7667 47.6553C53.3845 47.6045 53.9579 47.3138 54.364 46.8456C54.681 46.3712 54.8902 45.8331 54.9767 45.2691C55.0633 44.7052 55.0252 44.1291 54.8651 43.5815C54.7939 43.322 54.6269 43.0992 54.3979 42.9579C54.1689 42.8166 53.8949 42.7674 53.631 42.8201Z" fill="white" fill-opacity="0.8"/>
<path id="Vector_8" d="M23.2191 44.5684L19.872 45.5289C19.6766 45.6009 19.5066 45.7286 19.3831 45.8963C19.2596 46.064 19.188 46.2642 19.1772 46.4722C19.1665 46.6802 19.217 46.8867 19.3226 47.0662C19.4282 47.2458 19.5841 47.3903 19.7711 47.482C19.9921 47.5821 20.2423 47.5966 20.4733 47.5226L23.7911 46.5493C24.0472 46.4649 24.2616 46.2864 24.391 46.05C24.5205 45.8135 24.5553 45.5367 24.4885 45.2756C24.4061 45.0187 24.2291 44.8027 23.9934 44.6714C23.7577 44.5401 23.4809 44.5033 23.2191 44.5684Z" fill="white" fill-opacity="0.8"/>
<path id="Vector_9" d="M29.484 18.8985C29.2628 19.055 29.1096 19.2901 29.0558 19.5557C29.0021 19.8213 29.0517 20.0974 29.1946 20.3277L31.0062 23.0839C31.1192 23.2479 31.2759 23.3769 31.4585 23.4562C31.6602 23.5215 31.8767 23.5251 32.0804 23.4665C32.2841 23.4079 32.4656 23.2897 32.6017 23.1272C32.7378 22.9647 32.8222 22.7653 32.8442 22.5545C32.8661 22.3437 32.8246 22.1311 32.7249 21.9441L30.909 19.1976C30.754 18.9759 30.5204 18.8216 30.2557 18.766C29.991 18.7104 29.7151 18.7578 29.484 18.8985Z" fill="white" fill-opacity="0.8"/>
<path id="Vector_10" d="M25.6625 33.0281C25.7379 32.7778 25.7185 32.5086 25.6081 32.2718C25.4977 32.035 25.304 31.8471 25.0639 31.7439L21.6722 30.6063C21.4425 30.5855 21.2122 30.6399 21.0161 30.7613C20.82 30.8828 20.6687 31.0647 20.585 31.2797C20.5013 31.4946 20.4897 31.731 20.5521 31.9531C20.6144 32.1752 20.7473 32.371 20.9306 32.511L21.0086 32.5451L24.3862 33.6882C24.643 33.7576 24.9164 33.7284 25.1527 33.6062C25.3889 33.484 25.5708 33.2777 25.6625 33.0281Z" fill="white" fill-opacity="0.8"/>
<path id="Vector_11" d="M65.0715 62.9049C65.0396 62.7447 64.9712 62.594 64.8717 62.4645C64.7722 62.335 64.6442 62.2302 64.4976 62.1582C64.351 62.0861 64.1898 62.0488 64.0265 62.0491C63.8631 62.0494 63.7021 62.0873 63.5558 62.1599C63.4095 62.2325 63.2818 62.3378 63.1828 62.4676C63.0837 62.5975 63.0159 62.7484 62.9845 62.9087C62.9532 63.069 62.9592 63.2343 63.0021 63.3919C63.045 63.5495 63.1236 63.6951 63.2318 63.8175L64.7655 66.9164C64.8677 67.1363 65.048 67.3105 65.2714 67.4051C65.4643 67.4777 65.6741 67.4927 65.8754 67.4483C66.0767 67.4039 66.2607 67.3019 66.4052 67.1548C66.5496 67.0077 66.6481 66.8218 66.6888 66.6198C66.7295 66.4177 66.7107 66.2081 66.6345 66.0166L65.0715 62.9049Z" fill="white" fill-opacity="0.8"/>
<path id="Vector_12" d="M75.006 42.5353C75.1882 42.6158 75.3893 42.6435 75.5864 42.6154L78.8407 42.0787C79.0058 42.1073 79.1754 42.0964 79.3356 42.047C79.4957 41.9976 79.6419 41.9111 79.7623 41.7944C79.8826 41.6778 79.9737 41.5343 80.0281 41.3758C80.0825 41.2173 80.0986 41.0481 80.0752 40.8821C80.0518 40.7162 79.9895 40.5581 79.8934 40.4208C79.7973 40.2835 79.6701 40.1708 79.5222 40.092C79.3743 40.0132 79.2098 39.9704 79.0423 39.9672C78.8747 39.9641 78.7087 40.0005 78.5579 40.0737L75.3079 40.6006C75.0417 40.6516 74.8051 40.8023 74.6463 41.0219C74.4875 41.2416 74.4185 41.5135 74.4534 41.7823C74.4822 41.9416 74.5469 42.0922 74.6427 42.2227C74.7384 42.3532 74.8627 42.4601 75.006 42.5353Z" fill="white" fill-opacity="0.8"/>
<path id="Vector_13" d="M76.423 54.594L73.2874 52.8718C73.0585 52.815 72.8172 52.8359 72.6015 52.9312C72.3857 53.0265 72.2078 53.1908 72.0956 53.3983C71.9835 53.6057 71.9434 53.8446 71.9818 54.0773C72.0202 54.31 72.1349 54.5233 72.3078 54.6838L75.4379 56.3919L75.4866 56.4132C75.7137 56.4545 75.948 56.4208 76.1543 56.3171C76.3605 56.2135 76.5275 56.0456 76.6299 55.8387C76.7323 55.6319 76.7647 55.3973 76.7221 55.1705C76.6795 54.9436 76.5642 54.7368 76.3937 54.5811L76.423 54.594Z" fill="white" fill-opacity="0.8"/>
</g>
</g>
<defs>
<clipPath id="clip0_964_14460">
<rect width="64" height="80" fill="white" transform="translate(33.0039 0.439697) rotate(23.6593)"/>
</clipPath>
</defs>
</svg>
