<svg width="256" height="530" viewBox="0 0 256 530" fill="none" xmlns="http://www.w3.org/2000/svg">
<g clip-path="url(#clip0_853_1780)">
<mask id="mask0_853_1780" style="mask-type:luminance" maskUnits="userSpaceOnUse" x="0" y="265" width="256" height="265">
<path d="M256 530L0 530L-2.3167e-05 265L256 265L256 530Z" fill="white"/>
</mask>
<g mask="url(#mask0_853_1780)">
<path d="M248.782 264.726L249.141 265.275L220.806 285.123L201.529 309.267C201.521 309.278 201.507 309.282 201.498 309.291C201.482 309.306 201.467 309.316 201.45 309.327C201.433 309.339 201.421 309.355 201.403 309.363C189.601 314.341 151.846 330.176 148.262 330.565C148.254 330.569 148.248 330.576 148.239 330.578C148.176 330.594 148.112 330.583 148.052 330.559C148.042 330.557 148.027 330.556 148.02 330.553C147.002 330.026 123.455 324.228 114.295 321.996L89.5406 337.109L68.4609 392.653C68.4577 392.661 68.4506 392.666 68.4468 392.674C68.434 392.701 68.418 392.726 68.3982 392.749C68.3886 392.761 68.379 392.771 68.3681 392.781C68.3617 392.787 68.3578 392.795 68.3508 392.8C68.3297 392.816 68.3054 392.825 68.2823 392.835C68.2759 392.838 68.2714 392.844 68.2644 392.846L68.2522 392.851C68.251 392.851 68.2497 392.851 68.2497 392.851L41.1514 402.287L-1.99864 452.048L-2.4748 451.605L40.5082 402.038L24.9294 388.956L-2.08184 404.417L-2.3916 403.837L24.1594 388.64L-3.61401 379.434L-3.41881 378.803L24.6414 388.102L24.6414 351.282L0.231114 377.414L-0.229046 376.953L24.553 350.424L14.3956 334.409L-3.49945 335.557L-3.53913 334.895L14.2823 333.753L16.9306 315.531L-3.67225 303.937L-3.36633 303.355L17.0983 314.871L27.1393 283.689L-3.69338 262.959L-3.34458 262.404L27.4465 283.105L43.4797 261.321L43.9892 261.722L28.2196 283.147L76.8206 278.278L78.402 255.039L79.0401 255.085L77.4721 278.132L99.5393 271.598L92.0033 260.218L92.5313 259.844L100.255 271.509L129.952 281.3L109.861 261.763L110.3 261.28L131.198 281.603L142.723 270.152L136.703 261.719L137.219 261.325L143.406 269.993C143.41 269.999 143.411 270.006 143.415 270.013L143.418 270.011L152.842 285.234L166.765 260.527L167.317 260.861L153.644 285.124L173.754 275.451L182.451 261.344L182.991 261.7L174.453 275.55L198.54 285.352L195.417 262.617L196.051 262.523L199.21 285.524L220.483 284.548L248.782 264.726ZM198.996 286.198L179.585 293.039L201.222 308.611L219.883 285.239L198.996 286.198ZM173.772 276.173L153.795 285.782L178.414 292.468L173.772 276.173ZM131.148 282.47L114.49 292.091L154.714 306.391L131.148 282.47ZM77.1674 278.951L45.0362 301.798L112.378 292.022L77.1674 278.951ZM25.2814 388.399L41.035 401.628L67.5534 392.394L25.2814 351.229L25.2814 388.399ZM88.8001 337.243L57.515 339.186L51.9457 356.239L68.1338 391.697L88.8001 337.243ZM113.695 321.592L98.4634 307.916L76.1818 311.465L89.4036 336.422L113.695 321.592ZM168.481 311.504L174.095 320.004C182.442 316.587 191.543 312.798 199.347 309.513L168.481 311.504ZM200.344 308.785L178.975 293.407L168.499 310.839L200.344 308.785ZM167.697 311.49L156.147 307.595L148.626 329.884C150.868 329.365 161.308 325.234 173.485 320.253L167.697 311.49ZM57.4958 338.523L88.7578 336.581L75.4663 311.493L44.2586 302.809L57.4958 338.523ZM75.6986 310.872L98.4103 307.255L112.792 292.63L45.3345 302.423L75.6986 310.872ZM99.033 307.551L114.254 321.217L127.548 310.656L113.679 292.657L99.033 307.551ZM128.14 310.362L154.53 307.026L114.643 292.846L128.14 310.362ZM128.72 310.955L148.021 329.667L155.477 307.573L128.72 310.955ZM127.981 311.147L114.971 321.482C119.182 322.509 141.24 327.902 146.936 329.522L127.981 311.147ZM26.0103 351.029L67.1502 391.092L51.3799 356.55L26.0103 351.029ZM51.3895 355.875L56.9415 338.876L43.7274 303.225L25.401 350.22L51.3895 355.875ZM167.76 310.814L178.38 293.142L153.243 286.317L156.235 306.928L167.76 310.814ZM14.8961 333.99L24.8935 349.752L43.131 302.985L17.5732 315.574L14.8961 333.99ZM17.8228 314.717L43.2116 302.212L27.6506 284.197L17.8228 314.717ZM28.1812 283.817L43.7857 301.883L75.9188 279.035L28.1812 283.817ZM113.679 291.8L130.401 282.144L100.05 272.137L78.1652 278.617L113.679 291.8ZM131.661 282.062L155.489 306.25L152.549 285.988L143.089 270.708L131.661 282.062ZM179.094 292.511L198.005 285.846L174.466 276.267L179.094 292.511Z" fill="url(#paint0_linear_853_1780)" fill-opacity="0.18"/>
</g>
</g>
<mask id="mask1_853_1780" style="mask-type:luminance" maskUnits="userSpaceOnUse" x="0" y="0" width="256" height="265">
<path d="M256 2.23802e-05L0 0L-2.3167e-05 265L256 265L256 2.23802e-05Z" fill="white"/>
</mask>
<g mask="url(#mask1_853_1780)">
<path d="M248.782 265.274L249.141 264.725L220.806 244.877L201.529 220.733C201.521 220.722 201.507 220.718 201.498 220.709C201.482 220.694 201.467 220.684 201.45 220.673C201.433 220.661 201.421 220.645 201.403 220.637C189.601 215.659 151.846 199.824 148.262 199.435C148.254 199.431 148.248 199.424 148.239 199.422C148.176 199.406 148.112 199.417 148.052 199.441C148.042 199.443 148.027 199.444 148.02 199.447C147.002 199.974 123.455 205.772 114.295 208.004L89.5406 192.891L68.4609 137.347C68.4577 137.339 68.4506 137.334 68.4468 137.326C68.434 137.299 68.418 137.274 68.3982 137.251C68.3886 137.239 68.379 137.229 68.3681 137.219C68.3617 137.213 68.3578 137.205 68.3508 137.2C68.3297 137.184 68.3054 137.175 68.2823 137.165C68.2759 137.162 68.2714 137.156 68.2644 137.154L68.2522 137.149C68.251 137.149 68.2497 137.149 68.2497 137.149L41.1514 127.713L-1.99864 77.9521L-2.4748 78.3947L40.5082 127.962L24.9294 141.044L-2.08184 125.583L-2.3916 126.163L24.1594 141.36L-3.61401 150.566L-3.41881 151.197L24.6414 141.898L24.6414 178.718L0.231114 152.586L-0.229046 153.047L24.553 179.576L14.3956 195.591L-3.49945 194.443L-3.53913 195.105L14.2823 196.247L16.9306 214.469L-3.67225 226.063L-3.36633 226.645L17.0983 215.129L27.1393 246.311L-3.69338 267.041L-3.34458 267.596L27.4465 246.895L43.4797 268.679L43.9892 268.278L28.2196 246.853L76.8206 251.722L78.402 274.961L79.0401 274.915L77.4721 251.868L99.5393 258.402L92.0033 269.782L92.5313 270.156L100.255 258.491L129.952 248.7L109.861 268.237L110.3 268.72L131.198 248.397L142.723 259.848L136.703 268.281L137.219 268.675L143.406 260.007C143.41 260.001 143.411 259.994 143.415 259.987L143.418 259.989L152.842 244.766L166.765 269.473L167.317 269.139L153.644 244.876L173.754 254.549L182.451 268.656L182.991 268.3L174.453 254.45L198.54 244.648L195.417 267.383L196.051 267.477L199.21 244.476L220.483 245.452L248.782 265.274ZM198.996 243.802L179.585 236.961L201.222 221.389L219.883 244.761L198.996 243.802ZM173.772 253.827L153.795 244.218L178.414 237.532L173.772 253.827ZM131.148 247.53L114.49 237.909L154.714 223.609L131.148 247.53ZM77.1674 251.049L45.0362 228.202L112.378 237.978L77.1674 251.049ZM25.2814 141.601L41.035 128.372L67.5534 137.606L25.2814 178.771L25.2814 141.601ZM88.8001 192.757L57.515 190.814L51.9457 173.761L68.1338 138.303L88.8001 192.757ZM113.695 208.408L98.4634 222.084L76.1818 218.535L89.4036 193.578L113.695 208.408ZM168.481 218.496L174.095 209.996C182.442 213.413 191.543 217.202 199.347 220.487L168.481 218.496ZM200.344 221.215L178.975 236.593L168.499 219.161L200.344 221.215ZM167.697 218.51L156.147 222.405L148.626 200.116C150.868 200.635 161.308 204.766 173.485 209.747L167.697 218.51ZM57.4958 191.477L88.7578 193.419L75.4663 218.507L44.2586 227.191L57.4958 191.477ZM75.6986 219.128L98.4103 222.745L112.792 237.37L45.3345 227.577L75.6986 219.128ZM99.033 222.449L114.254 208.783L127.548 219.344L113.679 237.343L99.033 222.449ZM128.14 219.638L154.53 222.974L114.643 237.154L128.14 219.638ZM128.72 219.045L148.021 200.333L155.477 222.427L128.72 219.045ZM127.981 218.853L114.971 208.518C119.182 207.491 141.24 202.098 146.936 200.478L127.981 218.853ZM26.0103 178.971L67.1502 138.908L51.3799 173.45L26.0103 178.971ZM51.3895 174.125L56.9415 191.124L43.7274 226.775L25.401 179.78L51.3895 174.125ZM167.76 219.186L178.38 236.858L153.243 243.683L156.235 223.072L167.76 219.186ZM14.8961 196.01L24.8935 180.248L43.131 227.015L17.5732 214.426L14.8961 196.01ZM17.8228 215.283L43.2116 227.788L27.6506 245.803L17.8228 215.283ZM28.1812 246.183L43.7857 228.117L75.9188 250.965L28.1812 246.183ZM113.679 238.2L130.401 247.856L100.05 257.863L78.1652 251.383L113.679 238.2ZM131.661 247.938L155.489 223.75L152.549 244.012L143.089 259.292L131.661 247.938ZM179.094 237.489L198.005 244.154L174.466 253.733L179.094 237.489Z" fill="url(#paint1_linear_853_1780)" fill-opacity="0.18"/>
</g>
<defs>
<linearGradient id="paint0_linear_853_1780" x1="-18.7804" y1="367.962" x2="177.379" y2="245.94" gradientUnits="userSpaceOnUse">
<stop stop-color="#B6B643"/>
<stop offset="1" stop-color="#281A1A"/>
<stop offset="1" stop-color="#9A9292" stop-opacity="0.28"/>
</linearGradient>
<linearGradient id="paint1_linear_853_1780" x1="-18.7804" y1="162.038" x2="177.379" y2="284.06" gradientUnits="userSpaceOnUse">
<stop stop-color="#B6B643"/>
<stop offset="1" stop-color="#281A1A"/>
<stop offset="1" stop-color="#9A9292" stop-opacity="0.28"/>
</linearGradient>
<clipPath id="clip0_853_1780">
<rect width="256" height="265" fill="white" transform="matrix(1 -8.74228e-08 -8.74228e-08 -1 0 530)"/>
</clipPath>
</defs>
</svg>
