<svg width="48" height="48" viewBox="0 0 48 48" fill="none" xmlns="http://www.w3.org/2000/svg">
<g clip-path="url(#clip0_597_6569)">
<path fill-rule="evenodd" clip-rule="evenodd" d="M22.06 42.6007C22.7491 43.305 23.7902 43.4732 24.6999 43.0932C27.6321 41.867 30.4264 40.3101 33.0482 38.5284C43.6431 31.3332 48.0466 19.6407 38.1081 9.62166C28.4922 -0.0733666 16.2356 4.66677 9.45681 14.7113C7.67223 17.3565 6.08827 20.2274 4.87076 23.2143C4.51233 24.0953 4.66746 25.0978 5.34901 25.7609C6.62212 27.0008 9.0453 28.9148 12.4227 29.6309C13.4619 29.8515 14.4821 29.3028 15.0354 28.3964C16.0802 26.6839 17.8066 23.886 18.9349 22.2148C22.2466 17.3078 26.8144 15.2177 29.6944 18.121C32.5753 21.0252 30.7487 25.6456 25.7233 29.059C23.9998 30.2293 21.051 31.9961 19.3499 33.0015C18.5303 33.4863 17.9732 34.3534 18.0983 35.2978C18.5235 38.5237 20.6828 41.1931 22.06 42.6007Z" stroke="#212121" stroke-opacity="0.9" stroke-width="3" stroke-linecap="round" stroke-linejoin="round"/>
<path d="M7.67124 17.5542C10.2018 18.6867 14.3604 20.82 17.8336 23.8991M23.9444 30.2133C26.881 33.8137 28.8949 38.0255 29.9307 40.4893" stroke="#212121" stroke-opacity="0.9" stroke-width="3" stroke-linecap="round" stroke-linejoin="round"/>
<g clip-path="url(#clip1_597_6569)">
<path d="M14.5947 40.5968C15.1357 40.2223 15.2361 39.4678 14.7983 38.9764C13.8911 37.9579 12.311 36.2649 10.5856 34.7744C10.3817 34.5985 10.1317 34.4844 9.86514 34.4456C9.59857 34.4068 9.32647 34.445 9.08082 34.5555C6.14086 35.8746 3.78714 37.4549 2.58179 38.3316C2.0846 38.6931 2.01119 39.3846 2.41483 39.8481C3.01671 40.5385 3.96763 41.5817 5.14515 42.7125C4.17143 43.4467 2.73154 44.6295 1.15992 45.9451C0.366424 46.6093 0.821743 47.8681 1.85588 47.8326C5.94076 47.6914 10.1057 47.1489 12.4454 46.8001C13.2974 46.6726 13.6459 45.6901 13.0528 45.0652C12.3758 44.3542 11.6833 43.6582 10.9758 42.9776C12.1271 42.2858 13.387 41.433 14.5947 40.5968Z" fill="#212121" fill-opacity="0.6"/>
</g>
</g>
<defs>
<clipPath id="clip0_597_6569">
<rect width="47.9752" height="47.9752" fill="white" transform="translate(48 47.9752) rotate(179.97)"/>
</clipPath>
<clipPath id="clip1_597_6569">
<rect width="19.1901" height="19.1901" fill="white" transform="translate(7.26465 28.8781) rotate(45)"/>
</clipPath>
</defs>
</svg>
