<svg width="72" height="72" viewBox="0 0 72 72" fill="none" xmlns="http://www.w3.org/2000/svg">
<path d="M38.5042 16.9043C26.3999 16.9043 16.4868 26.713 16.4868 38.9217C16.4868 51.026 26.2955 60.9391 38.5042 60.9391C50.6086 60.9391 60.5216 51.1304 60.5216 38.9217C60.4173 26.8173 50.6086 16.9043 38.5042 16.9043ZM54.2607 35.6869C53.6346 35.6869 53.2173 35.1652 53.2173 34.6434V33.0782L44.7651 43.1999C44.5564 43.4086 44.2433 43.6173 43.9303 43.6173C43.6173 43.6173 43.3042 43.4086 43.0955 43.1999L39.0259 37.5652L35.1651 45.5999C35.0607 45.913 34.7477 46.1217 34.3303 46.1217C34.0173 46.1217 33.5999 46.0173 33.3912 45.8086L29.3216 41.3217L23.9999 47.8956C23.7912 48.1043 23.4781 48.313 23.1651 48.313C22.9564 48.313 22.6433 48.2086 22.539 48.1043C22.1216 47.6869 22.0173 47.0608 22.4346 46.6434L28.5912 39.1304C28.7999 38.9217 29.1129 38.713 29.3216 38.713C29.6346 38.713 29.9477 38.8173 30.1564 39.026L33.9129 43.1999L37.8781 34.9565C38.0868 34.6434 38.3999 34.4347 38.7129 34.3304C39.1303 34.3304 39.4433 34.4347 39.652 34.7478L43.9303 40.5913L51.652 31.0956H49.8781C49.252 31.0956 48.8346 30.5739 48.8346 30.0521C48.8346 29.5304 49.252 29.0086 49.8781 29.0086H54.052C54.6781 29.0086 55.1999 29.7391 55.1999 30.2608V34.4347C55.3042 35.2695 54.8868 35.6869 54.2607 35.6869Z" fill="#FF980E"/>
<path d="M11.3524 15.7017L11.4998 16L11.6472 15.7017C12.7481 13.4736 14.5247 11.6855 16.6492 10.6681L17 10.5002L16.6492 10.3323C14.5243 9.31497 12.7485 7.52726 11.6472 5.29832L11.5002 5L11.3528 5.29832C10.2519 7.52682 8.4757 9.31497 6.35076 10.3323L6 10.5002L6.35076 10.6681C8.4753 11.6859 10.2515 13.4736 11.3524 15.7017Z" fill="#FF980E"/>
<path d="M18.9195 18.8373L18.9999 19L19.0803 18.8373C19.6808 17.622 20.6498 16.6466 21.8087 16.0917L22 16.0001L21.8087 15.9085C20.6496 15.3536 19.681 14.3785 19.0803 13.1627L19.0001 13L18.9197 13.1627C18.3192 14.3783 17.3504 15.3536 16.1913 15.9085L16 16.0001L16.1913 16.0917C17.3502 16.6469 18.319 17.622 18.9195 18.8373Z" fill="#FF980E"/>
</svg>
