<svg width="66" height="55" viewBox="0 0 66 55" fill="none" xmlns="http://www.w3.org/2000/svg">
<path d="M19.6079 37.512C15.2879 37.512 11.7599 33.984 11.7599 29.664V9.35999H6.50392C3.33592 9.35999 0.815918 11.952 0.815918 15.048V38.232C0.815918 41.4 3.40792 43.92 6.50392 43.92H12.7679V55.008L24.1439 43.92H46.4639C46.8239 43.92 47.1839 43.848 47.5439 43.776L41.0639 37.44H19.6079V37.512Z" fill="#FF980E"/>
<path d="M65.1121 5.25597C65.0401 4.89597 64.8961 4.53597 64.7521 4.17597C64.6801 4.03197 64.6081 3.81597 64.5361 3.67197C64.2481 3.16797 63.9601 2.73597 63.5281 2.37597C63.2401 2.08797 62.9521 1.87197 62.6641 1.65597C62.3761 1.43997 62.0161 1.29597 61.7281 1.15197C61.0801 0.863971 60.2881 0.719971 59.4961 0.719971H19.6081C18.8161 0.719971 18.0961 0.863971 17.3761 1.15197C17.0161 1.29597 16.7281 1.43997 16.4401 1.65597C16.1521 1.87197 15.8641 2.08797 15.5761 2.37597C15.2161 2.73597 14.8561 3.23997 14.5681 3.67197C14.4961 3.81597 14.4241 4.03197 14.3521 4.17597C14.2081 4.53597 14.0641 4.89597 13.9921 5.25597C13.9201 5.61597 13.8481 5.97597 13.8481 6.40797V9.28797V29.592C13.8481 32.76 16.4401 35.28 19.5361 35.28H41.8561L49.6321 42.84L53.2321 46.296V35.208H59.4961C60.2881 35.208 61.0081 35.064 61.7281 34.776C62.0881 34.632 62.3761 34.488 62.6641 34.272C62.9521 34.056 63.2401 33.84 63.5281 33.552C63.8881 33.192 64.2481 32.688 64.5361 32.256C64.6081 32.112 64.6801 31.896 64.7521 31.752C64.8961 31.392 65.0401 31.032 65.1121 30.672C65.1841 30.312 65.2561 29.952 65.2561 29.52V6.40797C65.2561 6.04797 65.1841 5.61597 65.1121 5.25597ZM22.9201 17.352H41.2081V18.792H22.9201V17.352ZM45.6721 26.208H22.9201V24.768H45.6721V26.208ZM53.5201 11.376H22.9201V9.93597H53.5921V11.376H53.5201Z" fill="#FF980E"/>
</svg>
