<svg width="73" height="72" viewBox="0 0 73 72" fill="none" xmlns="http://www.w3.org/2000/svg">
<path d="M64.8501 58.6851H57.8864C56.962 60.4167 55.8383 62.0151 54.5479 63.4507H60.8104C62.3702 62.0813 63.7322 60.4743 64.8501 58.6851Z" fill="#FF980E"/>
<path d="M48.1143 68.4835C51.5568 68.3913 54.7913 67.4143 57.6186 65.7568H52.1656C50.9155 66.8059 49.5578 67.721 48.1143 68.4835Z" fill="#FF980E"/>
<path d="M17.0078 47.0433C17.0078 59.0176 26.3077 68.7599 37.7387 68.7599C49.1697 68.7599 58.4697 59.0176 58.4697 47.0433C58.4697 35.069 49.1697 25.3259 37.7387 25.3259C26.3077 25.3259 17.0078 35.0682 17.0078 47.0433ZM37.7387 31.1025C46.18 31.1025 53.0477 38.2535 53.0477 47.0433C53.0477 55.833 46.18 62.9841 37.7387 62.9841C29.2975 62.9841 22.4305 55.833 22.4305 47.0433C22.4305 38.2535 29.2975 31.1025 37.7387 31.1025Z" fill="#FF980E"/>
<path d="M37.7384 60.6772C44.9043 60.6772 50.7343 54.5608 50.7343 47.0426C50.7343 39.5244 44.9043 33.408 37.7384 33.408C30.5724 33.408 24.7432 39.5244 24.7432 47.0426C24.7432 54.5616 30.5724 60.6772 37.7384 60.6772Z" fill="#FF980E"/>
<path d="M57.7507 28.0923C54.7466 26.3002 51.2759 25.2714 47.5784 25.2714H47.4629C49.0386 26.0396 50.5169 26.9886 51.8753 28.0923H57.7507Z" fill="#FF980E"/>
<path d="M22.1691 21.2133L22.4298 21.6943L22.6905 21.2133C24.6375 17.6212 27.7796 14.7384 31.5369 13.0982L32.1573 12.8275L31.5369 12.5568C27.7788 10.9166 24.6382 8.03444 22.6905 4.44092L22.4306 3.95996L22.1699 4.44092C20.2229 8.03372 17.0816 10.9166 13.3235 12.5568L12.7031 12.8275L13.3235 13.0982C17.0808 14.7391 20.2222 17.6212 22.1691 21.2133Z" fill="#FF980E"/>
<path d="M60.7831 47.0434C60.7831 47.8066 60.7449 48.5611 60.6777 49.3071H68.0776C68.1628 48.5115 68.2105 47.7043 68.2105 46.885C68.2105 46.093 68.1665 45.311 68.087 44.5406H60.6582C60.7405 45.3629 60.7831 46.1981 60.7831 47.0434Z" fill="#FF980E"/>
<path d="M67.7071 51.6125H60.3592C60.0523 53.2671 59.5865 54.8634 58.9712 56.379H66.1075C66.8109 54.8792 67.3496 53.2815 67.7071 51.6125Z" fill="#FF980E"/>
<path d="M60.3178 42.2338H67.7235C67.3725 40.5656 66.8417 38.9679 66.1456 37.4681H58.8677C59.5017 38.983 59.9935 40.5771 60.3178 42.2338Z" fill="#FF980E"/>
<path d="M57.7546 35.1618H64.8981C63.7925 33.3755 62.4442 31.7699 60.8988 30.3983H54.3315C55.6524 31.829 56.8035 33.4274 57.7546 35.1618Z" fill="#FF980E"/>
<path d="M10.1234 37.131C11.3481 34.9948 13.225 33.2639 15.4587 32.2113C13.2243 31.1579 11.3474 29.4278 10.1234 27.2922C8.89932 29.4278 7.02099 31.1586 4.78809 32.2113C7.02171 33.2639 8.8986 34.9948 10.1234 37.131Z" fill="#FF980E"/>
</svg>
