<svg width="56" height="71" viewBox="0 0 56 71" fill="none" xmlns="http://www.w3.org/2000/svg">
<path d="M10.5172 36.1856C10.3089 36.1833 10.1037 36.2371 9.923 36.3415L1.75001 41.0332C0.968746 41.4839 0.968746 42.6167 1.75001 43.0675L9.923 47.7592C10.2808 47.9638 10.7193 47.9638 11.077 47.7592L19.2414 43.0675C20.0227 42.6167 20.0227 41.4839 19.2414 41.0332L11.077 36.3414C10.9031 36.2184 10.7188 36.1884 10.5172 36.1856Z" fill="#FF980E"/>
<path d="M16.3311 47.4382L12.2386 49.7904C12.2358 49.7935 12.2324 49.7966 12.2295 49.7996C11.1594 50.4116 9.83836 50.4116 8.76825 49.7996L4.66213 47.4428V51.4257C4.66213 51.4257 4.65287 52.2568 5.08367 53.1228C5.51448 53.9889 6.61113 54.9505 8.16669 54.9505H12.8334C12.8334 54.9505 13.6602 54.9575 14.5218 54.5245C15.3834 54.0915 16.3311 52.9892 16.3311 51.4257V47.4382Z" fill="#FF980E"/>
<path d="M1.16406 45.4365V50.2577C1.17083 50.5642 1.29672 50.8558 1.51478 51.0702C1.73283 51.2846 2.02572 51.4046 2.33073 51.4046C2.63574 51.4046 2.92863 51.2846 3.14669 51.0702C3.36474 50.8558 3.49063 50.5642 3.4974 50.2577V46.7741L1.16406 45.4365Z" fill="#FF980E"/>
<path d="M22.1607 43.2201C21.5195 43.2224 21.0003 43.7442 20.9981 44.3887V53.7722C20.9956 54.42 21.5162 54.9472 22.1607 54.9495H27.9998C28.6443 54.9472 29.1649 54.42 29.1624 53.7722V44.3887C29.1602 43.7442 28.641 43.2224 27.9998 43.2201H22.1607Z" fill="#FF980E"/>
<path d="M32.6674 38.5283C32.0195 38.5258 31.4936 39.0544 31.4961 39.7056V53.7722C31.4936 54.4234 32.0195 54.952 32.6674 54.9495H38.4978C39.1424 54.9472 39.663 54.42 39.6605 53.7722V39.7056C39.663 39.0578 39.1424 38.5306 38.4978 38.5283H32.6674Z" fill="#FF980E"/>
<path d="M43.1664 29.1449C42.5185 29.1424 41.9926 29.671 41.9951 30.3222V53.7723C41.9926 54.4235 42.5185 54.952 43.1664 54.9495H48.9969C49.6448 54.952 50.1706 54.4235 50.1681 53.7723V30.3222C50.1706 29.671 49.6448 29.1424 48.9969 29.1449H43.1664Z" fill="#FF980E"/>
<path d="M45.3797 25.6304C45.0704 25.6467 44.7802 25.7858 44.5728 26.0171C44.3655 26.2484 44.258 26.5529 44.274 26.8638C44.29 27.1747 44.4281 27.4665 44.658 27.6751C44.888 27.8837 45.1909 27.992 45.5002 27.9762H47.8341C48.1436 27.9762 48.4404 27.8526 48.6593 27.6327C48.8781 27.4127 49.0011 27.1144 49.0011 26.8033C49.0011 26.4922 48.8781 26.1939 48.6593 25.9739C48.4404 25.7539 48.1436 25.6304 47.8341 25.6304H45.5002C45.4601 25.6283 45.4198 25.6283 45.3797 25.6304Z" fill="#FF980E"/>
<path d="M45 22V26H48V22H45Z" fill="#FF980E"/>
<path d="M41.9965 14.4999C41.4657 14.5457 41.0371 14.8879 40.9514 15.3345C40.9514 15.3345 40.5996 16.9848 41.1168 18.7393C41.3755 19.6166 41.8659 20.566 42.8065 21.3022C43.747 22.0385 45.1194 22.4987 46.8302 22.4987C48.5409 22.4987 49.9221 22.0385 50.8626 21.3022C51.8031 20.566 52.2936 19.6166 52.5522 18.7393C53.0695 16.9848 52.7177 15.3345 52.7177 15.3345C52.6219 14.8516 52.1281 14.4984 51.5506 14.4999H42.1097C42.072 14.4983 42.0342 14.4983 41.9965 14.4999Z" fill="#FF980E"/>
<path d="M51.9979 19C51.9979 19 50 21.0015 51.9979 21.0015C53.9958 21.0015 53.001 21.0015 53.001 21.0015V22.0059H48V24H53.9968C54.1281 24.0005 54.2582 23.9751 54.3796 23.9253C54.5011 23.8754 54.6115 23.8021 54.7047 23.7095C54.7978 23.617 54.8719 23.5069 54.9225 23.3857C54.9732 23.2644 54.9995 23.1344 55 23.0029V20.0044C55.0005 19.8724 54.9749 19.7416 54.9247 19.6195C54.8744 19.4974 54.8006 19.3864 54.7073 19.2931C54.6141 19.1997 54.5033 19.1257 54.3813 19.0754C54.2594 19.0251 54.1287 18.9995 53.9968 19H51.9979Z" fill="#FF980E"/>
<path d="M39.4949 18.5928C39.3635 18.5933 39.2335 18.6242 39.1123 18.6837C38.991 18.7431 38.881 18.83 38.7884 18.9393C38.6959 19.0487 38.6226 19.1783 38.5728 19.3208C38.5229 19.4634 38.4975 19.616 38.4981 19.77V23.2845C38.499 23.5941 38.6043 23.8907 38.7911 24.1096C38.9778 24.3286 39.2308 24.452 39.4949 24.4531H45.498V22.1159H40.4991V20.9387H43L41.4959 18.5928H39.4949Z" fill="#FF980E"/>
<path d="M6.66697 10.7891C7.30322 10.8953 7.89038 11.1976 8.34644 11.6538C8.8025 12.1099 9.10468 12.697 9.21077 13.3332C9.24231 13.5196 9.33887 13.6889 9.48334 13.811C9.62781 13.933 9.81085 14 10 14C10.1891 14 10.3722 13.933 10.5167 13.811C10.6611 13.6889 10.7577 13.5196 10.7892 13.3332C10.8953 12.697 11.1975 12.1099 11.6536 11.6538C12.1096 11.1976 12.6968 10.8953 13.333 10.7891C13.5195 10.7575 13.6888 10.661 13.8109 10.5166C13.933 10.3721 14 10.1891 14 10C14 9.81089 13.933 9.62789 13.8109 9.48345C13.6888 9.33901 13.5195 9.24246 13.333 9.21092C12.6968 9.10466 12.1096 8.80236 11.6536 8.34624C11.1975 7.89013 10.8953 7.30299 10.7892 6.66684C10.7577 6.48037 10.6611 6.3111 10.5167 6.18904C10.3722 6.06697 10.1891 6 10 6C9.81085 6 9.62781 6.06697 9.48334 6.18904C9.33887 6.3111 9.24231 6.48037 9.21077 6.66684C9.10468 7.30299 8.8025 7.89013 8.34644 8.34624C7.89038 8.80236 7.30322 9.10466 6.66697 9.21092C6.48047 9.24246 6.31116 9.33901 6.18907 9.48345C6.06698 9.62789 6 9.81089 6 10C6 10.1891 6.06698 10.3721 6.18907 10.5166C6.31116 10.661 6.48047 10.7575 6.66697 10.7891ZM10 8.8572C10.3121 9.30129 10.6988 9.68795 11.143 10C10.6988 10.3121 10.3121 10.6987 10 11.1428C9.68788 10.6987 9.30115 10.3121 8.85697 10C9.30115 9.68795 9.68788 9.30129 10 8.8572Z" fill="#FF980E"/>
<path d="M14.3335 15.3945C14.6516 15.4477 14.9452 15.5988 15.1732 15.8269C15.4013 16.0549 15.5523 16.3485 15.6054 16.6666C15.6212 16.7598 15.6694 16.8444 15.7417 16.9055C15.8139 16.9665 15.9054 17 16 17C16.0946 17 16.1861 16.9665 16.2583 16.9055C16.3306 16.8444 16.3788 16.7598 16.3946 16.6666C16.4477 16.3485 16.5987 16.0549 16.8268 15.8269C17.0548 15.5988 17.3484 15.4477 17.6665 15.3945C17.7598 15.3788 17.8444 15.3305 17.9055 15.2583C17.9665 15.1861 18 15.0946 18 15C18 14.9054 17.9665 14.8139 17.9055 14.7417C17.8444 14.6695 17.7598 14.6212 17.6665 14.6055C17.3484 14.5523 17.0548 14.4012 16.8268 14.1731C16.5987 13.9451 16.4477 13.6515 16.3946 13.3334C16.3788 13.2402 16.3306 13.1556 16.2583 13.0945C16.1861 13.0335 16.0946 13 16 13C15.9054 13 15.8139 13.0335 15.7417 13.0945C15.6694 13.1556 15.6212 13.2402 15.6054 13.3334C15.5523 13.6515 15.4013 13.9451 15.1732 14.1731C14.9452 14.4012 14.6516 14.5523 14.3335 14.6055C14.2402 14.6212 14.1556 14.6695 14.0945 14.7417C14.0335 14.8139 14 14.9054 14 15C14 15.0946 14.0335 15.1861 14.0945 15.2583C14.1556 15.3305 14.2402 15.3788 14.3335 15.3945ZM16 14.4286C16.1561 14.6506 16.3494 14.844 16.5715 15C16.3494 15.156 16.1561 15.3494 16 15.5714C15.8439 15.3494 15.6506 15.156 15.4285 15C15.6506 14.844 15.8439 14.6506 16 14.4286Z" fill="#FF980E"/>
<path d="M49.5002 60.5918C49.9774 60.6715 50.4178 60.8982 50.7598 61.2403C51.1019 61.5824 51.3285 62.0228 51.4081 62.4999C51.4317 62.6397 51.5042 62.7667 51.6125 62.8582C51.7209 62.9498 51.8581 63 52 63C52.1419 63 52.2791 62.9498 52.3875 62.8582C52.4958 62.7667 52.5683 62.6397 52.5919 62.4999C52.6715 62.0228 52.8981 61.5824 53.2402 61.2403C53.5822 60.8982 54.0226 60.6715 54.4998 60.5918C54.6396 60.5682 54.7666 60.4957 54.8582 60.3874C54.9498 60.2791 55 60.1418 55 60C55 59.8582 54.9498 59.7209 54.8582 59.6126C54.7666 59.5043 54.6396 59.4318 54.4998 59.4082C54.0226 59.3285 53.5822 59.1018 53.2402 58.7597C52.8981 58.4176 52.6715 57.9772 52.5919 57.5001C52.5683 57.3603 52.4958 57.2333 52.3875 57.1418C52.2791 57.0502 52.1419 57 52 57C51.8581 57 51.7209 57.0502 51.6125 57.1418C51.5042 57.2333 51.4317 57.3603 51.4081 57.5001C51.3285 57.9772 51.1019 58.4176 50.7598 58.7597C50.4178 59.1018 49.9774 59.3285 49.5002 59.4082C49.3604 59.4318 49.2334 59.5043 49.1418 59.6126C49.0502 59.7209 49 59.8582 49 60C49 60.1418 49.0502 60.2791 49.1418 60.3874C49.2334 60.4957 49.3604 60.5682 49.5002 60.5918ZM52 59.1429C52.2341 59.476 52.5241 59.766 52.8573 60C52.5241 60.234 52.2341 60.524 52 60.8571C51.7659 60.524 51.4759 60.234 51.1427 60C51.4759 59.766 51.7659 59.476 52 59.1429Z" fill="#FF980E"/>
</svg>
