<svg width="72" height="72" viewBox="0 0 72 72" fill="none" xmlns="http://www.w3.org/2000/svg">
<path fill-rule="evenodd" clip-rule="evenodd" d="M28.7763 13.5118H25.0306V19.0893H40.948V13.5118H37.2024C36.909 13.5118 36.6711 13.2739 36.6711 12.9804C36.6711 10.9464 35.0229 9.29773 32.9893 9.29773C30.9558 9.29773 29.3075 10.9464 29.3075 12.9804C29.3075 13.2739 29.0696 13.5118 28.7763 13.5118ZM36.6123 32.1988H38.6413V23.8898H36.6123V32.1988ZM33.5206 32.1988H35.5497V26.5721H33.5206V32.1988ZM30.429 32.1988H32.4581V29.9168H30.429V32.1988ZM27.3374 32.1988H29.3665V28.3074H27.3374V32.1988ZM23.7145 33.2616C23.015 33.2616 23.015 32.1988 23.7145 32.1988H26.2749V27.776C26.2749 27.4826 26.5128 27.2446 26.8062 27.2446H29.8978C30.1912 27.2446 30.4291 27.4826 30.4291 27.776V28.8539H32.4582V26.0405C32.4582 25.7471 32.6961 25.5091 32.9894 25.5091H35.5498V23.3584C35.5498 23.0649 35.7877 22.827 36.0811 22.827H39.1727C39.4661 22.827 39.704 23.0649 39.704 23.3584V32.1988H42.2644C42.9639 32.1988 42.9639 33.2616 42.2644 33.2616H23.7145ZM28.4201 36.5905H24.2458V40.7658H28.4201V36.5905ZM23.7145 35.5276H28.9514C29.2447 35.5276 29.4827 35.7656 29.4827 36.059V41.2972C29.4827 41.5906 29.2447 41.8286 28.9514 41.8286H23.7145C23.4211 41.8286 23.1832 41.5906 23.1832 41.2972V36.059C23.1832 35.7656 23.4211 35.5276 23.7145 35.5276ZM27.0684 37.5616C27.5629 37.0669 28.3142 37.8183 27.8196 38.313L26.3383 39.7947C26.1309 40.0021 25.7945 40.0021 25.5871 39.7947L24.8464 39.0538C24.3518 38.5591 25.1031 37.8077 25.5976 38.3024L25.9627 38.6675L27.0684 37.5616ZM32.2312 37.7581C31.5317 37.7581 31.5317 36.6953 32.2312 36.6953H38.9822C39.6817 36.6953 39.6817 37.7581 38.9822 37.7581H32.2312ZM32.2312 40.6611C31.5317 40.6611 31.5317 39.5983 32.2312 39.5983H38.9822C39.6817 39.5983 39.6817 40.6611 38.9822 40.6611H32.2312ZM28.4201 45.552H24.2458V49.7273H28.4201V45.552ZM23.7145 44.4892H28.9514C29.2447 44.4892 29.4827 44.7271 29.4827 45.0206V50.2587C29.4827 50.5522 29.2447 50.7901 28.9514 50.7901H23.7145C23.4211 50.7901 23.1832 50.5522 23.1832 50.2587V45.0206C23.1832 44.7271 23.4211 44.4892 23.7145 44.4892ZM27.0684 46.5231C27.5629 46.0285 28.3142 46.7799 27.8196 47.2745L26.3383 48.7562C26.1309 48.9637 25.7945 48.9637 25.5871 48.7562L24.8464 48.0153C24.3518 47.5207 25.1031 46.7693 25.5976 47.2639L25.9627 47.6291L27.0684 46.5231ZM32.2312 46.7196C31.5317 46.7196 31.5317 45.6568 32.2312 45.6568H38.9822C39.6817 45.6568 39.6817 46.7196 38.9822 46.7196H32.2312ZM32.2312 49.6226C31.5317 49.6226 31.5317 48.5598 32.2312 48.5598H38.9822C39.6817 48.5598 39.6817 49.6226 38.9822 49.6226H32.2312ZM47.0761 32.27C45.1413 33.0128 43.5946 34.3874 42.6129 36.0883C39.8918 40.8024 42.0536 46.7809 47.0761 48.7211V54.5261H18.9026V18.5559H23.9682V19.6207C23.9682 19.9142 24.2061 20.1522 24.4994 20.1522H41.4794C41.7727 20.1522 42.0106 19.9142 42.0106 19.6207V18.5559H47.0761V32.27ZM51.9787 31.8525V15.8471C51.9787 15.3559 51.4696 15.0195 50.9571 15.0195H42.0106V17.4931H47.6074C47.9008 17.4931 48.1387 17.731 48.1387 18.0245V31.9368C49.438 31.6165 50.7441 31.6033 51.9787 31.8525ZM52.3965 33.0463C52.3744 33.0415 52.3528 33.0353 52.3318 33.0278C51.0371 32.6645 49.6308 32.6336 48.2372 33.007C44.1207 34.11 41.6438 38.3481 42.7568 42.5028C43.3123 44.5764 44.6478 46.2157 46.3684 47.2109C50.0332 49.3305 54.7994 48.1098 56.9571 44.3718L56.958 44.3724C59.4846 39.9927 57.2052 34.441 52.3965 33.0463ZM48.6233 34.4279C46.9734 34.846 45.5976 35.9879 44.8066 37.3552C43.0708 40.355 44.0987 44.1947 47.1037 45.9343C50.1043 47.6714 53.9486 46.6374 55.6808 43.6366L55.6798 43.636C56.4903 42.2578 56.749 40.5383 56.3095 38.8728C55.4296 35.5377 51.9741 33.5325 48.6233 34.4279ZM48.9186 35.4477C48.9019 35.453 48.8849 35.4577 48.8676 35.4613C47.4963 35.836 46.4028 36.723 45.7384 37.8595C45.0335 39.1532 44.8365 40.3385 45.2103 41.8719C45.5631 43.2374 46.5054 44.3624 47.635 45.0167C50.1246 46.4573 53.3215 45.6031 54.7635 43.1051L54.7643 43.1056C55.427 41.9566 55.6541 40.5553 55.2905 39.1705C55.2852 39.1539 55.2806 39.1369 55.2769 39.1196C54.9023 37.7479 54.0155 36.6539 52.8792 35.9894C52.8702 35.9849 52.8611 35.98 52.8522 35.9749C51.7037 35.3117 50.3027 35.0842 48.9186 35.4477ZM52.2541 54.7257L53.0148 57.5655L53.2915 58.5974C53.3598 58.8293 53.5146 59.0148 53.7114 59.1284L53.7109 59.1293C53.9468 59.2649 54.164 59.276 54.4309 59.2125L56.0023 58.7913C56.2442 58.7265 56.438 58.5681 56.555 58.3651L56.5559 58.3656C56.6721 58.1634 56.7117 57.9165 56.6466 57.6737L55.6155 53.8246L52.2541 54.7257ZM51.2095 51.4171L50.3027 51.6601C49.9771 51.7473 49.7169 51.9596 49.5602 52.231L49.561 52.2315C49.403 52.5002 49.3498 52.8382 49.4361 53.1601L49.6987 54.1406C49.7852 54.4662 49.9988 54.7278 50.2699 54.8844L50.2704 54.8834C50.5595 55.0536 50.8878 55.0917 51.229 55.0002L51.9787 57.7984C52.0456 58.3069 51.5325 58.7221 50.9571 58.7221H15.0216C14.509 58.7221 14 58.3856 14 57.8946V15.8471C14 15.3559 14.509 15.0195 15.0216 15.0195H23.968V17.4931H18.3713C18.0779 17.4931 17.84 17.731 17.84 18.0245V55.0576C17.84 55.351 18.0779 55.589 18.3713 55.589H47.6074C47.9008 55.589 48.1387 55.351 48.1387 55.0576V49.0561C48.9462 49.2557 49.7886 49.3424 50.643 49.3029L51.2095 51.4171ZM53.8416 50.7117L52.2344 51.1425L51.7108 49.1877C52.2595 49.0944 52.7961 48.9506 53.3179 48.757L53.8416 50.7117ZM54.6283 51.5996L56.0479 51.2191C56.1334 51.1962 56.2246 51.2447 56.2486 51.3344L56.5116 52.3159C56.5234 52.3598 56.5166 52.4041 56.4963 52.4403L56.4954 52.4398C56.4743 52.4765 56.4394 52.5051 56.3963 52.5167L50.9534 53.9754C50.8992 53.9883 50.8593 54.0007 50.8007 53.9678L50.8013 53.9669C50.7683 53.9479 50.742 53.9181 50.7286 53.8812L50.4614 52.8862C50.4496 52.8424 50.4564 52.798 50.4767 52.7619L50.4776 52.7624C50.4988 52.7257 50.5336 52.6971 50.5767 52.6855L54.6283 51.5996ZM51.6053 37.9912L49.9528 39.6441L49.1524 39.1818C48.9449 39.0344 48.6554 39.0537 48.4696 39.2397L46.6411 41.0687C46.1466 41.5633 46.8978 42.3147 47.3923 41.8201L48.9343 40.2777L49.7784 40.7652C49.9903 40.887 50.2513 40.8457 50.4161 40.6806L50.4176 40.6822L52.3566 38.7427C52.3641 39.4384 53.4191 39.4331 53.4191 38.7369V37.46C53.4191 37.1666 53.1811 36.9285 52.8878 36.9285H51.6111C50.9151 36.9284 50.9097 37.9837 51.6053 37.9912ZM48.9068 41.5966C48.9068 40.8969 49.9694 40.8969 49.9694 41.5966V43.3582C49.9694 44.0579 48.9068 44.0579 48.9068 43.3582V41.5966ZM50.7477 41.764C50.7477 41.0643 51.8103 41.0643 51.8103 41.764V43.3582C51.8103 44.0579 50.7477 44.0579 50.7477 43.3582V41.764ZM52.5886 40.6002C52.5886 39.9005 53.6512 39.9005 53.6512 40.6002V43.3582C53.6512 44.0579 52.5886 44.0579 52.5886 43.3582V40.6002ZM46.9941 42.7205V43.3582C46.9941 44.0579 48.0566 44.0579 48.0566 43.3582V42.7205C48.0566 42.0209 46.9941 42.0209 46.9941 42.7205ZM32.304 12.237C31.6045 12.237 31.6045 11.1741 32.304 11.1741H33.6747C34.3742 11.1741 34.3742 12.237 33.6747 12.237H32.304Z" fill="#FF980E"/>
<path d="M60.4 11.4H58.6V9.6C58.6 9.44087 58.5368 9.28826 58.4243 9.17574C58.3117 9.06321 58.1591 9 58 9C57.8409 9 57.6883 9.06321 57.5757 9.17574C57.4632 9.28826 57.4 9.44087 57.4 9.6V11.4H55.6C55.4409 11.4 55.2883 11.4632 55.1757 11.5757C55.0632 11.6883 55 11.8409 55 12C55 12.1591 55.0632 12.3117 55.1757 12.4243C55.2883 12.5368 55.4409 12.6 55.6 12.6H57.4V14.4C57.4 14.5591 57.4632 14.7117 57.5757 14.8243C57.6883 14.9368 57.8409 15 58 15C58.1591 15 58.3117 14.9368 58.4243 14.8243C58.5368 14.7117 58.6 14.5591 58.6 14.4V12.6H60.4C60.5591 12.6 60.7117 12.5368 60.8243 12.4243C60.9368 12.3117 61 12.1591 61 12C61 11.8409 60.9368 11.6883 60.8243 11.5757C60.7117 11.4632 60.5591 11.4 60.4 11.4Z" fill="#FF980E"/>
<path d="M12.4 62.4H10.6V60.6C10.6 60.4409 10.5368 60.2883 10.4243 60.1757C10.3117 60.0632 10.1591 60 10 60C9.84087 60 9.68826 60.0632 9.57574 60.1757C9.46321 60.2883 9.4 60.4409 9.4 60.6V62.4H7.6C7.44087 62.4 7.28826 62.4632 7.17574 62.5757C7.06321 62.6883 7 62.8409 7 63C7 63.1591 7.06321 63.3117 7.17574 63.4243C7.28826 63.5368 7.44087 63.6 7.6 63.6H9.4V65.4C9.4 65.5591 9.46321 65.7117 9.57574 65.8243C9.68826 65.9368 9.84087 66 10 66C10.1591 66 10.3117 65.9368 10.4243 65.8243C10.5368 65.7117 10.6 65.5591 10.6 65.4V63.6H12.4C12.5591 63.6 12.7117 63.5368 12.8243 63.4243C12.9368 63.3117 13 63.1591 13 63C13 62.8409 12.9368 62.6883 12.8243 62.5757C12.7117 62.4632 12.5591 62.4 12.4 62.4Z" fill="#FF980E"/>
</svg>
