<svg width="72" height="72" viewBox="0 0 72 72" fill="none" xmlns="http://www.w3.org/2000/svg">
<path fill-rule="evenodd" clip-rule="evenodd" d="M14.6102 13H57.3898C58.0815 13.0022 58.7443 13.278 59.2333 13.7671C59.7224 14.2563 59.998 14.9192 60 15.6109V41.3666H12V15.6109C12.002 14.9192 12.2776 14.2563 12.7667 13.7671C13.2557 13.278 13.9185 13.0022 14.6102 13ZM24.3276 54.4102H29.7939V47.8915H14.6102C13.9185 47.8893 13.2557 47.6135 12.7667 47.1243C12.2776 46.6351 12.002 45.9723 12 45.2805V42.8171H60V45.2805C59.998 45.9723 59.7224 46.6351 59.2333 47.1243C58.7443 47.6135 58.0815 47.8893 57.3898 47.8915H42.2116V54.4102H47.6723C48.8212 54.4102 49.7611 55.5468 49.7611 56.9358V59.4614H22.2369V56.9358C22.2369 55.5461 23.1768 54.4102 24.3256 54.4102H24.3276ZM18.2662 19.1392V20.5918H32.4205V19.1392H18.2662ZM18.2662 15.1857V16.6369H25.0662V15.1857H18.2662ZM42.1078 38.0355V39.4867H50.9993V38.0355H42.1078ZM42.1078 34.0805V35.5331H54.7563V34.0805H42.1078ZM42.1078 30.127V31.5782H47.5099V30.127H42.1078ZM23.641 27.4601C22.7804 27.4591 21.9462 27.7566 21.2804 28.3017C20.6146 28.8469 20.1584 29.6061 19.9896 30.4499C19.8208 31.2937 19.9498 32.1699 20.3547 32.9293C20.7595 33.6887 21.4151 34.2841 22.2097 34.6143C23.0044 34.9445 23.889 34.9889 24.7127 34.74C25.5365 34.4911 26.2484 33.9642 26.7272 33.2492C27.2061 32.5342 27.4222 31.6753 27.3387 30.8188C27.2553 29.9624 26.8775 29.1613 26.2696 28.5522C25.9251 28.2059 25.5155 27.9311 25.0643 27.7437C24.6132 27.5563 24.1295 27.4599 23.641 27.4601ZM25.243 29.5761C24.8721 29.2053 24.3842 28.9746 23.8622 28.9233C23.3403 28.8719 22.8168 29.0031 22.3807 29.2945C21.9447 29.5859 21.6232 30.0194 21.471 30.5213C21.3187 31.0231 21.3452 31.5623 21.5459 32.0468C21.7466 32.5313 22.1091 32.9312 22.5716 33.1784C23.0341 33.4257 23.568 33.5049 24.0824 33.4026C24.5968 33.3003 25.0597 33.0229 25.3925 32.6175C25.7252 32.2121 25.9071 31.704 25.9072 31.1795C25.9075 30.8817 25.8489 30.5867 25.735 30.3116C25.621 30.0364 25.4538 29.7865 25.243 29.5761ZM25.5625 24.6922L25.1154 23.316H22.1666L21.7188 24.6922C21.4924 24.7592 21.2695 24.8378 21.0512 24.9276C20.8335 25.0186 20.6207 25.1209 20.4137 25.2341L19.1242 24.5761L17.0369 26.6621L17.6956 27.9536C17.5822 28.16 17.4802 28.3723 17.3898 28.5898C17.2995 28.808 17.2209 29.0308 17.1543 29.2573L15.7768 29.7044V32.6532L17.1543 33.1003C17.2209 33.3267 17.2995 33.5493 17.3898 33.7672C17.4797 33.9852 17.5815 34.198 17.6949 34.4048L17.0369 35.6942L19.1242 37.7816L20.4137 37.1242C20.6207 37.2368 20.8335 37.3384 21.0512 37.4287C21.2692 37.5199 21.492 37.599 21.7188 37.6655L22.1666 39.0416H25.1154L25.5625 37.6655C26.0146 37.5308 26.4516 37.3494 26.8662 37.1242L28.157 37.7816L30.2437 35.6956L29.5836 34.4048C29.6964 34.1978 29.7983 33.9849 29.8887 33.7672C29.9789 33.5492 30.0578 33.3266 30.1249 33.1003L31.5003 32.6532V29.7044L30.1297 29.2573C29.9945 28.8041 29.8115 28.3666 29.5836 27.9522L30.241 26.6621L28.157 24.5754L26.8662 25.2334C26.6594 25.1198 26.4466 25.0175 26.2287 24.927C26.0109 24.8368 25.7885 24.7588 25.5625 24.6922ZM25.6737 26.2662C25.4016 26.154 25.1208 26.0643 24.8341 25.998L24.4328 25.9058L24.0635 24.7645H23.2184L22.8485 25.9031L22.4471 25.9952C22.1603 26.0614 21.8795 26.1511 21.6075 26.2635C21.3348 26.3763 21.072 26.5117 20.8218 26.6683L20.471 26.8874L19.4048 26.3413L18.8089 26.9386L19.3509 28.0041L19.1317 28.3522C18.9757 28.6035 18.8405 28.8672 18.7276 29.1406C18.6146 29.4126 18.5248 29.6937 18.4594 29.9809L18.3672 30.3809L17.2287 30.7563V31.6014L18.3666 31.9713L18.4587 32.3713C18.5241 32.6583 18.6139 32.9392 18.727 33.2109C18.8398 33.4837 18.9749 33.7467 19.1311 33.9973L19.3515 34.3474L18.8055 35.4143L19.4014 36.0102L20.4676 35.4642L20.8184 35.6846C21.3186 35.9986 21.868 36.2261 22.4437 36.3577L22.845 36.4491L23.2143 37.5877H24.0601L24.4293 36.4491L24.8307 36.3577C25.4064 36.2261 25.9558 35.9986 26.456 35.6846L26.8055 35.4642L27.8724 36.0102L28.4689 35.4143L27.9229 34.3474L28.1502 33.9973C28.3067 33.7468 28.4423 33.4837 28.5556 33.2109C28.6682 32.9391 28.7577 32.6582 28.8232 32.3713L28.9154 31.9713L30.0539 31.6014V30.7563L28.9154 30.3857L28.8232 29.9857C28.7577 29.6986 28.6682 29.4175 28.5556 29.1454C28.4422 28.8726 28.3066 28.6096 28.1502 28.359L27.9311 28.0096L28.4771 26.9433L27.8805 26.3461L26.8136 26.8922L26.4642 26.673C26.214 26.5164 25.9512 26.381 25.6785 26.2683L25.6737 26.2662ZM50.8123 23.3447C50.9268 23.2808 51.0214 23.1862 51.0853 23.0717C51.1806 22.9055 51.2061 22.7082 51.156 22.5233C51.106 22.3383 50.9845 22.1808 50.8184 22.0853L48.8328 20.942C48.8205 20.9338 48.8089 20.9256 48.7952 20.9181L46.8157 19.7747C46.7065 19.701 46.5793 19.6584 46.4477 19.6514C46.3161 19.6445 46.1851 19.6735 46.0688 19.7354C45.9524 19.7973 45.8552 19.8897 45.7874 20.0027C45.7196 20.1157 45.6838 20.245 45.684 20.3768V25.0512C45.6837 25.1784 45.7171 25.3035 45.7807 25.4137C45.8442 25.5239 45.9358 25.6154 46.046 25.6789C46.1563 25.7424 46.2813 25.7757 46.4086 25.7754C46.5358 25.7751 46.6607 25.7412 46.7706 25.6771L48.7945 24.5085L50.8096 23.3481L50.8123 23.3447ZM48.0744 23.256L49.0102 22.7167L48.1099 22.1959C48.0962 22.1891 48.0826 22.1823 48.0696 22.1741L47.1338 21.6334V23.7986L48.0696 23.258L48.0744 23.256ZM42.6485 17.1297C42.4312 17.1323 42.2173 17.1844 42.0232 17.2821C41.8291 17.3798 41.6599 17.5205 41.5283 17.6935C41.2718 18.02 41.1335 18.4237 41.1358 18.8389V26.5904C41.1338 27.0054 41.2721 27.4088 41.5283 27.7352C41.6601 27.9079 41.8294 28.0484 42.0235 28.1461C42.2175 28.2437 42.4312 28.296 42.6485 28.299H54.2157C54.4329 28.296 54.6466 28.2437 54.8407 28.1461C55.0347 28.0484 55.2041 27.9079 55.3358 27.7352C55.5918 27.4086 55.7301 27.0053 55.7283 26.5904V18.8389C55.7302 18.4238 55.5919 18.0202 55.3358 17.6935C55.2043 17.5205 55.035 17.3798 54.8409 17.2821C54.6468 17.1844 54.433 17.1323 54.2157 17.1297H42.6485ZM54.2157 18.5816H42.6485C42.6341 18.5816 42.6635 18.5863 42.6567 18.5952C42.6078 18.6668 42.5838 18.7524 42.5884 18.8389V26.5904C42.584 26.6767 42.608 26.7621 42.6567 26.8334C42.6635 26.8423 42.6341 26.8471 42.6485 26.8471H54.2157C54.2293 26.8471 54.2 26.8423 54.2068 26.8334C54.2558 26.7622 54.2798 26.6768 54.2751 26.5904V18.8389C54.28 18.7524 54.2559 18.6666 54.2068 18.5952C54.2 18.5863 54.2293 18.5816 54.2157 18.5816Z" fill="#FF980E"/>
<path d="M56.8926 7.78304L56.9999 8L57.1071 7.78304C57.9077 6.16264 59.1998 4.86217 60.7449 4.12228L61 4.00016L60.7449 3.87804C59.1995 3.13816 57.908 1.83801 57.1071 0.216962L57.0001 0L56.8929 0.216962C56.0923 1.83768 54.8005 3.13816 53.2551 3.87804L53 4.00016L53.2551 4.12228C54.8002 4.86249 56.092 6.16264 56.8926 7.78304Z" fill="#FF980E"/>
<path d="M7.89265 61.783L7.99985 62L8.10706 61.783C8.90768 60.1626 10.1998 58.8622 11.7449 58.1223L12 58.0002L11.7449 57.878C10.1995 57.1382 8.90798 55.838 8.10706 54.217L8.00015 54L7.89294 54.217C7.09232 55.8377 5.80051 57.1382 4.25509 57.878L4 58.0002L4.25509 58.1223C5.80022 58.8625 7.09202 60.1626 7.89265 61.783Z" fill="#FF980E"/>
<path d="M61.9463 9.89152L61.9999 10L62.0535 9.89152C62.4538 9.08132 63.0999 8.43108 63.8725 8.06114L64 8.00008L63.8725 7.93902C63.0997 7.56908 62.454 6.919 62.0535 6.10848L62.0001 6L61.9465 6.10848C61.5462 6.91884 60.9003 7.56908 60.1275 7.93902L60 8.00008L60.1275 8.06114C60.9001 8.43125 61.546 9.08132 61.9463 9.89152Z" fill="#FF980E"/>
</svg>
